<svg width="71" height="16" viewBox="0 0 71 16" fill="none" xmlns="http://www.w3.org/2000/svg">
<path d="M69.414 13.727C69.0637 13.727 68.763 13.6016 68.512 13.3506C68.2611 13.0997 68.1356 12.799 68.1356 12.4486C68.1356 12.0982 68.2611 11.7976 68.512 11.5466C68.763 11.2957 69.0637 11.1702 69.414 11.1702C69.7644 11.1702 70.0651 11.2957 70.316 11.5466C70.567 11.7976 70.6924 12.0982 70.6924 12.4486C70.6924 12.6806 70.6333 12.8937 70.5149 13.0878C70.4012 13.282 70.2474 13.4382 70.0532 13.5566C69.8638 13.6702 69.6508 13.727 69.414 13.727ZM69.414 6.36907C69.0637 6.36907 68.763 6.2436 68.512 5.99265C68.2611 5.74171 68.1356 5.44104 68.1356 5.09066C68.1356 4.74029 68.2611 4.43962 68.512 4.18868C68.763 3.93773 69.0637 3.81226 69.414 3.81226C69.7644 3.81226 70.0651 3.93773 70.316 4.18868C70.567 4.43962 70.6924 4.74029 70.6924 5.09066C70.6924 5.32267 70.6333 5.53574 70.5149 5.72987C70.4012 5.924 70.2474 6.08025 70.0532 6.19862C69.8638 6.31226 69.6508 6.36907 69.414 6.36907Z" fill="#828282"/>
<path d="M55.1261 15.5878V4.67876H56.7454V6.32648H56.8591C57.0579 5.78671 57.4178 5.34874 57.9386 5.01256C58.4594 4.67639 59.0466 4.5083 59.7 4.5083C59.8231 4.5083 59.977 4.51067 60.1616 4.5154C60.3463 4.52014 60.4859 4.52724 60.5806 4.53671V6.24126C60.5238 6.22705 60.3936 6.20574 60.19 6.17733C59.9912 6.14419 59.7805 6.12762 59.5579 6.12762C59.0276 6.12762 58.5541 6.23889 58.1375 6.46143C57.7255 6.67923 57.3988 6.98226 57.1573 7.37052C56.9206 7.75404 56.8022 8.19201 56.8022 8.68444V15.5878H55.1261Z" fill="#828282"/>
<path d="M50.38 11.1276V4.67871H52.0561V15.5878H50.38V13.7412H50.2664C50.0107 14.2952 49.613 14.7663 49.0732 15.1546C48.5334 15.5381 47.8516 15.7298 47.0277 15.7298C46.3459 15.7298 45.7399 15.5807 45.2095 15.2824C44.6792 14.9794 44.2626 14.5248 43.9595 13.9188C43.6565 13.308 43.505 12.5386 43.505 11.6105V4.67871H45.1811V11.4969C45.1811 12.2923 45.4037 12.9268 45.8488 13.4003C46.2986 13.8738 46.8715 14.1105 47.5675 14.1105C47.9842 14.1105 48.4079 14.004 48.8388 13.7909C49.2744 13.5779 49.639 13.2512 49.9326 12.8108C50.2309 12.3705 50.38 11.8094 50.38 11.1276Z" fill="#828282"/>
<path d="M36.0032 15.815C35.0183 15.815 34.1542 15.5807 33.4109 15.1119C32.6722 14.6432 32.0946 13.9874 31.6779 13.1446C31.266 12.3018 31.06 11.3169 31.06 10.19C31.06 9.05367 31.266 8.06172 31.6779 7.21418C32.0946 6.36664 32.6722 5.7085 33.4109 5.23975C34.1542 4.771 35.0183 4.53662 36.0032 4.53662C36.988 4.53662 37.8498 4.771 38.5884 5.23975C39.3318 5.7085 39.9094 6.36664 40.3214 7.21418C40.738 8.06172 40.9464 9.05367 40.9464 10.19C40.9464 11.3169 40.738 12.3018 40.3214 13.1446C39.9094 13.9874 39.3318 14.6432 38.5884 15.1119C37.8498 15.5807 36.988 15.815 36.0032 15.815ZM36.0032 14.3093C36.7513 14.3093 37.3668 14.1176 37.8498 13.7341C38.3327 13.3505 38.6902 12.8463 38.9222 12.2213C39.1542 11.5963 39.2702 10.9192 39.2702 10.19C39.2702 9.46086 39.1542 8.78141 38.9222 8.15168C38.6902 7.52194 38.3327 7.01295 37.8498 6.62469C37.3668 6.23643 36.7513 6.0423 36.0032 6.0423C35.2551 6.0423 34.6395 6.23643 34.1566 6.62469C33.6736 7.01295 33.3162 7.52194 33.0841 8.15168C32.8521 8.78141 32.7361 9.46086 32.7361 10.19C32.7361 10.9192 32.8521 11.5963 33.0841 12.2213C33.3162 12.8463 33.6736 13.3505 34.1566 13.7341C34.6395 14.1176 35.2551 14.3093 36.0032 14.3093Z" fill="#828282"/>
<path d="M28.5015 1.04248V15.5879H26.8253V1.04248H28.5015Z" fill="#828282"/>
<path d="M19.3235 15.815C18.3386 15.815 17.4745 15.5807 16.7312 15.1119C15.9925 14.6432 15.4149 13.9874 14.9982 13.1446C14.5863 12.3018 14.3803 11.3169 14.3803 10.19C14.3803 9.05367 14.5863 8.06172 14.9982 7.21418C15.4149 6.36664 15.9925 5.7085 16.7312 5.23975C17.4745 4.771 18.3386 4.53662 19.3235 4.53662C20.3083 4.53662 21.1701 4.771 21.9087 5.23975C22.6521 5.7085 23.2297 6.36664 23.6417 7.21418C24.0583 8.06172 24.2667 9.05367 24.2667 10.19C24.2667 11.3169 24.0583 12.3018 23.6417 13.1446C23.2297 13.9874 22.6521 14.6432 21.9087 15.1119C21.1701 15.5807 20.3083 15.815 19.3235 15.815ZM19.3235 14.3093C20.0716 14.3093 20.6871 14.1176 21.1701 13.7341C21.653 13.3505 22.0105 12.8463 22.2425 12.2213C22.4745 11.5963 22.5905 10.9192 22.5905 10.19C22.5905 9.46086 22.4745 8.78141 22.2425 8.15168C22.0105 7.52194 21.653 7.01295 21.1701 6.62469C20.6871 6.23643 20.0716 6.0423 19.3235 6.0423C18.5754 6.0423 17.9599 6.23643 17.4769 6.62469C16.9939 7.01295 16.6365 7.52194 16.4045 8.15168C16.1725 8.78141 16.0564 9.46086 16.0564 10.19C16.0564 10.9192 16.1725 11.5963 16.4045 12.2213C16.6365 12.8463 16.9939 13.3505 17.4769 13.7341C17.9599 14.1176 18.5754 14.3093 19.3235 14.3093Z" fill="#828282"/>
<path d="M12.2727 5.58782H10.5114C10.4072 5.0812 10.2249 4.63612 9.96449 4.2526C9.70881 3.86907 9.39631 3.54711 9.02699 3.28669C8.66241 3.02154 8.25758 2.82267 7.8125 2.6901C7.36742 2.55752 6.90341 2.49123 6.42045 2.49123C5.53977 2.49123 4.74195 2.71377 4.02699 3.15885C3.31676 3.60392 2.75095 4.2597 2.32955 5.12618C1.91288 5.99265 1.70455 7.05563 1.70455 8.3151C1.70455 9.57457 1.91288 10.6375 2.32955 11.504C2.75095 12.3705 3.31676 13.0263 4.02699 13.4713C4.74195 13.9164 5.53977 14.139 6.42045 14.139C6.90341 14.139 7.36742 14.0727 7.8125 13.9401C8.25758 13.8075 8.66241 13.611 9.02699 13.3506C9.39631 13.0855 9.70881 12.7611 9.96449 12.3776C10.2249 11.9893 10.4072 11.5443 10.5114 11.0424H12.2727C12.1402 11.7857 11.8987 12.451 11.5483 13.0381C11.1979 13.6252 10.7623 14.1248 10.2415 14.5367C9.72064 14.9439 9.13589 15.254 8.48722 15.4671C7.84328 15.6802 7.15436 15.7867 6.42045 15.7867C5.17992 15.7867 4.0767 15.4837 3.1108 14.8776C2.14489 14.2715 1.38494 13.4098 0.830966 12.2924C0.276989 11.1749 0 9.84919 0 8.3151C0 6.78101 0.276989 5.45525 0.830966 4.33782C1.38494 3.2204 2.14489 2.35866 3.1108 1.7526C4.0767 1.14654 5.17992 0.843506 6.42045 0.843506C7.15436 0.843506 7.84328 0.950041 8.48722 1.16311C9.13589 1.37618 9.72064 1.68868 10.2415 2.10061C10.7623 2.50781 11.1979 3.00496 11.5483 3.59209C11.8987 4.17447 12.1402 4.83972 12.2727 5.58782Z" fill="#828282"/>
</svg>
