<svg width="101" height="13" viewBox="0 0 101 13" fill="none" xmlns="http://www.w3.org/2000/svg">
<path d="M100.661 6.05389L99.1207 6.32662C99.0563 6.12965 98.9541 5.94215 98.8139 5.76412C98.6776 5.58608 98.492 5.44025 98.2571 5.32662C98.0223 5.21298 97.7287 5.15616 97.3764 5.15616C96.8954 5.15616 96.4938 5.26412 96.1719 5.48002C95.8499 5.69215 95.6889 5.96677 95.6889 6.30389C95.6889 6.59556 95.7969 6.8304 96.0128 7.00843C96.2287 7.18646 96.5772 7.3323 97.0582 7.44593L98.4446 7.76412C99.2476 7.94972 99.8461 8.23571 100.24 8.62207C100.634 9.00843 100.831 9.51033 100.831 10.1278C100.831 10.6505 100.679 11.1164 100.376 11.5255C100.077 11.9308 99.6586 12.249 99.1207 12.48C98.5866 12.7111 97.9673 12.8266 97.2628 12.8266C96.2855 12.8266 95.4882 12.6183 94.8707 12.2016C94.2533 11.7812 93.8745 11.1846 93.7344 10.4118L95.3764 10.1618C95.4787 10.5899 95.6889 10.9137 96.0071 11.1334C96.3253 11.3493 96.7401 11.4573 97.2514 11.4573C97.8082 11.4573 98.2533 11.3418 98.5866 11.1107C98.92 10.8759 99.0866 10.5899 99.0866 10.2528C99.0866 9.98002 98.9844 9.75086 98.7798 9.56525C98.5791 9.37965 98.2704 9.23949 97.8537 9.1448L96.3764 8.82093C95.562 8.63533 94.9598 8.33987 94.5696 7.93457C94.1832 7.52927 93.9901 7.01601 93.9901 6.3948C93.9901 5.87965 94.134 5.42889 94.4219 5.04252C94.7098 4.65616 95.1075 4.35502 95.6151 4.13912C96.1226 3.91942 96.7041 3.80957 97.3594 3.80957C98.3026 3.80957 99.045 4.01412 99.5866 4.42321C100.128 4.82851 100.486 5.37207 100.661 6.05389Z" fill="black"/>
<path d="M92.3822 3.92318V5.28682H87.6151V3.92318H92.3822ZM88.8935 1.83228H90.5924V10.088C90.5924 10.4175 90.6416 10.6656 90.7401 10.8323C90.8386 10.9952 90.9655 11.1069 91.1208 11.1675C91.2799 11.2243 91.4522 11.2527 91.6378 11.2527C91.7742 11.2527 91.8935 11.2433 91.9958 11.2243C92.0981 11.2054 92.1776 11.1902 92.2344 11.1789L92.5413 12.5823C92.4428 12.6202 92.3026 12.658 92.1208 12.6959C91.939 12.7376 91.7117 12.7603 91.439 12.7641C90.992 12.7717 90.5753 12.6921 90.189 12.5255C89.8026 12.3588 89.4901 12.1012 89.2515 11.7527C89.0128 11.4042 88.8935 10.9667 88.8935 10.4402V1.83228Z" fill="black"/>
<path d="M80.4446 7.46866V12.6505H78.7457V3.92321H80.3764V5.34366H80.4844C80.6851 4.88154 80.9995 4.51033 81.4275 4.23002C81.8594 3.94972 82.4029 3.80957 83.0582 3.80957C83.6529 3.80957 84.1738 3.93457 84.6207 4.18457C85.0677 4.43078 85.4143 4.79821 85.6605 5.28684C85.9067 5.77548 86.0298 6.37965 86.0298 7.09934V12.6505H84.331V7.30389C84.331 6.67131 84.1662 6.17699 83.8366 5.82093C83.5071 5.46108 83.0544 5.28116 82.4787 5.28116C82.0847 5.28116 81.7344 5.36639 81.4275 5.53684C81.1245 5.7073 80.884 5.9573 80.706 6.28684C80.5317 6.6126 80.4446 7.00654 80.4446 7.46866Z" fill="black"/>
<path d="M73.1165 12.8266C72.2567 12.8266 71.5162 12.6429 70.895 12.2755C70.2775 11.9043 69.8003 11.3834 69.4631 10.713C69.1298 10.0387 68.9631 9.24896 68.9631 8.34366C68.9631 7.44972 69.1298 6.66184 69.4631 5.98002C69.8003 5.29821 70.27 4.76601 70.8722 4.38343C71.4783 4.00086 72.1866 3.80957 72.9972 3.80957C73.4896 3.80957 73.9669 3.89101 74.429 4.05389C74.8912 4.21677 75.3059 4.47245 75.6734 4.82093C76.0408 5.16942 76.3306 5.62207 76.5427 6.17889C76.7548 6.73192 76.8609 7.40427 76.8609 8.19593V8.79821H69.9234V7.52548H75.1961C75.1961 7.07851 75.1052 6.68268 74.9234 6.33798C74.7415 5.98949 74.4859 5.71487 74.1563 5.51412C73.8306 5.31336 73.448 5.21298 73.0086 5.21298C72.5313 5.21298 72.1147 5.3304 71.7586 5.56525C71.4063 5.79631 71.1336 6.09934 70.9404 6.47434C70.751 6.84556 70.6563 7.24896 70.6563 7.68457V8.67889C70.6563 9.26222 70.7586 9.75843 70.9631 10.1675C71.1715 10.5766 71.4612 10.8891 71.8325 11.105C72.2037 11.3171 72.6374 11.4232 73.1336 11.4232C73.4556 11.4232 73.7491 11.3778 74.0143 11.2868C74.2794 11.1921 74.5086 11.052 74.7018 10.8664C74.895 10.6808 75.0427 10.4516 75.145 10.1789L76.7529 10.4687C76.6241 10.9421 76.3931 11.3569 76.0597 11.713C75.7302 12.0653 75.3154 12.3399 74.8154 12.5368C74.3192 12.73 73.7529 12.8266 73.1165 12.8266Z" fill="black"/>
<path d="M55.2145 12.6505V3.92321H56.8452V5.34366H56.9531C57.1349 4.8626 57.4323 4.4876 57.8452 4.21866C58.258 3.94593 58.7524 3.80957 59.3281 3.80957C59.9115 3.80957 60.4001 3.94593 60.794 4.21866C61.1918 4.49139 61.4853 4.86639 61.6747 5.34366H61.7656C61.974 4.87775 62.3054 4.50654 62.7599 4.23002C63.2145 3.94972 63.7561 3.80957 64.3849 3.80957C65.1766 3.80957 65.8224 4.05768 66.3224 4.55389C66.8262 5.0501 67.0781 5.79821 67.0781 6.79821V12.6505H65.3792V6.9573C65.3792 6.36639 65.2183 5.93836 64.8963 5.67321C64.5743 5.40805 64.1899 5.27548 63.7429 5.27548C63.1899 5.27548 62.7599 5.44593 62.4531 5.78684C62.1463 6.12396 61.9929 6.55768 61.9929 7.08798V12.6505H60.2997V6.84934C60.2997 6.37586 60.152 5.99518 59.8565 5.7073C59.5611 5.41942 59.1766 5.27548 58.7031 5.27548C58.3811 5.27548 58.0838 5.36071 57.8111 5.53116C57.5421 5.69783 57.3243 5.93078 57.1577 6.23003C56.9948 6.52927 56.9133 6.87586 56.9133 7.2698V12.6505H55.2145Z" fill="black"/>
<path d="M41.0739 12.6505V3.92321H42.7045V5.34366H42.8125C42.9943 4.8626 43.2917 4.4876 43.7045 4.21866C44.1174 3.94593 44.6117 3.80957 45.1875 3.80957C45.7708 3.80957 46.2595 3.94593 46.6534 4.21866C47.0511 4.49139 47.3447 4.86639 47.5341 5.34366H47.625C47.8333 4.87775 48.1648 4.50654 48.6193 4.23002C49.0739 3.94972 49.6155 3.80957 50.2443 3.80957C51.036 3.80957 51.6818 4.05768 52.1818 4.55389C52.6856 5.0501 52.9375 5.79821 52.9375 6.79821V12.6505H51.2386V6.9573C51.2386 6.36639 51.0776 5.93836 50.7557 5.67321C50.4337 5.40805 50.0492 5.27548 49.6023 5.27548C49.0492 5.27548 48.6193 5.44593 48.3125 5.78684C48.0057 6.12396 47.8523 6.55768 47.8523 7.08798V12.6505H46.1591V6.84934C46.1591 6.37586 46.0114 5.99518 45.7159 5.7073C45.4204 5.41942 45.036 5.27548 44.5625 5.27548C44.2405 5.27548 43.9432 5.36071 43.6704 5.53116C43.4015 5.69783 43.1837 5.93078 43.017 6.23003C42.8542 6.52927 42.7727 6.87586 42.7727 7.2698V12.6505H41.0739Z" fill="black"/>
<path d="M35.1094 12.8266C34.2913 12.8266 33.5772 12.6391 32.9674 12.2641C32.3575 11.8891 31.8841 11.3645 31.5469 10.6903C31.2098 10.016 31.0413 9.22813 31.0413 8.32662C31.0413 7.42131 31.2098 6.62965 31.5469 5.95162C31.8841 5.27359 32.3575 4.74707 32.9674 4.37207C33.5772 3.99707 34.2913 3.80957 35.1094 3.80957C35.9276 3.80957 36.6416 3.99707 37.2515 4.37207C37.8613 4.74707 38.3348 5.27359 38.6719 5.95162C39.0091 6.62965 39.1776 7.42131 39.1776 8.32662C39.1776 9.22813 39.0091 10.016 38.6719 10.6903C38.3348 11.3645 37.8613 11.8891 37.2515 12.2641C36.6416 12.6391 35.9276 12.8266 35.1094 12.8266ZM35.1151 11.4005C35.6454 11.4005 36.0848 11.2603 36.4333 10.98C36.7818 10.6997 37.0394 10.3266 37.206 9.86071C37.3765 9.3948 37.4617 8.88154 37.4617 8.32093C37.4617 7.76412 37.3765 7.25275 37.206 6.78684C37.0394 6.31715 36.7818 5.94025 36.4333 5.65616C36.0848 5.37207 35.6454 5.23002 35.1151 5.23002C34.581 5.23002 34.1379 5.37207 33.7856 5.65616C33.4371 5.94025 33.1776 6.31715 33.0072 6.78684C32.8405 7.25275 32.7572 7.76412 32.7572 8.32093C32.7572 8.88154 32.8405 9.3948 33.0072 9.86071C33.1776 10.3266 33.4371 10.6997 33.7856 10.98C34.1379 11.2603 34.581 11.4005 35.1151 11.4005Z" fill="black"/>
<path d="M26.0313 12.8266C25.1866 12.8266 24.4593 12.6353 23.8495 12.2528C23.2434 11.8664 22.7775 11.3342 22.4518 10.6562C22.126 9.97813 21.9631 9.20162 21.9631 8.32662C21.9631 7.44025 22.1298 6.65805 22.4631 5.98002C22.7965 5.29821 23.2662 4.76601 23.8722 4.38343C24.4783 4.00086 25.1923 3.80957 26.0143 3.80957C26.6771 3.80957 27.2681 3.93268 27.787 4.17889C28.3059 4.42131 28.7245 4.76222 29.0427 5.20162C29.3647 5.64101 29.5559 6.15427 29.6165 6.74139H27.9631C27.8722 6.3323 27.6639 5.98002 27.3381 5.68457C27.0162 5.38911 26.5843 5.24139 26.0427 5.24139C25.5692 5.24139 25.1544 5.36639 24.7984 5.61639C24.4461 5.8626 24.1715 6.21487 23.9745 6.67321C23.7775 7.12775 23.679 7.66563 23.679 8.28684C23.679 8.92321 23.7756 9.47245 23.9688 9.93457C24.162 10.3967 24.4347 10.7546 24.787 11.0084C25.1431 11.2622 25.5616 11.3891 26.0427 11.3891C26.3647 11.3891 26.6563 11.3304 26.9177 11.213C27.1828 11.0918 27.4044 10.9194 27.5825 10.6959C27.7643 10.4724 27.8912 10.2035 27.9631 9.88912H29.6165C29.5559 10.4535 29.3722 10.9573 29.0654 11.4005C28.7586 11.8437 28.3476 12.1921 27.8325 12.4459C27.3211 12.6997 26.7207 12.8266 26.0313 12.8266Z" fill="black"/>
<path d="M11.9205 12.8095C11.1061 12.8095 10.3864 12.6694 9.76138 12.3891C9.14017 12.1088 8.65342 11.7224 8.30115 11.23C7.94888 10.7376 7.77464 10.177 7.77842 9.54816C7.77464 9.05574 7.87501 8.60309 8.07956 8.19021C8.28789 7.77354 8.57009 7.42695 8.92615 7.15044C9.28221 6.87013 9.67994 6.6921 10.1193 6.61634V6.54816C9.53979 6.40801 9.07577 6.0974 8.72729 5.61634C8.3788 5.13528 8.20645 4.58225 8.21024 3.95725C8.20645 3.36256 8.36365 2.83225 8.68183 2.36634C9.0038 1.89665 9.44509 1.52733 10.0057 1.25839C10.5663 0.98945 11.2046 0.85498 11.9205 0.85498C12.6288 0.85498 13.2614 0.991344 13.8182 1.26407C14.3788 1.53301 14.8201 1.90233 15.1421 2.37203C15.464 2.83794 15.6269 3.36634 15.6307 3.95725C15.6269 4.58225 15.4489 5.13528 15.0966 5.61634C14.7443 6.0974 14.286 6.40801 13.7216 6.54816V6.61634C14.1572 6.6921 14.5493 6.87013 14.8977 7.15044C15.25 7.42695 15.5303 7.77354 15.7387 8.19021C15.9508 8.60309 16.0587 9.05574 16.0625 9.54816C16.0587 10.177 15.8807 10.7376 15.5284 11.23C15.1762 11.7224 14.6875 12.1088 14.0625 12.3891C13.4413 12.6694 12.7273 12.8095 11.9205 12.8095ZM11.9205 11.372C12.4015 11.372 12.8182 11.2925 13.1705 11.1334C13.5227 10.9705 13.7955 10.7451 13.9887 10.4573C14.1818 10.1656 14.2803 9.82468 14.2841 9.43453C14.2803 9.02922 14.1743 8.67127 13.9659 8.36066C13.7614 8.05006 13.483 7.80574 13.1307 7.62771C12.7784 7.44968 12.375 7.36066 11.9205 7.36066C11.4621 7.36066 11.0549 7.44968 10.6989 7.62771C10.3428 7.80574 10.0625 8.05006 9.85797 8.36066C9.65342 8.67127 9.55304 9.02922 9.55683 9.43453C9.55304 9.82468 9.64585 10.1656 9.83524 10.4573C10.0284 10.7451 10.303 10.9705 10.6591 11.1334C11.0152 11.2925 11.4356 11.372 11.9205 11.372ZM11.9205 5.95725C12.3068 5.95725 12.6496 5.8796 12.9489 5.7243C13.2481 5.569 13.483 5.35309 13.6534 5.07657C13.8277 4.80006 13.9167 4.47619 13.9205 4.10498C13.9167 3.74134 13.8296 3.42316 13.6591 3.15044C13.4924 2.87771 13.2595 2.66748 12.9602 2.51975C12.661 2.36824 12.3144 2.29248 11.9205 2.29248C11.519 2.29248 11.1667 2.36824 10.8637 2.51975C10.5644 2.66748 10.3315 2.87771 10.1648 3.15044C9.99812 3.42316 9.91668 3.74134 9.92047 4.10498C9.91668 4.47619 10 4.80006 10.1705 5.07657C10.3409 5.35309 10.5758 5.569 10.875 5.7243C11.178 5.8796 11.5265 5.95725 11.9205 5.95725Z" fill="black"/>
<path d="M4.84093 1.01416V12.6505H3.07957V2.77552H3.01139L0.227295 4.59371V2.91189L3.1307 1.01416H4.84093Z" fill="black"/>
</svg>
