<svg width="69" height="16" viewBox="0 0 69 16" fill="none" xmlns="http://www.w3.org/2000/svg">
<path d="M64.7869 12.25C63.9991 12.25 63.3078 12.0625 62.7131 11.6875C62.1222 11.3125 61.6601 10.7879 61.3267 10.1137C60.9972 9.43942 60.8324 8.65154 60.8324 7.75002C60.8324 6.84093 60.9972 6.04737 61.3267 5.36934C61.6601 4.69131 62.1222 4.16479 62.7131 3.78979C63.3078 3.41479 63.9991 3.22729 64.7869 3.22729C65.5748 3.22729 66.2642 3.41479 66.8551 3.78979C67.4498 4.16479 67.9119 4.69131 68.2415 5.36934C68.5748 6.04737 68.7415 6.84093 68.7415 7.75002C68.7415 8.65154 68.5748 9.43942 68.2415 10.1137C67.9119 10.7879 67.4498 11.3125 66.8551 11.6875C66.2642 12.0625 65.5748 12.25 64.7869 12.25ZM64.7869 11.0455C65.3854 11.0455 65.8779 10.8921 66.2642 10.5852C66.6506 10.2784 66.9366 9.87502 67.1222 9.37502C67.3078 8.87502 67.4006 8.33336 67.4006 7.75002C67.4006 7.16669 67.3078 6.62313 67.1222 6.11934C66.9366 5.61555 66.6506 5.20836 66.2642 4.89775C65.8779 4.58714 65.3854 4.43184 64.7869 4.43184C64.1885 4.43184 63.696 4.58714 63.3097 4.89775C62.9233 5.20836 62.6373 5.61555 62.4517 6.11934C62.2661 6.62313 62.1733 7.16669 62.1733 7.75002C62.1733 8.33336 62.2661 8.87502 62.4517 9.37502C62.6373 9.87502 62.9233 10.2784 63.3097 10.5852C63.696 10.8921 64.1885 11.0455 64.7869 11.0455Z" fill="#828282"/>
<path d="M55.0142 15.5227C54.3665 15.5227 53.8097 15.4394 53.3438 15.2727C52.8779 15.1099 52.4896 14.894 52.179 14.625C51.8722 14.3599 51.6279 14.0758 51.446 13.7727L52.5142 13.0227C52.6354 13.1818 52.7888 13.3637 52.9744 13.5682C53.1601 13.7765 53.4138 13.9565 53.7358 14.108C54.0616 14.2633 54.4877 14.3409 55.0142 14.3409C55.7188 14.3409 56.3002 14.1705 56.7585 13.8296C57.2169 13.4887 57.446 12.9546 57.446 12.2273V10.4546H57.3324C57.2339 10.6137 57.0938 10.8106 56.9119 11.0455C56.7339 11.2765 56.4763 11.483 56.1392 11.6648C55.8059 11.8428 55.3551 11.9318 54.7869 11.9318C54.0824 11.9318 53.4498 11.7652 52.8892 11.4318C52.3324 11.0985 51.8911 10.6137 51.5654 9.97729C51.2434 9.34093 51.0824 8.5682 51.0824 7.65911C51.0824 6.76517 51.2396 5.98676 51.554 5.32389C51.8684 4.65722 52.3059 4.14207 52.8665 3.77843C53.4271 3.41101 54.0748 3.22729 54.8097 3.22729C55.3779 3.22729 55.8286 3.32199 56.1619 3.51139C56.4991 3.69699 56.7566 3.90911 56.9347 4.14775C57.1165 4.3826 57.2566 4.57578 57.3551 4.72729H57.4915V3.34093H58.7869V12.3182C58.7869 13.0682 58.6165 13.6781 58.2756 14.1477C57.9385 14.6212 57.4839 14.9678 56.9119 15.1875C56.3438 15.411 55.7112 15.5227 55.0142 15.5227ZM54.9688 10.7273C55.5066 10.7273 55.9612 10.6042 56.3324 10.358C56.7036 10.1118 56.9858 9.7576 57.179 9.29548C57.3722 8.83336 57.4688 8.28033 57.4688 7.63639C57.4688 7.0076 57.3741 6.45267 57.1847 5.97161C56.9953 5.49055 56.715 5.11366 56.3438 4.84093C55.9725 4.5682 55.5142 4.43184 54.9688 4.43184C54.4006 4.43184 53.9271 4.57578 53.5483 4.86366C53.1733 5.15154 52.8911 5.5379 52.7017 6.02275C52.5161 6.5076 52.4233 7.04548 52.4233 7.63639C52.4233 8.24245 52.518 8.77843 52.7074 9.24434C52.9006 9.70646 53.1847 10.0701 53.5597 10.3352C53.9385 10.5966 54.4082 10.7273 54.9688 10.7273Z" fill="#828282"/>
<path d="M45.044 12.2727C44.491 12.2727 43.9891 12.1686 43.5384 11.9602C43.0876 11.7481 42.7297 11.4432 42.4645 11.0455C42.1993 10.644 42.0668 10.1591 42.0668 9.59093C42.0668 9.09093 42.1653 8.68563 42.3622 8.37502C42.5592 8.06063 42.8225 7.81442 43.152 7.63639C43.4815 7.45836 43.8452 7.32578 44.2429 7.23866C44.6444 7.14775 45.0478 7.07578 45.4531 7.02275C45.9834 6.95457 46.4134 6.90343 46.7429 6.86934C47.0762 6.83146 47.3187 6.76896 47.4702 6.68184C47.6255 6.59472 47.7031 6.4432 47.7031 6.22729V6.18184C47.7031 5.62123 47.5497 5.18563 47.2429 4.87502C46.9399 4.56442 46.4797 4.40911 45.8622 4.40911C45.2221 4.40911 44.7202 4.54926 44.3565 4.82957C43.9929 5.10987 43.7372 5.40911 43.5895 5.72729L42.3168 5.27275C42.544 4.74245 42.8471 4.32957 43.2259 4.03411C43.6084 3.73487 44.0251 3.52654 44.4759 3.40911C44.9304 3.2879 45.3774 3.22729 45.8168 3.22729C46.0971 3.22729 46.419 3.26139 46.7827 3.32957C47.1501 3.39396 47.5043 3.52843 47.8452 3.73298C48.1899 3.93752 48.4759 4.24623 48.7031 4.65911C48.9304 5.07199 49.044 5.62502 49.044 6.3182V12.0682H47.7031V10.8864H47.635C47.544 11.0758 47.3925 11.2784 47.1804 11.4943C46.9683 11.7102 46.6861 11.894 46.3338 12.0455C45.9815 12.197 45.5516 12.2727 45.044 12.2727ZM45.2486 11.0682C45.7789 11.0682 46.2259 10.964 46.5895 10.7557C46.9569 10.5474 47.2334 10.2784 47.419 9.94889C47.6084 9.61934 47.7031 9.27275 47.7031 8.90911V7.68184C47.6463 7.75002 47.5213 7.81252 47.3281 7.86934C47.1387 7.92237 46.919 7.96972 46.669 8.01139C46.4228 8.04926 46.1823 8.08335 45.9475 8.11366C45.7164 8.14017 45.5289 8.1629 45.385 8.18184C45.0365 8.22729 44.7107 8.30116 44.4077 8.40343C44.1084 8.50192 43.866 8.65154 43.6804 8.85229C43.4986 9.04926 43.4077 9.3182 43.4077 9.65911C43.4077 10.125 43.58 10.4773 43.9247 10.7159C44.2732 10.9508 44.7145 11.0682 45.2486 11.0682Z" fill="#828282"/>
<path d="M35.7983 5.29548L34.5937 5.63639C34.518 5.43563 34.4062 5.24055 34.2585 5.05116C34.1146 4.85798 33.9176 4.69889 33.6676 4.57389C33.4176 4.44889 33.0975 4.38639 32.7074 4.38639C32.1733 4.38639 31.7282 4.50949 31.3721 4.7557C31.0199 4.99813 30.8437 5.30684 30.8437 5.68184C30.8437 6.01517 30.965 6.27843 31.2074 6.47161C31.4498 6.66479 31.8286 6.82578 32.3437 6.95457L33.6392 7.27275C34.4195 7.46214 35.0009 7.75192 35.3835 8.14207C35.7661 8.52843 35.9574 9.02654 35.9574 9.63639C35.9574 10.1364 35.8134 10.5834 35.5256 10.9773C35.2415 11.3712 34.8437 11.6818 34.3324 11.9091C33.821 12.1364 33.2263 12.25 32.5483 12.25C31.6581 12.25 30.9214 12.0568 30.3381 11.6705C29.7547 11.2841 29.3854 10.7197 29.2301 9.97729L30.5028 9.65911C30.624 10.1288 30.8532 10.4811 31.1903 10.7159C31.5312 10.9508 31.9763 11.0682 32.5256 11.0682C33.1506 11.0682 33.6468 10.9356 34.0142 10.6705C34.3854 10.4015 34.571 10.0796 34.571 9.70457C34.571 9.40154 34.465 9.14775 34.2528 8.9432C34.0407 8.73487 33.715 8.57957 33.2756 8.47729L31.821 8.13639C31.0218 7.94699 30.4346 7.65343 30.0596 7.2557C29.6884 6.85419 29.5028 6.35229 29.5028 5.75002C29.5028 5.2576 29.6411 4.82199 29.9176 4.4432C30.1979 4.06442 30.5786 3.76707 31.0596 3.55116C31.5445 3.33525 32.0937 3.22729 32.7074 3.22729C33.571 3.22729 34.249 3.41669 34.7415 3.79548C35.2377 4.17426 35.59 4.67426 35.7983 5.29548Z" fill="#828282"/>
<path d="M23.6633 12.0682V3.34095H24.9588V4.65914H25.0497C25.2088 4.22732 25.4967 3.87694 25.9133 3.608C26.33 3.33906 26.7997 3.20459 27.3224 3.20459C27.4209 3.20459 27.544 3.20648 27.6917 3.21027C27.8395 3.21406 27.9512 3.21974 28.027 3.22732V4.59095C27.9815 4.57959 27.8773 4.56254 27.7145 4.53982C27.5554 4.5133 27.3868 4.50004 27.2088 4.50004C26.7845 4.50004 26.4058 4.58906 26.0724 4.76709C25.7429 4.94133 25.4815 5.18376 25.2883 5.49436C25.0989 5.80118 25.0042 6.15156 25.0042 6.5455V12.0682H23.6633Z" fill="#828282"/>
<path d="M15.5511 6.81825V12.0682H14.2102V0.431885H15.5511V4.70461H15.6648C15.8693 4.25385 16.1761 3.8959 16.5852 3.63075C16.9981 3.36181 17.5473 3.22734 18.2329 3.22734C18.8276 3.22734 19.3485 3.34666 19.7954 3.58529C20.2424 3.82014 20.589 4.18188 20.8352 4.67052C21.0852 5.15537 21.2102 5.77279 21.2102 6.52279V12.0682H19.8693V6.6137C19.8693 5.92052 19.6894 5.38454 19.3295 5.00575C18.9735 4.62317 18.4791 4.43188 17.8466 4.43188C17.4072 4.43188 17.0132 4.52469 16.6648 4.71029C16.3201 4.8959 16.0473 5.16673 15.8466 5.52279C15.6496 5.87885 15.5511 6.31067 15.5511 6.81825Z" fill="#828282"/>
<path d="M0 12.0682V11.0454L3.84091 6.84089C4.29167 6.34846 4.66288 5.92043 4.95455 5.5568C5.24621 5.18937 5.46212 4.84468 5.60227 4.52271C5.74621 4.19695 5.81818 3.85604 5.81818 3.49998C5.81818 3.09089 5.7197 2.73672 5.52273 2.43748C5.32955 2.13824 5.06439 1.90717 4.72727 1.7443C4.39015 1.58142 4.01136 1.49998 3.59091 1.49998C3.14394 1.49998 2.75379 1.59278 2.42045 1.77839C2.09091 1.96021 1.83523 2.21589 1.65341 2.54543C1.47538 2.87498 1.38636 3.26134 1.38636 3.70452H0.0454545C0.0454545 3.02271 0.202652 2.42422 0.517045 1.90907C0.831439 1.39392 1.25947 0.992402 1.80114 0.704523C2.34659 0.416644 2.95833 0.272705 3.63636 0.272705C4.31818 0.272705 4.92235 0.416644 5.44886 0.704523C5.97538 0.992402 6.38826 1.38066 6.6875 1.8693C6.98674 2.35793 7.13636 2.90149 7.13636 3.49998C7.13636 3.92801 7.05871 4.34657 6.90341 4.75566C6.75189 5.16096 6.48674 5.61361 6.10795 6.11361C5.73295 6.60983 5.21212 7.21589 4.54545 7.9318L1.93182 10.7273V10.8182H7.34091V12.0682H0Z" fill="#828282"/>
</svg>
