<svg width="48" height="13" viewBox="0 0 48 13" fill="none" xmlns="http://www.w3.org/2000/svg">
<path d="M47.0568 6.20745L45.517 6.48018C45.4526 6.28321 45.3503 6.09571 45.2102 5.91768C45.0738 5.73965 44.8882 5.59382 44.6533 5.48018C44.4185 5.36654 44.1249 5.30973 43.7727 5.30973C43.2916 5.30973 42.8901 5.41768 42.5681 5.63359C42.2461 5.84571 42.0852 6.12033 42.0852 6.45745C42.0852 6.74912 42.1931 6.98397 42.409 7.162C42.6249 7.34003 42.9734 7.48586 43.4545 7.5995L44.8408 7.91768C45.6439 8.10329 46.2424 8.38927 46.6363 8.77563C47.0302 9.162 47.2272 9.66389 47.2272 10.2813C47.2272 10.804 47.0757 11.27 46.7727 11.679C46.4734 12.0843 46.0549 12.4025 45.517 12.6336C44.9829 12.8647 44.3636 12.9802 43.659 12.9802C42.6818 12.9802 41.8844 12.7718 41.267 12.3552C40.6496 11.9347 40.2708 11.3381 40.1306 10.5654L41.7727 10.3154C41.8749 10.7434 42.0852 11.0673 42.4033 11.287C42.7215 11.5029 43.1363 11.6109 43.6477 11.6109C44.2045 11.6109 44.6496 11.4953 44.9829 11.2643C45.3162 11.0294 45.4829 10.7434 45.4829 10.4063C45.4829 10.1336 45.3806 9.90442 45.1761 9.71882C44.9753 9.53321 44.6666 9.39306 44.2499 9.29836L42.7727 8.9745C41.9583 8.78889 41.356 8.49344 40.9658 8.08813C40.5795 7.68283 40.3863 7.16957 40.3863 6.54836C40.3863 6.03321 40.5302 5.58245 40.8181 5.19609C41.106 4.80973 41.5037 4.50859 42.0113 4.29268C42.5189 4.07298 43.1003 3.96313 43.7556 3.96313C44.6988 3.96313 45.4412 4.16768 45.9829 4.57677C46.5246 4.98207 46.8825 5.52563 47.0568 6.20745Z" fill="black"/>
<path d="M34.8878 12.9802C34.0279 12.9802 33.2874 12.7965 32.6662 12.429C32.0488 12.0578 31.5715 11.537 31.2344 10.8665C30.901 10.1923 30.7344 9.40253 30.7344 8.49723C30.7344 7.60329 30.901 6.81541 31.2344 6.13359C31.5715 5.45177 32.0412 4.91957 32.6435 4.537C33.2495 4.15442 33.9579 3.96313 34.7685 3.96313C35.2609 3.96313 35.7382 4.04457 36.2003 4.20745C36.6624 4.37033 37.0772 4.62601 37.4446 4.9745C37.812 5.32298 38.1018 5.77563 38.3139 6.33245C38.526 6.88548 38.6321 7.55783 38.6321 8.3495V8.95177H31.6946V7.67904H36.9673C36.9673 7.23207 36.8764 6.83624 36.6946 6.49154C36.5128 6.14306 36.2571 5.86844 35.9276 5.66768C35.6018 5.46692 35.2192 5.36654 34.7798 5.36654C34.3026 5.36654 33.8859 5.48397 33.5298 5.71882C33.1776 5.94988 32.9048 6.25291 32.7116 6.62791C32.5223 6.99912 32.4276 7.40253 32.4276 7.83813V8.83245C32.4276 9.41579 32.5298 9.912 32.7344 10.3211C32.9427 10.7302 33.2325 11.0427 33.6037 11.2586C33.9749 11.4707 34.4086 11.5768 34.9048 11.5768C35.2268 11.5768 35.5204 11.5313 35.7855 11.4404C36.0507 11.3457 36.2798 11.2056 36.473 11.02C36.6662 10.8343 36.8139 10.6052 36.9162 10.3325L38.5241 10.6222C38.3954 11.0957 38.1643 11.5105 37.831 11.8665C37.5014 12.2188 37.0866 12.4934 36.5866 12.6904C36.0904 12.8836 35.5241 12.9802 34.8878 12.9802Z" fill="black"/>
<path d="M24.1421 9.84362L24.1307 7.76975H24.4262L27.9035 4.07657H29.9375L25.9716 8.28112H25.7046L24.1421 9.84362ZM22.5796 12.8038V1.16748H24.2785V12.8038H22.5796ZM28.091 12.8038L24.966 8.65612L26.1364 7.46862L30.1762 12.8038H28.091Z" fill="black"/>
<path d="M18.5952 12.8039V4.07666H20.294V12.8039H18.5952ZM19.4531 2.73007C19.1577 2.73007 18.9039 2.63158 18.6918 2.43461C18.4834 2.23386 18.3793 1.99522 18.3793 1.71871C18.3793 1.4384 18.4834 1.19977 18.6918 1.0028C18.9039 0.802039 19.1577 0.70166 19.4531 0.70166C19.7486 0.70166 20.0005 0.802039 20.2088 1.0028C20.4209 1.19977 20.527 1.4384 20.527 1.71871C20.527 1.99522 20.4209 2.23386 20.2088 2.43461C20.0005 2.63158 19.7486 2.73007 19.4531 2.73007Z" fill="black"/>
<path d="M16.3097 1.16748V12.8038H14.6108V1.16748H16.3097Z" fill="black"/>
<path d="M4.24432 12.9631C3.72538 12.9555 3.21402 12.8608 2.71023 12.679C2.21023 12.4972 1.75568 12.1941 1.34659 11.7699C0.9375 11.3457 0.609849 10.7756 0.363636 10.0597C0.121212 9.34377 0 8.44983 0 7.37786C0 6.36271 0.100379 5.4612 0.301136 4.67332C0.505682 3.88544 0.799242 3.22067 1.18182 2.679C1.56439 2.13355 2.02652 1.71877 2.56818 1.43468C3.10985 1.15059 3.7178 1.00854 4.39205 1.00854C5.08523 1.00854 5.70076 1.14491 6.23864 1.41764C6.77652 1.69036 7.21212 2.06726 7.54545 2.54832C7.88258 3.02938 8.09659 3.57673 8.1875 4.19036H6.45455C6.33712 3.70551 6.10417 3.30968 5.75568 3.00286C5.4072 2.69604 4.95265 2.54264 4.39205 2.54264C3.53977 2.54264 2.875 2.91385 2.39773 3.65627C1.92424 4.3987 1.68561 5.43089 1.68182 6.75286H1.76705C1.9678 6.42332 2.21402 6.14301 2.50568 5.91195C2.80114 5.67711 3.13068 5.49718 3.49432 5.37218C3.86174 5.24339 4.24811 5.179 4.65341 5.179C5.32765 5.179 5.9375 5.34377 6.48295 5.67332C7.0322 5.99908 7.4697 6.44983 7.79545 7.02559C8.12121 7.60135 8.28409 8.26044 8.28409 9.00286C8.28409 9.74529 8.11553 10.4176 7.77841 11.0199C7.44508 11.6222 6.97538 12.0995 6.36932 12.4517C5.76326 12.8002 5.05492 12.9707 4.24432 12.9631ZM4.23864 11.4858C4.68561 11.4858 5.08523 11.376 5.4375 11.1563C5.78977 10.9366 6.06818 10.6411 6.27273 10.2699C6.47727 9.8987 6.57955 9.48392 6.57955 9.02559C6.57955 8.57862 6.47917 8.17142 6.27841 7.804C6.08144 7.43658 5.80871 7.14491 5.46023 6.929C5.11553 6.71309 4.72159 6.60514 4.27841 6.60514C3.94129 6.60514 3.62879 6.66953 3.34091 6.79832C3.05682 6.92711 2.80682 7.10514 2.59091 7.33241C2.375 7.55968 2.20455 7.82105 2.07955 8.1165C1.95833 8.40817 1.89773 8.71688 1.89773 9.04264C1.89773 9.47824 1.99811 9.88165 2.19886 10.2529C2.40341 10.6241 2.68182 10.9233 3.03409 11.1506C3.39015 11.3741 3.79167 11.4858 4.23864 11.4858Z" fill="black"/>
</svg>
