<svg width="85" height="12" viewBox="0 0 85 12" fill="none" xmlns="http://www.w3.org/2000/svg">
<path d="M84.7827 2.90902V4.27266H80.0156V2.90902H84.7827ZM81.294 0.818115H82.9929V9.0738C82.9929 9.40334 83.0421 9.65145 83.1406 9.81812C83.2391 9.98099 83.366 10.0927 83.5213 10.1533C83.6804 10.2102 83.8527 10.2386 84.0384 10.2386C84.1747 10.2386 84.294 10.2291 84.3963 10.2102C84.4986 10.1912 84.5781 10.1761 84.6349 10.1647L84.9418 11.5681C84.8433 11.606 84.7031 11.6439 84.5213 11.6818C84.3395 11.7234 84.1122 11.7461 83.8395 11.7499C83.3925 11.7575 82.9759 11.678 82.5895 11.5113C82.2031 11.3446 81.8906 11.0871 81.652 10.7386C81.4134 10.3901 81.294 9.95259 81.294 9.42607V0.818115Z" fill="white"/>
<path d="M74.0526 11.6363V2.909H75.6946V4.29537H75.7855C75.9446 3.82567 76.2249 3.45635 76.6264 3.18741C77.0317 2.91468 77.4901 2.77832 78.0014 2.77832C78.1075 2.77832 78.2325 2.78211 78.3764 2.78968C78.5241 2.79726 78.6397 2.80673 78.723 2.81809V4.44309C78.6548 4.42415 78.5336 4.40332 78.3594 4.38059C78.1851 4.35408 78.0109 4.34082 77.8366 4.34082C77.4351 4.34082 77.0772 4.42605 76.7628 4.5965C76.4522 4.76317 76.206 4.99612 76.0241 5.29537C75.8423 5.59082 75.7514 5.92794 75.7514 6.30673V11.6363H74.0526Z" fill="white"/>
<path d="M67.4829 11.8295C66.9299 11.8295 66.4299 11.7272 65.9829 11.5227C65.5359 11.3144 65.1818 11.0132 64.9204 10.6193C64.6628 10.2253 64.5341 9.74238 64.5341 9.17041C64.5341 8.67799 64.6288 8.27268 64.8181 7.9545C65.0075 7.63632 65.2632 7.38443 65.5852 7.19882C65.9072 7.01321 66.267 6.87306 66.6647 6.77837C67.0625 6.68367 67.4678 6.6117 67.8806 6.56246C68.4034 6.50185 68.8276 6.45261 69.1534 6.41473C69.4791 6.37306 69.7159 6.30677 69.8636 6.21587C70.0113 6.12496 70.0852 5.97723 70.0852 5.77268V5.73291C70.0852 5.2367 69.945 4.85223 69.6647 4.5795C69.3882 4.30677 68.9753 4.17041 68.4261 4.17041C67.8541 4.17041 67.4034 4.2973 67.0738 4.55109C66.7481 4.80109 66.5227 5.0795 66.3977 5.38632L64.8011 5.02268C64.9905 4.49238 65.267 4.06435 65.6306 3.73859C65.9981 3.40905 66.4204 3.17041 66.8977 3.02268C67.375 2.87117 67.8769 2.79541 68.4034 2.79541C68.7519 2.79541 69.1212 2.83708 69.5113 2.92041C69.9053 2.99996 70.2727 3.14768 70.6136 3.36359C70.9583 3.5795 71.2405 3.88821 71.4602 4.28973C71.6799 4.68746 71.7897 5.2045 71.7897 5.84087V11.6363H70.1306V10.4431H70.0625C69.9526 10.6628 69.7878 10.8787 69.5681 11.0909C69.3484 11.303 69.0663 11.4791 68.7216 11.6193C68.3769 11.7594 67.964 11.8295 67.4829 11.8295ZM67.8522 10.4659C68.3219 10.4659 68.7235 10.3731 69.0568 10.1875C69.3939 10.0018 69.6496 9.75943 69.8238 9.46018C70.0019 9.15715 70.0909 8.83329 70.0909 8.48859V7.36359C70.0303 7.4242 69.9128 7.48102 69.7386 7.53405C69.5681 7.58329 69.3731 7.62685 69.1534 7.66473C68.9337 7.69882 68.7197 7.73102 68.5113 7.76132C68.303 7.78783 68.1288 7.81056 67.9886 7.8295C67.6591 7.87117 67.3579 7.94124 67.0852 8.03973C66.8163 8.13821 66.6003 8.28026 66.4375 8.46586C66.2784 8.64768 66.1988 8.89011 66.1988 9.19314C66.1988 9.61359 66.3541 9.93177 66.6647 10.1477C66.9753 10.3598 67.3712 10.4659 67.8522 10.4659Z" fill="white"/>
<path d="M59.5412 11.8125C58.6965 11.8125 57.9692 11.6212 57.3594 11.2386C56.7533 10.8522 56.2874 10.32 55.9617 9.642C55.6359 8.96397 55.473 8.18746 55.473 7.31246C55.473 6.42609 55.6397 5.64389 55.973 4.96586C56.3064 4.28405 56.7761 3.75185 57.3821 3.36927C57.9882 2.9867 58.7022 2.79541 59.5242 2.79541C60.187 2.79541 60.7779 2.91852 61.2969 3.16473C61.8158 3.40715 62.2344 3.74806 62.5526 4.18746C62.8745 4.62685 63.0658 5.14011 63.1264 5.72723H61.473C61.3821 5.31814 61.1738 4.96586 60.848 4.67041C60.5261 4.37495 60.0942 4.22723 59.5526 4.22723C59.0791 4.22723 58.6643 4.35223 58.3083 4.60223C57.956 4.84844 57.6814 5.20071 57.4844 5.65905C57.2874 6.11359 57.1889 6.65147 57.1889 7.27268C57.1889 7.90905 57.2855 8.45829 57.4787 8.92041C57.6719 9.38253 57.9446 9.74049 58.2969 9.99427C58.6529 10.2481 59.0715 10.375 59.5526 10.375C59.8745 10.375 60.1662 10.3162 60.4276 10.1988C60.6927 10.0776 60.9143 9.90526 61.0923 9.68177C61.2742 9.45829 61.4011 9.18935 61.473 8.87496H63.1264C63.0658 9.43935 62.8821 9.94314 62.5753 10.3863C62.2685 10.8295 61.8575 11.178 61.3423 11.4318C60.831 11.6856 60.2306 11.8125 59.5412 11.8125Z" fill="white"/>
<path d="M45.6662 11.8125C44.848 11.8125 44.134 11.625 43.5242 11.25C42.9143 10.875 42.4408 10.3503 42.1037 9.67609C41.7666 9.00185 41.598 8.21397 41.598 7.31246C41.598 6.40715 41.7666 5.61549 42.1037 4.93746C42.4408 4.25942 42.9143 3.73291 43.5242 3.35791C44.134 2.98291 44.848 2.79541 45.6662 2.79541C46.4844 2.79541 47.1984 2.98291 47.8083 3.35791C48.4181 3.73291 48.8916 4.25942 49.2287 4.93746C49.5658 5.61549 49.7344 6.40715 49.7344 7.31246C49.7344 8.21397 49.5658 9.00185 49.2287 9.67609C48.8916 10.3503 48.4181 10.875 47.8083 11.25C47.1984 11.625 46.4844 11.8125 45.6662 11.8125ZM45.6719 10.3863C46.2022 10.3863 46.6416 10.2462 46.9901 9.96587C47.3386 9.68556 47.5961 9.31246 47.7628 8.84655C47.9332 8.38064 48.0185 7.86738 48.0185 7.30677C48.0185 6.74995 47.9332 6.23859 47.7628 5.77268C47.5961 5.30299 47.3386 4.92609 46.9901 4.642C46.6416 4.35791 46.2022 4.21586 45.6719 4.21586C45.1378 4.21586 44.6946 4.35791 44.3423 4.642C43.9939 4.92609 43.7344 5.30299 43.5639 5.77268C43.3973 6.23859 43.3139 6.74995 43.3139 7.30677C43.3139 7.86738 43.3973 8.38064 43.5639 8.84655C43.7344 9.31246 43.9939 9.68556 44.3423 9.96587C44.6946 10.2462 45.1378 10.3863 45.6719 10.3863Z" fill="white"/>
<path d="M40.2045 2.90902V4.27266H35.4375V2.90902H40.2045ZM36.7159 0.818115H38.4148V9.0738C38.4148 9.40334 38.464 9.65145 38.5625 9.81812C38.661 9.98099 38.7879 10.0927 38.9432 10.1533C39.1023 10.2102 39.2746 10.2386 39.4602 10.2386C39.5966 10.2386 39.7159 10.2291 39.8182 10.2102C39.9205 10.1912 40 10.1761 40.0568 10.1647L40.3636 11.5681C40.2652 11.606 40.125 11.6439 39.9432 11.6818C39.7614 11.7234 39.5341 11.7461 39.2614 11.7499C38.8144 11.7575 38.3977 11.678 38.0114 11.5113C37.625 11.3446 37.3125 11.0871 37.0739 10.7386C36.8352 10.3901 36.7159 9.95259 36.7159 9.42607V0.818115Z" fill="white"/>
<path d="M25.1477 11.8068C24.4432 11.8068 23.8144 11.6269 23.2614 11.267C22.7121 10.9034 22.2803 10.3864 21.9659 9.71591C21.6553 9.04167 21.5 8.23295 21.5 7.28977C21.5 6.34659 21.6572 5.53977 21.9716 4.86932C22.2898 4.19886 22.7254 3.68561 23.2784 3.32955C23.8314 2.97349 24.4583 2.79545 25.1591 2.79545C25.7008 2.79545 26.1364 2.88636 26.4659 3.06818C26.7992 3.24621 27.0568 3.45455 27.2386 3.69318C27.4242 3.93182 27.5682 4.14205 27.6705 4.32386H27.7727V0H29.4716V11.6364H27.8125V10.2784H27.6705C27.5682 10.464 27.4205 10.6761 27.2273 10.9148C27.0379 11.1534 26.7765 11.3617 26.4432 11.5398C26.1098 11.7178 25.678 11.8068 25.1477 11.8068ZM25.5227 10.358C26.0114 10.358 26.4242 10.2292 26.7614 9.97159C27.1023 9.71023 27.3598 9.34848 27.5341 8.88636C27.7121 8.42424 27.8011 7.88636 27.8011 7.27273C27.8011 6.66667 27.714 6.13636 27.5398 5.68182C27.3655 5.22727 27.1098 4.87311 26.7727 4.61932C26.4356 4.36553 26.0189 4.23864 25.5227 4.23864C25.0114 4.23864 24.5852 4.37121 24.2443 4.63636C23.9034 4.90152 23.6458 5.26326 23.4716 5.72159C23.3011 6.17992 23.2159 6.69697 23.2159 7.27273C23.2159 7.85606 23.303 8.38068 23.4773 8.84659C23.6515 9.3125 23.9091 9.68182 24.25 9.95455C24.5947 10.2235 25.0189 10.358 25.5227 10.358Z" fill="white"/>
<path d="M15.1321 11.8068C14.4276 11.8068 13.7988 11.6269 13.2457 11.267C12.6965 10.9034 12.2647 10.3864 11.9503 9.71591C11.6397 9.04167 11.4844 8.23295 11.4844 7.28977C11.4844 6.34659 11.6416 5.53977 11.956 4.86932C12.2741 4.19886 12.7098 3.68561 13.2628 3.32955C13.8158 2.97349 14.4427 2.79545 15.1435 2.79545C15.6851 2.79545 16.1207 2.88636 16.4503 3.06818C16.7836 3.24621 17.0412 3.45455 17.223 3.69318C17.4086 3.93182 17.5526 4.14205 17.6548 4.32386H17.7571V0H19.456V11.6364H17.7969V10.2784H17.6548C17.5526 10.464 17.4048 10.6761 17.2116 10.9148C17.0223 11.1534 16.7609 11.3617 16.4276 11.5398C16.0942 11.7178 15.6624 11.8068 15.1321 11.8068ZM15.5071 10.358C15.9957 10.358 16.4086 10.2292 16.7457 9.97159C17.0866 9.71023 17.3442 9.34848 17.5185 8.88636C17.6965 8.42424 17.7855 7.88636 17.7855 7.27273C17.7855 6.66667 17.6984 6.13636 17.5241 5.68182C17.3499 5.22727 17.0942 4.87311 16.7571 4.61932C16.42 4.36553 16.0033 4.23864 15.5071 4.23864C14.9957 4.23864 14.5696 4.37121 14.2287 4.63636C13.8878 4.90152 13.6302 5.26326 13.456 5.72159C13.2855 6.17992 13.2003 6.69697 13.2003 7.27273C13.2003 7.85606 13.2874 8.38068 13.4616 8.84659C13.6359 9.3125 13.8935 9.68182 14.2344 9.95455C14.5791 10.2235 15.0033 10.358 15.5071 10.358Z" fill="white"/>
<path d="M1.92186 11.6364H0.0582275L4.24573 0H6.27414L10.4616 11.6364H8.598L5.30823 2.11364H5.21732L1.92186 11.6364ZM2.23436 7.07955H8.27982V8.55682H2.23436V7.07955Z" fill="white"/>
</svg>
