<svg width="52" height="52" viewBox="0 0 52 52" fill="none" xmlns="http://www.w3.org/2000/svg">
<path d="M26.5 7.625C28.1576 7.625 29.7473 8.3164 30.9194 9.54711C32.0915 10.7778 32.75 12.447 32.75 14.1875V15.5H20.25V14.1875C20.25 12.447 20.9085 10.7778 22.0806 9.54711C23.2527 8.3164 24.8424 7.625 26.5 7.625ZM35.25 15.5V14.1875C35.25 11.7508 34.3281 9.41395 32.6872 7.69096C31.0462 5.96797 28.8206 5 26.5 5C24.1794 5 21.9538 5.96797 20.3128 7.69096C18.6719 9.41395 17.75 11.7508 17.75 14.1875V15.5H9V41.75C9 43.1424 9.52678 44.4777 10.4645 45.4623C11.4021 46.4469 12.6739 47 14 47H39C40.3261 47 41.5979 46.4469 42.5355 45.4623C43.4732 44.4777 44 43.1424 44 41.75V15.5H35.25ZM11.5 18.125H41.5V41.75C41.5 42.4462 41.2366 43.1139 40.7678 43.6062C40.2989 44.0984 39.663 44.375 39 44.375H14C13.337 44.375 12.7011 44.0984 12.2322 43.6062C11.7634 43.1139 11.5 42.4462 11.5 41.75V18.125Z" fill="white"/>
</svg>
