<svg width="356" height="80" viewBox="0 0 356 80" fill="none" xmlns="http://www.w3.org/2000/svg">
<path d="M239.487 75.8637C239.137 75.8637 238.836 75.7382 238.585 75.4873C238.334 75.2363 238.208 74.9357 238.208 74.5853C238.208 74.2349 238.334 73.9343 238.585 73.6833C238.836 73.4324 239.137 73.3069 239.487 73.3069C239.837 73.3069 240.138 73.4324 240.389 73.6833C240.64 73.9343 240.765 74.2349 240.765 74.5853C240.765 74.8173 240.706 75.0304 240.588 75.2245C240.474 75.4186 240.32 75.5749 240.126 75.6933C239.937 75.8069 239.724 75.8637 239.487 75.8637Z" fill="black"/>
<path d="M228.242 69.1874V75.7499H226.566V64.8408H228.185V66.5453H228.327C228.583 65.9913 228.971 65.5463 229.492 65.2101C230.013 64.8692 230.685 64.6987 231.509 64.6987C232.248 64.6987 232.894 64.8503 233.448 65.1533C234.002 65.4516 234.433 65.9061 234.741 66.5169C235.049 67.123 235.202 67.89 235.202 68.8181V75.7499H233.526V68.9317C233.526 68.0747 233.304 67.4071 232.859 66.9288C232.414 66.4459 231.803 66.2044 231.026 66.2044C230.491 66.2044 230.013 66.3204 229.592 66.5524C229.175 66.7844 228.846 67.123 228.604 67.5681C228.363 68.0131 228.242 68.5529 228.242 69.1874Z" fill="black"/>
<path d="M219.064 75.9771C218.079 75.9771 217.215 75.7428 216.472 75.274C215.733 74.8053 215.156 74.1495 214.739 73.3067C214.327 72.4639 214.121 71.479 214.121 70.3521C214.121 69.2158 214.327 68.2238 214.739 67.3763C215.156 66.5288 215.733 65.8706 216.472 65.4019C217.215 64.9331 218.079 64.6987 219.064 64.6987C220.049 64.6987 220.911 64.9331 221.65 65.4019C222.393 65.8706 222.971 66.5288 223.382 67.3763C223.799 68.2238 224.007 69.2158 224.007 70.3521C224.007 71.479 223.799 72.4639 223.382 73.3067C222.971 74.1495 222.393 74.8053 221.65 75.274C220.911 75.7428 220.049 75.9771 219.064 75.9771ZM219.064 74.4715C219.812 74.4715 220.428 74.2797 220.911 73.8962C221.394 73.5127 221.751 73.0084 221.983 72.3834C222.215 71.7584 222.331 71.0813 222.331 70.3521C222.331 69.623 222.215 68.9435 221.983 68.3138C221.751 67.6841 221.394 67.1751 220.911 66.7868C220.428 66.3985 219.812 66.2044 219.064 66.2044C218.316 66.2044 217.701 66.3985 217.218 66.7868C216.735 67.1751 216.377 67.6841 216.145 68.3138C215.913 68.9435 215.797 69.623 215.797 70.3521C215.797 71.0813 215.913 71.7584 216.145 72.3834C216.377 73.0084 216.735 73.5127 217.218 73.8962C217.701 74.2797 218.316 74.4715 219.064 74.4715Z" fill="black"/>
<path d="M209.886 75.75V64.8409H211.562V75.75H209.886ZM210.739 63.0227C210.412 63.0227 210.13 62.9115 209.893 62.6889C209.661 62.4664 209.545 62.1989 209.545 61.8864C209.545 61.5739 209.661 61.3063 209.893 61.0838C210.13 60.8613 210.412 60.75 210.739 60.75C211.065 60.75 211.345 60.8613 211.577 61.0838C211.813 61.3063 211.932 61.5739 211.932 61.8864C211.932 62.1989 211.813 62.4664 211.577 62.6889C211.345 62.9115 211.065 63.0227 210.739 63.0227Z" fill="black"/>
<path d="M207.365 64.8409V66.2614H201.712V64.8409H207.365ZM203.359 62.2273H205.036V72.625C205.036 73.0985 205.104 73.4536 205.242 73.6904C205.384 73.9224 205.563 74.0786 205.781 74.1591C206.004 74.2349 206.238 74.2728 206.484 74.2728C206.669 74.2728 206.821 74.2633 206.939 74.2443C207.057 74.2207 207.152 74.2017 207.223 74.1875L207.564 75.6932C207.45 75.7358 207.292 75.7784 207.088 75.821C206.884 75.8684 206.626 75.8921 206.314 75.8921C205.84 75.8921 205.376 75.7903 204.922 75.5867C204.472 75.3831 204.098 75.0729 203.8 74.6563C203.506 74.2396 203.359 73.714 203.359 73.0796V62.2273Z" fill="black"/>
<path d="M199.899 67.284L198.393 67.7101C198.298 67.4592 198.159 67.2153 197.974 66.9786C197.794 66.7371 197.548 66.5382 197.235 66.382C196.923 66.2257 196.523 66.1476 196.035 66.1476C195.368 66.1476 194.811 66.3015 194.366 66.6092C193.926 66.9123 193.706 67.2982 193.706 67.7669C193.706 68.1836 193.857 68.5127 194.16 68.7541C194.463 68.9956 194.937 69.1968 195.581 69.3578L197.2 69.7556C198.175 69.9923 198.902 70.3545 199.38 70.8422C199.859 71.3252 200.098 71.9478 200.098 72.7101C200.098 73.3351 199.918 73.8938 199.558 74.3862C199.203 74.8787 198.706 75.2669 198.066 75.551C197.427 75.8351 196.684 75.9771 195.836 75.9771C194.724 75.9771 193.803 75.7357 193.074 75.2527C192.344 74.7698 191.883 74.0643 191.689 73.1362L193.28 72.7385C193.431 73.3256 193.717 73.766 194.139 74.0595C194.565 74.3531 195.121 74.4999 195.808 74.4999C196.589 74.4999 197.209 74.3341 197.669 74.0027C198.133 73.6665 198.365 73.2641 198.365 72.7953C198.365 72.4165 198.232 72.0993 197.967 71.8436C197.702 71.5832 197.295 71.3891 196.745 71.2612L194.927 70.8351C193.928 70.5984 193.194 70.2314 192.726 69.7342C192.262 69.2324 192.03 68.605 192.03 67.8521C192.03 67.2366 192.202 66.6921 192.548 66.2186C192.898 65.7451 193.374 65.3734 193.976 65.1036C194.582 64.8337 195.268 64.6987 196.035 64.6987C197.115 64.6987 197.962 64.9355 198.578 65.409C199.198 65.8824 199.638 66.5074 199.899 67.284Z" fill="black"/>
<path d="M185.105 75.9771C184.054 75.9771 183.147 75.7451 182.385 75.2811C181.627 74.8124 181.042 74.159 180.63 73.3209C180.223 72.4781 180.02 71.498 180.02 70.3806C180.02 69.2631 180.223 68.2783 180.63 67.426C181.042 66.569 181.615 65.9014 182.349 65.4232C183.088 64.9402 183.949 64.6987 184.934 64.6987C185.502 64.6987 186.064 64.7934 186.618 64.9828C187.172 65.1722 187.676 65.48 188.13 65.9061C188.585 66.3275 188.947 66.8862 189.217 67.5823C189.487 68.2783 189.622 69.1353 189.622 70.1533V70.8635H181.213V69.4146H187.917C187.917 68.7991 187.794 68.2499 187.548 67.7669C187.306 67.284 186.961 66.9028 186.511 66.6235C186.066 66.3441 185.54 66.2044 184.934 66.2044C184.267 66.2044 183.689 66.3701 183.201 66.7016C182.718 67.0283 182.347 67.4544 182.086 67.98C181.826 68.5055 181.696 69.069 181.696 69.6703V70.6362C181.696 71.4601 181.838 72.1585 182.122 72.7314C182.411 73.2996 182.811 73.7328 183.322 74.0311C183.833 74.3247 184.428 74.4715 185.105 74.4715C185.545 74.4715 185.943 74.4099 186.298 74.2868C186.658 74.159 186.968 73.9696 187.228 73.7186C187.489 73.4629 187.69 73.1457 187.832 72.7669L189.451 73.2215C189.281 73.7707 188.994 74.2537 188.592 74.6703C188.19 75.0823 187.692 75.4042 187.101 75.6362C186.509 75.8635 185.843 75.9771 185.105 75.9771Z" fill="black"/>
<path d="M175.785 71.2897V64.8408H177.461V75.7499H175.785V73.9033H175.671C175.415 74.4573 175.018 74.9284 174.478 75.3167C173.938 75.7002 173.256 75.892 172.433 75.892C171.751 75.892 171.145 75.7428 170.614 75.4445C170.084 75.1415 169.667 74.6869 169.364 74.0809C169.061 73.4701 168.91 72.7007 168.91 71.7726V64.8408H170.586V71.659C170.586 72.4545 170.808 73.0889 171.254 73.5624C171.703 74.0359 172.276 74.2726 172.972 74.2726C173.389 74.2726 173.813 74.1661 174.244 73.953C174.679 73.74 175.044 73.4133 175.337 72.9729C175.636 72.5326 175.785 71.9715 175.785 71.2897Z" fill="black"/>
<path d="M164.165 79.8408V74.0737H164.023C163.9 74.2726 163.725 74.5235 163.498 74.8266C163.271 75.1249 162.946 75.3924 162.525 75.6291C162.103 75.8611 161.542 75.9771 160.842 75.9771C159.933 75.9771 159.13 75.7475 158.434 75.2882C157.738 74.8242 157.193 74.1708 156.8 73.328C156.407 72.4805 156.211 71.479 156.211 70.3237C156.211 69.1779 156.407 68.1836 156.8 67.3408C157.193 66.498 157.74 65.8469 158.441 65.3877C159.142 64.9284 159.951 64.6987 160.87 64.6987C161.58 64.6987 162.141 64.8171 162.553 65.0538C162.97 65.2859 163.287 65.551 163.505 65.8493C163.728 66.1429 163.9 66.3843 164.023 66.5737H164.222V64.8408H165.842V79.8408H164.165ZM161.069 74.4715C161.741 74.4715 162.309 74.2963 162.773 73.9459C163.237 73.5908 163.59 73.1007 163.832 72.4757C164.073 71.846 164.194 71.1192 164.194 70.2953C164.194 69.4809 164.076 68.7683 163.839 68.1575C163.602 67.542 163.252 67.0638 162.788 66.7229C162.324 66.3772 161.751 66.2044 161.069 66.2044C160.359 66.2044 159.767 66.3867 159.293 66.7513C158.825 67.1111 158.472 67.6012 158.235 68.2215C158.003 68.837 157.887 69.5283 157.887 70.2953C157.887 71.0718 158.005 71.7773 158.242 72.4118C158.484 73.0415 158.839 73.5434 159.308 73.9175C159.781 74.2868 160.368 74.4715 161.069 74.4715Z" fill="black"/>
<path d="M143.038 76.0056C142.347 76.0056 141.719 75.8753 141.156 75.6149C140.592 75.3498 140.145 74.9686 139.814 74.4715C139.482 73.9696 139.316 73.3635 139.316 72.6533C139.316 72.0283 139.44 71.5216 139.686 71.1334C139.932 70.7404 140.261 70.4326 140.673 70.2101C141.085 69.9876 141.539 69.8218 142.037 69.7129C142.538 69.5993 143.043 69.5093 143.549 69.4431C144.212 69.3578 144.75 69.2939 145.162 69.2513C145.578 69.2039 145.881 69.1258 146.071 69.0169C146.265 68.908 146.362 68.7186 146.362 68.4487V68.3919C146.362 67.6912 146.17 67.1466 145.787 66.7584C145.408 66.3701 144.833 66.176 144.061 66.176C143.261 66.176 142.633 66.3512 142.179 66.7016C141.724 67.052 141.404 67.426 141.22 67.8237L139.629 67.2556C139.913 66.5927 140.292 66.0766 140.765 65.7073C141.243 65.3332 141.764 65.0728 142.328 64.926C142.896 64.7745 143.455 64.6987 144.004 64.6987C144.354 64.6987 144.757 64.7413 145.211 64.8266C145.671 64.9071 146.113 65.0752 146.539 65.3308C146.97 65.5865 147.328 65.9724 147.612 66.4885C147.896 67.0046 148.038 67.6959 148.038 68.5624V75.7499H146.362V74.2726H146.277C146.163 74.5093 145.974 74.7627 145.708 75.0325C145.443 75.3024 145.091 75.5321 144.65 75.7215C144.21 75.9109 143.672 76.0056 143.038 76.0056ZM143.294 74.4999C143.957 74.4999 144.515 74.3697 144.97 74.1092C145.429 73.8488 145.775 73.5127 146.007 73.1007C146.244 72.6888 146.362 72.2556 146.362 71.801V70.2669C146.291 70.3521 146.135 70.4303 145.893 70.5013C145.656 70.5676 145.382 70.6268 145.069 70.6788C144.761 70.7262 144.461 70.7688 144.167 70.8067C143.878 70.8398 143.644 70.8682 143.464 70.8919C143.029 70.9487 142.621 71.0411 142.243 71.1689C141.869 71.292 141.565 71.479 141.333 71.73C141.106 71.9762 140.993 72.3124 140.993 72.7385C140.993 73.3209 141.208 73.7612 141.639 74.0595C142.074 74.3531 142.626 74.4999 143.294 74.4999Z" fill="black"/>
<path d="M131.481 67.284L129.975 67.7101C129.88 67.4592 129.741 67.2153 129.556 66.9786C129.376 66.7371 129.13 66.5382 128.817 66.382C128.505 66.2257 128.105 66.1476 127.617 66.1476C126.95 66.1476 126.393 66.3015 125.948 66.6092C125.508 66.9123 125.288 67.2982 125.288 67.7669C125.288 68.1836 125.439 68.5127 125.742 68.7541C126.045 68.9956 126.519 69.1968 127.163 69.3578L128.782 69.7556C129.757 69.9923 130.484 70.3545 130.962 70.8422C131.441 71.3252 131.68 71.9478 131.68 72.7101C131.68 73.3351 131.5 73.8938 131.14 74.3862C130.785 74.8787 130.288 75.2669 129.648 75.551C129.009 75.8351 128.266 75.9771 127.418 75.9771C126.306 75.9771 125.385 75.7357 124.656 75.2527C123.926 74.7698 123.465 74.0643 123.271 73.1362L124.862 72.7385C125.013 73.3256 125.3 73.766 125.721 74.0595C126.147 74.3531 126.703 74.4999 127.39 74.4999C128.171 74.4999 128.791 74.3341 129.251 74.0027C129.715 73.6665 129.947 73.2641 129.947 72.7953C129.947 72.4165 129.814 72.0993 129.549 71.8436C129.284 71.5832 128.877 71.3891 128.327 71.2612L126.509 70.8351C125.51 70.5984 124.776 70.2314 124.308 69.7342C123.844 69.2324 123.612 68.605 123.612 67.8521C123.612 67.2366 123.784 66.6921 124.13 66.2186C124.48 65.7451 124.956 65.3734 125.558 65.1036C126.164 64.8337 126.85 64.6987 127.617 64.6987C128.697 64.6987 129.544 64.9355 130.16 65.409C130.78 65.8824 131.22 66.5074 131.481 67.284Z" fill="black"/>
<path d="M123.082 61.2046V62.483C123.082 62.8713 123.011 63.2856 122.869 63.7259C122.732 64.1615 122.528 64.5853 122.259 64.9972C121.993 65.4044 121.671 65.7595 121.293 66.0625L120.384 65.3239C120.682 64.8978 120.94 64.4551 121.158 63.9958C121.38 63.5318 121.492 63.037 121.492 62.5114V61.2046H123.082Z" fill="black"/>
<path d="M118.517 64.8409V66.2614H112.864V64.8409H118.517ZM114.512 62.2273H116.188V72.625C116.188 73.0985 116.257 73.4536 116.394 73.6904C116.536 73.9224 116.716 74.0786 116.934 74.1591C117.156 74.2349 117.391 74.2728 117.637 74.2728C117.821 74.2728 117.973 74.2633 118.091 74.2443C118.21 74.2207 118.304 74.2017 118.375 74.1875L118.716 75.6932C118.603 75.7358 118.444 75.7784 118.24 75.821C118.037 75.8684 117.779 75.8921 117.466 75.8921C116.993 75.8921 116.529 75.7903 116.074 75.5867C115.624 75.3831 115.25 75.0729 114.952 74.6563C114.659 74.2396 114.512 73.714 114.512 73.0796V62.2273Z" fill="black"/>
<path d="M109.027 75.75V64.8409H110.703V75.75H109.027ZM109.879 63.0227C109.553 63.0227 109.271 62.9115 109.034 62.6889C108.802 62.4664 108.686 62.1989 108.686 61.8864C108.686 61.5739 108.802 61.3063 109.034 61.0838C109.271 60.8613 109.553 60.75 109.879 60.75C110.206 60.75 110.485 60.8613 110.717 61.0838C110.954 61.3063 111.072 61.5739 111.072 61.8864C111.072 62.1989 110.954 62.4664 110.717 62.6889C110.485 62.9115 110.206 63.0227 109.879 63.0227Z" fill="black"/>
<path d="M100.68 67.284L99.1744 67.7101C99.0797 67.4592 98.94 67.2153 98.7554 66.9786C98.5754 66.7371 98.3292 66.5382 98.0167 66.382C97.7042 66.2257 97.3041 66.1476 96.8164 66.1476C96.1488 66.1476 95.5925 66.3015 95.1474 66.6092C94.7071 66.9123 94.4869 67.2982 94.4869 67.7669C94.4869 68.1836 94.6384 68.5127 94.9414 68.7541C95.2445 68.9956 95.718 69.1968 96.3619 69.3578L97.9812 69.7556C98.9566 69.9923 99.6834 70.3545 100.162 70.8422C100.64 71.3252 100.879 71.9478 100.879 72.7101C100.879 73.3351 100.699 73.8938 100.339 74.3862C99.9841 74.8787 99.4869 75.2669 98.8477 75.551C98.2085 75.8351 97.4651 75.9771 96.6176 75.9771C95.5049 75.9771 94.584 75.7357 93.8548 75.2527C93.1256 74.7698 92.664 74.0643 92.4698 73.1362L94.0608 72.7385C94.2123 73.3256 94.4987 73.766 94.9201 74.0595C95.3463 74.3531 95.9026 74.4999 96.5892 74.4999C97.3704 74.4999 97.9907 74.3341 98.45 74.0027C98.914 73.6665 99.146 73.2641 99.146 72.7953C99.146 72.4165 99.0134 72.0993 98.7483 71.8436C98.4831 71.5832 98.0759 71.3891 97.5267 71.2612L95.7085 70.8351C94.7094 70.5984 93.9755 70.2314 93.5068 69.7342C93.0428 69.2324 92.8108 68.605 92.8108 67.8521C92.8108 67.2366 92.9836 66.6921 93.3292 66.2186C93.6796 65.7451 94.1554 65.3734 94.7568 65.1036C95.3628 64.8337 96.0494 64.6987 96.8164 64.6987C97.896 64.6987 98.7435 64.9355 99.359 65.409C99.9793 65.8824 100.42 66.5074 100.68 67.284Z" fill="black"/>
<path d="M85.886 75.9771C84.8349 75.9771 83.9282 75.7451 83.1658 75.2811C82.4083 74.8124 81.8235 74.159 81.4116 73.3209C81.0044 72.4781 80.8008 71.498 80.8008 70.3806C80.8008 69.2631 81.0044 68.2783 81.4116 67.426C81.8235 66.569 82.3964 65.9014 83.1303 65.4232C83.869 64.9402 84.7307 64.6987 85.7156 64.6987C86.2837 64.6987 86.8448 64.7934 87.3988 64.9828C87.9528 65.1722 88.457 65.48 88.9116 65.9061C89.3661 66.3275 89.7283 66.8862 89.9982 67.5823C90.2681 68.2783 90.4031 69.1353 90.4031 70.1533V70.8635H81.994V69.4146H88.6985C88.6985 68.7991 88.5754 68.2499 88.3292 67.7669C88.0877 67.284 87.7421 66.9028 87.2923 66.6235C86.8472 66.3441 86.3216 66.2044 85.7156 66.2044C85.0479 66.2044 84.4703 66.3701 83.9826 66.7016C83.4996 67.0283 83.128 67.4544 82.8675 67.98C82.6071 68.5055 82.4769 69.069 82.4769 69.6703V70.6362C82.4769 71.4601 82.619 72.1585 82.9031 72.7314C83.1919 73.2996 83.592 73.7328 84.1033 74.0311C84.6147 74.3247 85.2089 74.4715 85.886 74.4715C86.3264 74.4715 86.7241 74.4099 87.0792 74.2868C87.439 74.159 87.7492 73.9696 88.0096 73.7186C88.27 73.4629 88.4712 73.1457 88.6133 72.7669L90.2326 73.2215C90.0621 73.7707 89.7757 74.2537 89.3732 74.6703C88.9708 75.0823 88.4736 75.4042 87.8817 75.6362C87.2899 75.8635 86.6246 75.9771 85.886 75.9771Z" fill="black"/>
<path d="M63.9293 75.7499V64.8408H65.5486V66.5453H65.6907C65.918 65.9629 66.2849 65.5108 66.7915 65.1888C67.2982 64.8621 67.9066 64.6987 68.6168 64.6987C69.3365 64.6987 69.9355 64.8621 70.4137 65.1888C70.8967 65.5108 71.2731 65.9629 71.543 66.5453H71.6566C71.9359 65.9819 72.355 65.5344 72.9137 65.203C73.4724 64.8668 74.1424 64.6987 74.9236 64.6987C75.899 64.6987 76.6968 65.0041 77.3171 65.6149C77.9374 66.221 78.2475 67.1656 78.2475 68.4487V75.7499H76.5714V68.4487C76.5714 67.6438 76.3512 67.0685 75.9109 66.7229C75.4705 66.3772 74.9521 66.2044 74.3555 66.2044C73.5884 66.2044 72.9942 66.4364 72.5728 66.9004C72.1514 67.3597 71.9407 67.9421 71.9407 68.6476V75.7499H70.2361V68.2783C70.2361 67.658 70.0349 67.1585 69.6324 66.7797C69.23 66.3962 68.7115 66.2044 68.077 66.2044C67.6414 66.2044 67.2342 66.3204 66.8555 66.5524C66.4814 66.7844 66.1784 67.1064 65.9464 67.5183C65.7191 67.9255 65.6055 68.3966 65.6055 68.9317V75.7499H63.9293Z" fill="black"/>
<path d="M59.1832 75.75V64.8409H60.8593V75.75H59.1832ZM60.0355 63.0227C59.7088 63.0227 59.427 62.9115 59.1903 62.6889C58.9583 62.4664 58.8423 62.1989 58.8423 61.8864C58.8423 61.5739 58.9583 61.3063 59.1903 61.0838C59.427 60.8613 59.7088 60.75 60.0355 60.75C60.3622 60.75 60.6415 60.8613 60.8735 61.0838C61.1103 61.3063 61.2286 61.5739 61.2286 61.8864C61.2286 62.1989 61.1103 62.4664 60.8735 62.6889C60.6415 62.9115 60.3622 63.0227 60.0355 63.0227Z" fill="black"/>
<path d="M56.662 64.8409V66.2614H51.0085V64.8409H56.662ZM52.6563 62.2273H54.3324V72.625C54.3324 73.0985 54.4011 73.4536 54.5384 73.6904C54.6804 73.9224 54.8603 74.0786 55.0781 74.1591C55.3007 74.2349 55.5351 74.2728 55.7813 74.2728C55.9659 74.2728 56.1174 74.2633 56.2358 74.2443C56.3542 74.2207 56.4489 74.2017 56.5199 74.1875L56.8608 75.6932C56.7472 75.7358 56.5886 75.7784 56.385 75.821C56.1814 75.8684 55.9233 75.8921 55.6108 75.8921C55.1373 75.8921 54.6733 75.7903 54.2188 75.5867C53.769 75.3831 53.3949 75.0729 53.0966 74.6563C52.8031 74.2396 52.6563 73.714 52.6563 73.0796V62.2273Z" fill="black"/>
<path d="M44.8509 75.9771C43.7997 75.9771 42.893 75.7451 42.1307 75.2811C41.3731 74.8124 40.7884 74.159 40.3764 73.3209C39.9692 72.4781 39.7656 71.498 39.7656 70.3806C39.7656 69.2631 39.9692 68.2783 40.3764 67.426C40.7884 66.569 41.3613 65.9014 42.0952 65.4232C42.8338 64.9402 43.6955 64.6987 44.6804 64.6987C45.2486 64.6987 45.8097 64.7934 46.3636 64.9828C46.9176 65.1722 47.4219 65.48 47.8764 65.9061C48.331 66.3275 48.6932 66.8862 48.9631 67.5823C49.233 68.2783 49.3679 69.1353 49.3679 70.1533V70.8635H40.9588V69.4146H47.6634C47.6634 68.7991 47.5402 68.2499 47.294 67.7669C47.0526 67.284 46.7069 66.9028 46.2571 66.6235C45.812 66.3441 45.2865 66.2044 44.6804 66.2044C44.0128 66.2044 43.4351 66.3701 42.9474 66.7016C42.4645 67.0283 42.0928 67.4544 41.8324 67.98C41.572 68.5055 41.4418 69.069 41.4418 69.6703V70.6362C41.4418 71.4601 41.5838 72.1585 41.8679 72.7314C42.1567 73.2996 42.5568 73.7328 43.0682 74.0311C43.5795 74.3247 44.1738 74.4715 44.8509 74.4715C45.2912 74.4715 45.6889 74.4099 46.044 74.2868C46.4039 74.159 46.714 73.9696 46.9744 73.7186C47.2348 73.4629 47.4361 73.1457 47.5781 72.7669L49.1974 73.2215C49.027 73.7707 48.7405 74.2537 48.3381 74.6703C47.9356 75.0823 47.4384 75.4042 46.8466 75.6362C46.2547 75.8635 45.5895 75.9771 44.8509 75.9771Z" fill="black"/>
<path d="M22.8942 75.7499V64.8408H24.5135V66.5453H24.6555C24.8828 65.9629 25.2498 65.5108 25.7564 65.1888C26.263 64.8621 26.8714 64.6987 27.5817 64.6987C28.3014 64.6987 28.9003 64.8621 29.3785 65.1888C29.8615 65.5108 30.2379 65.9629 30.5078 66.5453H30.6214C30.9008 65.9819 31.3198 65.5344 31.8785 65.203C32.4373 64.8668 33.1072 64.6987 33.8885 64.6987C34.8639 64.6987 35.6617 65.0041 36.2819 65.6149C36.9022 66.221 37.2123 67.1656 37.2123 68.4487V75.7499H35.5362V68.4487C35.5362 67.6438 35.316 67.0685 34.8757 66.7229C34.4354 66.3772 33.9169 66.2044 33.3203 66.2044C32.5533 66.2044 31.959 66.4364 31.5376 66.9004C31.1162 67.3597 30.9055 67.9421 30.9055 68.6476V75.7499H29.201V68.2783C29.201 67.658 28.9998 67.1585 28.5973 66.7797C28.1948 66.3962 27.6764 66.2044 27.0419 66.2044C26.6063 66.2044 26.1991 66.3204 25.8203 66.5524C25.4462 66.7844 25.1432 67.1064 24.9112 67.5183C24.6839 67.9255 24.5703 68.3966 24.5703 68.9317V75.7499H22.8942Z" fill="black"/>
<path d="M15.3924 75.9771C14.4076 75.9771 13.5434 75.7428 12.8001 75.274C12.0614 74.8053 11.4838 74.1495 11.0671 73.3067C10.6552 72.4639 10.4492 71.479 10.4492 70.3521C10.4492 69.2158 10.6552 68.2238 11.0671 67.3763C11.4838 66.5288 12.0614 65.8706 12.8001 65.4019C13.5434 64.9331 14.4076 64.6987 15.3924 64.6987C16.3773 64.6987 17.239 64.9331 17.9776 65.4019C18.721 65.8706 19.2987 66.5288 19.7106 67.3763C20.1273 68.2238 20.3356 69.2158 20.3356 70.3521C20.3356 71.479 20.1273 72.4639 19.7106 73.3067C19.2987 74.1495 18.721 74.8053 17.9776 75.274C17.239 75.7428 16.3773 75.9771 15.3924 75.9771ZM15.3924 74.4715C16.1405 74.4715 16.756 74.2797 17.239 73.8962C17.7219 73.5127 18.0794 73.0084 18.3114 72.3834C18.5434 71.7584 18.6594 71.0813 18.6594 70.3521C18.6594 69.623 18.5434 68.9435 18.3114 68.3138C18.0794 67.6841 17.7219 67.1751 17.239 66.7868C16.756 66.3985 16.1405 66.2044 15.3924 66.2044C14.6443 66.2044 14.0288 66.3985 13.5458 66.7868C13.0629 67.1751 12.7054 67.6841 12.4734 68.3138C12.2414 68.9435 12.1254 69.623 12.1254 70.3521C12.1254 71.0813 12.2414 71.7584 12.4734 72.3834C12.7054 73.0084 13.0629 73.5127 13.5458 73.8962C14.0288 74.2797 14.6443 74.4715 15.3924 74.4715Z" fill="black"/>
<path d="M8.23867 67.284L6.73299 67.7101C6.63829 67.4592 6.49861 67.2153 6.31395 66.9786C6.13403 66.7371 5.88782 66.5382 5.57532 66.382C5.26282 66.2257 4.86272 66.1476 4.37503 66.1476C3.70742 66.1476 3.15107 66.3015 2.706 66.6092C2.26566 66.9123 2.04549 67.2982 2.04549 67.7669C2.04549 68.1836 2.197 68.5127 2.50003 68.7541C2.80306 68.9956 3.27655 69.1968 3.92049 69.3578L5.53981 69.7556C6.51518 69.9923 7.24198 70.3545 7.7202 70.8422C8.19842 71.3252 8.43753 71.9478 8.43753 72.7101C8.43753 73.3351 8.25761 73.8938 7.89776 74.3862C7.54265 74.8787 7.04549 75.2669 6.40628 75.551C5.76708 75.8351 5.02371 75.9771 4.17617 75.9771C3.06348 75.9771 2.14255 75.7357 1.41339 75.2527C0.684219 74.7698 0.222571 74.0643 0.0284424 73.1362L1.61935 72.7385C1.77087 73.3256 2.05732 73.766 2.47873 74.0595C2.90486 74.3531 3.46121 74.4999 4.14776 74.4999C4.92901 74.4999 5.54928 74.3341 6.00856 74.0027C6.47257 73.6665 6.70458 73.2641 6.70458 72.7953C6.70458 72.4165 6.572 72.0993 6.30685 71.8436C6.0417 71.5832 5.6345 71.3891 5.08526 71.2612L3.26708 70.8351C2.26803 70.5984 1.53412 70.2314 1.06537 69.7342C0.601359 69.2324 0.369352 68.605 0.369352 67.8521C0.369352 67.2366 0.542173 66.6921 0.887817 66.2186C1.2382 65.7451 1.71405 65.3734 2.31537 65.1036C2.92143 64.8337 3.60799 64.6987 4.37503 64.6987C5.45458 64.6987 6.30212 64.9355 6.91765 65.409C7.53791 65.8824 7.97825 66.5074 8.23867 67.284Z" fill="black"/>
<path d="M319.162 45.9773C318.253 45.9773 317.45 45.7477 316.754 45.2884C316.058 44.8244 315.514 44.171 315.121 43.3282C314.728 42.4806 314.531 41.4792 314.531 40.3239C314.531 39.1781 314.728 38.1838 315.121 37.341C315.514 36.4982 316.061 35.8471 316.761 35.3878C317.462 34.9285 318.272 34.6989 319.19 34.6989C319.901 34.6989 320.462 34.8173 320.874 35.054C321.29 35.286 321.607 35.5512 321.825 35.8495C322.048 36.143 322.221 36.3845 322.344 36.5739H322.486V31.2046H324.162V45.75H322.543V44.0739H322.344C322.221 44.2728 322.045 44.5237 321.818 44.8268C321.591 45.125 321.267 45.3926 320.845 45.6293C320.424 45.8613 319.863 45.9773 319.162 45.9773ZM319.389 44.4716C320.062 44.4716 320.63 44.2964 321.094 43.9461C321.558 43.591 321.911 43.1009 322.152 42.4759C322.393 41.8462 322.514 41.1194 322.514 40.2955C322.514 39.4811 322.396 38.7685 322.159 38.1577C321.922 37.5422 321.572 37.064 321.108 36.7231C320.644 36.3774 320.071 36.2046 319.389 36.2046C318.679 36.2046 318.087 36.3869 317.614 36.7515C317.145 37.1113 316.792 37.6014 316.555 38.2216C316.323 38.8372 316.207 39.5285 316.207 40.2955C316.207 41.072 316.326 41.7775 316.562 42.412C316.804 43.0417 317.159 43.5436 317.628 43.9177C318.101 44.287 318.688 44.4716 319.389 44.4716Z" fill="black"/>
<path d="M305.02 39.1874V45.7499H303.343V34.8408H304.963V36.5453H305.105C305.36 35.9913 305.749 35.5463 306.27 35.2101C306.79 34.8692 307.463 34.6987 308.287 34.6987C309.025 34.6987 309.672 34.8502 310.225 35.1533C310.779 35.4516 311.21 35.9061 311.518 36.5169C311.826 37.123 311.98 37.89 311.98 38.818V45.7499H310.304V38.9317C310.304 38.0747 310.081 37.4071 309.636 36.9288C309.191 36.4459 308.58 36.2044 307.804 36.2044C307.269 36.2044 306.79 36.3204 306.369 36.5524C305.952 36.7844 305.623 37.123 305.382 37.568C305.14 38.0131 305.02 38.5529 305.02 39.1874Z" fill="black"/>
<path d="M295.284 46.0055C294.593 46.0055 293.965 45.8753 293.402 45.6149C292.839 45.3498 292.391 44.9686 292.06 44.4715C291.728 43.9696 291.562 43.3635 291.562 42.6533C291.562 42.0283 291.686 41.5216 291.932 41.1334C292.178 40.7404 292.507 40.4326 292.919 40.2101C293.331 39.9876 293.785 39.8218 294.283 39.7129C294.785 39.5993 295.289 39.5093 295.795 39.443C296.458 39.3578 296.996 39.2939 297.408 39.2513C297.824 39.2039 298.127 39.1258 298.317 39.0169C298.511 38.908 298.608 38.7186 298.608 38.4487V38.3919C298.608 37.6912 298.416 37.1466 298.033 36.7584C297.654 36.3701 297.079 36.176 296.307 36.176C295.507 36.176 294.879 36.3512 294.425 36.7016C293.97 37.052 293.651 37.426 293.466 37.8237L291.875 37.2555C292.159 36.5927 292.538 36.0766 293.011 35.7073C293.49 35.3332 294.01 35.0728 294.574 34.926C295.142 34.7745 295.701 34.6987 296.25 34.6987C296.6 34.6987 297.003 34.7413 297.457 34.8266C297.917 34.9071 298.359 35.0751 298.785 35.3308C299.216 35.5865 299.574 35.9724 299.858 36.4885C300.142 37.0046 300.284 37.6959 300.284 38.5624V45.7499H298.608V44.2726H298.523C298.409 44.5093 298.22 44.7626 297.955 45.0325C297.689 45.3024 297.337 45.5321 296.896 45.7215C296.456 45.9109 295.919 46.0055 295.284 46.0055ZM295.54 44.4999C296.203 44.4999 296.761 44.3697 297.216 44.1092C297.675 43.8488 298.021 43.5127 298.253 43.1007C298.49 42.6888 298.608 42.2555 298.608 41.801V40.2669C298.537 40.3521 298.381 40.4303 298.139 40.5013C297.902 40.5676 297.628 40.6268 297.315 40.6788C297.008 40.7262 296.707 40.7688 296.413 40.8067C296.125 40.8398 295.89 40.8682 295.71 40.8919C295.275 40.9487 294.867 41.0411 294.489 41.1689C294.115 41.292 293.812 41.479 293.58 41.73C293.352 41.9762 293.239 42.3124 293.239 42.7385C293.239 43.3209 293.454 43.7612 293.885 44.0595C294.321 44.3531 294.872 44.4999 295.54 44.4999Z" fill="black"/>
<path d="M283.343 43.7612L283.23 44.5283C283.149 45.068 283.026 45.6457 282.86 46.2612C282.699 46.8768 282.531 47.4568 282.356 48.0013C282.181 48.5458 282.037 48.979 281.923 49.301H280.645C280.706 48.998 280.787 48.5979 280.886 48.1007C280.985 47.6036 281.085 47.0472 281.184 46.4317C281.288 45.8209 281.374 45.1959 281.44 44.5567L281.525 43.7612H283.343Z" fill="black"/>
<path d="M273.777 45.9771C272.725 45.9771 271.819 45.7451 271.056 45.2811C270.299 44.8124 269.714 44.159 269.302 43.3209C268.895 42.4781 268.691 41.498 268.691 40.3805C268.691 39.2631 268.895 38.2783 269.302 37.426C269.714 36.569 270.287 35.9014 271.021 35.4232C271.76 34.9402 272.621 34.6987 273.606 34.6987C274.174 34.6987 274.735 34.7934 275.289 34.9828C275.843 35.1722 276.348 35.48 276.802 35.9061C277.257 36.3275 277.619 36.8862 277.889 37.5823C278.159 38.2783 278.294 39.1353 278.294 40.1533V40.8635H269.885V39.4146H276.589C276.589 38.7991 276.466 38.2499 276.22 37.7669C275.978 37.284 275.633 36.9028 275.183 36.6234C274.738 36.3441 274.212 36.2044 273.606 36.2044C272.939 36.2044 272.361 36.3701 271.873 36.7016C271.39 37.0283 271.019 37.4544 270.758 37.98C270.498 38.5055 270.368 39.069 270.368 39.6703V40.6362C270.368 41.4601 270.51 42.1585 270.794 42.7314C271.082 43.2996 271.483 43.7328 271.994 44.0311C272.505 44.3247 273.1 44.4715 273.777 44.4715C274.217 44.4715 274.615 44.4099 274.97 44.2868C275.33 44.159 275.64 43.9696 275.9 43.7186C276.161 43.4629 276.362 43.1457 276.504 42.7669L278.123 43.2215C277.953 43.7707 277.666 44.2537 277.264 44.6703C276.861 45.0823 276.364 45.4042 275.772 45.6362C275.181 45.8635 274.515 45.9771 273.777 45.9771Z" fill="black"/>
<path d="M260.336 41.7728L260.307 39.6989H260.648L265.421 34.841H267.495L262.409 39.983H262.267L260.336 41.7728ZM258.773 45.75V31.2046H260.449V45.75H258.773ZM265.705 45.75L261.444 40.3523L262.637 39.1875L267.836 45.75H265.705Z" fill="black"/>
<path d="M250.714 46.0055C250.023 46.0055 249.395 45.8753 248.832 45.6149C248.268 45.3498 247.821 44.9686 247.489 44.4715C247.158 43.9696 246.992 43.3635 246.992 42.6533C246.992 42.0283 247.115 41.5216 247.362 41.1334C247.608 40.7404 247.937 40.4326 248.349 40.2101C248.761 39.9876 249.215 39.8218 249.712 39.7129C250.214 39.5993 250.719 39.5093 251.225 39.443C251.888 39.3578 252.425 39.2939 252.837 39.2513C253.254 39.2039 253.557 39.1258 253.746 39.0169C253.941 38.908 254.038 38.7186 254.038 38.4487V38.3919C254.038 37.6912 253.846 37.1466 253.462 36.7584C253.084 36.3701 252.508 36.176 251.737 36.176C250.936 36.176 250.309 36.3512 249.854 36.7016C249.4 37.052 249.08 37.426 248.896 37.8237L247.305 37.2555C247.589 36.5927 247.968 36.0766 248.441 35.7073C248.919 35.3332 249.44 35.0728 250.004 34.926C250.572 34.7745 251.13 34.6987 251.68 34.6987C252.03 34.6987 252.433 34.7413 252.887 34.8266C253.346 34.9071 253.789 35.0751 254.215 35.3308C254.646 35.5865 255.004 35.9724 255.288 36.4885C255.572 37.0046 255.714 37.6959 255.714 38.5624V45.7499H254.038V44.2726H253.952C253.839 44.5093 253.649 44.7626 253.384 45.0325C253.119 45.3024 252.766 45.5321 252.326 45.7215C251.886 45.9109 251.348 46.0055 250.714 46.0055ZM250.969 44.4999C251.632 44.4999 252.191 44.3697 252.646 44.1092C253.105 43.8488 253.451 43.5127 253.683 43.1007C253.919 42.6888 254.038 42.2555 254.038 41.801V40.2669C253.967 40.3521 253.81 40.4303 253.569 40.5013C253.332 40.5676 253.058 40.6268 252.745 40.6788C252.437 40.7262 252.137 40.7688 251.843 40.8067C251.554 40.8398 251.32 40.8682 251.14 40.8919C250.704 40.9487 250.297 41.0411 249.918 41.1689C249.544 41.292 249.241 41.479 249.009 41.73C248.782 41.9762 248.668 42.3124 248.668 42.7385C248.668 43.3209 248.884 43.7612 249.315 44.0595C249.75 44.3531 250.302 44.4999 250.969 44.4999Z" fill="black"/>
<path d="M244.982 34.8409V36.2614H239.329V34.8409H244.982ZM240.977 32.2273H242.653V42.625C242.653 43.0985 242.721 43.4536 242.859 43.6904C243.001 43.9224 243.181 44.0786 243.398 44.1591C243.621 44.2349 243.855 44.2728 244.102 44.2728C244.286 44.2728 244.438 44.2633 244.556 44.2443C244.675 44.2207 244.769 44.2017 244.84 44.1875L245.181 45.6932C245.068 45.7358 244.909 45.7784 244.705 45.821C244.502 45.8684 244.244 45.8921 243.931 45.8921C243.458 45.8921 242.994 45.7903 242.539 45.5867C242.089 45.3831 241.715 45.0729 241.417 44.6563C241.123 44.2396 240.977 43.714 240.977 43.0796V32.2273Z" fill="black"/>
<path d="M232.092 34.8409V36.2614H226.438V34.8409H232.092ZM228.086 32.2273H229.762V42.625C229.762 43.0985 229.831 43.4536 229.968 43.6904C230.11 43.9224 230.29 44.0786 230.508 44.1591C230.73 44.2349 230.965 44.2728 231.211 44.2728C231.396 44.2728 231.547 44.2633 231.666 44.2443C231.784 44.2207 231.879 44.2017 231.95 44.1875L232.291 45.6932C232.177 45.7358 232.018 45.7784 231.815 45.821C231.611 45.8684 231.353 45.8921 231.041 45.8921C230.567 45.8921 230.103 45.7903 229.648 45.5867C229.199 45.3831 228.825 45.0729 228.526 44.6563C228.233 44.2396 228.086 43.714 228.086 43.0796V32.2273Z" fill="black"/>
<path d="M219.846 45.9771C218.861 45.9771 217.997 45.7428 217.253 45.274C216.515 44.8053 215.937 44.1495 215.52 43.3067C215.108 42.4639 214.902 41.479 214.902 40.3521C214.902 39.2158 215.108 38.2238 215.52 37.3763C215.937 36.5287 216.515 35.8706 217.253 35.4019C217.997 34.9331 218.861 34.6987 219.846 34.6987C220.83 34.6987 221.692 34.9331 222.431 35.4019C223.174 35.8706 223.752 36.5287 224.164 37.3763C224.58 38.2238 224.789 39.2158 224.789 40.3521C224.789 41.479 224.58 42.4639 224.164 43.3067C223.752 44.1495 223.174 44.8053 222.431 45.274C221.692 45.7428 220.83 45.9771 219.846 45.9771ZM219.846 44.4715C220.594 44.4715 221.209 44.2797 221.692 43.8962C222.175 43.5126 222.533 43.0084 222.765 42.3834C222.997 41.7584 223.113 41.0813 223.113 40.3521C223.113 39.623 222.997 38.9435 222.765 38.3138C222.533 37.6841 222.175 37.1751 221.692 36.7868C221.209 36.3985 220.594 36.2044 219.846 36.2044C219.097 36.2044 218.482 36.3985 217.999 36.7868C217.516 37.1751 217.159 37.6841 216.926 38.3138C216.694 38.9435 216.578 39.623 216.578 40.3521C216.578 41.0813 216.694 41.7584 216.926 42.3834C217.159 43.0084 217.516 43.5126 217.999 43.8962C218.482 44.2797 219.097 44.4715 219.846 44.4715Z" fill="black"/>
<path d="M205.273 39.1875V45.75H203.597V31.2046H205.273V36.5455H205.415C205.671 35.9821 206.055 35.5346 206.566 35.2032C207.082 34.867 207.769 34.6989 208.626 34.6989C209.369 34.6989 210.02 34.8481 210.579 35.1464C211.138 35.4399 211.571 35.8921 211.879 36.5029C212.191 37.1089 212.347 37.8807 212.347 38.8182V45.75H210.671V38.9319C210.671 38.0654 210.446 37.3954 209.996 36.9219C209.551 36.4437 208.933 36.2046 208.143 36.2046C207.594 36.2046 207.101 36.3206 206.665 36.5526C206.235 36.7846 205.894 37.1232 205.643 37.5682C205.397 38.0133 205.273 38.5531 205.273 39.1875Z" fill="black"/>
<path d="M189.913 46.0055C189.222 46.0055 188.594 45.8753 188.031 45.6149C187.467 45.3498 187.02 44.9686 186.689 44.4715C186.357 43.9696 186.191 43.3635 186.191 42.6533C186.191 42.0283 186.315 41.5216 186.561 41.1334C186.807 40.7404 187.136 40.4326 187.548 40.2101C187.96 39.9876 188.414 39.8218 188.912 39.7129C189.413 39.5993 189.918 39.5093 190.424 39.443C191.087 39.3578 191.625 39.2939 192.037 39.2513C192.453 39.2039 192.756 39.1258 192.946 39.0169C193.14 38.908 193.237 38.7186 193.237 38.4487V38.3919C193.237 37.6912 193.045 37.1466 192.662 36.7584C192.283 36.3701 191.708 36.176 190.936 36.176C190.136 36.176 189.508 36.3512 189.054 36.7016C188.599 37.052 188.279 37.426 188.095 37.8237L186.504 37.2555C186.788 36.5927 187.167 36.0766 187.64 35.7073C188.118 35.3332 188.639 35.0728 189.203 34.926C189.771 34.7745 190.33 34.6987 190.879 34.6987C191.229 34.6987 191.632 34.7413 192.086 34.8266C192.546 34.9071 192.988 35.0751 193.414 35.3308C193.845 35.5865 194.203 35.9724 194.487 36.4885C194.771 37.0046 194.913 37.6959 194.913 38.5624V45.7499H193.237V44.2726H193.152C193.038 44.5093 192.849 44.7626 192.583 45.0325C192.318 45.3024 191.966 45.5321 191.525 45.7215C191.085 45.9109 190.547 46.0055 189.913 46.0055ZM190.169 44.4999C190.832 44.4999 191.39 44.3697 191.845 44.1092C192.304 43.8488 192.65 43.5127 192.882 43.1007C193.119 42.6888 193.237 42.2555 193.237 41.801V40.2669C193.166 40.3521 193.01 40.4303 192.768 40.5013C192.531 40.5676 192.257 40.6268 191.944 40.6788C191.636 40.7262 191.336 40.7688 191.042 40.8067C190.753 40.8398 190.519 40.8682 190.339 40.8919C189.904 40.9487 189.496 41.0411 189.118 41.1689C188.744 41.292 188.44 41.479 188.208 41.73C187.981 41.9762 187.868 42.3124 187.868 42.7385C187.868 43.3209 188.083 43.7612 188.514 44.0595C188.949 44.3531 189.501 44.4999 190.169 44.4999Z" fill="black"/>
<path d="M178.356 37.284L176.85 37.7101C176.755 37.4591 176.616 37.2153 176.431 36.9786C176.251 36.7371 176.005 36.5382 175.693 36.382C175.38 36.2257 174.98 36.1476 174.492 36.1476C173.825 36.1476 173.268 36.3015 172.823 36.6092C172.383 36.9123 172.163 37.2982 172.163 37.7669C172.163 38.1836 172.314 38.5127 172.617 38.7541C172.92 38.9956 173.394 39.1968 174.038 39.3578L175.657 39.7555C176.632 39.9923 177.359 40.3545 177.837 40.8422C178.316 41.3252 178.555 41.9478 178.555 42.7101C178.555 43.3351 178.375 43.8938 178.015 44.3862C177.66 44.8787 177.163 45.2669 176.523 45.551C175.884 45.8351 175.141 45.9771 174.293 45.9771C173.181 45.9771 172.26 45.7357 171.531 45.2527C170.801 44.7698 170.34 44.0643 170.146 43.1362L171.737 42.7385C171.888 43.3256 172.175 43.766 172.596 44.0595C173.022 44.3531 173.578 44.4999 174.265 44.4999C175.046 44.4999 175.666 44.3341 176.126 44.0027C176.59 43.6665 176.822 43.2641 176.822 42.7953C176.822 42.4165 176.689 42.0993 176.424 41.8436C176.159 41.5832 175.752 41.3891 175.202 41.2612L173.384 40.8351C172.385 40.5984 171.651 40.2314 171.183 39.7342C170.719 39.2323 170.487 38.605 170.487 37.8521C170.487 37.2366 170.659 36.6921 171.005 36.2186C171.355 35.7451 171.831 35.3734 172.433 35.1036C173.039 34.8337 173.725 34.6987 174.492 34.6987C175.572 34.6987 176.419 34.9355 177.035 35.409C177.655 35.8824 178.095 36.5074 178.356 37.284Z" fill="black"/>
<path d="M169.957 31.2046V32.483C169.957 32.8713 169.886 33.2856 169.744 33.7259C169.607 34.1615 169.403 34.5853 169.134 34.9972C168.868 35.4044 168.546 35.7595 168.168 36.0625L167.259 35.3239C167.557 34.8978 167.815 34.4551 168.033 33.9958C168.255 33.5318 168.367 33.037 168.367 32.5114V31.2046H169.957Z" fill="black"/>
<path d="M165.392 34.8409V36.2614H159.739V34.8409H165.392ZM161.387 32.2273H163.063V42.625C163.063 43.0985 163.132 43.4536 163.269 43.6904C163.411 43.9224 163.591 44.0786 163.809 44.1591C164.031 44.2349 164.266 44.2728 164.512 44.2728C164.696 44.2728 164.848 44.2633 164.966 44.2443C165.085 44.2207 165.179 44.2017 165.25 44.1875L165.591 45.6932C165.478 45.7358 165.319 45.7784 165.115 45.821C164.912 45.8684 164.654 45.8921 164.341 45.8921C163.868 45.8921 163.404 45.7903 162.949 45.5867C162.499 45.3831 162.125 45.0729 161.827 44.6563C161.534 44.2396 161.387 43.714 161.387 43.0796V32.2273Z" fill="black"/>
<path d="M155.902 45.75V34.8409H157.578V45.75H155.902ZM156.754 33.0227C156.428 33.0227 156.146 32.9115 155.909 32.6889C155.677 32.4664 155.561 32.1989 155.561 31.8864C155.561 31.5739 155.677 31.3063 155.909 31.0838C156.146 30.8613 156.428 30.75 156.754 30.75C157.081 30.75 157.36 30.8613 157.592 31.0838C157.829 31.3063 157.947 31.5739 157.947 31.8864C157.947 32.1989 157.829 32.4664 157.592 32.6889C157.36 32.9115 157.081 33.0227 156.754 33.0227Z" fill="black"/>
<path d="M147.555 37.284L146.049 37.7101C145.955 37.4591 145.815 37.2153 145.63 36.9786C145.45 36.7371 145.204 36.5382 144.892 36.382C144.579 36.2257 144.179 36.1476 143.691 36.1476C143.024 36.1476 142.467 36.3015 142.022 36.6092C141.582 36.9123 141.362 37.2982 141.362 37.7669C141.362 38.1836 141.513 38.5127 141.816 38.7541C142.119 38.9956 142.593 39.1968 143.237 39.3578L144.856 39.7555C145.832 39.9923 146.558 40.3545 147.037 40.8422C147.515 41.3252 147.754 41.9478 147.754 42.7101C147.754 43.3351 147.574 43.8938 147.214 44.3862C146.859 44.8787 146.362 45.2669 145.723 45.551C145.083 45.8351 144.34 45.9771 143.493 45.9771C142.38 45.9771 141.459 45.7357 140.73 45.2527C140.001 44.7698 139.539 44.0643 139.345 43.1362L140.936 42.7385C141.087 43.3256 141.374 43.766 141.795 44.0595C142.221 44.3531 142.778 44.4999 143.464 44.4999C144.245 44.4999 144.866 44.3341 145.325 44.0027C145.789 43.6665 146.021 43.2641 146.021 42.7953C146.021 42.4165 145.888 42.0993 145.623 41.8436C145.358 41.5832 144.951 41.3891 144.402 41.2612L142.583 40.8351C141.584 40.5984 140.851 40.2314 140.382 39.7342C139.918 39.2323 139.686 38.605 139.686 37.8521C139.686 37.2366 139.859 36.6921 140.204 36.2186C140.555 35.7451 141.03 35.3734 141.632 35.1036C142.238 34.8337 142.924 34.6987 143.691 34.6987C144.771 34.6987 145.619 34.9355 146.234 35.409C146.854 35.8824 147.295 36.5074 147.555 37.284Z" fill="black"/>
<path d="M132.761 45.9771C131.71 45.9771 130.803 45.7451 130.041 45.2811C129.283 44.8124 128.699 44.159 128.287 43.3209C127.879 42.4781 127.676 41.498 127.676 40.3805C127.676 39.2631 127.879 38.2783 128.287 37.426C128.699 36.569 129.271 35.9014 130.005 35.4232C130.744 34.9402 131.606 34.6987 132.591 34.6987C133.159 34.6987 133.72 34.7934 134.274 34.9828C134.828 35.1722 135.332 35.48 135.787 35.9061C136.241 36.3275 136.603 36.8862 136.873 37.5823C137.143 38.2783 137.278 39.1353 137.278 40.1533V40.8635H128.869V39.4146H135.574C135.574 38.7991 135.45 38.2499 135.204 37.7669C134.963 37.284 134.617 36.9028 134.167 36.6234C133.722 36.3441 133.197 36.2044 132.591 36.2044C131.923 36.2044 131.345 36.3701 130.858 36.7016C130.375 37.0283 130.003 37.4544 129.743 37.98C129.482 38.5055 129.352 39.069 129.352 39.6703V40.6362C129.352 41.4601 129.494 42.1585 129.778 42.7314C130.067 43.2996 130.467 43.7328 130.978 44.0311C131.49 44.3247 132.084 44.4715 132.761 44.4715C133.201 44.4715 133.599 44.4099 133.954 44.2868C134.314 44.159 134.624 43.9696 134.885 43.7186C135.145 43.4629 135.346 43.1457 135.488 42.7669L137.108 43.2215C136.937 43.7707 136.651 44.2537 136.248 44.6703C135.846 45.0823 135.349 45.4042 134.757 45.6362C134.165 45.8635 133.5 45.9771 132.761 45.9771Z" fill="black"/>
<path d="M110.804 45.7499V34.8408H112.424V36.5453H112.566C112.793 35.9629 113.16 35.5108 113.667 35.1888C114.173 34.8621 114.782 34.6987 115.492 34.6987C116.212 34.6987 116.81 34.8621 117.289 35.1888C117.772 35.5108 118.148 35.9629 118.418 36.5453H118.532C118.811 35.9819 119.23 35.5344 119.789 35.203C120.347 34.8668 121.017 34.6987 121.799 34.6987C122.774 34.6987 123.572 35.0041 124.192 35.6149C124.812 36.221 125.123 37.1656 125.123 38.4487V45.7499H123.446V38.4487C123.446 37.6438 123.226 37.0685 122.786 36.7229C122.346 36.3772 121.827 36.2044 121.23 36.2044C120.463 36.2044 119.869 36.4364 119.448 36.9004C119.026 37.3597 118.816 37.9421 118.816 38.6476V45.7499H117.111V38.2783C117.111 37.658 116.91 37.1585 116.507 36.7797C116.105 36.3962 115.587 36.2044 114.952 36.2044C114.516 36.2044 114.109 36.3204 113.73 36.5524C113.356 36.7844 113.053 37.1064 112.821 37.5183C112.594 37.9255 112.48 38.3966 112.48 38.9317V45.7499H110.804Z" fill="black"/>
<path d="M106.058 45.75V34.8409H107.734V45.75H106.058ZM106.91 33.0227C106.584 33.0227 106.302 32.9115 106.065 32.6889C105.833 32.4664 105.717 32.1989 105.717 31.8864C105.717 31.5739 105.833 31.3063 106.065 31.0838C106.302 30.8613 106.584 30.75 106.91 30.75C107.237 30.75 107.517 30.8613 107.749 31.0838C107.985 31.3063 108.104 31.5739 108.104 31.8864C108.104 32.1989 107.985 32.4664 107.749 32.6889C107.517 32.9115 107.237 33.0227 106.91 33.0227Z" fill="black"/>
<path d="M103.537 34.8409V36.2614H97.8835V34.8409H103.537ZM99.5313 32.2273H101.207V42.625C101.207 43.0985 101.276 43.4536 101.413 43.6904C101.555 43.9224 101.735 44.0786 101.953 44.1591C102.176 44.2349 102.41 44.2728 102.656 44.2728C102.841 44.2728 102.992 44.2633 103.111 44.2443C103.229 44.2207 103.324 44.2017 103.395 44.1875L103.736 45.6932C103.622 45.7358 103.464 45.7784 103.26 45.821C103.056 45.8684 102.798 45.8921 102.486 45.8921C102.012 45.8921 101.548 45.7903 101.094 45.5867C100.644 45.3831 100.27 45.0729 99.9716 44.6563C99.6781 44.2396 99.5313 43.714 99.5313 43.0796V32.2273Z" fill="black"/>
<path d="M91.7259 45.9771C90.6747 45.9771 89.768 45.7451 89.0057 45.2811C88.2481 44.8124 87.6634 44.159 87.2514 43.3209C86.8442 42.4781 86.6406 41.498 86.6406 40.3805C86.6406 39.2631 86.8442 38.2783 87.2514 37.426C87.6634 36.569 88.2363 35.9014 88.9702 35.4232C89.7088 34.9402 90.5705 34.6987 91.5554 34.6987C92.1236 34.6987 92.6847 34.7934 93.2386 34.9828C93.7926 35.1722 94.2969 35.48 94.7514 35.9061C95.206 36.3275 95.5682 36.8862 95.8381 37.5823C96.108 38.2783 96.2429 39.1353 96.2429 40.1533V40.8635H87.8338V39.4146H94.5384C94.5384 38.7991 94.4152 38.2499 94.169 37.7669C93.9276 37.284 93.5819 36.9028 93.1321 36.6234C92.687 36.3441 92.1615 36.2044 91.5554 36.2044C90.8878 36.2044 90.3101 36.3701 89.8224 36.7016C89.3395 37.0283 88.9678 37.4544 88.7074 37.98C88.447 38.5055 88.3168 39.069 88.3168 39.6703V40.6362C88.3168 41.4601 88.4588 42.1585 88.7429 42.7314C89.0317 43.2996 89.4318 43.7328 89.9432 44.0311C90.4545 44.3247 91.0488 44.4715 91.7259 44.4715C92.1662 44.4715 92.5639 44.4099 92.919 44.2868C93.2789 44.159 93.589 43.9696 93.8494 43.7186C94.1099 43.4629 94.3111 43.1457 94.4531 42.7669L96.0724 43.2215C95.902 43.7707 95.6155 44.2537 95.2131 44.6703C94.8106 45.0823 94.3134 45.4042 93.7216 45.6362C93.1297 45.8635 92.4645 45.9771 91.7259 45.9771Z" fill="black"/>
<path d="M69.7692 45.7499V34.8408H71.3885V36.5453H71.5305C71.7578 35.9629 72.1248 35.5108 72.6314 35.1888C73.138 34.8621 73.7464 34.6987 74.4567 34.6987C75.1764 34.6987 75.7753 34.8621 76.2535 35.1888C76.7365 35.5108 77.1129 35.9629 77.3828 36.5453H77.4964C77.7758 35.9819 78.1948 35.5344 78.7535 35.203C79.3123 34.8668 79.9822 34.6987 80.7635 34.6987C81.7389 34.6987 82.5367 35.0041 83.157 35.6149C83.7772 36.221 84.0873 37.1656 84.0873 38.4487V45.7499H82.4112V38.4487C82.4112 37.6438 82.191 37.0685 81.7507 36.7229C81.3104 36.3772 80.7919 36.2044 80.1953 36.2044C79.4283 36.2044 78.834 36.4364 78.4126 36.9004C77.9912 37.3597 77.7805 37.9421 77.7805 38.6476V45.7499H76.076V38.2783C76.076 37.658 75.8748 37.1585 75.4723 36.7797C75.0698 36.3962 74.5514 36.2044 73.9169 36.2044C73.4813 36.2044 73.0741 36.3204 72.6953 36.5524C72.3213 36.7844 72.0182 37.1064 71.7862 37.5183C71.5589 37.9255 71.4453 38.3966 71.4453 38.9317V45.7499H69.7692Z" fill="black"/>
<path d="M62.2674 45.9771C61.2826 45.9771 60.4184 45.7428 59.6751 45.274C58.9364 44.8053 58.3588 44.1495 57.9421 43.3067C57.5302 42.4639 57.3242 41.479 57.3242 40.3521C57.3242 39.2158 57.5302 38.2238 57.9421 37.3763C58.3588 36.5287 58.9364 35.8706 59.6751 35.4019C60.4184 34.9331 61.2826 34.6987 62.2674 34.6987C63.2522 34.6987 64.114 34.9331 64.8526 35.4019C65.596 35.8706 66.1736 36.5287 66.5856 37.3763C67.0022 38.2238 67.2106 39.2158 67.2106 40.3521C67.2106 41.479 67.0022 42.4639 66.5856 43.3067C66.1736 44.1495 65.596 44.8053 64.8526 45.274C64.114 45.7428 63.2522 45.9771 62.2674 45.9771ZM62.2674 44.4715C63.0155 44.4715 63.631 44.2797 64.114 43.8962C64.5969 43.5126 64.9544 43.0084 65.1864 42.3834C65.4184 41.7584 65.5344 41.0813 65.5344 40.3521C65.5344 39.623 65.4184 38.9435 65.1864 38.3138C64.9544 37.6841 64.5969 37.1751 64.114 36.7868C63.631 36.3985 63.0155 36.2044 62.2674 36.2044C61.5193 36.2044 60.9038 36.3985 60.4208 36.7868C59.9379 37.1751 59.5804 37.6841 59.3484 38.3138C59.1164 38.9435 59.0004 39.623 59.0004 40.3521C59.0004 41.0813 59.1164 41.7584 59.3484 42.3834C59.5804 43.0084 59.9379 43.5126 60.4208 43.8962C60.9038 44.2797 61.5193 44.4715 62.2674 44.4715Z" fill="black"/>
<path d="M55.1137 37.284L53.608 37.7101C53.5133 37.4591 53.3736 37.2153 53.189 36.9786C53.009 36.7371 52.7628 36.5382 52.4503 36.382C52.1378 36.2257 51.7377 36.1476 51.25 36.1476C50.5824 36.1476 50.0261 36.3015 49.581 36.6092C49.1407 36.9123 48.9205 37.2982 48.9205 37.7669C48.9205 38.1836 49.072 38.5127 49.375 38.7541C49.6781 38.9956 50.1515 39.1968 50.7955 39.3578L52.4148 39.7555C53.3902 39.9923 54.117 40.3545 54.5952 40.8422C55.0734 41.3252 55.3125 41.9478 55.3125 42.7101C55.3125 43.3351 55.1326 43.8938 54.7728 44.3862C54.4176 44.8787 53.9205 45.2669 53.2813 45.551C52.6421 45.8351 51.8987 45.9771 51.0512 45.9771C49.9385 45.9771 49.0176 45.7357 48.2884 45.2527C47.5592 44.7698 47.0976 44.0643 46.9034 43.1362L48.4944 42.7385C48.6459 43.3256 48.9323 43.766 49.3537 44.0595C49.7799 44.3531 50.3362 44.4999 51.0228 44.4999C51.804 44.4999 52.4243 44.3341 52.8836 44.0027C53.3476 43.6665 53.5796 43.2641 53.5796 42.7953C53.5796 42.4165 53.447 42.0993 53.1819 41.8436C52.9167 41.5832 52.5095 41.3891 51.9603 41.2612L50.1421 40.8351C49.143 40.5984 48.4091 40.2314 47.9404 39.7342C47.4764 39.2323 47.2444 38.605 47.2444 37.8521C47.2444 37.2366 47.4172 36.6921 47.7628 36.2186C48.1132 35.7451 48.5891 35.3734 49.1904 35.1036C49.7964 34.8337 50.483 34.6987 51.25 34.6987C52.3296 34.6987 53.1771 34.9355 53.7926 35.409C54.4129 35.8824 54.8533 36.5074 55.1137 37.284Z" fill="black"/>
<path d="M38.6559 43.7612L38.5423 44.5283C38.4618 45.068 38.3387 45.6457 38.1729 46.2612C38.012 46.8768 37.8439 47.4568 37.6687 48.0013C37.4935 48.5458 37.3491 48.979 37.2354 49.301H35.957C36.0186 48.998 36.0991 48.5979 36.1985 48.1007C36.2979 47.6036 36.3974 47.0472 36.4968 46.4317C36.601 45.8209 36.6862 45.1959 36.7525 44.5567L36.8377 43.7612H38.6559Z" fill="black"/>
<path d="M23.9684 49.8408V34.8408H25.5877V36.5737H25.7866C25.9097 36.3843 26.0801 36.1429 26.2979 35.8493C26.5205 35.551 26.8377 35.2859 27.2496 35.0538C27.6663 34.8171 28.2297 34.6987 28.94 34.6987C29.8585 34.6987 30.6682 34.9284 31.369 35.3876C32.0697 35.8469 32.6166 36.498 33.0096 37.3408C33.4026 38.1836 33.5991 39.1779 33.5991 40.3237C33.5991 41.479 33.4026 42.4805 33.0096 43.328C32.6166 44.1708 32.0721 44.8242 31.3761 45.2882C30.68 45.7475 29.8775 45.9771 28.9684 45.9771C28.2676 45.9771 27.7065 45.8611 27.2851 45.6291C26.8637 45.3924 26.5394 45.1249 26.3121 44.8266C26.0849 44.5235 25.9097 44.2726 25.7866 44.0737H25.6445V49.8408H23.9684ZM25.6161 40.2953C25.6161 41.1192 25.7369 41.846 25.9783 42.4757C26.2198 43.1007 26.5726 43.5908 27.0366 43.9459C27.5006 44.2963 28.0688 44.4715 28.7411 44.4715C29.4419 44.4715 30.0266 44.2868 30.4954 43.9175C30.9689 43.5434 31.324 43.0415 31.5607 42.4118C31.8022 41.7773 31.9229 41.0718 31.9229 40.2953C31.9229 39.5283 31.8046 38.837 31.5678 38.2215C31.3358 37.6012 30.9831 37.1111 30.5096 36.7513C30.0408 36.3867 29.4513 36.2044 28.7411 36.2044C28.0593 36.2044 27.4864 36.3772 27.0224 36.7229C26.5583 37.0638 26.208 37.542 25.9712 38.1575C25.7345 38.7683 25.6161 39.4809 25.6161 40.2953Z" fill="black"/>
<path d="M11.7809 49.8408V34.8408H13.4002V36.5737H13.5991C13.7222 36.3843 13.8926 36.1429 14.1104 35.8493C14.333 35.551 14.6502 35.2859 15.0621 35.0538C15.4788 34.8171 16.0422 34.6987 16.7525 34.6987C17.671 34.6987 18.4807 34.9284 19.1815 35.3876C19.8822 35.8469 20.4291 36.498 20.8221 37.3408C21.2151 38.1836 21.4116 39.1779 21.4116 40.3237C21.4116 41.479 21.2151 42.4805 20.8221 43.328C20.4291 44.1708 19.8846 44.8242 19.1886 45.2882C18.4925 45.7475 17.69 45.9771 16.7809 45.9771C16.0801 45.9771 15.519 45.8611 15.0976 45.6291C14.6762 45.3924 14.3519 45.1249 14.1246 44.8266C13.8974 44.5235 13.7222 44.2726 13.5991 44.0737H13.457V49.8408H11.7809ZM13.4286 40.2953C13.4286 41.1192 13.5493 41.846 13.7908 42.4757C14.0323 43.1007 14.3851 43.5908 14.8491 43.9459C15.3131 44.2963 15.8813 44.4715 16.5536 44.4715C17.2544 44.4715 17.8391 44.2868 18.3079 43.9175C18.7814 43.5434 19.1365 43.0415 19.3732 42.4118C19.6147 41.7773 19.7354 41.0718 19.7354 40.2953C19.7354 39.5283 19.6171 38.837 19.3803 38.2215C19.1483 37.6012 18.7956 37.1111 18.3221 36.7513C17.8533 36.3867 17.2638 36.2044 16.5536 36.2044C15.8718 36.2044 15.2989 36.3772 14.8349 36.7229C14.3708 37.0638 14.0205 37.542 13.7837 38.1575C13.547 38.7683 13.4286 39.4809 13.4286 40.2953Z" fill="black"/>
<path d="M3.72159 46.0055C3.0303 46.0055 2.40294 45.8753 1.83949 45.6149C1.27604 45.3498 0.828598 44.9686 0.497159 44.4715C0.16572 43.9696 0 43.3635 0 42.6533C0 42.0283 0.123106 41.5216 0.369318 41.1334C0.61553 40.7404 0.944602 40.4326 1.35653 40.2101C1.76847 39.9876 2.22301 39.8218 2.72017 39.7129C3.22206 39.5993 3.72633 39.5093 4.23295 39.443C4.89583 39.3578 5.43324 39.2939 5.84517 39.2513C6.26184 39.2039 6.56487 39.1258 6.75426 39.0169C6.94839 38.908 7.04545 38.7186 7.04545 38.4487V38.3919C7.04545 37.6912 6.85369 37.1466 6.47017 36.7584C6.09138 36.3701 5.5161 36.176 4.74432 36.176C3.94413 36.176 3.31676 36.3512 2.86222 36.7016C2.40767 37.052 2.08807 37.426 1.90341 37.8237L0.3125 37.2555C0.596591 36.5927 0.975379 36.0766 1.44886 35.7073C1.92708 35.3332 2.44792 35.0728 3.01136 34.926C3.57955 34.7745 4.13826 34.6987 4.6875 34.6987C5.03788 34.6987 5.44034 34.7413 5.89489 34.8266C6.35417 34.9071 6.79688 35.0751 7.22301 35.3308C7.65388 35.5865 8.01136 35.9724 8.29545 36.4885C8.57955 37.0046 8.72159 37.6959 8.72159 38.5624V45.7499H7.04545V44.2726H6.96023C6.84659 44.5093 6.6572 44.7626 6.39205 45.0325C6.12689 45.3024 5.77415 45.5321 5.33381 45.7215C4.89347 45.9109 4.35606 46.0055 3.72159 46.0055ZM3.97727 44.4999C4.64015 44.4999 5.19886 44.3697 5.65341 44.1092C6.11269 43.8488 6.45833 43.5127 6.69034 43.1007C6.92708 42.6888 7.04545 42.2555 7.04545 41.801V40.2669C6.97443 40.3521 6.81818 40.4303 6.5767 40.5013C6.33996 40.5676 6.06534 40.6268 5.75284 40.6788C5.44508 40.7262 5.14441 40.7688 4.85085 40.8067C4.56203 40.8398 4.32765 40.8682 4.14773 40.8919C3.71212 40.9487 3.30492 41.0411 2.92614 41.1689C2.55208 41.292 2.24905 41.479 2.01705 41.73C1.78977 41.9762 1.67614 42.3124 1.67614 42.7385C1.67614 43.3209 1.89157 43.7612 2.32244 44.0595C2.75805 44.3531 3.30966 44.4999 3.97727 44.4999Z" fill="black"/>
<path d="M355.02 1.20459V15.75H353.343V1.20459H355.02Z" fill="black"/>
<path d="M345.284 16.0055C344.593 16.0055 343.965 15.8753 343.402 15.6149C342.839 15.3498 342.391 14.9686 342.06 14.4715C341.728 13.9696 341.562 13.3635 341.562 12.6533C341.562 12.0283 341.686 11.5216 341.932 11.1334C342.178 10.7404 342.507 10.4326 342.919 10.2101C343.331 9.98755 343.785 9.82184 344.283 9.71293C344.785 9.5993 345.289 9.50934 345.795 9.44305C346.458 9.35782 346.996 9.2939 347.408 9.25129C347.824 9.20394 348.127 9.12581 348.317 9.01691C348.511 8.90801 348.608 8.71862 348.608 8.44873V8.39191C348.608 7.69115 348.416 7.14665 348.033 6.75839C347.654 6.37013 347.079 6.176 346.307 6.176C345.507 6.176 344.879 6.35119 344.425 6.70157C343.97 7.05195 343.651 7.426 343.466 7.82373L341.875 7.25555C342.159 6.59267 342.538 6.07657 343.011 5.70725C343.49 5.3332 344.01 5.07278 344.574 4.926C345.142 4.77449 345.701 4.69873 346.25 4.69873C346.6 4.69873 347.003 4.74134 347.457 4.82657C347.917 4.90706 348.359 5.07515 348.785 5.33083C349.216 5.58651 349.574 5.9724 349.858 6.4885C350.142 7.0046 350.284 7.69589 350.284 8.56237V15.7499H348.608V14.2726H348.523C348.409 14.5093 348.22 14.7627 347.955 15.0325C347.689 15.3024 347.337 15.5321 346.896 15.7215C346.456 15.9109 345.919 16.0055 345.284 16.0055ZM345.54 14.4999C346.203 14.4999 346.761 14.3697 347.216 14.1092C347.675 13.8488 348.021 13.5127 348.253 13.1007C348.49 12.6888 348.608 12.2555 348.608 11.801V10.2669C348.537 10.3521 348.381 10.4303 348.139 10.5013C347.902 10.5676 347.628 10.6268 347.315 10.6788C347.008 10.7262 346.707 10.7688 346.413 10.8067C346.125 10.8398 345.89 10.8682 345.71 10.8919C345.275 10.9487 344.867 11.0411 344.489 11.1689C344.115 11.292 343.812 11.479 343.58 11.73C343.352 11.9762 343.239 12.3124 343.239 12.7385C343.239 13.3209 343.454 13.7612 343.885 14.0595C344.321 14.3531 344.872 14.4999 345.54 14.4999Z" fill="black"/>
<path d="M337.328 15.75V4.84091H339.004V15.75H337.328ZM338.18 3.02273C337.853 3.02273 337.572 2.91146 337.335 2.68892C337.103 2.46638 336.987 2.19886 336.987 1.88636C336.987 1.57386 337.103 1.30634 337.335 1.08381C337.572 0.861269 337.853 0.75 338.18 0.75C338.507 0.75 338.786 0.861269 339.018 1.08381C339.255 1.30634 339.373 1.57386 339.373 1.88636C339.373 2.19886 339.255 2.46638 339.018 2.68892C338.786 2.91146 338.507 3.02273 338.18 3.02273Z" fill="black"/>
<path d="M330.588 15.9771C329.565 15.9771 328.684 15.7357 327.946 15.2527C327.207 14.7698 326.639 14.1045 326.241 13.257C325.843 12.4094 325.645 11.4412 325.645 10.3521C325.645 9.24418 325.848 8.26644 326.255 7.4189C326.667 6.56663 327.24 5.90138 327.974 5.42316C328.713 4.94021 329.574 4.69873 330.559 4.69873C331.326 4.69873 332.018 4.84078 332.633 5.12487C333.249 5.40896 333.753 5.80668 334.146 6.31805C334.539 6.82941 334.783 7.426 334.877 8.10782H333.201C333.074 7.61066 332.789 7.17032 332.349 6.7868C331.913 6.39854 331.326 6.20441 330.588 6.20441C329.934 6.20441 329.361 6.37487 328.869 6.71578C328.381 7.05195 328 7.5278 327.725 8.14333C327.456 8.75413 327.321 9.47146 327.321 10.2953C327.321 11.1381 327.453 11.872 327.718 12.497C327.988 13.122 328.367 13.6073 328.855 13.953C329.347 14.2986 329.925 14.4715 330.588 14.4715C331.023 14.4715 331.419 14.3957 331.774 14.2442C332.129 14.0927 332.43 13.8749 332.676 13.5908C332.922 13.3067 333.097 12.9658 333.201 12.568H334.877C334.783 13.212 334.548 13.792 334.174 14.3081C333.805 14.8195 333.315 15.2267 332.704 15.5297C332.098 15.828 331.393 15.9771 330.588 15.9771Z" fill="black"/>
<path d="M318.654 15.9771C317.669 15.9771 316.805 15.7428 316.062 15.274C315.323 14.8053 314.745 14.1495 314.329 13.3067C313.917 12.4639 313.711 11.479 313.711 10.3521C313.711 9.21577 313.917 8.22382 314.329 7.37629C314.745 6.52875 315.323 5.87061 316.062 5.40186C316.805 4.93311 317.669 4.69873 318.654 4.69873C319.639 4.69873 320.501 4.93311 321.239 5.40186C321.983 5.87061 322.56 6.52875 322.972 7.37629C323.389 8.22382 323.597 9.21577 323.597 10.3521C323.597 11.479 323.389 12.4639 322.972 13.3067C322.56 14.1495 321.983 14.8053 321.239 15.274C320.501 15.7428 319.639 15.9771 318.654 15.9771ZM318.654 14.4715C319.402 14.4715 320.018 14.2797 320.501 13.8962C320.984 13.5127 321.341 13.0084 321.573 12.3834C321.805 11.7584 321.921 11.0813 321.921 10.3521C321.921 9.62297 321.805 8.94352 321.573 8.31379C321.341 7.68405 320.984 7.17506 320.501 6.7868C320.018 6.39854 319.402 6.20441 318.654 6.20441C317.906 6.20441 317.29 6.39854 316.808 6.7868C316.325 7.17506 315.967 7.68405 315.735 8.31379C315.503 8.94352 315.387 9.62297 315.387 10.3521C315.387 11.0813 315.503 11.7584 315.735 12.3834C315.967 13.0084 316.325 13.5127 316.808 13.8962C317.29 14.2797 317.906 14.4715 318.654 14.4715Z" fill="black"/>
<path d="M311.5 7.28396L309.995 7.71009C309.9 7.45915 309.76 7.2153 309.576 6.97856C309.396 6.73708 309.15 6.53822 308.837 6.38197C308.525 6.22572 308.124 6.14759 307.637 6.14759C306.969 6.14759 306.413 6.30148 305.968 6.60924C305.527 6.91227 305.307 7.29816 305.307 7.76691C305.307 8.18358 305.459 8.51265 305.762 8.75413C306.065 8.9956 306.538 9.19684 307.182 9.35782L308.802 9.75555C309.777 9.99229 310.504 10.3545 310.982 10.8422C311.46 11.3252 311.699 11.9478 311.699 12.7101C311.699 13.3351 311.519 13.8938 311.159 14.3862C310.804 14.8787 310.307 15.2669 309.668 15.551C309.029 15.8351 308.285 15.9771 307.438 15.9771C306.325 15.9771 305.404 15.7357 304.675 15.2527C303.946 14.7698 303.484 14.0643 303.29 13.1362L304.881 12.7385C305.033 13.3256 305.319 13.766 305.74 14.0595C306.167 14.3531 306.723 14.4999 307.409 14.4999C308.191 14.4999 308.811 14.3341 309.27 14.0027C309.734 13.6665 309.966 13.2641 309.966 12.7953C309.966 12.4165 309.834 12.0993 309.569 11.8436C309.303 11.5832 308.896 11.3891 308.347 11.2612L306.529 10.8351C305.53 10.5984 304.796 10.2314 304.327 9.73424C303.863 9.23235 303.631 8.60498 303.631 7.85214C303.631 7.23661 303.804 6.6921 304.15 6.21862C304.5 5.74513 304.976 5.37345 305.577 5.10356C306.183 4.83367 306.87 4.69873 307.637 4.69873C308.716 4.69873 309.564 4.93547 310.179 5.40896C310.8 5.88244 311.24 6.50744 311.5 7.28396Z" fill="black"/>
<path d="M290.089 16.0055C289.397 16.0055 288.77 15.8753 288.207 15.6149C287.643 15.3498 287.196 14.9686 286.864 14.4715C286.533 13.9696 286.367 13.3635 286.367 12.6533C286.367 12.0283 286.49 11.5216 286.737 11.1334C286.983 10.7404 287.312 10.4326 287.724 10.2101C288.136 9.98755 288.59 9.82184 289.087 9.71293C289.589 9.5993 290.093 9.50934 290.6 9.44305C291.263 9.35782 291.8 9.2939 292.212 9.25129C292.629 9.20394 292.932 9.12581 293.121 9.01691C293.316 8.90801 293.413 8.71862 293.413 8.44873V8.39191C293.413 7.69115 293.221 7.14665 292.837 6.75839C292.459 6.37013 291.883 6.176 291.112 6.176C290.311 6.176 289.684 6.35119 289.229 6.70157C288.775 7.05195 288.455 7.426 288.271 7.82373L286.68 7.25555C286.964 6.59267 287.343 6.07657 287.816 5.70725C288.294 5.3332 288.815 5.07278 289.379 4.926C289.947 4.77449 290.505 4.69873 291.055 4.69873C291.405 4.69873 291.808 4.74134 292.262 4.82657C292.721 4.90706 293.164 5.07515 293.59 5.33083C294.021 5.58651 294.379 5.9724 294.663 6.4885C294.947 7.0046 295.089 7.69589 295.089 8.56237V15.7499H293.413V14.2726H293.327C293.214 14.5093 293.024 14.7627 292.759 15.0325C292.494 15.3024 292.141 15.5321 291.701 15.7215C291.261 15.9109 290.723 16.0055 290.089 16.0055ZM290.344 14.4999C291.007 14.4999 291.566 14.3697 292.021 14.1092C292.48 13.8488 292.826 13.5127 293.058 13.1007C293.294 12.6888 293.413 12.2555 293.413 11.801V10.2669C293.342 10.3521 293.185 10.4303 292.944 10.5013C292.707 10.5676 292.433 10.6268 292.12 10.6788C291.812 10.7262 291.512 10.7688 291.218 10.8067C290.929 10.8398 290.695 10.8682 290.515 10.8919C290.079 10.9487 289.672 11.0411 289.293 11.1689C288.919 11.292 288.616 11.479 288.384 11.73C288.157 11.9762 288.043 12.3124 288.043 12.7385C288.043 13.3209 288.259 13.7612 288.69 14.0595C289.125 14.3531 289.677 14.4999 290.344 14.4999Z" fill="black"/>
<path d="M278.532 7.28396L277.026 7.71009C276.931 7.45915 276.792 7.2153 276.607 6.97856C276.427 6.73708 276.181 6.53822 275.868 6.38197C275.556 6.22572 275.156 6.14759 274.668 6.14759C274 6.14759 273.444 6.30148 272.999 6.60924C272.559 6.91227 272.338 7.29816 272.338 7.76691C272.338 8.18358 272.49 8.51265 272.793 8.75413C273.096 8.9956 273.57 9.19684 274.213 9.35782L275.833 9.75555C276.808 9.99229 277.535 10.3545 278.013 10.8422C278.491 11.3252 278.73 11.9478 278.73 12.7101C278.73 13.3351 278.551 13.8938 278.191 14.3862C277.836 14.8787 277.338 15.2669 276.699 15.551C276.06 15.8351 275.317 15.9771 274.469 15.9771C273.356 15.9771 272.435 15.7357 271.706 15.2527C270.977 14.7698 270.516 14.0643 270.321 13.1362L271.912 12.7385C272.064 13.3256 272.35 13.766 272.772 14.0595C273.198 14.3531 273.754 14.4999 274.441 14.4999C275.222 14.4999 275.842 14.3341 276.302 14.0027C276.766 13.6665 276.998 13.2641 276.998 12.7953C276.998 12.4165 276.865 12.0993 276.6 11.8436C276.335 11.5832 275.927 11.3891 275.378 11.2612L273.56 10.8351C272.561 10.5984 271.827 10.2314 271.358 9.73424C270.894 9.23235 270.662 8.60498 270.662 7.85214C270.662 7.23661 270.835 6.6921 271.181 6.21862C271.531 5.74513 272.007 5.37345 272.608 5.10356C273.214 4.83367 273.901 4.69873 274.668 4.69873C275.748 4.69873 276.595 4.93547 277.211 5.40896C277.831 5.88244 278.271 6.50744 278.532 7.28396Z" fill="black"/>
<path d="M270.133 1.20459V2.483C270.133 2.87126 270.062 3.28556 269.92 3.7259C269.783 4.1615 269.579 4.58527 269.309 4.9972C269.044 5.4044 268.722 5.75951 268.343 6.06254L267.434 5.32391C267.733 4.89777 267.991 4.45506 268.208 3.99578C268.431 3.53177 268.542 3.03698 268.542 2.51141V1.20459H270.133Z" fill="black"/>
<path d="M265.568 4.84093V6.26139H259.915V4.84093H265.568ZM261.563 2.22729H263.239V12.625C263.239 13.0985 263.307 13.4536 263.445 13.6904C263.587 13.9224 263.767 14.0786 263.984 14.1591C264.207 14.2349 264.441 14.2728 264.688 14.2728C264.872 14.2728 265.024 14.2633 265.142 14.2443C265.26 14.2207 265.355 14.2017 265.426 14.1875L265.767 15.6932C265.653 15.7358 265.495 15.7784 265.291 15.821C265.088 15.8684 264.83 15.8921 264.517 15.8921C264.044 15.8921 263.58 15.7903 263.125 15.5867C262.675 15.3831 262.301 15.0729 262.003 14.6563C261.709 14.2396 261.563 13.714 261.563 13.0796V2.22729Z" fill="black"/>
<path d="M256.078 15.75V4.84091H257.754V15.75H256.078ZM256.93 3.02273C256.603 3.02273 256.322 2.91146 256.085 2.68892C255.853 2.46638 255.737 2.19886 255.737 1.88636C255.737 1.57386 255.853 1.30634 256.085 1.08381C256.322 0.861269 256.603 0.75 256.93 0.75C257.257 0.75 257.536 0.861269 257.768 1.08381C258.005 1.30634 258.123 1.57386 258.123 1.88636C258.123 2.19886 258.005 2.46638 257.768 2.68892C257.536 2.91146 257.257 3.02273 256.93 3.02273Z" fill="black"/>
<path d="M243.386 15.9771C242.335 15.9771 241.428 15.7451 240.666 15.2811C239.908 14.8124 239.324 14.159 238.912 13.3209C238.504 12.4781 238.301 11.498 238.301 10.3805C238.301 9.26312 238.504 8.27828 238.912 7.426C239.324 6.56899 239.896 5.90138 240.63 5.42316C241.369 4.94021 242.231 4.69873 243.216 4.69873C243.784 4.69873 244.345 4.79343 244.899 4.98282C245.453 5.17221 245.957 5.47998 246.412 5.90612C246.866 6.32752 247.228 6.88623 247.498 7.58225C247.768 8.27828 247.903 9.13528 247.903 10.1533V10.8635H239.494V9.41464H246.199C246.199 8.79911 246.075 8.24987 245.829 7.76691C245.588 7.28396 245.242 6.9028 244.792 6.62345C244.347 6.34409 243.822 6.20441 243.216 6.20441C242.548 6.20441 241.97 6.37013 241.483 6.70157C241 7.02828 240.628 7.45441 240.368 7.97998C240.107 8.50555 239.977 9.06899 239.977 9.67032V10.6362C239.977 11.4601 240.119 12.1585 240.403 12.7314C240.692 13.2996 241.092 13.7328 241.603 14.0311C242.115 14.3247 242.709 14.4715 243.386 14.4715C243.826 14.4715 244.224 14.4099 244.579 14.2868C244.939 14.159 245.249 13.9696 245.51 13.7186C245.77 13.4629 245.971 13.1457 246.113 12.7669L247.733 13.2215C247.562 13.7707 247.276 14.2537 246.873 14.6703C246.471 15.0823 245.974 15.4042 245.382 15.6362C244.79 15.8635 244.125 15.9771 243.386 15.9771Z" fill="black"/>
<path d="M232.072 15.9771C231.049 15.9771 230.169 15.7357 229.43 15.2527C228.691 14.7698 228.123 14.1045 227.726 13.257C227.328 12.4094 227.129 11.4412 227.129 10.3521C227.129 9.24418 227.333 8.26644 227.74 7.4189C228.152 6.56663 228.725 5.90138 229.458 5.42316C230.197 4.94021 231.059 4.69873 232.044 4.69873C232.811 4.69873 233.502 4.84078 234.118 5.12487C234.733 5.40896 235.237 5.80668 235.63 6.31805C236.023 6.82941 236.267 7.426 236.362 8.10782H234.686C234.558 7.61066 234.274 7.17032 233.833 6.7868C233.398 6.39854 232.811 6.20441 232.072 6.20441C231.419 6.20441 230.846 6.37487 230.353 6.71578C229.866 7.05195 229.485 7.5278 229.21 8.14333C228.94 8.75413 228.805 9.47146 228.805 10.2953C228.805 11.1381 228.938 11.872 229.203 12.497C229.473 13.122 229.851 13.6073 230.339 13.953C230.832 14.2986 231.409 14.4715 232.072 14.4715C232.508 14.4715 232.903 14.3957 233.258 14.2442C233.613 14.0927 233.914 13.8749 234.16 13.5908C234.406 13.3067 234.582 12.9658 234.686 12.568H236.362C236.267 13.212 236.033 13.792 235.659 14.3081C235.289 14.8195 234.799 15.2267 234.189 15.5297C233.583 15.828 232.877 15.9771 232.072 15.9771Z" fill="black"/>
<path d="M217.617 9.18737V15.7499H215.941V4.84078H217.56V6.54532H217.702C217.958 5.99134 218.346 5.54627 218.867 5.21009C219.388 4.86919 220.06 4.69873 220.884 4.69873C221.623 4.69873 222.269 4.85025 222.823 5.15328C223.377 5.45157 223.808 5.90612 224.116 6.51691C224.424 7.12297 224.577 7.89002 224.577 8.81805V15.7499H222.901V8.93168C222.901 8.07468 222.679 7.40706 222.234 6.92884C221.789 6.44589 221.178 6.20441 220.401 6.20441C219.866 6.20441 219.388 6.32042 218.967 6.55242C218.55 6.78443 218.221 7.12297 217.979 7.56805C217.738 8.01312 217.617 8.5529 217.617 9.18737Z" fill="black"/>
<path d="M211.195 15.75V4.84091H212.871V15.75H211.195ZM212.047 3.02273C211.72 3.02273 211.439 2.91146 211.202 2.68892C210.97 2.46638 210.854 2.19886 210.854 1.88636C210.854 1.57386 210.97 1.30634 211.202 1.08381C211.439 0.861269 211.72 0.75 212.047 0.75C212.374 0.75 212.653 0.861269 212.885 1.08381C213.122 1.30634 213.24 1.57386 213.24 1.88636C213.24 2.19886 213.122 2.46638 212.885 2.68892C212.653 2.91146 212.374 3.02273 212.047 3.02273Z" fill="black"/>
<path d="M206.623 4.84084C206.538 4.12115 206.192 3.56243 205.586 3.16471C204.98 2.76698 204.237 2.56812 203.356 2.56812C202.712 2.56812 202.148 2.67228 201.665 2.88062C201.187 3.08895 200.813 3.37541 200.543 3.73999C200.278 4.10457 200.146 4.51887 200.146 4.98289C200.146 5.37115 200.238 5.70495 200.423 5.98431C200.612 6.25893 200.853 6.48857 201.147 6.67323C201.441 6.85315 201.748 7.0023 202.07 7.12067C202.392 7.23431 202.688 7.32664 202.958 7.39766L204.435 7.79539C204.814 7.89482 205.236 8.03213 205.7 8.20732C206.168 8.38251 206.616 8.62162 207.042 8.92465C207.473 9.22295 207.828 9.60647 208.107 10.0752C208.387 10.544 208.526 11.1193 208.526 11.8011C208.526 12.5871 208.32 13.2973 207.908 13.9318C207.501 14.5662 206.905 15.0705 206.119 15.4445C205.337 15.8186 204.388 16.0056 203.271 16.0056C202.229 16.0056 201.327 15.8375 200.565 15.5014C199.807 15.1652 199.21 14.6964 198.775 14.0951C198.344 13.4938 198.1 12.7954 198.043 11.9999H199.862C199.909 12.5492 200.094 13.0037 200.415 13.3636C200.742 13.7187 201.154 13.9838 201.651 14.159C202.153 14.3295 202.693 14.4147 203.271 14.4147C203.943 14.4147 204.547 14.3058 205.082 14.088C205.617 13.8655 206.04 13.5577 206.353 13.1647C206.665 12.767 206.822 12.303 206.822 11.7727C206.822 11.2897 206.687 10.8967 206.417 10.5937C206.147 10.2907 205.792 10.0444 205.352 9.85505C204.911 9.66565 204.435 9.49993 203.924 9.35789L202.134 8.84653C200.998 8.51982 200.098 8.05344 199.435 7.44738C198.773 6.84132 198.441 6.04823 198.441 5.06812C198.441 4.25372 198.661 3.54349 199.102 2.93743C199.547 2.32664 200.143 1.85315 200.891 1.51698C201.644 1.17607 202.485 1.00562 203.413 1.00562C204.35 1.00562 205.183 1.1737 205.913 1.50988C206.642 1.84132 207.219 2.29586 207.646 2.87351C208.076 3.45116 208.304 4.10694 208.327 4.84084H206.623Z" fill="black"/>
<path d="M188.53 15.8637C188.179 15.8637 187.879 15.7382 187.628 15.4873C187.377 15.2363 187.251 14.9357 187.251 14.5853C187.251 14.2349 187.377 13.9343 187.628 13.6833C187.879 13.4324 188.179 13.3069 188.53 13.3069C188.88 13.3069 189.181 13.4324 189.432 13.6833C189.683 13.9343 189.808 14.2349 189.808 14.5853C189.808 14.8173 189.749 15.0304 189.631 15.2245C189.517 15.4186 189.363 15.5749 189.169 15.6932C188.98 15.8069 188.767 15.8637 188.53 15.8637Z" fill="black"/>
<path d="M184.787 4.84093V6.26139H179.134V4.84093H184.787ZM180.781 2.22729H182.457V12.625C182.457 13.0985 182.526 13.4536 182.663 13.6904C182.805 13.9224 182.985 14.0786 183.203 14.1591C183.426 14.2349 183.66 14.2728 183.906 14.2728C184.091 14.2728 184.242 14.2633 184.361 14.2443C184.479 14.2207 184.574 14.2017 184.645 14.1875L184.986 15.6932C184.872 15.7358 184.714 15.7784 184.51 15.821C184.306 15.8684 184.048 15.8921 183.736 15.8921C183.262 15.8921 182.798 15.7903 182.344 15.5867C181.894 15.3831 181.52 15.0729 181.222 14.6563C180.928 14.2396 180.781 13.714 180.781 13.0796V2.22729Z" fill="black"/>
<path d="M177.321 7.28396L175.815 7.71009C175.72 7.45915 175.581 7.2153 175.396 6.97856C175.216 6.73708 174.97 6.53822 174.657 6.38197C174.345 6.22572 173.945 6.14759 173.457 6.14759C172.789 6.14759 172.233 6.30148 171.788 6.60924C171.348 6.91227 171.128 7.29816 171.128 7.76691C171.128 8.18358 171.279 8.51265 171.582 8.75413C171.885 8.9956 172.359 9.19684 173.003 9.35782L174.622 9.75555C175.597 9.99229 176.324 10.3545 176.802 10.8422C177.28 11.3252 177.52 11.9478 177.52 12.7101C177.52 13.3351 177.34 13.8938 176.98 14.3862C176.625 14.8787 176.128 15.2669 175.488 15.551C174.849 15.8351 174.106 15.9771 173.258 15.9771C172.146 15.9771 171.225 15.7357 170.495 15.2527C169.766 14.7698 169.305 14.0643 169.11 13.1362L170.701 12.7385C170.853 13.3256 171.139 13.766 171.561 14.0595C171.987 14.3531 172.543 14.4999 173.23 14.4999C174.011 14.4999 174.631 14.3341 175.091 14.0027C175.555 13.6665 175.787 13.2641 175.787 12.7953C175.787 12.4165 175.654 12.0993 175.389 11.8436C175.124 11.5832 174.717 11.3891 174.167 11.2612L172.349 10.8351C171.35 10.5984 170.616 10.2314 170.147 9.73424C169.683 9.23235 169.451 8.60498 169.451 7.85214C169.451 7.23661 169.624 6.6921 169.97 6.21862C170.32 5.74513 170.796 5.37345 171.397 5.10356C172.003 4.83367 172.69 4.69873 173.457 4.69873C174.537 4.69873 175.384 4.93547 176 5.40896C176.62 5.88244 177.06 6.50744 177.321 7.28396Z" fill="black"/>
<path d="M162.092 15.9771C161.107 15.9771 160.243 15.7428 159.499 15.274C158.761 14.8053 158.183 14.1495 157.766 13.3067C157.354 12.4639 157.148 11.479 157.148 10.3521C157.148 9.21577 157.354 8.22382 157.766 7.37629C158.183 6.52875 158.761 5.87061 159.499 5.40186C160.243 4.93311 161.107 4.69873 162.092 4.69873C163.076 4.69873 163.938 4.93311 164.677 5.40186C165.42 5.87061 165.998 6.52875 166.41 7.37629C166.826 8.22382 167.035 9.21577 167.035 10.3521C167.035 11.479 166.826 12.4639 166.41 13.3067C165.998 14.1495 165.42 14.8053 164.677 15.274C163.938 15.7428 163.076 15.9771 162.092 15.9771ZM162.092 14.4715C162.84 14.4715 163.455 14.2797 163.938 13.8962C164.421 13.5127 164.779 13.0084 165.011 12.3834C165.243 11.7584 165.359 11.0813 165.359 10.3521C165.359 9.62297 165.243 8.94352 165.011 8.31379C164.779 7.68405 164.421 7.17506 163.938 6.7868C163.455 6.39854 162.84 6.20441 162.092 6.20441C161.344 6.20441 160.728 6.39854 160.245 6.7868C159.762 7.17506 159.405 7.68405 159.173 8.31379C158.941 8.94352 158.825 9.62297 158.825 10.3521C158.825 11.0813 158.941 11.7584 159.173 12.3834C159.405 13.0084 159.762 13.5127 160.245 13.8962C160.728 14.2797 161.344 14.4715 162.092 14.4715Z" fill="black"/>
<path d="M145.472 19.8408V4.84078H147.092V6.57373H147.29C147.414 6.38434 147.584 6.14286 147.802 5.8493C148.024 5.551 148.342 5.28585 148.754 5.05384C149.17 4.8171 149.734 4.69873 150.444 4.69873C151.362 4.69873 152.172 4.92837 152.873 5.38765C153.574 5.84693 154.12 6.49797 154.513 7.34078C154.906 8.18358 155.103 9.1779 155.103 10.3237C155.103 11.479 154.906 12.4805 154.513 13.328C154.12 14.1708 153.576 14.8242 152.88 15.2882C152.184 15.7475 151.381 15.9771 150.472 15.9771C149.772 15.9771 149.21 15.8611 148.789 15.6291C148.368 15.3924 148.043 15.1249 147.816 14.8266C147.589 14.5235 147.414 14.2726 147.29 14.0737H147.148V19.8408H145.472ZM147.12 10.2953C147.12 11.1192 147.241 11.846 147.482 12.4757C147.724 13.1007 148.076 13.5908 148.54 13.9459C149.004 14.2963 149.573 14.4715 150.245 14.4715C150.946 14.4715 151.531 14.2868 151.999 13.9175C152.473 13.5434 152.828 13.0415 153.065 12.4118C153.306 11.7773 153.427 11.0718 153.427 10.2953C153.427 9.52828 153.308 8.83699 153.072 8.22146C152.84 7.60119 152.487 7.11114 152.013 6.75129C151.545 6.3867 150.955 6.20441 150.245 6.20441C149.563 6.20441 148.99 6.37723 148.526 6.72288C148.062 7.06379 147.712 7.54201 147.475 8.15754C147.238 8.76833 147.12 9.48093 147.12 10.2953Z" fill="black"/>
<path d="M131.788 16.0055C131.097 16.0055 130.469 15.8753 129.906 15.6149C129.342 15.3498 128.895 14.9686 128.564 14.4715C128.232 13.9696 128.066 13.3635 128.066 12.6533C128.066 12.0283 128.19 11.5216 128.436 11.1334C128.682 10.7404 129.011 10.4326 129.423 10.2101C129.835 9.98755 130.289 9.82184 130.787 9.71293C131.288 9.5993 131.793 9.50934 132.299 9.44305C132.962 9.35782 133.5 9.2939 133.912 9.25129C134.328 9.20394 134.631 9.12581 134.821 9.01691C135.015 8.90801 135.112 8.71862 135.112 8.44873V8.39191C135.112 7.69115 134.92 7.14665 134.537 6.75839C134.158 6.37013 133.583 6.176 132.811 6.176C132.011 6.176 131.383 6.35119 130.929 6.70157C130.474 7.05195 130.154 7.426 129.97 7.82373L128.379 7.25555C128.663 6.59267 129.042 6.07657 129.515 5.70725C129.993 5.3332 130.514 5.07278 131.078 4.926C131.646 4.77449 132.205 4.69873 132.754 4.69873C133.104 4.69873 133.507 4.74134 133.961 4.82657C134.421 4.90706 134.863 5.07515 135.289 5.33083C135.72 5.58651 136.078 5.9724 136.362 6.4885C136.646 7.0046 136.788 7.69589 136.788 8.56237V15.7499H135.112V14.2726H135.027C134.913 14.5093 134.724 14.7627 134.458 15.0325C134.193 15.3024 133.841 15.5321 133.4 15.7215C132.96 15.9109 132.422 16.0055 131.788 16.0055ZM132.044 14.4999C132.707 14.4999 133.265 14.3697 133.72 14.1092C134.179 13.8488 134.525 13.5127 134.757 13.1007C134.994 12.6888 135.112 12.2555 135.112 11.801V10.2669C135.041 10.3521 134.885 10.4303 134.643 10.5013C134.406 10.5676 134.132 10.6268 133.819 10.6788C133.511 10.7262 133.211 10.7688 132.917 10.8067C132.628 10.8398 132.394 10.8682 132.214 10.8919C131.779 10.9487 131.371 11.0411 130.993 11.1689C130.619 11.292 130.315 11.479 130.083 11.73C129.856 11.9762 129.743 12.3124 129.743 12.7385C129.743 13.3209 129.958 13.7612 130.389 14.0595C130.824 14.3531 131.376 14.4999 132.044 14.4999Z" fill="black"/>
<path d="M115.511 15.75V4.84087H117.131V6.48859H117.244C117.443 5.94882 117.803 5.51085 118.324 5.17467C118.845 4.8385 119.432 4.67041 120.085 4.67041C120.208 4.67041 120.362 4.67278 120.547 4.67751C120.732 4.68225 120.871 4.68935 120.966 4.69882V6.40337C120.909 6.38916 120.779 6.36785 120.575 6.33944C120.376 6.3063 120.166 6.28973 119.943 6.28973C119.413 6.28973 118.939 6.401 118.523 6.62354C118.111 6.84134 117.784 7.14437 117.543 7.53263C117.306 7.91615 117.187 8.35412 117.187 8.84655V15.75H115.511Z" fill="black"/>
<path d="M108.01 15.9771C107.025 15.9771 106.161 15.7428 105.417 15.274C104.679 14.8053 104.101 14.1495 103.684 13.3067C103.272 12.4639 103.066 11.479 103.066 10.3521C103.066 9.21577 103.272 8.22382 103.684 7.37629C104.101 6.52875 104.679 5.87061 105.417 5.40186C106.161 4.93311 107.025 4.69873 108.01 4.69873C108.994 4.69873 109.856 4.93311 110.595 5.40186C111.338 5.87061 111.916 6.52875 112.328 7.37629C112.744 8.22382 112.953 9.21577 112.953 10.3521C112.953 11.479 112.744 12.4639 112.328 13.3067C111.916 14.1495 111.338 14.8053 110.595 15.274C109.856 15.7428 108.994 15.9771 108.01 15.9771ZM108.01 14.4715C108.758 14.4715 109.373 14.2797 109.856 13.8962C110.339 13.5127 110.697 13.0084 110.929 12.3834C111.161 11.7584 111.277 11.0813 111.277 10.3521C111.277 9.62297 111.161 8.94352 110.929 8.31379C110.697 7.68405 110.339 7.17506 109.856 6.7868C109.373 6.39854 108.758 6.20441 108.01 6.20441C107.261 6.20441 106.646 6.39854 106.163 6.7868C105.68 7.17506 105.323 7.68405 105.091 8.31379C104.859 8.94352 104.743 9.62297 104.743 10.3521C104.743 11.0813 104.859 11.7584 105.091 12.3834C105.323 13.0084 105.68 13.5127 106.163 13.8962C106.646 14.2797 107.261 14.4715 108.01 14.4715Z" fill="black"/>
<path d="M101.678 4.84089V6.26134H95.7972V4.84089H101.678ZM97.5586 15.75V3.33521C97.5586 2.71021 97.7054 2.18937 97.9989 1.77271C98.2925 1.35604 98.6737 1.04354 99.1424 0.835205C99.6112 0.626872 100.106 0.522705 100.627 0.522705C101.039 0.522705 101.375 0.55585 101.635 0.622138C101.896 0.688426 102.09 0.749978 102.218 0.806797L101.735 2.25566C101.65 2.22725 101.531 2.19174 101.38 2.14913C101.233 2.10651 101.039 2.08521 100.797 2.08521C100.243 2.08521 99.8432 2.22488 99.597 2.50424C99.3555 2.7836 99.2347 3.19316 99.2347 3.73293V15.75H97.5586Z" fill="black"/>
<path d="M88.6737 4.84093V6.26139H83.0203V4.84093H88.6737ZM84.668 2.22729H86.3441V12.625C86.3441 13.0985 86.4128 13.4536 86.5501 13.6904C86.6921 13.9224 86.8721 14.0786 87.0899 14.1591C87.3124 14.2349 87.5468 14.2728 87.793 14.2728C87.9777 14.2728 88.1292 14.2633 88.2475 14.2443C88.3659 14.2207 88.4606 14.2017 88.5316 14.1875L88.8725 15.6932C88.7589 15.7358 88.6003 15.7784 88.3967 15.821C88.1931 15.8684 87.935 15.8921 87.6225 15.8921C87.1491 15.8921 86.685 15.7903 86.2305 15.5867C85.7807 15.3831 85.4066 15.0729 85.1083 14.6563C84.8148 14.2396 84.668 13.714 84.668 13.0796V2.22729Z" fill="black"/>
<path d="M74.3786 4.84082L76.9922 9.30105L79.6059 4.84082H81.5377L78.015 10.2954L81.5377 15.7499H79.6059L76.9922 11.517L74.3786 15.7499H72.4468L75.9127 10.2954L72.4468 4.84082H74.3786Z" fill="black"/>
<path d="M66.3548 15.9771C65.3036 15.9771 64.3969 15.7451 63.6346 15.2811C62.877 14.8124 62.2923 14.159 61.8803 13.3209C61.4731 12.4781 61.2695 11.498 61.2695 10.3805C61.2695 9.26312 61.4731 8.27828 61.8803 7.426C62.2923 6.56899 62.8652 5.90138 63.5991 5.42316C64.3377 4.94021 65.1995 4.69873 66.1843 4.69873C66.7525 4.69873 67.3136 4.79343 67.8675 4.98282C68.4215 5.17221 68.9258 5.47998 69.3803 5.90612C69.8349 6.32752 70.1971 6.88623 70.467 7.58225C70.7369 8.27828 70.8718 9.13528 70.8718 10.1533V10.8635H62.4627V9.41464H69.1673C69.1673 8.79911 69.0442 8.24987 68.7979 7.76691C68.5565 7.28396 68.2108 6.9028 67.761 6.62345C67.3159 6.34409 66.7904 6.20441 66.1843 6.20441C65.5167 6.20441 64.939 6.37013 64.4513 6.70157C63.9684 7.02828 63.5967 7.45441 63.3363 7.97998C63.0759 8.50555 62.9457 9.06899 62.9457 9.67032V10.6362C62.9457 11.4601 63.0877 12.1585 63.3718 12.7314C63.6606 13.2996 64.0607 13.7328 64.5721 14.0311C65.0835 14.3247 65.6777 14.4715 66.3548 14.4715C66.7951 14.4715 67.1928 14.4099 67.5479 14.2868C67.9078 14.159 68.2179 13.9696 68.4783 13.7186C68.7388 13.4629 68.94 13.1457 69.082 12.7669L70.7013 13.2215C70.5309 13.7707 70.2444 14.2537 69.842 14.6703C69.4395 15.0823 68.9424 15.4042 68.3505 15.6362C67.7586 15.8635 67.0934 15.9771 66.3548 15.9771Z" fill="black"/>
<path d="M59.3768 4.84093V6.26139H53.7234V4.84093H59.3768ZM55.3711 2.22729H57.0473V12.625C57.0473 13.0985 57.1159 13.4536 57.2532 13.6904C57.3953 13.9224 57.5752 14.0786 57.793 14.1591C58.0155 14.2349 58.2499 14.2728 58.4961 14.2728C58.6808 14.2728 58.8323 14.2633 58.9507 14.2443C59.069 14.2207 59.1637 14.2017 59.2348 14.1875L59.5757 15.6932C59.462 15.7358 59.3034 15.7784 59.0998 15.821C58.8962 15.8684 58.6382 15.8921 58.3257 15.8921C57.8522 15.8921 57.3882 15.7903 56.9336 15.5867C56.4838 15.3831 56.1098 15.0729 55.8115 14.6563C55.5179 14.2396 55.3711 13.714 55.3711 13.0796V2.22729Z" fill="black"/>
<path d="M38.9542 19.8408C38.6701 19.8408 38.4168 19.8171 38.1942 19.7698C37.9717 19.7272 37.8178 19.6846 37.7326 19.642L38.1587 18.1647C38.5659 18.2689 38.9257 18.3067 39.2382 18.2783C39.5507 18.2499 39.8277 18.1102 40.0692 17.8593C40.3154 17.6131 40.5403 17.213 40.7439 16.659L41.0564 15.8067L37.0223 4.84082H38.8405L41.8519 13.534H41.9655L44.9769 4.84082H46.7951L42.1644 17.3408C41.956 17.9043 41.698 18.3707 41.3902 18.74C41.0825 19.114 40.725 19.391 40.3178 19.5709C39.9153 19.7509 39.4608 19.8408 38.9542 19.8408Z" fill="black"/>
<path d="M29.5721 15.9773C28.663 15.9773 27.8604 15.7477 27.1644 15.2884C26.4684 14.8244 25.9239 14.171 25.5309 13.3282C25.1379 12.4806 24.9414 11.4792 24.9414 10.3239C24.9414 9.17807 25.1379 8.18376 25.5309 7.34095C25.9239 6.49815 26.4708 5.84711 27.1715 5.38783C27.8723 4.92855 28.6819 4.69891 29.6005 4.69891C30.3107 4.69891 30.8718 4.81728 31.2837 5.05402C31.7004 5.28603 32.0176 5.55118 32.2354 5.84948C32.458 6.14304 32.6308 6.38451 32.7539 6.57391H32.896V1.20459H34.5721V15.75H32.9528V14.0739H32.7539C32.6308 14.2728 32.4556 14.5237 32.2283 14.8267C32.0011 15.125 31.6767 15.3926 31.2553 15.6293C30.8339 15.8613 30.2728 15.9773 29.5721 15.9773ZM29.7994 14.4716C30.4717 14.4716 31.0399 14.2964 31.5039 13.9461C31.9679 13.591 32.3207 13.1009 32.5621 12.4759C32.8036 11.8462 32.9244 11.1194 32.9244 10.2955C32.9244 9.4811 32.806 8.76851 32.5692 8.15771C32.3325 7.54218 31.9821 7.06396 31.5181 6.72306C31.0541 6.37741 30.4812 6.20459 29.7994 6.20459C29.0891 6.20459 28.4973 6.38688 28.0238 6.75146C27.555 7.11131 27.2023 7.60137 26.9656 8.22164C26.7335 8.83717 26.6175 9.52845 26.6175 10.2955C26.6175 11.072 26.7359 11.7775 26.9727 12.412C27.2141 13.0417 27.5692 13.5436 28.038 13.9177C28.5115 14.287 29.0986 14.4716 29.7994 14.4716Z" fill="black"/>
<path d="M17.951 15.9771C16.9661 15.9771 16.102 15.7428 15.3587 15.274C14.62 14.8053 14.0424 14.1495 13.6257 13.3067C13.2138 12.4639 13.0078 11.479 13.0078 10.3521C13.0078 9.21577 13.2138 8.22382 13.6257 7.37629C14.0424 6.52875 14.62 5.87061 15.3587 5.40186C16.102 4.93311 16.9661 4.69873 17.951 4.69873C18.9358 4.69873 19.7976 4.93311 20.5362 5.40186C21.2796 5.87061 21.8572 6.52875 22.2692 7.37629C22.6858 8.22382 22.8942 9.21577 22.8942 10.3521C22.8942 11.479 22.6858 12.4639 22.2692 13.3067C21.8572 14.1495 21.2796 14.8053 20.5362 15.274C19.7976 15.7428 18.9358 15.9771 17.951 15.9771ZM17.951 14.4715C18.6991 14.4715 19.3146 14.2797 19.7976 13.8962C20.2805 13.5127 20.638 13.0084 20.87 12.3834C21.102 11.7584 21.218 11.0813 21.218 10.3521C21.218 9.62297 21.102 8.94352 20.87 8.31379C20.638 7.68405 20.2805 7.17506 19.7976 6.7868C19.3146 6.39854 18.6991 6.20441 17.951 6.20441C17.2029 6.20441 16.5874 6.39854 16.1044 6.7868C15.6214 7.17506 15.264 7.68405 15.032 8.31379C14.8 8.94352 14.6839 9.62297 14.6839 10.3521C14.6839 11.0813 14.8 11.7584 15.032 12.3834C15.264 13.0084 15.6214 13.5127 16.1044 13.8962C16.5874 14.2797 17.2029 14.4715 17.951 14.4715Z" fill="black"/>
<path d="M0.738647 15.75V1.20459H5.82387C6.83713 1.20459 7.67283 1.37978 8.33098 1.73016C8.98912 2.0758 9.47918 2.54218 9.80115 3.12931C10.1231 3.71169 10.2841 4.358 10.2841 5.06823C10.2841 5.69323 10.1728 6.20932 9.95029 6.61652C9.73249 7.02372 9.44367 7.34569 9.08382 7.58243C8.7287 7.81917 8.34281 7.99436 7.92615 8.108V8.25004C8.37122 8.27845 8.81867 8.4347 9.26848 8.71879C9.71829 9.00289 10.0947 9.41008 10.3977 9.94038C10.7008 10.4707 10.8523 11.1194 10.8523 11.8864C10.8523 12.6156 10.6866 13.2714 10.3551 13.8537C10.0237 14.4361 9.50048 14.8978 8.78552 15.2387C8.07056 15.5796 7.14016 15.75 5.99433 15.75H0.738647ZM2.50001 14.1875H5.99433C7.1449 14.1875 7.96166 13.965 8.44461 13.5199C8.9323 13.0701 9.17615 12.5256 9.17615 11.8864C9.17615 11.394 9.05067 10.9394 8.79973 10.5228C8.54878 10.1014 8.1913 9.7652 7.72728 9.51425C7.26327 9.25857 6.71403 9.13073 6.07956 9.13073H2.50001V14.1875ZM2.50001 7.59664H5.76706C6.29736 7.59664 6.77558 7.49247 7.20172 7.28414C7.63259 7.0758 7.9735 6.78224 8.22444 6.40345C8.48012 6.02467 8.60797 5.57959 8.60797 5.06823C8.60797 4.42902 8.38543 3.88688 7.94035 3.44181C7.49528 2.99199 6.78978 2.76709 5.82387 2.76709H2.50001V7.59664Z" fill="black"/>
</svg>
