<svg width="356" height="80" viewBox="0 0 356 80" fill="none" xmlns="http://www.w3.org/2000/svg">
<path d="M239.487 75.4433C239.136 75.4433 238.836 75.3178 238.585 75.0669C238.334 74.8159 238.208 74.5153 238.208 74.1649C238.208 73.8145 238.334 73.5138 238.585 73.2629C238.836 73.0119 239.136 72.8865 239.487 72.8865C239.837 72.8865 240.138 73.0119 240.389 73.2629C240.64 73.5138 240.765 73.8145 240.765 74.1649C240.765 74.3969 240.706 74.61 240.588 74.8041C240.474 74.9982 240.32 75.1545 240.126 75.2728C239.937 75.3865 239.724 75.4433 239.487 75.4433Z" fill="black"/>
<path d="M228.242 68.767V75.3295H226.566V64.4204H228.185V66.1249H228.327C228.583 65.5709 228.971 65.1259 229.492 64.7897C230.013 64.4488 230.685 64.2783 231.509 64.2783C232.248 64.2783 232.894 64.4298 233.448 64.7329C234.002 65.0312 234.433 65.4857 234.741 66.0965C235.049 66.7026 235.202 67.4696 235.202 68.3976V75.3295H233.526V68.5113C233.526 67.6543 233.304 66.9867 232.859 66.5084C232.414 66.0255 231.803 65.784 231.026 65.784C230.491 65.784 230.013 65.9 229.592 66.132C229.175 66.364 228.846 66.7026 228.604 67.1476C228.363 67.5927 228.242 68.1325 228.242 68.767Z" fill="black"/>
<path d="M219.064 75.5567C218.079 75.5567 217.215 75.3224 216.472 74.8536C215.733 74.3849 215.156 73.7291 214.739 72.8863C214.327 72.0435 214.121 71.0586 214.121 69.9317C214.121 68.7954 214.327 67.8034 214.739 66.9559C215.156 66.1083 215.733 65.4502 216.472 64.9814C217.215 64.5127 218.079 64.2783 219.064 64.2783C220.049 64.2783 220.911 64.5127 221.65 64.9814C222.393 65.4502 222.971 66.1083 223.382 66.9559C223.799 67.8034 224.007 68.7954 224.007 69.9317C224.007 71.0586 223.799 72.0435 223.382 72.8863C222.971 73.7291 222.393 74.3849 221.65 74.8536C220.911 75.3224 220.049 75.5567 219.064 75.5567ZM219.064 74.051C219.812 74.051 220.428 73.8593 220.911 73.4758C221.394 73.0922 221.751 72.588 221.983 71.963C222.215 71.338 222.331 70.6609 222.331 69.9317C222.331 69.2026 222.215 68.5231 221.983 67.8934C221.751 67.2636 221.394 66.7547 220.911 66.3664C220.428 65.9781 219.812 65.784 219.064 65.784C218.316 65.784 217.701 65.9781 217.218 66.3664C216.735 66.7547 216.377 67.2636 216.145 67.8934C215.913 68.5231 215.797 69.2026 215.797 69.9317C215.797 70.6609 215.913 71.338 216.145 71.963C216.377 72.588 216.735 73.0922 217.218 73.4758C217.701 73.8593 218.316 74.051 219.064 74.051Z" fill="black"/>
<path d="M209.886 75.3296V64.4205H211.563V75.3296H209.886ZM210.739 62.6023C210.412 62.6023 210.13 62.491 209.893 62.2685C209.661 62.046 209.545 61.7785 209.545 61.466C209.545 61.1535 209.661 60.8859 209.893 60.6634C210.13 60.4409 210.412 60.3296 210.739 60.3296C211.065 60.3296 211.345 60.4409 211.577 60.6634C211.813 60.8859 211.932 61.1535 211.932 61.466C211.932 61.7785 211.813 62.046 211.577 62.2685C211.345 62.491 211.065 62.6023 210.739 62.6023Z" fill="black"/>
<path d="M207.365 64.4205V65.841H201.712V64.4205H207.365ZM203.359 61.8069H205.036V72.2046C205.036 72.6781 205.104 73.0332 205.242 73.27C205.384 73.502 205.563 73.6582 205.781 73.7387C206.004 73.8145 206.238 73.8523 206.484 73.8523C206.669 73.8523 206.821 73.8429 206.939 73.8239C207.057 73.8003 207.152 73.7813 207.223 73.7671L207.564 75.2728C207.45 75.3154 207.292 75.358 207.088 75.4006C206.884 75.448 206.626 75.4717 206.314 75.4717C205.84 75.4717 205.376 75.3699 204.922 75.1663C204.472 74.9627 204.098 74.6525 203.8 74.2359C203.506 73.8192 203.359 73.2936 203.359 72.6592V61.8069Z" fill="black"/>
<path d="M199.899 66.8635L198.393 67.2897C198.298 67.0387 198.159 66.7949 197.974 66.5582C197.794 66.3167 197.548 66.1178 197.235 65.9616C196.923 65.8053 196.523 65.7272 196.035 65.7272C195.368 65.7272 194.811 65.8811 194.366 66.1888C193.926 66.4919 193.706 66.8778 193.706 67.3465C193.706 67.7632 193.857 68.0922 194.16 68.3337C194.463 68.5752 194.937 68.7764 195.581 68.9374L197.2 69.3351C198.175 69.5719 198.902 69.9341 199.38 70.4218C199.859 70.9047 200.098 71.5274 200.098 72.2897C200.098 72.9147 199.918 73.4734 199.558 73.9658C199.203 74.4582 198.706 74.8465 198.066 75.1306C197.427 75.4147 196.684 75.5567 195.836 75.5567C194.724 75.5567 193.803 75.3153 193.074 74.8323C192.344 74.3493 191.883 73.6439 191.689 72.7158L193.279 72.3181C193.431 72.9052 193.717 73.3456 194.139 73.6391C194.565 73.9327 195.121 74.0795 195.808 74.0795C196.589 74.0795 197.209 73.9137 197.669 73.5823C198.133 73.2461 198.365 72.8437 198.365 72.3749C198.365 71.9961 198.232 71.6789 197.967 71.4232C197.702 71.1628 197.295 70.9687 196.745 70.8408L194.927 70.4147C193.928 70.1779 193.194 69.811 192.726 69.3138C192.261 68.8119 192.029 68.1846 192.029 67.4317C192.029 66.8162 192.202 66.2717 192.548 65.7982C192.898 65.3247 193.374 64.953 193.976 64.6832C194.582 64.4133 195.268 64.2783 196.035 64.2783C197.115 64.2783 197.962 64.5151 198.578 64.9885C199.198 65.462 199.638 66.087 199.899 66.8635Z" fill="black"/>
<path d="M185.105 75.5567C184.054 75.5567 183.147 75.3247 182.385 74.8607C181.627 74.392 181.042 73.7386 180.63 72.9005C180.223 72.0577 180.02 71.0776 180.02 69.9601C180.02 68.8427 180.223 67.8579 180.63 67.0056C181.042 66.1486 181.615 65.481 182.349 65.0028C183.088 64.5198 183.949 64.2783 184.934 64.2783C185.502 64.2783 186.064 64.373 186.618 64.5624C187.172 64.7518 187.676 65.0596 188.13 65.4857C188.585 65.9071 188.947 66.4658 189.217 67.1618C189.487 67.8579 189.622 68.7149 189.622 69.7329V70.4431H181.213V68.9942H187.917C187.917 68.3787 187.794 67.8295 187.548 67.3465C187.306 66.8635 186.961 66.4824 186.511 66.203C186.066 65.9237 185.54 65.784 184.934 65.784C184.267 65.784 183.689 65.9497 183.201 66.2812C182.718 66.6079 182.347 67.034 182.086 67.5596C181.826 68.0851 181.696 68.6486 181.696 69.2499V70.2158C181.696 71.0397 181.838 71.7381 182.122 72.311C182.411 72.8792 182.811 73.3124 183.322 73.6107C183.833 73.9043 184.428 74.051 185.105 74.051C185.545 74.051 185.943 73.9895 186.298 73.8664C186.658 73.7386 186.968 73.5492 187.228 73.2982C187.489 73.0425 187.69 72.7253 187.832 72.3465L189.451 72.801C189.281 73.3503 188.994 73.8332 188.592 74.2499C188.19 74.6618 187.692 74.9838 187.101 75.2158C186.509 75.4431 185.843 75.5567 185.105 75.5567Z" fill="black"/>
<path d="M175.785 70.8693V64.4204H177.461V75.3295H175.785V73.4829H175.671C175.415 74.0369 175.018 74.508 174.478 74.8963C173.938 75.2798 173.256 75.4715 172.433 75.4715C171.751 75.4715 171.145 75.3224 170.614 75.0241C170.084 74.7211 169.667 74.2665 169.364 73.6605C169.061 73.0497 168.91 72.2803 168.91 71.3522V64.4204H170.586V71.2386C170.586 72.034 170.808 72.6685 171.254 73.142C171.703 73.6155 172.276 73.8522 172.972 73.8522C173.389 73.8522 173.813 73.7457 174.244 73.5326C174.679 73.3196 175.044 72.9929 175.337 72.5525C175.636 72.1122 175.785 71.5511 175.785 70.8693Z" fill="black"/>
<path d="M164.165 79.4204V73.6533H164.023C163.9 73.8522 163.725 74.1031 163.498 74.4062C163.271 74.7045 162.946 74.972 162.525 75.2087C162.103 75.4407 161.542 75.5567 160.842 75.5567C159.933 75.5567 159.13 75.3271 158.434 74.8678C157.738 74.4038 157.193 73.7504 156.8 72.9076C156.407 72.06 156.211 71.0586 156.211 69.9033C156.211 68.7575 156.407 67.7632 156.8 66.9204C157.193 66.0776 157.74 65.4265 158.441 64.9672C159.142 64.508 159.951 64.2783 160.87 64.2783C161.58 64.2783 162.141 64.3967 162.553 64.6334C162.97 64.8654 163.287 65.1306 163.505 65.4289C163.728 65.7225 163.9 65.9639 164.023 66.1533H164.222V64.4204H165.842V79.4204H164.165ZM161.069 74.051C161.741 74.051 162.309 73.8759 162.773 73.5255C163.237 73.1704 163.59 72.6803 163.832 72.0553C164.073 71.4256 164.194 70.6988 164.194 69.8749C164.194 69.0605 164.076 68.3479 163.839 67.7371C163.602 67.1216 163.252 66.6434 162.788 66.3025C162.324 65.9568 161.751 65.784 161.069 65.784C160.359 65.784 159.767 65.9663 159.293 66.3309C158.825 66.6907 158.472 67.1808 158.235 67.801C158.003 68.4166 157.887 69.1079 157.887 69.8749C157.887 70.6514 158.005 71.3569 158.242 71.9914C158.484 72.6211 158.839 73.123 159.308 73.4971C159.781 73.8664 160.368 74.051 161.069 74.051Z" fill="black"/>
<path d="M143.038 75.5851C142.347 75.5851 141.719 75.4549 141.156 75.1945C140.592 74.9294 140.145 74.5482 139.814 74.051C139.482 73.5492 139.316 72.9431 139.316 72.2329C139.316 71.6079 139.44 71.1012 139.686 70.713C139.932 70.32 140.261 70.0122 140.673 69.7897C141.085 69.5672 141.539 69.4014 142.037 69.2925C142.538 69.1789 143.043 69.0889 143.549 69.0226C144.212 68.9374 144.75 68.8735 145.162 68.8309C145.578 68.7835 145.881 68.7054 146.071 68.5965C146.265 68.4876 146.362 68.2982 146.362 68.0283V67.9715C146.362 67.2707 146.17 66.7262 145.787 66.338C145.408 65.9497 144.833 65.7556 144.061 65.7556C143.261 65.7556 142.633 65.9308 142.179 66.2812C141.724 66.6315 141.404 67.0056 141.22 67.4033L139.629 66.8351C139.913 66.1723 140.292 65.6562 140.765 65.2868C141.243 64.9128 141.764 64.6524 142.328 64.5056C142.896 64.3541 143.455 64.2783 144.004 64.2783C144.354 64.2783 144.757 64.3209 145.211 64.4062C145.671 64.4867 146.113 64.6547 146.539 64.9104C146.97 65.1661 147.328 65.552 147.612 66.0681C147.896 66.5842 148.038 67.2755 148.038 68.142V75.3295H146.362V73.8522H146.277C146.163 74.0889 145.974 74.3422 145.708 74.6121C145.443 74.882 145.091 75.1117 144.65 75.301C144.21 75.4904 143.672 75.5851 143.038 75.5851ZM143.294 74.0795C143.957 74.0795 144.515 73.9493 144.97 73.6888C145.429 73.4284 145.775 73.0922 146.007 72.6803C146.244 72.2684 146.362 71.8351 146.362 71.3806V69.8465C146.291 69.9317 146.135 70.0099 145.893 70.0809C145.656 70.1472 145.382 70.2064 145.069 70.2584C144.761 70.3058 144.461 70.3484 144.167 70.3863C143.878 70.4194 143.644 70.4478 143.464 70.4715C143.029 70.5283 142.621 70.6207 142.243 70.7485C141.869 70.8716 141.565 71.0586 141.333 71.3096C141.106 71.5558 140.993 71.892 140.993 72.3181C140.993 72.9005 141.208 73.3408 141.639 73.6391C142.074 73.9327 142.626 74.0795 143.294 74.0795Z" fill="black"/>
<path d="M131.481 66.8635L129.975 67.2897C129.88 67.0387 129.741 66.7949 129.556 66.5582C129.376 66.3167 129.13 66.1178 128.817 65.9616C128.505 65.8053 128.105 65.7272 127.617 65.7272C126.95 65.7272 126.393 65.8811 125.948 66.1888C125.508 66.4919 125.288 66.8778 125.288 67.3465C125.288 67.7632 125.439 68.0922 125.742 68.3337C126.045 68.5752 126.519 68.7764 127.163 68.9374L128.782 69.3351C129.757 69.5719 130.484 69.9341 130.962 70.4218C131.441 70.9047 131.68 71.5274 131.68 72.2897C131.68 72.9147 131.5 73.4734 131.14 73.9658C130.785 74.4582 130.288 74.8465 129.648 75.1306C129.009 75.4147 128.266 75.5567 127.418 75.5567C126.306 75.5567 125.385 75.3153 124.656 74.8323C123.926 74.3493 123.465 73.6439 123.271 72.7158L124.862 72.3181C125.013 72.9052 125.299 73.3456 125.721 73.6391C126.147 73.9327 126.703 74.0795 127.39 74.0795C128.171 74.0795 128.791 73.9137 129.251 73.5823C129.715 73.2461 129.947 72.8437 129.947 72.3749C129.947 71.9961 129.814 71.6789 129.549 71.4232C129.284 71.1628 128.877 70.9687 128.327 70.8408L126.509 70.4147C125.51 70.1779 124.776 69.811 124.308 69.3138C123.844 68.8119 123.612 68.1846 123.612 67.4317C123.612 66.8162 123.784 66.2717 124.13 65.7982C124.48 65.3247 124.956 64.953 125.558 64.6832C126.164 64.4133 126.85 64.2783 127.617 64.2783C128.697 64.2783 129.544 64.5151 130.16 64.9885C130.78 65.462 131.22 66.087 131.481 66.8635Z" fill="black"/>
<path d="M123.082 60.7842V62.0626C123.082 62.4508 123.011 62.8651 122.869 63.3055C122.732 63.7411 122.528 64.1649 122.259 64.5768C121.993 64.984 121.671 65.3391 121.293 65.6421L120.384 64.9035C120.682 64.4774 120.94 64.0347 121.158 63.5754C121.38 63.1114 121.491 62.6166 121.491 62.091V60.7842H123.082Z" fill="black"/>
<path d="M118.517 64.4205V65.841H112.864V64.4205H118.517ZM114.512 61.8069H116.188V72.2046C116.188 72.6781 116.257 73.0332 116.394 73.27C116.536 73.502 116.716 73.6582 116.934 73.7387C117.156 73.8145 117.39 73.8523 117.637 73.8523C117.821 73.8523 117.973 73.8429 118.091 73.8239C118.21 73.8003 118.304 73.7813 118.375 73.7671L118.716 75.2728C118.603 75.3154 118.444 75.358 118.24 75.4006C118.037 75.448 117.779 75.4717 117.466 75.4717C116.993 75.4717 116.529 75.3699 116.074 75.1663C115.624 74.9627 115.25 74.6525 114.952 74.2359C114.658 73.8192 114.512 73.2936 114.512 72.6592V61.8069Z" fill="black"/>
<path d="M109.027 75.3296V64.4205H110.703V75.3296H109.027ZM109.879 62.6023C109.553 62.6023 109.271 62.491 109.034 62.2685C108.802 62.046 108.686 61.7785 108.686 61.466C108.686 61.1535 108.802 60.8859 109.034 60.6634C109.271 60.4409 109.553 60.3296 109.879 60.3296C110.206 60.3296 110.485 60.4409 110.717 60.6634C110.954 60.8859 111.072 61.1535 111.072 61.466C111.072 61.7785 110.954 62.046 110.717 62.2685C110.485 62.491 110.206 62.6023 109.879 62.6023Z" fill="black"/>
<path d="M100.68 66.8635L99.1744 67.2897C99.0797 67.0387 98.94 66.7949 98.7554 66.5582C98.5754 66.3167 98.3292 66.1178 98.0167 65.9616C97.7042 65.8053 97.3041 65.7272 96.8164 65.7272C96.1488 65.7272 95.5925 65.8811 95.1474 66.1888C94.7071 66.4919 94.4869 66.8778 94.4869 67.3465C94.4869 67.7632 94.6384 68.0922 94.9414 68.3337C95.2445 68.5752 95.718 68.7764 96.3619 68.9374L97.9812 69.3351C98.9566 69.5719 99.6834 69.9341 100.162 70.4218C100.64 70.9047 100.879 71.5274 100.879 72.2897C100.879 72.9147 100.699 73.4734 100.339 73.9658C99.9841 74.4582 99.4869 74.8465 98.8477 75.1306C98.2085 75.4147 97.4651 75.5567 96.6176 75.5567C95.5049 75.5567 94.584 75.3153 93.8548 74.8323C93.1256 74.3493 92.664 73.6439 92.4698 72.7158L94.0608 72.3181C94.2123 72.9052 94.4987 73.3456 94.9201 73.6391C95.3463 73.9327 95.9026 74.0795 96.5892 74.0795C97.3704 74.0795 97.9907 73.9137 98.45 73.5823C98.914 73.2461 99.146 72.8437 99.146 72.3749C99.146 71.9961 99.0134 71.6789 98.7483 71.4232C98.4831 71.1628 98.0759 70.9687 97.5267 70.8408L95.7085 70.4147C94.7094 70.1779 93.9755 69.811 93.5068 69.3138C93.0428 68.8119 92.8108 68.1846 92.8108 67.4317C92.8108 66.8162 92.9836 66.2717 93.3292 65.7982C93.6796 65.3247 94.1554 64.953 94.7568 64.6832C95.3628 64.4133 96.0494 64.2783 96.8164 64.2783C97.896 64.2783 98.7435 64.5151 99.359 64.9885C99.9793 65.462 100.42 66.087 100.68 66.8635Z" fill="black"/>
<path d="M85.886 75.5567C84.8349 75.5567 83.9282 75.3247 83.1658 74.8607C82.4083 74.392 81.8235 73.7386 81.4116 72.9005C81.0044 72.0577 80.8008 71.0776 80.8008 69.9601C80.8008 68.8427 81.0044 67.8579 81.4116 67.0056C81.8235 66.1486 82.3964 65.481 83.1303 65.0028C83.869 64.5198 84.7307 64.2783 85.7156 64.2783C86.2837 64.2783 86.8448 64.373 87.3988 64.5624C87.9528 64.7518 88.457 65.0596 88.9116 65.4857C89.3661 65.9071 89.7283 66.4658 89.9982 67.1618C90.2681 67.8579 90.4031 68.7149 90.4031 69.7329V70.4431H81.994V68.9942H88.6985C88.6985 68.3787 88.5754 67.8295 88.3292 67.3465C88.0877 66.8635 87.7421 66.4824 87.2923 66.203C86.8472 65.9237 86.3216 65.784 85.7156 65.784C85.0479 65.784 84.4703 65.9497 83.9826 66.2812C83.4996 66.6079 83.128 67.034 82.8675 67.5596C82.6071 68.0851 82.4769 68.6486 82.4769 69.2499V70.2158C82.4769 71.0397 82.619 71.7381 82.9031 72.311C83.1919 72.8792 83.592 73.3124 84.1033 73.6107C84.6147 73.9043 85.2089 74.051 85.886 74.051C86.3264 74.051 86.7241 73.9895 87.0792 73.8664C87.439 73.7386 87.7492 73.5492 88.0096 73.2982C88.27 73.0425 88.4712 72.7253 88.6133 72.3465L90.2326 72.801C90.0621 73.3503 89.7757 73.8332 89.3732 74.2499C88.9708 74.6618 88.4736 74.9838 87.8817 75.2158C87.2899 75.4431 86.6246 75.5567 85.886 75.5567Z" fill="black"/>
<path d="M63.9293 75.3295V64.4204H65.5486V66.1249H65.6907C65.918 65.5425 66.2849 65.0903 66.7915 64.7684C67.2982 64.4417 67.9066 64.2783 68.6168 64.2783C69.3365 64.2783 69.9355 64.4417 70.4137 64.7684C70.8967 65.0903 71.2731 65.5425 71.543 66.1249H71.6566C71.9359 65.5615 72.355 65.114 72.9137 64.7826C73.4724 64.4464 74.1424 64.2783 74.9236 64.2783C75.899 64.2783 76.6968 64.5837 77.3171 65.1945C77.9374 65.8006 78.2475 66.7452 78.2475 68.0283V75.3295H76.5714V68.0283C76.5714 67.2234 76.3512 66.6481 75.9109 66.3025C75.4705 65.9568 74.9521 65.784 74.3555 65.784C73.5884 65.784 72.9942 66.016 72.5728 66.48C72.1514 66.9393 71.9407 67.5217 71.9407 68.2272V75.3295H70.2361V67.8579C70.2361 67.2376 70.0349 66.7381 69.6324 66.3593C69.23 65.9758 68.7115 65.784 68.077 65.784C67.6414 65.784 67.2342 65.9 66.8555 66.132C66.4814 66.364 66.1784 66.686 65.9464 67.0979C65.7191 67.5051 65.6055 67.9762 65.6055 68.5113V75.3295H63.9293Z" fill="black"/>
<path d="M59.1833 75.3296V64.4205H60.8594V75.3296H59.1833ZM60.0355 62.6023C59.7088 62.6023 59.4271 62.491 59.1904 62.2685C58.9584 62.046 58.8423 61.7785 58.8423 61.466C58.8423 61.1535 58.9584 60.8859 59.1904 60.6634C59.4271 60.4409 59.7088 60.3296 60.0355 60.3296C60.3622 60.3296 60.6416 60.4409 60.8736 60.6634C61.1103 60.8859 61.2287 61.1535 61.2287 61.466C61.2287 61.7785 61.1103 62.046 60.8736 62.2685C60.6416 62.491 60.3622 62.6023 60.0355 62.6023Z" fill="black"/>
<path d="M56.662 64.4205V65.841H51.0085V64.4205H56.662ZM52.6563 61.8069H54.3324V72.2046C54.3324 72.6781 54.4011 73.0332 54.5384 73.27C54.6804 73.502 54.8603 73.6582 55.0781 73.7387C55.3007 73.8145 55.5351 73.8523 55.7813 73.8523C55.9659 73.8523 56.1174 73.8429 56.2358 73.8239C56.3542 73.8003 56.4489 73.7813 56.5199 73.7671L56.8608 75.2728C56.7472 75.3154 56.5886 75.358 56.385 75.4006C56.1814 75.448 55.9233 75.4717 55.6108 75.4717C55.1373 75.4717 54.6733 75.3699 54.2188 75.1663C53.769 74.9627 53.3949 74.6525 53.0966 74.2359C52.8031 73.8192 52.6563 73.2936 52.6563 72.6592V61.8069Z" fill="black"/>
<path d="M44.8509 75.5567C43.7997 75.5567 42.893 75.3247 42.1307 74.8607C41.3731 74.392 40.7884 73.7386 40.3764 72.9005C39.9692 72.0577 39.7656 71.0776 39.7656 69.9601C39.7656 68.8427 39.9692 67.8579 40.3764 67.0056C40.7884 66.1486 41.3613 65.481 42.0952 65.0028C42.8338 64.5198 43.6955 64.2783 44.6804 64.2783C45.2486 64.2783 45.8097 64.373 46.3636 64.5624C46.9176 64.7518 47.4219 65.0596 47.8764 65.4857C48.331 65.9071 48.6932 66.4658 48.9631 67.1618C49.233 67.8579 49.3679 68.7149 49.3679 69.7329V70.4431H40.9588V68.9942H47.6634C47.6634 68.3787 47.5402 67.8295 47.294 67.3465C47.0526 66.8635 46.7069 66.4824 46.2571 66.203C45.812 65.9237 45.2865 65.784 44.6804 65.784C44.0128 65.784 43.4351 65.9497 42.9474 66.2812C42.4645 66.6079 42.0928 67.034 41.8324 67.5596C41.572 68.0851 41.4418 68.6486 41.4418 69.2499V70.2158C41.4418 71.0397 41.5838 71.7381 41.8679 72.311C42.1567 72.8792 42.5568 73.3124 43.0682 73.6107C43.5795 73.9043 44.1738 74.051 44.8509 74.051C45.2912 74.051 45.6889 73.9895 46.044 73.8664C46.4039 73.7386 46.714 73.5492 46.9744 73.2982C47.2348 73.0425 47.4361 72.7253 47.5781 72.3465L49.1974 72.801C49.027 73.3503 48.7405 73.8332 48.3381 74.2499C47.9356 74.6618 47.4384 74.9838 46.8466 75.2158C46.2547 75.4431 45.5895 75.5567 44.8509 75.5567Z" fill="black"/>
<path d="M22.8942 75.3295V64.4204H24.5135V66.1249H24.6555C24.8828 65.5425 25.2498 65.0903 25.7564 64.7684C26.263 64.4417 26.8714 64.2783 27.5817 64.2783C28.3014 64.2783 28.9003 64.4417 29.3785 64.7684C29.8615 65.0903 30.2379 65.5425 30.5078 66.1249H30.6214C30.9008 65.5615 31.3198 65.114 31.8785 64.7826C32.4373 64.4464 33.1072 64.2783 33.8885 64.2783C34.8639 64.2783 35.6617 64.5837 36.2819 65.1945C36.9022 65.8006 37.2123 66.7452 37.2123 68.0283V75.3295H35.5362V68.0283C35.5362 67.2234 35.316 66.6481 34.8757 66.3025C34.4354 65.9568 33.9169 65.784 33.3203 65.784C32.5533 65.784 31.959 66.016 31.5376 66.48C31.1162 66.9393 30.9055 67.5217 30.9055 68.2272V75.3295H29.201V67.8579C29.201 67.2376 28.9998 66.7381 28.5973 66.3593C28.1948 65.9758 27.6764 65.784 27.0419 65.784C26.6063 65.784 26.1991 65.9 25.8203 66.132C25.4462 66.364 25.1432 66.686 24.9112 67.0979C24.6839 67.5051 24.5703 67.9762 24.5703 68.5113V75.3295H22.8942Z" fill="black"/>
<path d="M15.3924 75.5567C14.4076 75.5567 13.5434 75.3224 12.8001 74.8536C12.0614 74.3849 11.4838 73.7291 11.0671 72.8863C10.6552 72.0435 10.4492 71.0586 10.4492 69.9317C10.4492 68.7954 10.6552 67.8034 11.0671 66.9559C11.4838 66.1083 12.0614 65.4502 12.8001 64.9814C13.5434 64.5127 14.4076 64.2783 15.3924 64.2783C16.3773 64.2783 17.239 64.5127 17.9776 64.9814C18.721 65.4502 19.2987 66.1083 19.7106 66.9559C20.1273 67.8034 20.3356 68.7954 20.3356 69.9317C20.3356 71.0586 20.1273 72.0435 19.7106 72.8863C19.2987 73.7291 18.721 74.3849 17.9776 74.8536C17.239 75.3224 16.3773 75.5567 15.3924 75.5567ZM15.3924 74.051C16.1405 74.051 16.756 73.8593 17.239 73.4758C17.7219 73.0922 18.0794 72.588 18.3114 71.963C18.5434 71.338 18.6594 70.6609 18.6594 69.9317C18.6594 69.2026 18.5434 68.5231 18.3114 67.8934C18.0794 67.2636 17.7219 66.7547 17.239 66.3664C16.756 65.9781 16.1405 65.784 15.3924 65.784C14.6443 65.784 14.0288 65.9781 13.5458 66.3664C13.0629 66.7547 12.7054 67.2636 12.4734 67.8934C12.2414 68.5231 12.1254 69.2026 12.1254 69.9317C12.1254 70.6609 12.2414 71.338 12.4734 71.963C12.7054 72.588 13.0629 73.0922 13.5458 73.4758C14.0288 73.8593 14.6443 74.051 15.3924 74.051Z" fill="black"/>
<path d="M8.23861 66.8635L6.73293 67.2897C6.63823 67.0387 6.49855 66.7949 6.31389 66.5582C6.13397 66.3167 5.88776 66.1178 5.57526 65.9616C5.26276 65.8053 4.86266 65.7272 4.37497 65.7272C3.70736 65.7272 3.15101 65.8811 2.70594 66.1888C2.2656 66.4919 2.04543 66.8778 2.04543 67.3465C2.04543 67.7632 2.19694 68.0922 2.49997 68.3337C2.803 68.5752 3.27649 68.7764 3.92043 68.9374L5.53974 69.3351C6.51512 69.5719 7.24192 69.9341 7.72014 70.4218C8.19836 70.9047 8.43747 71.5274 8.43747 72.2897C8.43747 72.9147 8.25755 73.4734 7.8977 73.9658C7.54259 74.4582 7.04543 74.8465 6.40622 75.1306C5.76702 75.4147 5.02365 75.5567 4.17611 75.5567C3.06342 75.5567 2.14249 75.3153 1.41332 74.8323C0.684158 74.3493 0.22251 73.6439 0.0283813 72.7158L1.61929 72.3181C1.77081 72.9052 2.05726 73.3456 2.47867 73.6391C2.9048 73.9327 3.46115 74.0795 4.1477 74.0795C4.92895 74.0795 5.54921 73.9137 6.00849 73.5823C6.47251 73.2461 6.70452 72.8437 6.70452 72.3749C6.70452 71.9961 6.57194 71.6789 6.30679 71.4232C6.04164 71.1628 5.63444 70.9687 5.0852 70.8408L3.26702 70.4147C2.26796 70.1779 1.53406 69.811 1.06531 69.3138C0.601298 68.8119 0.36929 68.1846 0.36929 67.4317C0.36929 66.8162 0.542112 66.2717 0.887756 65.7982C1.23814 65.3247 1.71399 64.953 2.31531 64.6832C2.92137 64.4133 3.60793 64.2783 4.37497 64.2783C5.45452 64.2783 6.30206 64.5151 6.91759 64.9885C7.53785 65.462 7.97819 66.087 8.23861 66.8635Z" fill="black"/>
<path d="M319.162 45.5569C318.253 45.5569 317.45 45.3273 316.754 44.868C316.058 44.404 315.514 43.7506 315.121 42.9078C314.728 42.0602 314.531 41.0588 314.531 39.9035C314.531 38.7577 314.728 37.7633 315.121 36.9205C315.514 36.0777 316.061 35.4267 316.761 34.9674C317.462 34.5081 318.272 34.2785 319.19 34.2785C319.901 34.2785 320.462 34.3969 320.874 34.6336C321.29 34.8656 321.607 35.1308 321.825 35.4291C322.048 35.7226 322.221 35.9641 322.344 36.1535H322.486V30.7842H324.162V45.3296H322.543V43.6535H322.344C322.221 43.8524 322.045 44.1033 321.818 44.4063C321.591 44.7046 321.267 44.9722 320.845 45.2089C320.424 45.4409 319.863 45.5569 319.162 45.5569ZM319.389 44.0512C320.062 44.0512 320.63 43.876 321.094 43.5257C321.558 43.1705 321.911 42.6805 322.152 42.0555C322.393 41.4258 322.514 40.699 322.514 39.8751C322.514 39.0607 322.396 38.3481 322.159 37.7373C321.922 37.1218 321.572 36.6436 321.108 36.3026C320.644 35.957 320.071 35.7842 319.389 35.7842C318.679 35.7842 318.087 35.9665 317.614 36.3311C317.145 36.6909 316.792 37.181 316.555 37.8012C316.323 38.4168 316.207 39.108 316.207 39.8751C316.207 40.6516 316.326 41.3571 316.562 41.9916C316.804 42.6213 317.159 43.1232 317.628 43.4972C318.101 43.8666 318.688 44.0512 319.389 44.0512Z" fill="black"/>
<path d="M305.02 38.767V45.3295H303.343V34.4204H304.963V36.1249H305.105C305.36 35.5709 305.749 35.1259 306.27 34.7897C306.79 34.4488 307.463 34.2783 308.287 34.2783C309.025 34.2783 309.672 34.4298 310.225 34.7329C310.779 35.0312 311.21 35.4857 311.518 36.0965C311.826 36.7026 311.98 37.4696 311.98 38.3976V45.3295H310.304V38.5113C310.304 37.6543 310.081 36.9867 309.636 36.5084C309.191 36.0255 308.58 35.784 307.804 35.784C307.269 35.784 306.79 35.9 306.369 36.132C305.952 36.364 305.623 36.7026 305.382 37.1476C305.14 37.5927 305.02 38.1325 305.02 38.767Z" fill="black"/>
<path d="M295.284 45.5851C294.593 45.5851 293.965 45.4549 293.402 45.1945C292.839 44.9294 292.391 44.5482 292.06 44.051C291.728 43.5492 291.562 42.9431 291.562 42.2329C291.562 41.6079 291.686 41.1012 291.932 40.713C292.178 40.32 292.507 40.0122 292.919 39.7897C293.331 39.5671 293.785 39.4014 294.283 39.2925C294.785 39.1789 295.289 39.0889 295.795 39.0226C296.458 38.9374 296.996 38.8735 297.408 38.8309C297.824 38.7835 298.127 38.7054 298.317 38.5965C298.511 38.4876 298.608 38.2982 298.608 38.0283V37.9715C298.608 37.2707 298.416 36.7262 298.033 36.338C297.654 35.9497 297.079 35.7556 296.307 35.7556C295.507 35.7556 294.879 35.9308 294.425 36.2812C293.97 36.6315 293.651 37.0056 293.466 37.4033L291.875 36.8351C292.159 36.1723 292.538 35.6562 293.011 35.2868C293.49 34.9128 294.01 34.6524 294.574 34.5056C295.142 34.3541 295.701 34.2783 296.25 34.2783C296.6 34.2783 297.003 34.3209 297.457 34.4062C297.917 34.4867 298.359 34.6547 298.785 34.9104C299.216 35.1661 299.574 35.552 299.858 36.0681C300.142 36.5842 300.284 37.2755 300.284 38.142V45.3295H298.608V43.8522H298.523C298.409 44.0889 298.22 44.3422 297.955 44.6121C297.689 44.882 297.337 45.1117 296.896 45.301C296.456 45.4904 295.919 45.5851 295.284 45.5851ZM295.54 44.0795C296.203 44.0795 296.761 43.9492 297.216 43.6888C297.675 43.4284 298.021 43.0922 298.253 42.6803C298.49 42.2684 298.608 41.8351 298.608 41.3806V39.8465C298.537 39.9317 298.381 40.0099 298.139 40.0809C297.902 40.1472 297.628 40.2064 297.315 40.2584C297.008 40.3058 296.707 40.3484 296.413 40.3863C296.125 40.4194 295.89 40.4478 295.71 40.4715C295.275 40.5283 294.867 40.6206 294.489 40.7485C294.115 40.8716 293.812 41.0586 293.58 41.3096C293.352 41.5558 293.239 41.892 293.239 42.3181C293.239 42.9005 293.454 43.3408 293.885 43.6391C294.321 43.9327 294.872 44.0795 295.54 44.0795Z" fill="black"/>
<path d="M283.343 43.3408L283.23 44.1079C283.149 44.6476 283.026 45.2253 282.86 45.8408C282.699 46.4564 282.531 47.0364 282.356 47.5809C282.181 48.1254 282.037 48.5586 281.923 48.8806H280.645C280.706 48.5776 280.787 48.1775 280.886 47.6803C280.985 47.1832 281.085 46.6268 281.184 46.0113C281.288 45.4005 281.374 44.7755 281.44 44.1363L281.525 43.3408H283.343Z" fill="black"/>
<path d="M273.777 45.5567C272.725 45.5567 271.819 45.3247 271.056 44.8607C270.299 44.392 269.714 43.7385 269.302 42.9005C268.895 42.0577 268.691 41.0776 268.691 39.9601C268.691 38.8427 268.895 37.8579 269.302 37.0056C269.714 36.1486 270.287 35.481 271.021 35.0028C271.76 34.5198 272.621 34.2783 273.606 34.2783C274.174 34.2783 274.735 34.373 275.289 34.5624C275.843 34.7518 276.348 35.0596 276.802 35.4857C277.257 35.9071 277.619 36.4658 277.889 37.1618C278.159 37.8579 278.294 38.7149 278.294 39.7329V40.4431H269.885V38.9942H276.589C276.589 38.3787 276.466 37.8295 276.22 37.3465C275.978 36.8635 275.633 36.4824 275.183 36.203C274.738 35.9237 274.212 35.784 273.606 35.784C272.939 35.784 272.361 35.9497 271.873 36.2812C271.39 36.6079 271.019 37.034 270.758 37.5596C270.498 38.0851 270.368 38.6486 270.368 39.2499V40.2158C270.368 41.0397 270.51 41.7381 270.794 42.311C271.082 42.8792 271.483 43.3124 271.994 43.6107C272.505 43.9043 273.1 44.051 273.777 44.051C274.217 44.051 274.615 43.9895 274.97 43.8664C275.33 43.7385 275.64 43.5492 275.9 43.2982C276.161 43.0425 276.362 42.7253 276.504 42.3465L278.123 42.801C277.953 43.3503 277.666 43.8332 277.264 44.2499C276.861 44.6618 276.364 44.9838 275.772 45.2158C275.181 45.4431 274.515 45.5567 273.777 45.5567Z" fill="black"/>
<path d="M260.336 41.3524L260.307 39.2785H260.648L265.421 34.4205H267.495L262.409 39.5626H262.267L260.336 41.3524ZM258.773 45.3296V30.7842H260.449V45.3296H258.773ZM265.705 45.3296L261.444 39.9319L262.637 38.7671L267.836 45.3296H265.705Z" fill="black"/>
<path d="M250.714 45.5851C250.023 45.5851 249.395 45.4549 248.832 45.1945C248.268 44.9294 247.821 44.5482 247.489 44.051C247.158 43.5492 246.992 42.9431 246.992 42.2329C246.992 41.6079 247.115 41.1012 247.362 40.713C247.608 40.32 247.937 40.0122 248.349 39.7897C248.761 39.5671 249.215 39.4014 249.712 39.2925C250.214 39.1789 250.719 39.0889 251.225 39.0226C251.888 38.9374 252.425 38.8735 252.837 38.8309C253.254 38.7835 253.557 38.7054 253.746 38.5965C253.941 38.4876 254.038 38.2982 254.038 38.0283V37.9715C254.038 37.2707 253.846 36.7262 253.462 36.338C253.084 35.9497 252.508 35.7556 251.737 35.7556C250.936 35.7556 250.309 35.9308 249.854 36.2812C249.4 36.6315 249.08 37.0056 248.896 37.4033L247.305 36.8351C247.589 36.1723 247.968 35.6562 248.441 35.2868C248.919 34.9128 249.44 34.6524 250.004 34.5056C250.572 34.3541 251.13 34.2783 251.68 34.2783C252.03 34.2783 252.433 34.3209 252.887 34.4062C253.346 34.4867 253.789 34.6547 254.215 34.9104C254.646 35.1661 255.004 35.552 255.288 36.0681C255.572 36.5842 255.714 37.2755 255.714 38.142V45.3295H254.038V43.8522H253.952C253.839 44.0889 253.649 44.3422 253.384 44.6121C253.119 44.882 252.766 45.1117 252.326 45.301C251.886 45.4904 251.348 45.5851 250.714 45.5851ZM250.969 44.0795C251.632 44.0795 252.191 43.9492 252.646 43.6888C253.105 43.4284 253.451 43.0922 253.683 42.6803C253.919 42.2684 254.038 41.8351 254.038 41.3806V39.8465C253.967 39.9317 253.81 40.0099 253.569 40.0809C253.332 40.1472 253.058 40.2064 252.745 40.2584C252.437 40.3058 252.137 40.3484 251.843 40.3863C251.554 40.4194 251.32 40.4478 251.14 40.4715C250.704 40.5283 250.297 40.6206 249.918 40.7485C249.544 40.8716 249.241 41.0586 249.009 41.3096C248.782 41.5558 248.668 41.892 248.668 42.3181C248.668 42.9005 248.884 43.3408 249.315 43.6391C249.75 43.9327 250.302 44.0795 250.969 44.0795Z" fill="black"/>
<path d="M244.982 34.4205V35.841H239.329V34.4205H244.982ZM240.977 31.8069H242.653V42.2046C242.653 42.6781 242.721 43.0332 242.859 43.27C243.001 43.502 243.181 43.6582 243.398 43.7387C243.621 43.8145 243.855 43.8523 244.102 43.8523C244.286 43.8523 244.438 43.8429 244.556 43.8239C244.675 43.8003 244.769 43.7813 244.84 43.7671L245.181 45.2728C245.068 45.3154 244.909 45.358 244.705 45.4006C244.502 45.448 244.244 45.4717 243.931 45.4717C243.458 45.4717 242.994 45.3699 242.539 45.1663C242.089 44.9627 241.715 44.6525 241.417 44.2359C241.123 43.8192 240.977 43.2936 240.977 42.6592V31.8069Z" fill="black"/>
<path d="M232.092 34.4205V35.841H226.438V34.4205H232.092ZM228.086 31.8069H229.762V42.2046C229.762 42.6781 229.831 43.0332 229.968 43.27C230.11 43.502 230.29 43.6582 230.508 43.7387C230.73 43.8145 230.965 43.8523 231.211 43.8523C231.396 43.8523 231.547 43.8429 231.666 43.8239C231.784 43.8003 231.879 43.7813 231.95 43.7671L232.291 45.2728C232.177 45.3154 232.018 45.358 231.815 45.4006C231.611 45.448 231.353 45.4717 231.041 45.4717C230.567 45.4717 230.103 45.3699 229.648 45.1663C229.199 44.9627 228.825 44.6525 228.526 44.2359C228.233 43.8192 228.086 43.2936 228.086 42.6592V31.8069Z" fill="black"/>
<path d="M219.846 45.5567C218.861 45.5567 217.997 45.3224 217.253 44.8536C216.515 44.3849 215.937 43.7291 215.52 42.8863C215.108 42.0435 214.902 41.0586 214.902 39.9317C214.902 38.7954 215.108 37.8034 215.52 36.9559C215.937 36.1083 216.515 35.4502 217.253 34.9814C217.997 34.5127 218.861 34.2783 219.846 34.2783C220.83 34.2783 221.692 34.5127 222.431 34.9814C223.174 35.4502 223.752 36.1083 224.164 36.9559C224.58 37.8034 224.789 38.7954 224.789 39.9317C224.789 41.0586 224.58 42.0435 224.164 42.8863C223.752 43.7291 223.174 44.3849 222.431 44.8536C221.692 45.3224 220.83 45.5567 219.846 45.5567ZM219.846 44.051C220.594 44.051 221.209 43.8593 221.692 43.4758C222.175 43.0922 222.533 42.588 222.765 41.963C222.997 41.338 223.113 40.6609 223.113 39.9317C223.113 39.2026 222.997 38.5231 222.765 37.8934C222.533 37.2636 222.175 36.7546 221.692 36.3664C221.209 35.9781 220.594 35.784 219.846 35.784C219.097 35.784 218.482 35.9781 217.999 36.3664C217.516 36.7546 217.159 37.2636 216.926 37.8934C216.694 38.5231 216.578 39.2026 216.578 39.9317C216.578 40.6609 216.694 41.338 216.926 41.963C217.159 42.588 217.516 43.0922 217.999 43.4758C218.482 43.8593 219.097 44.051 219.846 44.051Z" fill="black"/>
<path d="M205.273 38.7671V45.3296H203.597V30.7842H205.273V36.1251H205.415C205.671 35.5616 206.055 35.1142 206.566 34.7828C207.082 34.4466 207.769 34.2785 208.626 34.2785C209.369 34.2785 210.02 34.4276 210.579 34.7259C211.138 35.0195 211.571 35.4717 211.879 36.0825C212.191 36.6885 212.347 37.4603 212.347 38.3978V45.3296H210.671V38.5115C210.671 37.645 210.446 36.975 209.996 36.5015C209.551 36.0233 208.933 35.7842 208.143 35.7842C207.594 35.7842 207.101 35.9002 206.665 36.1322C206.235 36.3642 205.894 36.7027 205.643 37.1478C205.397 37.5929 205.273 38.1327 205.273 38.7671Z" fill="black"/>
<path d="M189.913 45.5851C189.222 45.5851 188.594 45.4549 188.031 45.1945C187.467 44.9294 187.02 44.5482 186.689 44.051C186.357 43.5492 186.191 42.9431 186.191 42.2329C186.191 41.6079 186.315 41.1012 186.561 40.713C186.807 40.32 187.136 40.0122 187.548 39.7897C187.96 39.5671 188.414 39.4014 188.912 39.2925C189.413 39.1789 189.918 39.0889 190.424 39.0226C191.087 38.9374 191.625 38.8735 192.037 38.8309C192.453 38.7835 192.756 38.7054 192.946 38.5965C193.14 38.4876 193.237 38.2982 193.237 38.0283V37.9715C193.237 37.2707 193.045 36.7262 192.662 36.338C192.283 35.9497 191.708 35.7556 190.936 35.7556C190.136 35.7556 189.508 35.9308 189.054 36.2812C188.599 36.6315 188.279 37.0056 188.095 37.4033L186.504 36.8351C186.788 36.1723 187.167 35.6562 187.64 35.2868C188.118 34.9128 188.639 34.6524 189.203 34.5056C189.771 34.3541 190.33 34.2783 190.879 34.2783C191.229 34.2783 191.632 34.3209 192.086 34.4062C192.546 34.4867 192.988 34.6547 193.414 34.9104C193.845 35.1661 194.203 35.552 194.487 36.0681C194.771 36.5842 194.913 37.2755 194.913 38.142V45.3295H193.237V43.8522H193.152C193.038 44.0889 192.849 44.3422 192.583 44.6121C192.318 44.882 191.966 45.1117 191.525 45.301C191.085 45.4904 190.547 45.5851 189.913 45.5851ZM190.169 44.0795C190.832 44.0795 191.39 43.9492 191.845 43.6888C192.304 43.4284 192.65 43.0922 192.882 42.6803C193.119 42.2684 193.237 41.8351 193.237 41.3806V39.8465C193.166 39.9317 193.01 40.0099 192.768 40.0809C192.531 40.1472 192.257 40.2064 191.944 40.2584C191.636 40.3058 191.336 40.3484 191.042 40.3863C190.753 40.4194 190.519 40.4478 190.339 40.4715C189.904 40.5283 189.496 40.6206 189.118 40.7485C188.744 40.8716 188.44 41.0586 188.208 41.3096C187.981 41.5558 187.868 41.892 187.868 42.3181C187.868 42.9005 188.083 43.3408 188.514 43.6391C188.949 43.9327 189.501 44.0795 190.169 44.0795Z" fill="black"/>
<path d="M178.356 36.8635L176.85 37.2897C176.755 37.0387 176.616 36.7949 176.431 36.5582C176.251 36.3167 176.005 36.1178 175.692 35.9616C175.38 35.8053 174.98 35.7272 174.492 35.7272C173.825 35.7272 173.268 35.8811 172.823 36.1888C172.383 36.4919 172.163 36.8778 172.163 37.3465C172.163 37.7632 172.314 38.0922 172.617 38.3337C172.92 38.5752 173.394 38.7764 174.038 38.9374L175.657 39.3351C176.632 39.5719 177.359 39.9341 177.837 40.4218C178.316 40.9047 178.555 41.5274 178.555 42.2897C178.555 42.9147 178.375 43.4734 178.015 43.9658C177.66 44.4582 177.163 44.8465 176.523 45.1306C175.884 45.4147 175.141 45.5567 174.293 45.5567C173.181 45.5567 172.26 45.3153 171.531 44.8323C170.801 44.3493 170.34 43.6439 170.146 42.7158L171.737 42.3181C171.888 42.9052 172.174 43.3456 172.596 43.6391C173.022 43.9327 173.578 44.0795 174.265 44.0795C175.046 44.0795 175.666 43.9137 176.126 43.5823C176.59 43.2461 176.822 42.8437 176.822 42.3749C176.822 41.9961 176.689 41.6789 176.424 41.4232C176.159 41.1628 175.752 40.9687 175.202 40.8408L173.384 40.4147C172.385 40.1779 171.651 39.811 171.183 39.3138C170.719 38.8119 170.487 38.1846 170.487 37.4317C170.487 36.8162 170.659 36.2717 171.005 35.7982C171.355 35.3247 171.831 34.953 172.433 34.6831C173.039 34.4133 173.725 34.2783 174.492 34.2783C175.572 34.2783 176.419 34.5151 177.035 34.9885C177.655 35.462 178.095 36.087 178.356 36.8635Z" fill="black"/>
<path d="M169.957 30.7842V32.0626C169.957 32.4508 169.886 32.8651 169.744 33.3055C169.607 33.7411 169.403 34.1649 169.134 34.5768C168.868 34.984 168.546 35.3391 168.168 35.6421L167.259 34.9035C167.557 34.4774 167.815 34.0347 168.033 33.5754C168.255 33.1114 168.367 32.6166 168.367 32.091V30.7842H169.957Z" fill="black"/>
<path d="M165.392 34.4205V35.841H159.739V34.4205H165.392ZM161.387 31.8069H163.063V42.2046C163.063 42.6781 163.132 43.0332 163.269 43.27C163.411 43.502 163.591 43.6582 163.809 43.7387C164.031 43.8145 164.266 43.8523 164.512 43.8523C164.696 43.8523 164.848 43.8429 164.966 43.8239C165.085 43.8003 165.179 43.7813 165.25 43.7671L165.591 45.2728C165.478 45.3154 165.319 45.358 165.115 45.4006C164.912 45.448 164.654 45.4717 164.341 45.4717C163.868 45.4717 163.404 45.3699 162.949 45.1663C162.499 44.9627 162.125 44.6525 161.827 44.2359C161.534 43.8192 161.387 43.2936 161.387 42.6592V31.8069Z" fill="black"/>
<path d="M155.902 45.3296V34.4205H157.578V45.3296H155.902ZM156.754 32.6023C156.428 32.6023 156.146 32.491 155.909 32.2685C155.677 32.046 155.561 31.7785 155.561 31.466C155.561 31.1535 155.677 30.8859 155.909 30.6634C156.146 30.4409 156.428 30.3296 156.754 30.3296C157.081 30.3296 157.36 30.4409 157.592 30.6634C157.829 30.8859 157.947 31.1535 157.947 31.466C157.947 31.7785 157.829 32.046 157.592 32.2685C157.36 32.491 157.081 32.6023 156.754 32.6023Z" fill="black"/>
<path d="M147.555 36.8635L146.049 37.2897C145.955 37.0387 145.815 36.7949 145.63 36.5582C145.45 36.3167 145.204 36.1178 144.892 35.9616C144.579 35.8053 144.179 35.7272 143.691 35.7272C143.024 35.7272 142.467 35.8811 142.022 36.1888C141.582 36.4919 141.362 36.8778 141.362 37.3465C141.362 37.7632 141.513 38.0922 141.816 38.3337C142.119 38.5752 142.593 38.7764 143.237 38.9374L144.856 39.3351C145.832 39.5719 146.558 39.9341 147.037 40.4218C147.515 40.9047 147.754 41.5274 147.754 42.2897C147.754 42.9147 147.574 43.4734 147.214 43.9658C146.859 44.4582 146.362 44.8465 145.723 45.1306C145.083 45.4147 144.34 45.5567 143.493 45.5567C142.38 45.5567 141.459 45.3153 140.73 44.8323C140.001 44.3493 139.539 43.6439 139.345 42.7158L140.936 42.3181C141.087 42.9052 141.374 43.3456 141.795 43.6391C142.221 43.9327 142.778 44.0795 143.464 44.0795C144.245 44.0795 144.866 43.9137 145.325 43.5823C145.789 43.2461 146.021 42.8437 146.021 42.3749C146.021 41.9961 145.888 41.6789 145.623 41.4232C145.358 41.1628 144.951 40.9687 144.402 40.8408L142.583 40.4147C141.584 40.1779 140.851 39.811 140.382 39.3138C139.918 38.8119 139.686 38.1846 139.686 37.4317C139.686 36.8162 139.859 36.2717 140.204 35.7982C140.555 35.3247 141.03 34.953 141.632 34.6831C142.238 34.4133 142.924 34.2783 143.691 34.2783C144.771 34.2783 145.618 34.5151 146.234 34.9885C146.854 35.462 147.295 36.087 147.555 36.8635Z" fill="black"/>
<path d="M132.761 45.5567C131.71 45.5567 130.803 45.3247 130.041 44.8607C129.283 44.392 128.699 43.7385 128.287 42.9005C127.879 42.0577 127.676 41.0776 127.676 39.9601C127.676 38.8427 127.879 37.8579 128.287 37.0056C128.699 36.1486 129.271 35.481 130.005 35.0028C130.744 34.5198 131.606 34.2783 132.591 34.2783C133.159 34.2783 133.72 34.373 134.274 34.5624C134.828 34.7518 135.332 35.0596 135.787 35.4857C136.241 35.9071 136.603 36.4658 136.873 37.1618C137.143 37.8579 137.278 38.7149 137.278 39.7329V40.4431H128.869V38.9942H135.574C135.574 38.3787 135.45 37.8295 135.204 37.3465C134.963 36.8635 134.617 36.4824 134.167 36.203C133.722 35.9237 133.197 35.784 132.591 35.784C131.923 35.784 131.345 35.9497 130.858 36.2812C130.375 36.6079 130.003 37.034 129.743 37.5596C129.482 38.0851 129.352 38.6486 129.352 39.2499V40.2158C129.352 41.0397 129.494 41.7381 129.778 42.311C130.067 42.8792 130.467 43.3124 130.978 43.6107C131.49 43.9043 132.084 44.051 132.761 44.051C133.201 44.051 133.599 43.9895 133.954 43.8664C134.314 43.7385 134.624 43.5492 134.885 43.2982C135.145 43.0425 135.346 42.7253 135.488 42.3465L137.108 42.801C136.937 43.3503 136.651 43.8332 136.248 44.2499C135.846 44.6618 135.349 44.9838 134.757 45.2158C134.165 45.4431 133.5 45.5567 132.761 45.5567Z" fill="black"/>
<path d="M110.804 45.3295V34.4204H112.424V36.1249H112.566C112.793 35.5425 113.16 35.0903 113.667 34.7684C114.173 34.4417 114.782 34.2783 115.492 34.2783C116.212 34.2783 116.81 34.4417 117.289 34.7684C117.772 35.0903 118.148 35.5425 118.418 36.1249H118.532C118.811 35.5615 119.23 35.114 119.789 34.7826C120.347 34.4464 121.017 34.2783 121.799 34.2783C122.774 34.2783 123.572 34.5837 124.192 35.1945C124.812 35.8006 125.123 36.7452 125.123 38.0283V45.3295H123.446V38.0283C123.446 37.2234 123.226 36.6481 122.786 36.3025C122.346 35.9568 121.827 35.784 121.23 35.784C120.463 35.784 119.869 36.016 119.448 36.48C119.026 36.9393 118.816 37.5217 118.816 38.2272V45.3295H117.111V37.8579C117.111 37.2376 116.91 36.7381 116.507 36.3593C116.105 35.9758 115.587 35.784 114.952 35.784C114.516 35.784 114.109 35.9 113.73 36.132C113.356 36.364 113.053 36.686 112.821 37.0979C112.594 37.5051 112.48 37.9762 112.48 38.5113V45.3295H110.804Z" fill="black"/>
<path d="M106.058 45.3296V34.4205H107.734V45.3296H106.058ZM106.911 32.6023C106.584 32.6023 106.302 32.491 106.065 32.2685C105.833 32.046 105.717 31.7785 105.717 31.466C105.717 31.1535 105.833 30.8859 106.065 30.6634C106.302 30.4409 106.584 30.3296 106.911 30.3296C107.237 30.3296 107.517 30.4409 107.749 30.6634C107.985 30.8859 108.104 31.1535 108.104 31.466C108.104 31.7785 107.985 32.046 107.749 32.2685C107.517 32.491 107.237 32.6023 106.911 32.6023Z" fill="black"/>
<path d="M103.537 34.4205V35.841H97.8835V34.4205H103.537ZM99.5313 31.8069H101.207V42.2046C101.207 42.6781 101.276 43.0332 101.413 43.27C101.555 43.502 101.735 43.6582 101.953 43.7387C102.176 43.8145 102.41 43.8523 102.656 43.8523C102.841 43.8523 102.992 43.8429 103.111 43.8239C103.229 43.8003 103.324 43.7813 103.395 43.7671L103.736 45.2728C103.622 45.3154 103.464 45.358 103.26 45.4006C103.056 45.448 102.798 45.4717 102.486 45.4717C102.012 45.4717 101.548 45.3699 101.094 45.1663C100.644 44.9627 100.27 44.6525 99.9716 44.2359C99.6781 43.8192 99.5313 43.2936 99.5313 42.6592V31.8069Z" fill="black"/>
<path d="M91.7259 45.5567C90.6747 45.5567 89.768 45.3247 89.0057 44.8607C88.2481 44.392 87.6634 43.7385 87.2514 42.9005C86.8442 42.0577 86.6406 41.0776 86.6406 39.9601C86.6406 38.8427 86.8442 37.8579 87.2514 37.0056C87.6634 36.1486 88.2363 35.481 88.9702 35.0028C89.7088 34.5198 90.5705 34.2783 91.5554 34.2783C92.1236 34.2783 92.6847 34.373 93.2386 34.5624C93.7926 34.7518 94.2969 35.0596 94.7514 35.4857C95.206 35.9071 95.5682 36.4658 95.8381 37.1618C96.108 37.8579 96.2429 38.7149 96.2429 39.7329V40.4431H87.8338V38.9942H94.5384C94.5384 38.3787 94.4152 37.8295 94.169 37.3465C93.9276 36.8635 93.5819 36.4824 93.1321 36.203C92.687 35.9237 92.1615 35.784 91.5554 35.784C90.8878 35.784 90.3101 35.9497 89.8224 36.2812C89.3395 36.6079 88.9678 37.034 88.7074 37.5596C88.447 38.0851 88.3168 38.6486 88.3168 39.2499V40.2158C88.3168 41.0397 88.4588 41.7381 88.7429 42.311C89.0317 42.8792 89.4318 43.3124 89.9432 43.6107C90.4545 43.9043 91.0488 44.051 91.7259 44.051C92.1662 44.051 92.5639 43.9895 92.919 43.8664C93.2789 43.7385 93.589 43.5492 93.8494 43.2982C94.1099 43.0425 94.3111 42.7253 94.4531 42.3465L96.0724 42.801C95.902 43.3503 95.6155 43.8332 95.2131 44.2499C94.8106 44.6618 94.3134 44.9838 93.7216 45.2158C93.1297 45.4431 92.4645 45.5567 91.7259 45.5567Z" fill="black"/>
<path d="M69.7692 45.3295V34.4204H71.3885V36.1249H71.5305C71.7578 35.5425 72.1248 35.0903 72.6314 34.7684C73.138 34.4417 73.7464 34.2783 74.4567 34.2783C75.1764 34.2783 75.7753 34.4417 76.2535 34.7684C76.7365 35.0903 77.1129 35.5425 77.3828 36.1249H77.4964C77.7758 35.5615 78.1948 35.114 78.7535 34.7826C79.3123 34.4464 79.9822 34.2783 80.7635 34.2783C81.7389 34.2783 82.5367 34.5837 83.157 35.1945C83.7772 35.8006 84.0873 36.7452 84.0873 38.0283V45.3295H82.4112V38.0283C82.4112 37.2234 82.191 36.6481 81.7507 36.3025C81.3104 35.9568 80.7919 35.784 80.1953 35.784C79.4283 35.784 78.834 36.016 78.4126 36.48C77.9912 36.9393 77.7805 37.5217 77.7805 38.2272V45.3295H76.076V37.8579C76.076 37.2376 75.8748 36.7381 75.4723 36.3593C75.0698 35.9758 74.5514 35.784 73.9169 35.784C73.4813 35.784 73.0741 35.9 72.6953 36.132C72.3213 36.364 72.0182 36.686 71.7862 37.0979C71.5589 37.5051 71.4453 37.9762 71.4453 38.5113V45.3295H69.7692Z" fill="black"/>
<path d="M62.2674 45.5567C61.2826 45.5567 60.4184 45.3224 59.6751 44.8536C58.9364 44.3849 58.3588 43.7291 57.9421 42.8863C57.5302 42.0435 57.3242 41.0586 57.3242 39.9317C57.3242 38.7954 57.5302 37.8034 57.9421 36.9559C58.3588 36.1083 58.9364 35.4502 59.6751 34.9814C60.4184 34.5127 61.2826 34.2783 62.2674 34.2783C63.2522 34.2783 64.114 34.5127 64.8526 34.9814C65.596 35.4502 66.1736 36.1083 66.5856 36.9559C67.0022 37.8034 67.2106 38.7954 67.2106 39.9317C67.2106 41.0586 67.0022 42.0435 66.5856 42.8863C66.1736 43.7291 65.596 44.3849 64.8526 44.8536C64.114 45.3224 63.2522 45.5567 62.2674 45.5567ZM62.2674 44.051C63.0155 44.051 63.631 43.8593 64.114 43.4758C64.5969 43.0922 64.9544 42.588 65.1864 41.963C65.4184 41.338 65.5344 40.6609 65.5344 39.9317C65.5344 39.2026 65.4184 38.5231 65.1864 37.8934C64.9544 37.2636 64.5969 36.7546 64.114 36.3664C63.631 35.9781 63.0155 35.784 62.2674 35.784C61.5193 35.784 60.9038 35.9781 60.4208 36.3664C59.9379 36.7546 59.5804 37.2636 59.3484 37.8934C59.1164 38.5231 59.0004 39.2026 59.0004 39.9317C59.0004 40.6609 59.1164 41.338 59.3484 41.963C59.5804 42.588 59.9379 43.0922 60.4208 43.4758C60.9038 43.8593 61.5193 44.051 62.2674 44.051Z" fill="black"/>
<path d="M55.1136 36.8635L53.6079 37.2897C53.5132 37.0387 53.3736 36.7949 53.1889 36.5582C53.009 36.3167 52.7628 36.1178 52.4503 35.9616C52.1378 35.8053 51.7377 35.7272 51.25 35.7272C50.5824 35.7272 50.026 35.8811 49.5809 36.1888C49.1406 36.4919 48.9204 36.8778 48.9204 37.3465C48.9204 37.7632 49.0719 38.0922 49.375 38.3337C49.678 38.5752 50.1515 38.7764 50.7954 38.9374L52.4147 39.3351C53.3901 39.5719 54.1169 39.9341 54.5951 40.4218C55.0734 40.9047 55.3125 41.5274 55.3125 42.2897C55.3125 42.9147 55.1325 43.4734 54.7727 43.9658C54.4176 44.4582 53.9204 44.8465 53.2812 45.1306C52.642 45.4147 51.8986 45.5567 51.0511 45.5567C49.9384 45.5567 49.0175 45.3153 48.2883 44.8323C47.5592 44.3493 47.0975 43.6439 46.9034 42.7158L48.4943 42.3181C48.6458 42.9052 48.9323 43.3456 49.3537 43.6391C49.7798 43.9327 50.3361 44.0795 51.0227 44.0795C51.804 44.0795 52.4242 43.9137 52.8835 43.5823C53.3475 43.2461 53.5795 42.8437 53.5795 42.3749C53.5795 41.9961 53.4469 41.6789 53.1818 41.4232C52.9166 41.1628 52.5094 40.9687 51.9602 40.8408L50.142 40.4147C49.143 40.1779 48.4091 39.811 47.9403 39.3138C47.4763 38.8119 47.2443 38.1846 47.2443 37.4317C47.2443 36.8162 47.4171 36.2717 47.7628 35.7982C48.1131 35.3247 48.589 34.953 49.1903 34.6831C49.7964 34.4133 50.4829 34.2783 51.25 34.2783C52.3295 34.2783 53.1771 34.5151 53.7926 34.9885C54.4129 35.462 54.8532 36.087 55.1136 36.8635Z" fill="black"/>
<path d="M38.6559 43.3408L38.5423 44.1079C38.4618 44.6476 38.3387 45.2253 38.1729 45.8408C38.012 46.4564 37.8439 47.0364 37.6687 47.5809C37.4935 48.1254 37.3491 48.5586 37.2354 48.8806H35.957C36.0186 48.5776 36.0991 48.1775 36.1985 47.6803C36.2979 47.1832 36.3974 46.6268 36.4968 46.0113C36.601 45.4005 36.6862 44.7755 36.7525 44.1363L36.8377 43.3408H38.6559Z" fill="black"/>
<path d="M23.9684 49.4204V34.4204H25.5877V36.1533H25.7866C25.9097 35.9639 26.0801 35.7224 26.2979 35.4289C26.5205 35.1306 26.8377 34.8654 27.2496 34.6334C27.6663 34.3967 28.2297 34.2783 28.94 34.2783C29.8585 34.2783 30.6682 34.508 31.369 34.9672C32.0697 35.4265 32.6166 36.0776 33.0096 36.9204C33.4026 37.7632 33.5991 38.7575 33.5991 39.9033C33.5991 41.0586 33.4026 42.06 33.0096 42.9076C32.6166 43.7504 32.0721 44.4038 31.3761 44.8678C30.68 45.3271 29.8775 45.5567 28.9684 45.5567C28.2676 45.5567 27.7065 45.4407 27.2851 45.2087C26.8637 44.972 26.5394 44.7045 26.3121 44.4062C26.0849 44.1031 25.9097 43.8522 25.7866 43.6533H25.6445V49.4204H23.9684ZM25.6161 39.8749C25.6161 40.6988 25.7369 41.4256 25.9783 42.0553C26.2198 42.6803 26.5726 43.1704 27.0366 43.5255C27.5006 43.8759 28.0688 44.051 28.7411 44.051C29.4419 44.051 30.0266 43.8664 30.4954 43.4971C30.9689 43.123 31.324 42.6211 31.5607 41.9914C31.8022 41.3569 31.9229 40.6514 31.9229 39.8749C31.9229 39.1079 31.8046 38.4166 31.5678 37.801C31.3358 37.1808 30.9831 36.6907 30.5096 36.3309C30.0408 35.9663 29.4513 35.784 28.7411 35.784C28.0593 35.784 27.4864 35.9568 27.0224 36.3025C26.5583 36.6434 26.208 37.1216 25.9712 37.7371C25.7345 38.3479 25.6161 39.0605 25.6161 39.8749Z" fill="black"/>
<path d="M11.7809 49.4204V34.4204H13.4002V36.1533H13.5991C13.7222 35.9639 13.8926 35.7224 14.1104 35.4289C14.333 35.1306 14.6502 34.8654 15.0621 34.6334C15.4788 34.3967 16.0422 34.2783 16.7525 34.2783C17.671 34.2783 18.4807 34.508 19.1815 34.9672C19.8822 35.4265 20.4291 36.0776 20.8221 36.9204C21.2151 37.7632 21.4116 38.7575 21.4116 39.9033C21.4116 41.0586 21.2151 42.06 20.8221 42.9076C20.4291 43.7504 19.8846 44.4038 19.1886 44.8678C18.4925 45.3271 17.69 45.5567 16.7809 45.5567C16.0801 45.5567 15.519 45.4407 15.0976 45.2087C14.6762 44.972 14.3519 44.7045 14.1246 44.4062C13.8974 44.1031 13.7222 43.8522 13.5991 43.6533H13.457V49.4204H11.7809ZM13.4286 39.8749C13.4286 40.6988 13.5493 41.4256 13.7908 42.0553C14.0323 42.6803 14.3851 43.1704 14.8491 43.5255C15.3131 43.8759 15.8813 44.051 16.5536 44.051C17.2544 44.051 17.8391 43.8664 18.3079 43.4971C18.7814 43.123 19.1365 42.6211 19.3732 41.9914C19.6147 41.3569 19.7354 40.6514 19.7354 39.8749C19.7354 39.1079 19.6171 38.4166 19.3803 37.801C19.1483 37.1808 18.7956 36.6907 18.3221 36.3309C17.8533 35.9663 17.2638 35.784 16.5536 35.784C15.8718 35.784 15.2989 35.9568 14.8349 36.3025C14.3708 36.6434 14.0205 37.1216 13.7837 37.7371C13.547 38.3479 13.4286 39.0605 13.4286 39.8749Z" fill="black"/>
<path d="M3.72159 45.5851C3.0303 45.5851 2.40294 45.4549 1.83949 45.1945C1.27604 44.9294 0.828598 44.5482 0.497159 44.051C0.16572 43.5492 0 42.9431 0 42.2329C0 41.6079 0.123106 41.1012 0.369318 40.713C0.61553 40.32 0.944602 40.0122 1.35653 39.7897C1.76847 39.5671 2.22301 39.4014 2.72017 39.2925C3.22206 39.1789 3.72633 39.0889 4.23295 39.0226C4.89583 38.9374 5.43324 38.8735 5.84517 38.8309C6.26184 38.7835 6.56487 38.7054 6.75426 38.5965C6.94839 38.4876 7.04545 38.2982 7.04545 38.0283V37.9715C7.04545 37.2707 6.85369 36.7262 6.47017 36.338C6.09138 35.9497 5.5161 35.7556 4.74432 35.7556C3.94413 35.7556 3.31676 35.9308 2.86222 36.2812C2.40767 36.6315 2.08807 37.0056 1.90341 37.4033L0.3125 36.8351C0.596591 36.1723 0.975379 35.6562 1.44886 35.2868C1.92708 34.9128 2.44792 34.6524 3.01136 34.5056C3.57955 34.3541 4.13826 34.2783 4.6875 34.2783C5.03788 34.2783 5.44034 34.3209 5.89489 34.4062C6.35417 34.4867 6.79688 34.6547 7.22301 34.9104C7.65388 35.1661 8.01136 35.552 8.29545 36.0681C8.57955 36.5842 8.72159 37.2755 8.72159 38.142V45.3295H7.04545V43.8522H6.96023C6.84659 44.0889 6.6572 44.3422 6.39205 44.6121C6.12689 44.882 5.77415 45.1117 5.33381 45.301C4.89347 45.4904 4.35606 45.5851 3.72159 45.5851ZM3.97727 44.0795C4.64015 44.0795 5.19886 43.9492 5.65341 43.6888C6.11269 43.4284 6.45833 43.0922 6.69034 42.6803C6.92708 42.2684 7.04545 41.8351 7.04545 41.3806V39.8465C6.97443 39.9317 6.81818 40.0099 6.5767 40.0809C6.33996 40.1472 6.06534 40.2064 5.75284 40.2584C5.44508 40.3058 5.14441 40.3484 4.85085 40.3863C4.56203 40.4194 4.32765 40.4478 4.14773 40.4715C3.71212 40.5283 3.30492 40.6206 2.92614 40.7485C2.55208 40.8716 2.24905 41.0586 2.01705 41.3096C1.78977 41.5558 1.67614 41.892 1.67614 42.3181C1.67614 42.9005 1.89157 43.3408 2.32244 43.6391C2.75805 43.9327 3.30966 44.0795 3.97727 44.0795Z" fill="black"/>
<path d="M355.02 0.78418V15.3296H353.343V0.78418H355.02Z" fill="black"/>
<path d="M345.284 15.5851C344.593 15.5851 343.965 15.4549 343.402 15.1945C342.839 14.9294 342.391 14.5482 342.06 14.051C341.728 13.5492 341.562 12.9431 341.562 12.2329C341.562 11.6079 341.686 11.1012 341.932 10.713C342.178 10.32 342.507 10.0122 342.919 9.78968C343.331 9.56714 343.785 9.40143 344.283 9.29252C344.785 9.17889 345.289 9.08893 345.795 9.02264C346.458 8.93741 346.996 8.87349 347.408 8.83088C347.824 8.78353 348.127 8.7054 348.317 8.5965C348.511 8.4876 348.608 8.29821 348.608 8.02832V7.9715C348.608 7.27074 348.416 6.72624 348.033 6.33798C347.654 5.94972 347.079 5.75559 346.307 5.75559C345.507 5.75559 344.879 5.93078 344.425 6.28116C343.97 6.63154 343.651 7.00559 343.466 7.40332L341.875 6.83514C342.159 6.17226 342.538 5.65616 343.011 5.28684C343.49 4.91279 344.01 4.65237 344.574 4.50559C345.142 4.35408 345.701 4.27832 346.25 4.27832C346.6 4.27832 347.003 4.32093 347.457 4.40616C347.917 4.48665 348.359 4.65474 348.785 4.91042C349.216 5.1661 349.574 5.55199 349.858 6.06809C350.142 6.58419 350.284 7.27548 350.284 8.14196V15.3295H348.608V13.8522H348.523C348.409 14.0889 348.22 14.3422 347.955 14.6121C347.689 14.882 347.337 15.1117 346.896 15.301C346.456 15.4904 345.919 15.5851 345.284 15.5851ZM345.54 14.0795C346.203 14.0795 346.761 13.9492 347.216 13.6888C347.675 13.4284 348.021 13.0922 348.253 12.6803C348.49 12.2684 348.608 11.8351 348.608 11.3806V9.8465C348.537 9.93173 348.381 10.0099 348.139 10.0809C347.902 10.1472 347.628 10.2063 347.315 10.2584C347.008 10.3058 346.707 10.3484 346.413 10.3863C346.125 10.4194 345.89 10.4478 345.71 10.4715C345.275 10.5283 344.867 10.6207 344.489 10.7485C344.115 10.8716 343.812 11.0586 343.58 11.3096C343.352 11.5558 343.239 11.892 343.239 12.3181C343.239 12.9005 343.454 13.3408 343.885 13.6391C344.321 13.9327 344.872 14.0795 345.54 14.0795Z" fill="black"/>
<path d="M337.328 15.3296V4.4205H339.004V15.3296H337.328ZM338.18 2.60232C337.853 2.60232 337.572 2.49105 337.335 2.26851C337.103 2.04597 336.987 1.77845 336.987 1.46595C336.987 1.15345 337.103 0.885934 337.335 0.663396C337.572 0.440858 337.853 0.32959 338.18 0.32959C338.507 0.32959 338.786 0.440858 339.018 0.663396C339.255 0.885934 339.373 1.15345 339.373 1.46595C339.373 1.77845 339.255 2.04597 339.018 2.26851C338.786 2.49105 338.507 2.60232 338.18 2.60232Z" fill="black"/>
<path d="M330.588 15.5567C329.565 15.5567 328.684 15.3153 327.946 14.8323C327.207 14.3493 326.639 13.6841 326.241 12.8366C325.843 11.989 325.645 11.0207 325.645 9.93173C325.645 8.82377 325.848 7.84603 326.255 6.99849C326.667 6.14622 327.24 5.48097 327.974 5.00275C328.713 4.5198 329.574 4.27832 330.559 4.27832C331.326 4.27832 332.018 4.42037 332.633 4.70446C333.249 4.98855 333.753 5.38627 334.146 5.89764C334.539 6.409 334.783 7.00559 334.877 7.68741H333.201C333.074 7.19025 332.789 6.74991 332.349 6.36639C331.913 5.97813 331.326 5.784 330.588 5.784C329.934 5.784 329.361 5.95446 328.869 6.29537C328.381 6.63154 328 7.10739 327.725 7.72292C327.456 8.33372 327.321 9.05105 327.321 9.87491C327.321 10.7177 327.453 11.4516 327.718 12.0766C327.988 12.7016 328.367 13.1869 328.855 13.5326C329.347 13.8782 329.925 14.051 330.588 14.051C331.023 14.051 331.419 13.9753 331.774 13.8238C332.129 13.6723 332.43 13.4545 332.676 13.1704C332.922 12.8863 333.097 12.5454 333.201 12.1476H334.877C334.783 12.7916 334.548 13.3716 334.174 13.8877C333.805 14.3991 333.315 14.8063 332.704 15.1093C332.098 15.4076 331.393 15.5567 330.588 15.5567Z" fill="black"/>
<path d="M318.654 15.5567C317.669 15.5567 316.805 15.3224 316.062 14.8536C315.323 14.3849 314.745 13.7291 314.329 12.8863C313.917 12.0435 313.711 11.0586 313.711 9.93173C313.711 8.79536 313.917 7.80341 314.329 6.95588C314.745 6.10834 315.323 5.45019 316.062 4.98145C316.805 4.5127 317.669 4.27832 318.654 4.27832C319.639 4.27832 320.501 4.5127 321.239 4.98145C321.983 5.45019 322.56 6.10834 322.972 6.95588C323.389 7.80341 323.597 8.79536 323.597 9.93173C323.597 11.0586 323.389 12.0435 322.972 12.8863C322.56 13.7291 321.983 14.3849 321.239 14.8536C320.501 15.3224 319.639 15.5567 318.654 15.5567ZM318.654 14.051C319.402 14.051 320.018 13.8593 320.501 13.4758C320.984 13.0922 321.341 12.588 321.573 11.963C321.805 11.338 321.921 10.6609 321.921 9.93173C321.921 9.20256 321.805 8.52311 321.573 7.89338C321.341 7.26364 320.984 6.75465 320.501 6.36639C320.018 5.97813 319.402 5.784 318.654 5.784C317.906 5.784 317.29 5.97813 316.808 6.36639C316.325 6.75465 315.967 7.26364 315.735 7.89338C315.503 8.52311 315.387 9.20256 315.387 9.93173C315.387 10.6609 315.503 11.338 315.735 11.963C315.967 12.588 316.325 13.0922 316.808 13.4758C317.29 13.8593 317.906 14.051 318.654 14.051Z" fill="black"/>
<path d="M311.5 6.86355L309.995 7.28968C309.9 7.03874 309.76 6.79489 309.576 6.55815C309.396 6.31667 309.15 6.11781 308.837 5.96156C308.525 5.80531 308.124 5.72718 307.637 5.72718C306.969 5.72718 306.413 5.88107 305.968 6.18883C305.527 6.49186 305.307 6.87775 305.307 7.3465C305.307 7.76317 305.459 8.09224 305.762 8.33372C306.065 8.57519 306.538 8.77643 307.182 8.93741L308.801 9.33514C309.777 9.57188 310.504 9.9341 310.982 10.4218C311.46 10.9047 311.699 11.5274 311.699 12.2897C311.699 12.9147 311.519 13.4734 311.159 13.9658C310.804 14.4582 310.307 14.8465 309.668 15.1306C309.029 15.4147 308.285 15.5567 307.438 15.5567C306.325 15.5567 305.404 15.3153 304.675 14.8323C303.946 14.3493 303.484 13.6439 303.29 12.7158L304.881 12.3181C305.033 12.9052 305.319 13.3456 305.74 13.6391C306.167 13.9327 306.723 14.0795 307.409 14.0795C308.191 14.0795 308.811 13.9137 309.27 13.5823C309.734 13.2461 309.966 12.8437 309.966 12.3749C309.966 11.9961 309.834 11.6789 309.569 11.4232C309.303 11.1628 308.896 10.9687 308.347 10.8408L306.529 10.4147C305.53 10.1779 304.796 9.81099 304.327 9.31383C303.863 8.81194 303.631 8.18457 303.631 7.43173C303.631 6.8162 303.804 6.27169 304.15 5.79821C304.5 5.32472 304.976 4.95304 305.577 4.68315C306.183 4.41326 306.87 4.27832 307.637 4.27832C308.716 4.27832 309.564 4.51506 310.179 4.98855C310.8 5.46203 311.24 6.08703 311.5 6.86355Z" fill="black"/>
<path d="M290.089 15.5851C289.397 15.5851 288.77 15.4549 288.207 15.1945C287.643 14.9294 287.196 14.5482 286.864 14.051C286.533 13.5492 286.367 12.9431 286.367 12.2329C286.367 11.6079 286.49 11.1012 286.737 10.713C286.983 10.32 287.312 10.0122 287.724 9.78968C288.136 9.56714 288.59 9.40143 289.087 9.29252C289.589 9.17889 290.093 9.08893 290.6 9.02264C291.263 8.93741 291.8 8.87349 292.212 8.83088C292.629 8.78353 292.932 8.7054 293.121 8.5965C293.316 8.4876 293.413 8.29821 293.413 8.02832V7.9715C293.413 7.27074 293.221 6.72624 292.837 6.33798C292.459 5.94972 291.883 5.75559 291.112 5.75559C290.311 5.75559 289.684 5.93078 289.229 6.28116C288.775 6.63154 288.455 7.00559 288.271 7.40332L286.68 6.83514C286.964 6.17226 287.343 5.65616 287.816 5.28684C288.294 4.91279 288.815 4.65237 289.379 4.50559C289.947 4.35408 290.505 4.27832 291.055 4.27832C291.405 4.27832 291.808 4.32093 292.262 4.40616C292.721 4.48665 293.164 4.65474 293.59 4.91042C294.021 5.1661 294.379 5.55199 294.663 6.06809C294.947 6.58419 295.089 7.27548 295.089 8.14196V15.3295H293.413V13.8522H293.327C293.214 14.0889 293.024 14.3422 292.759 14.6121C292.494 14.882 292.141 15.1117 291.701 15.301C291.261 15.4904 290.723 15.5851 290.089 15.5851ZM290.344 14.0795C291.007 14.0795 291.566 13.9492 292.021 13.6888C292.48 13.4284 292.826 13.0922 293.058 12.6803C293.294 12.2684 293.413 11.8351 293.413 11.3806V9.8465C293.342 9.93173 293.185 10.0099 292.944 10.0809C292.707 10.1472 292.433 10.2063 292.12 10.2584C291.812 10.3058 291.512 10.3484 291.218 10.3863C290.929 10.4194 290.695 10.4478 290.515 10.4715C290.079 10.5283 289.672 10.6207 289.293 10.7485C288.919 10.8716 288.616 11.0586 288.384 11.3096C288.157 11.5558 288.043 11.892 288.043 12.3181C288.043 12.9005 288.259 13.3408 288.69 13.6391C289.125 13.9327 289.677 14.0795 290.344 14.0795Z" fill="black"/>
<path d="M278.532 6.86355L277.026 7.28968C276.931 7.03874 276.792 6.79489 276.607 6.55815C276.427 6.31667 276.181 6.11781 275.868 5.96156C275.556 5.80531 275.156 5.72718 274.668 5.72718C274 5.72718 273.444 5.88107 272.999 6.18883C272.559 6.49186 272.338 6.87775 272.338 7.3465C272.338 7.76317 272.49 8.09224 272.793 8.33372C273.096 8.57519 273.569 8.77643 274.213 8.93741L275.833 9.33514C276.808 9.57188 277.535 9.9341 278.013 10.4218C278.491 10.9047 278.73 11.5274 278.73 12.2897C278.73 12.9147 278.551 13.4734 278.191 13.9658C277.836 14.4582 277.338 14.8465 276.699 15.1306C276.06 15.4147 275.317 15.5567 274.469 15.5567C273.356 15.5567 272.435 15.3153 271.706 14.8323C270.977 14.3493 270.516 13.6439 270.321 12.7158L271.912 12.3181C272.064 12.9052 272.35 13.3456 272.772 13.6391C273.198 13.9327 273.754 14.0795 274.441 14.0795C275.222 14.0795 275.842 13.9137 276.301 13.5823C276.765 13.2461 276.997 12.8437 276.997 12.3749C276.997 11.9961 276.865 11.6789 276.6 11.4232C276.335 11.1628 275.927 10.9687 275.378 10.8408L273.56 10.4147C272.561 10.1779 271.827 9.81099 271.358 9.31383C270.894 8.81194 270.662 8.18457 270.662 7.43173C270.662 6.8162 270.835 6.27169 271.181 5.79821C271.531 5.32472 272.007 4.95304 272.608 4.68315C273.214 4.41326 273.901 4.27832 274.668 4.27832C275.748 4.27832 276.595 4.51506 277.211 4.98855C277.831 5.46203 278.271 6.08703 278.532 6.86355Z" fill="black"/>
<path d="M270.133 0.78418V2.06259C270.133 2.45085 270.062 2.86515 269.92 3.30549C269.783 3.74109 269.579 4.16486 269.309 4.57679C269.044 4.98399 268.722 5.3391 268.343 5.64213L267.434 4.9035C267.733 4.47736 267.991 4.03465 268.208 3.57537C268.431 3.11136 268.542 2.61657 268.542 2.091V0.78418H270.133Z" fill="black"/>
<path d="M265.568 4.42052V5.84098H259.915V4.42052H265.568ZM261.562 1.80688H263.239V12.2046C263.239 12.6781 263.307 13.0332 263.445 13.27C263.587 13.502 263.767 13.6582 263.984 13.7387C264.207 13.8145 264.441 13.8523 264.688 13.8523C264.872 13.8523 265.024 13.8429 265.142 13.8239C265.26 13.8003 265.355 13.7813 265.426 13.7671L265.767 15.2728C265.653 15.3154 265.495 15.358 265.291 15.4006C265.088 15.448 264.83 15.4717 264.517 15.4717C264.044 15.4717 263.58 15.3699 263.125 15.1663C262.675 14.9627 262.301 14.6525 262.003 14.2359C261.709 13.8192 261.562 13.2936 261.562 12.6592V1.80688Z" fill="black"/>
<path d="M256.078 15.3296V4.4205H257.754V15.3296H256.078ZM256.93 2.60232C256.603 2.60232 256.322 2.49105 256.085 2.26851C255.853 2.04597 255.737 1.77845 255.737 1.46595C255.737 1.15345 255.853 0.885934 256.085 0.663396C256.322 0.440858 256.603 0.32959 256.93 0.32959C257.257 0.32959 257.536 0.440858 257.768 0.663396C258.005 0.885934 258.123 1.15345 258.123 1.46595C258.123 1.77845 258.005 2.04597 257.768 2.26851C257.536 2.49105 257.257 2.60232 256.93 2.60232Z" fill="black"/>
<path d="M243.386 15.5567C242.335 15.5567 241.428 15.3247 240.666 14.8607C239.908 14.392 239.324 13.7385 238.912 12.9005C238.504 12.0577 238.301 11.0776 238.301 9.96014C238.301 8.84271 238.504 7.85786 238.912 7.00559C239.324 6.14858 239.896 5.48097 240.63 5.00275C241.369 4.5198 242.231 4.27832 243.216 4.27832C243.784 4.27832 244.345 4.37302 244.899 4.56241C245.453 4.7518 245.957 5.05957 246.412 5.48571C246.866 5.90711 247.228 6.46582 247.498 7.16184C247.768 7.85786 247.903 8.71487 247.903 9.73286V10.4431H239.494V8.99423H246.199C246.199 8.3787 246.075 7.82946 245.829 7.3465C245.588 6.86355 245.242 6.48239 244.792 6.20304C244.347 5.92368 243.822 5.784 243.216 5.784C242.548 5.784 241.97 5.94972 241.483 6.28116C241 6.60786 240.628 7.034 240.368 7.55957C240.107 8.08514 239.977 8.64858 239.977 9.24991V10.2158C239.977 11.0397 240.119 11.7381 240.403 12.311C240.692 12.8792 241.092 13.3124 241.603 13.6107C242.115 13.9043 242.709 14.051 243.386 14.051C243.826 14.051 244.224 13.9895 244.579 13.8664C244.939 13.7385 245.249 13.5492 245.51 13.2982C245.77 13.0425 245.971 12.7253 246.113 12.3465L247.733 12.801C247.562 13.3503 247.276 13.8332 246.873 14.2499C246.471 14.6618 245.974 14.9838 245.382 15.2158C244.79 15.4431 244.125 15.5567 243.386 15.5567Z" fill="black"/>
<path d="M232.072 15.5567C231.049 15.5567 230.169 15.3153 229.43 14.8323C228.691 14.3493 228.123 13.6841 227.726 12.8366C227.328 11.989 227.129 11.0207 227.129 9.93173C227.129 8.82377 227.333 7.84603 227.74 6.99849C228.152 6.14622 228.725 5.48097 229.458 5.00275C230.197 4.5198 231.059 4.27832 232.044 4.27832C232.811 4.27832 233.502 4.42037 234.118 4.70446C234.733 4.98855 235.237 5.38627 235.63 5.89764C236.023 6.409 236.267 7.00559 236.362 7.68741H234.686C234.558 7.19025 234.274 6.74991 233.833 6.36639C233.398 5.97813 232.811 5.784 232.072 5.784C231.419 5.784 230.846 5.95446 230.353 6.29537C229.866 6.63154 229.485 7.10739 229.21 7.72292C228.94 8.33372 228.805 9.05105 228.805 9.87491C228.805 10.7177 228.938 11.4516 229.203 12.0766C229.473 12.7016 229.851 13.1869 230.339 13.5326C230.832 13.8782 231.409 14.051 232.072 14.051C232.508 14.051 232.903 13.9753 233.258 13.8238C233.613 13.6723 233.914 13.4545 234.16 13.1704C234.406 12.8863 234.582 12.5454 234.686 12.1476H236.362C236.267 12.7916 236.033 13.3716 235.659 13.8877C235.289 14.3991 234.799 14.8063 234.189 15.1093C233.583 15.4076 232.877 15.5567 232.072 15.5567Z" fill="black"/>
<path d="M217.617 8.76696V15.3295H215.941V4.42037H217.56V6.12491H217.702C217.958 5.57093 218.346 5.12586 218.867 4.78968C219.388 4.44878 220.06 4.27832 220.884 4.27832C221.623 4.27832 222.269 4.42984 222.823 4.73287C223.377 5.03116 223.808 5.48571 224.116 6.0965C224.424 6.70256 224.577 7.46961 224.577 8.39764V15.3295H222.901V8.51127C222.901 7.65427 222.679 6.98665 222.234 6.50843C221.789 6.02548 221.178 5.784 220.401 5.784C219.866 5.784 219.388 5.9 218.967 6.13201C218.55 6.36402 218.221 6.70256 217.979 7.14764C217.738 7.59271 217.617 8.13249 217.617 8.76696Z" fill="black"/>
<path d="M211.195 15.3296V4.4205H212.871V15.3296H211.195ZM212.047 2.60232C211.721 2.60232 211.439 2.49105 211.202 2.26851C210.97 2.04597 210.854 1.77845 210.854 1.46595C210.854 1.15345 210.97 0.885934 211.202 0.663396C211.439 0.440858 211.721 0.32959 212.047 0.32959C212.374 0.32959 212.653 0.440858 212.885 0.663396C213.122 0.885934 213.24 1.15345 213.24 1.46595C213.24 1.77845 213.122 2.04597 212.885 2.26851C212.653 2.49105 212.374 2.60232 212.047 2.60232Z" fill="black"/>
<path d="M206.623 4.42043C206.538 3.70074 206.192 3.14202 205.586 2.7443C204.98 2.34657 204.237 2.14771 203.356 2.14771C202.712 2.14771 202.148 2.25187 201.665 2.46021C201.187 2.66854 200.813 2.955 200.543 3.31958C200.278 3.68416 200.146 4.09846 200.146 4.56248C200.146 4.95074 200.238 5.28454 200.423 5.5639C200.612 5.83852 200.853 6.06816 201.147 6.25282C201.441 6.43274 201.748 6.58189 202.07 6.70026C202.392 6.8139 202.688 6.90623 202.958 6.97725L204.435 7.37498C204.814 7.47441 205.236 7.61172 205.7 7.78691C206.168 7.9621 206.616 8.20121 207.042 8.50424C207.473 8.80254 207.828 9.18606 208.107 9.65481C208.387 10.1236 208.526 10.6988 208.526 11.3807C208.526 12.1666 208.32 12.8769 207.908 13.5113C207.501 14.1458 206.905 14.6501 206.119 15.0241C205.337 15.3982 204.388 15.5852 203.271 15.5852C202.229 15.5852 201.327 15.4171 200.565 15.0809C199.807 14.7448 199.21 14.276 198.775 13.6747C198.344 13.0734 198.1 12.375 198.043 11.5795H199.862C199.909 12.1288 200.094 12.5833 200.415 12.9432C200.742 13.2983 201.154 13.5634 201.651 13.7386C202.153 13.9091 202.693 13.9943 203.271 13.9943C203.943 13.9943 204.547 13.8854 205.082 13.6676C205.617 13.4451 206.04 13.1373 206.353 12.7443C206.665 12.3466 206.822 11.8826 206.822 11.3523C206.822 10.8693 206.687 10.4763 206.417 10.1733C206.147 9.87024 205.792 9.62403 205.352 9.43464C204.911 9.24524 204.435 9.07952 203.924 8.93748L202.134 8.42612C200.998 8.09941 200.098 7.63303 199.435 7.02697C198.773 6.42091 198.441 5.62782 198.441 4.64771C198.441 3.83331 198.661 3.12308 199.102 2.51702C199.547 1.90623 200.143 1.43274 200.891 1.09657C201.644 0.75566 202.485 0.585205 203.413 0.585205C204.35 0.585205 205.183 0.753292 205.913 1.08947C206.642 1.42091 207.219 1.87545 207.646 2.4531C208.076 3.03075 208.304 3.68653 208.327 4.42043H206.623Z" fill="black"/>
<path d="M188.53 15.4433C188.179 15.4433 187.879 15.3178 187.628 15.0669C187.377 14.8159 187.251 14.5153 187.251 14.1649C187.251 13.8145 187.377 13.5138 187.628 13.2629C187.879 13.0119 188.179 12.8865 188.53 12.8865C188.88 12.8865 189.181 13.0119 189.432 13.2629C189.683 13.5138 189.808 13.8145 189.808 14.1649C189.808 14.3969 189.749 14.61 189.631 14.8041C189.517 14.9982 189.363 15.1545 189.169 15.2728C188.98 15.3865 188.767 15.4433 188.53 15.4433Z" fill="black"/>
<path d="M184.787 4.42052V5.84098H179.134V4.42052H184.787ZM180.781 1.80688H182.457V12.2046C182.457 12.6781 182.526 13.0332 182.663 13.27C182.805 13.502 182.985 13.6582 183.203 13.7387C183.426 13.8145 183.66 13.8523 183.906 13.8523C184.091 13.8523 184.242 13.8429 184.361 13.8239C184.479 13.8003 184.574 13.7813 184.645 13.7671L184.986 15.2728C184.872 15.3154 184.714 15.358 184.51 15.4006C184.306 15.448 184.048 15.4717 183.736 15.4717C183.262 15.4717 182.798 15.3699 182.344 15.1663C181.894 14.9627 181.52 14.6525 181.222 14.2359C180.928 13.8192 180.781 13.2936 180.781 12.6592V1.80688Z" fill="black"/>
<path d="M177.321 6.86355L175.815 7.28968C175.72 7.03874 175.581 6.79489 175.396 6.55815C175.216 6.31667 174.97 6.11781 174.657 5.96156C174.345 5.80531 173.945 5.72718 173.457 5.72718C172.789 5.72718 172.233 5.88107 171.788 6.18883C171.348 6.49186 171.127 6.87775 171.127 7.3465C171.127 7.76317 171.279 8.09224 171.582 8.33372C171.885 8.57519 172.359 8.77643 173.002 8.93741L174.622 9.33514C175.597 9.57188 176.324 9.9341 176.802 10.4218C177.28 10.9047 177.52 11.5274 177.52 12.2897C177.52 12.9147 177.34 13.4734 176.98 13.9658C176.625 14.4582 176.127 14.8465 175.488 15.1306C174.849 15.4147 174.106 15.5567 173.258 15.5567C172.145 15.5567 171.225 15.3153 170.495 14.8323C169.766 14.3493 169.305 13.6439 169.11 12.7158L170.701 12.3181C170.853 12.9052 171.139 13.3456 171.561 13.6391C171.987 13.9327 172.543 14.0795 173.23 14.0795C174.011 14.0795 174.631 13.9137 175.091 13.5823C175.555 13.2461 175.787 12.8437 175.787 12.3749C175.787 11.9961 175.654 11.6789 175.389 11.4232C175.124 11.1628 174.717 10.9687 174.167 10.8408L172.349 10.4147C171.35 10.1779 170.616 9.81099 170.147 9.31383C169.683 8.81194 169.451 8.18457 169.451 7.43173C169.451 6.8162 169.624 6.27169 169.97 5.79821C170.32 5.32472 170.796 4.95304 171.397 4.68315C172.003 4.41326 172.69 4.27832 173.457 4.27832C174.537 4.27832 175.384 4.51506 176 4.98855C176.62 5.46203 177.06 6.08703 177.321 6.86355Z" fill="black"/>
<path d="M162.092 15.5567C161.107 15.5567 160.243 15.3224 159.499 14.8536C158.761 14.3849 158.183 13.7291 157.766 12.8863C157.354 12.0435 157.148 11.0586 157.148 9.93173C157.148 8.79536 157.354 7.80341 157.766 6.95588C158.183 6.10834 158.761 5.45019 159.499 4.98145C160.243 4.5127 161.107 4.27832 162.092 4.27832C163.076 4.27832 163.938 4.5127 164.677 4.98145C165.42 5.45019 165.998 6.10834 166.41 6.95588C166.826 7.80341 167.035 8.79536 167.035 9.93173C167.035 11.0586 166.826 12.0435 166.41 12.8863C165.998 13.7291 165.42 14.3849 164.677 14.8536C163.938 15.3224 163.076 15.5567 162.092 15.5567ZM162.092 14.051C162.84 14.051 163.455 13.8593 163.938 13.4758C164.421 13.0922 164.779 12.588 165.011 11.963C165.243 11.338 165.359 10.6609 165.359 9.93173C165.359 9.20256 165.243 8.52311 165.011 7.89338C164.779 7.26364 164.421 6.75465 163.938 6.36639C163.455 5.97813 162.84 5.784 162.092 5.784C161.344 5.784 160.728 5.97813 160.245 6.36639C159.762 6.75465 159.405 7.26364 159.173 7.89338C158.941 8.52311 158.825 9.20256 158.825 9.93173C158.825 10.6609 158.941 11.338 159.173 11.963C159.405 12.588 159.762 13.0922 160.245 13.4758C160.728 13.8593 161.344 14.051 162.092 14.051Z" fill="black"/>
<path d="M145.472 19.4204V4.42037H147.092V6.15332H147.29C147.414 5.96393 147.584 5.72245 147.802 5.42889C148.024 5.13059 148.342 4.86544 148.754 4.63343C149.17 4.39669 149.734 4.27832 150.444 4.27832C151.362 4.27832 152.172 4.50796 152.873 4.96724C153.574 5.42652 154.12 6.07756 154.513 6.92037C154.906 7.76317 155.103 8.75749 155.103 9.90332C155.103 11.0586 154.906 12.06 154.513 12.9076C154.12 13.7504 153.576 14.4038 152.88 14.8678C152.184 15.3271 151.381 15.5567 150.472 15.5567C149.772 15.5567 149.21 15.4407 148.789 15.2087C148.368 14.972 148.043 14.7045 147.816 14.4062C147.589 14.1031 147.414 13.8522 147.29 13.6533H147.148V19.4204H145.472ZM147.12 9.87491C147.12 10.6988 147.241 11.4256 147.482 12.0553C147.724 12.6803 148.076 13.1704 148.54 13.5255C149.004 13.8759 149.573 14.051 150.245 14.051C150.946 14.051 151.531 13.8664 151.999 13.4971C152.473 13.123 152.828 12.6211 153.065 11.9914C153.306 11.3569 153.427 10.6514 153.427 9.87491C153.427 9.10786 153.308 8.41658 153.072 7.80105C152.84 7.18078 152.487 6.69073 152.013 6.33088C151.545 5.96629 150.955 5.784 150.245 5.784C149.563 5.784 148.99 5.95682 148.526 6.30247C148.062 6.64338 147.712 7.1216 147.475 7.73713C147.238 8.34792 147.12 9.06052 147.12 9.87491Z" fill="black"/>
<path d="M131.788 15.5851C131.097 15.5851 130.469 15.4549 129.906 15.1945C129.342 14.9294 128.895 14.5482 128.564 14.051C128.232 13.5492 128.066 12.9431 128.066 12.2329C128.066 11.6079 128.19 11.1012 128.436 10.713C128.682 10.32 129.011 10.0122 129.423 9.78968C129.835 9.56714 130.289 9.40143 130.787 9.29252C131.288 9.17889 131.793 9.08893 132.299 9.02264C132.962 8.93741 133.5 8.87349 133.912 8.83088C134.328 8.78353 134.631 8.7054 134.821 8.5965C135.015 8.4876 135.112 8.29821 135.112 8.02832V7.9715C135.112 7.27074 134.92 6.72624 134.537 6.33798C134.158 5.94972 133.583 5.75559 132.811 5.75559C132.011 5.75559 131.383 5.93078 130.929 6.28116C130.474 6.63154 130.154 7.00559 129.97 7.40332L128.379 6.83514C128.663 6.17226 129.042 5.65616 129.515 5.28684C129.993 4.91279 130.514 4.65237 131.078 4.50559C131.646 4.35408 132.205 4.27832 132.754 4.27832C133.104 4.27832 133.507 4.32093 133.961 4.40616C134.421 4.48665 134.863 4.65474 135.289 4.91042C135.72 5.1661 136.078 5.55199 136.362 6.06809C136.646 6.58419 136.788 7.27548 136.788 8.14196V15.3295H135.112V13.8522H135.027C134.913 14.0889 134.724 14.3422 134.458 14.6121C134.193 14.882 133.841 15.1117 133.4 15.301C132.96 15.4904 132.422 15.5851 131.788 15.5851ZM132.044 14.0795C132.707 14.0795 133.265 13.9492 133.72 13.6888C134.179 13.4284 134.525 13.0922 134.757 12.6803C134.994 12.2684 135.112 11.8351 135.112 11.3806V9.8465C135.041 9.93173 134.885 10.0099 134.643 10.0809C134.406 10.1472 134.132 10.2063 133.819 10.2584C133.511 10.3058 133.211 10.3484 132.917 10.3863C132.628 10.4194 132.394 10.4478 132.214 10.4715C131.779 10.5283 131.371 10.6207 130.993 10.7485C130.619 10.8716 130.315 11.0586 130.083 11.3096C129.856 11.5558 129.743 11.892 129.743 12.3181C129.743 12.9005 129.958 13.3408 130.389 13.6391C130.824 13.9327 131.376 14.0795 132.044 14.0795Z" fill="black"/>
<path d="M115.511 15.3295V4.42045H117.131V6.06818H117.244C117.443 5.52841 117.803 5.09044 118.324 4.75426C118.845 4.41809 119.432 4.25 120.085 4.25C120.208 4.25 120.362 4.25237 120.547 4.2571C120.732 4.26184 120.871 4.26894 120.966 4.27841V5.98295C120.909 5.96875 120.779 5.94744 120.575 5.91903C120.376 5.88589 120.166 5.86932 119.943 5.86932C119.413 5.86932 118.939 5.98059 118.523 6.20312C118.111 6.42093 117.784 6.72396 117.543 7.11222C117.306 7.49574 117.187 7.93371 117.187 8.42614V15.3295H115.511Z" fill="black"/>
<path d="M108.01 15.5567C107.025 15.5567 106.161 15.3224 105.417 14.8536C104.679 14.3849 104.101 13.7291 103.684 12.8863C103.272 12.0435 103.066 11.0586 103.066 9.93173C103.066 8.79536 103.272 7.80341 103.684 6.95588C104.101 6.10834 104.679 5.45019 105.417 4.98145C106.161 4.5127 107.025 4.27832 108.01 4.27832C108.994 4.27832 109.856 4.5127 110.595 4.98145C111.338 5.45019 111.916 6.10834 112.328 6.95588C112.744 7.80341 112.953 8.79536 112.953 9.93173C112.953 11.0586 112.744 12.0435 112.328 12.8863C111.916 13.7291 111.338 14.3849 110.595 14.8536C109.856 15.3224 108.994 15.5567 108.01 15.5567ZM108.01 14.051C108.758 14.051 109.373 13.8593 109.856 13.4758C110.339 13.0922 110.697 12.588 110.929 11.963C111.161 11.338 111.277 10.6609 111.277 9.93173C111.277 9.20256 111.161 8.52311 110.929 7.89338C110.697 7.26364 110.339 6.75465 109.856 6.36639C109.373 5.97813 108.758 5.784 108.01 5.784C107.261 5.784 106.646 5.97813 106.163 6.36639C105.68 6.75465 105.323 7.26364 105.091 7.89338C104.859 8.52311 104.743 9.20256 104.743 9.93173C104.743 10.6609 104.859 11.338 105.091 11.963C105.323 12.588 105.68 13.0922 106.163 13.4758C106.646 13.8593 107.261 14.051 108.01 14.051Z" fill="black"/>
<path d="M101.678 4.42048V5.84093H95.7972V4.42048H101.678ZM97.5586 15.3296V2.9148C97.5586 2.2898 97.7054 1.76896 97.9989 1.35229C98.2925 0.935628 98.6737 0.623128 99.1424 0.414795C99.6112 0.206462 100.106 0.102295 100.627 0.102295C101.039 0.102295 101.375 0.13544 101.635 0.201728C101.896 0.268015 102.09 0.329568 102.218 0.386386L101.735 1.83525C101.65 1.80684 101.531 1.77133 101.38 1.72872C101.233 1.6861 101.039 1.66479 100.797 1.66479C100.243 1.66479 99.8432 1.80447 99.597 2.08383C99.3555 2.36319 99.2347 2.77275 99.2347 3.31252V15.3296H97.5586Z" fill="black"/>
<path d="M88.6737 4.42052V5.84098H83.0203V4.42052H88.6737ZM84.668 1.80688H86.3441V12.2046C86.3441 12.6781 86.4128 13.0332 86.5501 13.27C86.6921 13.502 86.8721 13.6582 87.0899 13.7387C87.3124 13.8145 87.5468 13.8523 87.793 13.8523C87.9777 13.8523 88.1292 13.8429 88.2475 13.8239C88.3659 13.8003 88.4606 13.7813 88.5316 13.7671L88.8725 15.2728C88.7589 15.3154 88.6003 15.358 88.3967 15.4006C88.1931 15.448 87.935 15.4717 87.6225 15.4717C87.1491 15.4717 86.685 15.3699 86.2305 15.1663C85.7807 14.9627 85.4066 14.6525 85.1083 14.2359C84.8148 13.8192 84.668 13.2936 84.668 12.6592V1.80688Z" fill="black"/>
<path d="M74.3785 4.42041L76.9922 8.88064L79.6058 4.42041H81.5376L78.0149 9.87496L81.5376 15.3295H79.6058L76.9922 11.0965L74.3785 15.3295H72.4467L75.9126 9.87496L72.4467 4.42041H74.3785Z" fill="black"/>
<path d="M66.3548 15.5567C65.3036 15.5567 64.3969 15.3247 63.6346 14.8607C62.877 14.392 62.2923 13.7385 61.8803 12.9005C61.4731 12.0577 61.2695 11.0776 61.2695 9.96014C61.2695 8.84271 61.4731 7.85786 61.8803 7.00559C62.2923 6.14858 62.8652 5.48097 63.5991 5.00275C64.3377 4.5198 65.1995 4.27832 66.1843 4.27832C66.7525 4.27832 67.3136 4.37302 67.8675 4.56241C68.4215 4.7518 68.9258 5.05957 69.3803 5.48571C69.8349 5.90711 70.1971 6.46582 70.467 7.16184C70.7369 7.85786 70.8718 8.71487 70.8718 9.73286V10.4431H62.4627V8.99423H69.1673C69.1673 8.3787 69.0442 7.82946 68.7979 7.3465C68.5565 6.86355 68.2108 6.48239 67.761 6.20304C67.3159 5.92368 66.7904 5.784 66.1843 5.784C65.5167 5.784 64.939 5.94972 64.4513 6.28116C63.9684 6.60786 63.5967 7.034 63.3363 7.55957C63.0759 8.08514 62.9457 8.64858 62.9457 9.24991V10.2158C62.9457 11.0397 63.0877 11.7381 63.3718 12.311C63.6606 12.8792 64.0607 13.3124 64.5721 13.6107C65.0835 13.9043 65.6777 14.051 66.3548 14.051C66.7951 14.051 67.1928 13.9895 67.5479 13.8664C67.9078 13.7385 68.2179 13.5492 68.4783 13.2982C68.7388 13.0425 68.94 12.7253 69.082 12.3465L70.7013 12.801C70.5309 13.3503 70.2444 13.8332 69.842 14.2499C69.4395 14.6618 68.9424 14.9838 68.3505 15.2158C67.7586 15.4431 67.0934 15.5567 66.3548 15.5567Z" fill="black"/>
<path d="M59.3768 4.42052V5.84098H53.7234V4.42052H59.3768ZM55.3711 1.80688H57.0473V12.2046C57.0473 12.6781 57.1159 13.0332 57.2532 13.27C57.3953 13.502 57.5752 13.6582 57.793 13.7387C58.0155 13.8145 58.2499 13.8523 58.4961 13.8523C58.6808 13.8523 58.8323 13.8429 58.9507 13.8239C59.069 13.8003 59.1637 13.7813 59.2348 13.7671L59.5757 15.2728C59.462 15.3154 59.3034 15.358 59.0998 15.4006C58.8962 15.448 58.6382 15.4717 58.3257 15.4717C57.8522 15.4717 57.3882 15.3699 56.9336 15.1663C56.4838 14.9627 56.1098 14.6525 55.8115 14.2359C55.5179 13.8192 55.3711 13.2936 55.3711 12.6592V1.80688Z" fill="black"/>
<path d="M38.9542 19.4204C38.6701 19.4204 38.4168 19.3967 38.1943 19.3494C37.9717 19.3068 37.8179 19.2642 37.7326 19.2215L38.1588 17.7443C38.566 17.8484 38.9258 17.8863 39.2383 17.8579C39.5508 17.8295 39.8278 17.6898 40.0693 17.4389C40.3155 17.1927 40.5404 16.7926 40.744 16.2386L41.0565 15.3863L37.0224 4.42041H38.8406L41.8519 13.1136H41.9656L44.9769 4.42041H46.7951L42.1644 16.9204C41.9561 17.4839 41.6981 17.9502 41.3903 18.3196C41.0825 18.6936 40.725 18.9706 40.3179 19.1505C39.9154 19.3304 39.4608 19.4204 38.9542 19.4204Z" fill="black"/>
<path d="M29.5721 15.5569C28.663 15.5569 27.8604 15.3273 27.1644 14.868C26.4684 14.404 25.9239 13.7506 25.5309 12.9078C25.1379 12.0602 24.9414 11.0588 24.9414 9.9035C24.9414 8.75766 25.1379 7.76335 25.5309 6.92054C25.9239 6.07774 26.4708 5.4267 27.1715 4.96742C27.8723 4.50814 28.6819 4.2785 29.6005 4.2785C30.3107 4.2785 30.8718 4.39687 31.2837 4.63361C31.7004 4.86562 32.0176 5.13077 32.2354 5.42907C32.458 5.72263 32.6308 5.9641 32.7539 6.1535H32.896V0.78418H34.5721V15.3296H32.9528V13.6535H32.7539C32.6308 13.8524 32.4556 14.1033 32.2283 14.4063C32.0011 14.7046 31.6767 14.9722 31.2553 15.2089C30.8339 15.4409 30.2728 15.5569 29.5721 15.5569ZM29.7994 14.0512C30.4717 14.0512 31.0399 13.876 31.5039 13.5257C31.9679 13.1705 32.3207 12.6805 32.5621 12.0555C32.8036 11.4258 32.9244 10.699 32.9244 9.87509C32.9244 9.06069 32.806 8.3481 32.5692 7.7373C32.3325 7.12177 31.9821 6.64355 31.5181 6.30265C31.0541 5.957 30.4812 5.78418 29.7994 5.78418C29.0891 5.78418 28.4973 5.96647 28.0238 6.33105C27.555 6.6909 27.2023 7.18096 26.9656 7.80123C26.7335 8.41676 26.6175 9.10804 26.6175 9.87509C26.6175 10.6516 26.7359 11.3571 26.9727 11.9916C27.2141 12.6213 27.5692 13.1232 28.038 13.4972C28.5115 13.8666 29.0986 14.0512 29.7994 14.0512Z" fill="black"/>
<path d="M17.951 15.5567C16.9661 15.5567 16.102 15.3224 15.3587 14.8536C14.62 14.3849 14.0424 13.7291 13.6257 12.8863C13.2138 12.0435 13.0078 11.0586 13.0078 9.93173C13.0078 8.79536 13.2138 7.80341 13.6257 6.95588C14.0424 6.10834 14.62 5.45019 15.3587 4.98145C16.102 4.5127 16.9661 4.27832 17.951 4.27832C18.9358 4.27832 19.7976 4.5127 20.5362 4.98145C21.2796 5.45019 21.8572 6.10834 22.2692 6.95588C22.6858 7.80341 22.8942 8.79536 22.8942 9.93173C22.8942 11.0586 22.6858 12.0435 22.2692 12.8863C21.8572 13.7291 21.2796 14.3849 20.5362 14.8536C19.7976 15.3224 18.9358 15.5567 17.951 15.5567ZM17.951 14.051C18.6991 14.051 19.3146 13.8593 19.7976 13.4758C20.2805 13.0922 20.638 12.588 20.87 11.963C21.102 11.338 21.218 10.6609 21.218 9.93173C21.218 9.20256 21.102 8.52311 20.87 7.89338C20.638 7.26364 20.2805 6.75465 19.7976 6.36639C19.3146 5.97813 18.6991 5.784 17.951 5.784C17.2029 5.784 16.5874 5.97813 16.1044 6.36639C15.6214 6.75465 15.264 7.26364 15.032 7.89338C14.8 8.52311 14.6839 9.20256 14.6839 9.93173C14.6839 10.6609 14.8 11.338 15.032 11.963C15.264 12.588 15.6214 13.0922 16.1044 13.4758C16.5874 13.8593 17.2029 14.051 17.951 14.051Z" fill="black"/>
<path d="M0.738647 15.3296V0.78418H5.82387C6.83713 0.78418 7.67283 0.95937 8.33098 1.30975C8.98912 1.65539 9.47918 2.12177 9.80115 2.7089C10.1231 3.29128 10.2841 3.93759 10.2841 4.64782C10.2841 5.27282 10.1728 5.78891 9.95029 6.19611C9.73249 6.60331 9.44367 6.92528 9.08382 7.16202C8.7287 7.39876 8.34281 7.57395 7.92615 7.68759V7.82963C8.37122 7.85804 8.81867 8.01429 9.26848 8.29838C9.71829 8.58248 10.0947 8.98967 10.3977 9.51997C10.7008 10.0503 10.8523 10.699 10.8523 11.466C10.8523 12.1952 10.6866 12.8509 10.3551 13.4333C10.0237 14.0157 9.50048 14.4774 8.78552 14.8183C8.07056 15.1592 7.14016 15.3296 5.99433 15.3296H0.738647ZM2.50001 13.7671H5.99433C7.1449 13.7671 7.96166 13.5446 8.44461 13.0995C8.9323 12.6497 9.17615 12.1052 9.17615 11.466C9.17615 10.9736 9.05067 10.519 8.79973 10.1024C8.54878 9.68096 8.1913 9.34479 7.72728 9.09384C7.26327 8.83816 6.71403 8.71032 6.07956 8.71032H2.50001V13.7671ZM2.50001 7.17623H5.76706C6.29736 7.17623 6.77558 7.07206 7.20172 6.86373C7.63259 6.65539 7.9735 6.36183 8.22444 5.98304C8.48012 5.60426 8.60797 5.15918 8.60797 4.64782C8.60797 4.00861 8.38543 3.46647 7.94035 3.0214C7.49528 2.57158 6.78978 2.34668 5.82387 2.34668H2.50001V7.17623Z" fill="black"/>
</svg>
