<svg width="68" height="15" viewBox="0 0 68 15" fill="none" xmlns="http://www.w3.org/2000/svg">
<path d="M57.3331 11.6365L54.7649 2.90918H56.5206L58.2308 9.31827H58.3161L60.032 2.90918H61.7877L63.4922 9.28986H63.5774L65.2763 2.90918H67.032L64.4695 11.6365H62.7365L60.9638 5.33532H60.8331L59.0604 11.6365H57.3331Z" fill="#E5E5E5"/>
<path d="M49.7422 11.8125C48.924 11.8125 48.21 11.625 47.6001 11.25C46.9903 10.875 46.5168 10.3503 46.1797 9.67609C45.8426 9.00185 45.674 8.21397 45.674 7.31246C45.674 6.40715 45.8426 5.61549 46.1797 4.93746C46.5168 4.25942 46.9903 3.73291 47.6001 3.35791C48.21 2.98291 48.924 2.79541 49.7422 2.79541C50.5604 2.79541 51.2744 2.98291 51.8842 3.35791C52.4941 3.73291 52.9676 4.25942 53.3047 4.93746C53.6418 5.61549 53.8104 6.40715 53.8104 7.31246C53.8104 8.21397 53.6418 9.00185 53.3047 9.67609C52.9676 10.3503 52.4941 10.875 51.8842 11.25C51.2744 11.625 50.5604 11.8125 49.7422 11.8125ZM49.7479 10.3863C50.2782 10.3863 50.7176 10.2462 51.0661 9.96587C51.4145 9.68556 51.6721 9.31246 51.8388 8.84655C52.0092 8.38064 52.0945 7.86738 52.0945 7.30677C52.0945 6.74995 52.0092 6.23859 51.8388 5.77268C51.6721 5.30299 51.4145 4.92609 51.0661 4.642C50.7176 4.35791 50.2782 4.21586 49.7479 4.21586C49.2138 4.21586 48.7706 4.35791 48.4183 4.642C48.0698 4.92609 47.8104 5.30299 47.6399 5.77268C47.4733 6.23859 47.3899 6.74995 47.3899 7.30677C47.3899 7.86738 47.4733 8.38064 47.6399 8.84655C47.8104 9.31246 48.0698 9.68556 48.4183 9.96587C48.7706 10.2462 49.2138 10.3863 49.7479 10.3863Z" fill="#E5E5E5"/>
<path d="M43.6413 0V11.6364H42.0277L36.1129 3.10227H36.005V11.6364H34.2493V0H35.8743L41.7948 8.54545H41.9027V0H43.6413Z" fill="#E5E5E5"/>
<path d="M21.8899 14.9092C21.6361 14.9092 21.4051 14.8883 21.1967 14.8467C20.9884 14.8088 20.8331 14.7671 20.7308 14.7217L21.1399 13.3296C21.4505 13.413 21.727 13.449 21.9694 13.4376C22.2119 13.4262 22.4259 13.3353 22.6115 13.1649C22.8009 12.9944 22.9676 12.716 23.1115 12.3296L23.3217 11.7501L20.1285 2.90918H21.9467L24.1569 9.68191H24.2479L26.4581 2.90918H28.2819L24.6854 12.8012C24.5187 13.2558 24.3066 13.6402 24.049 13.9546C23.7914 14.2728 23.4846 14.5115 23.1285 14.6705C22.7725 14.8296 22.3596 14.9092 21.8899 14.9092Z" fill="#E5E5E5"/>
<path d="M16.8288 8.01713V2.90918H18.5334V11.6365H16.8629V10.1251H16.772C16.5712 10.591 16.2493 10.9793 15.8061 11.2899C15.3667 11.5967 14.8194 11.7501 14.1641 11.7501C13.6034 11.7501 13.1072 11.627 12.6754 11.3808C12.2474 11.1308 11.9103 10.7615 11.6641 10.2728C11.4216 9.78418 11.3004 9.18001 11.3004 8.46032V2.90918H12.9993V8.25577C12.9993 8.85047 13.1641 9.32395 13.4936 9.67622C13.8231 10.0285 14.2512 10.2046 14.7777 10.2046C15.0959 10.2046 15.4122 10.1251 15.7266 9.966C16.0447 9.80691 16.308 9.56638 16.5163 9.24441C16.7284 8.92244 16.8326 8.51335 16.8288 8.01713Z" fill="#E5E5E5"/>
<path d="M0.968048 11.6364V0H5.22941C6.05517 0 6.73888 0.136364 7.28055 0.409091C7.82222 0.67803 8.22752 1.04356 8.49646 1.50568C8.7654 1.96402 8.89987 2.48106 8.89987 3.05682C8.89987 3.54167 8.81085 3.95076 8.63282 4.28409C8.45479 4.61364 8.21615 4.87879 7.91691 5.07955C7.62146 5.27652 7.2957 5.42045 6.93964 5.51136V5.625C7.326 5.64394 7.7029 5.76894 8.07032 6C8.44153 6.22727 8.74835 6.55114 8.99078 6.97159C9.2332 7.39205 9.35441 7.90341 9.35441 8.50568C9.35441 9.10038 9.21426 9.63447 8.93396 10.108C8.65744 10.5777 8.22941 10.9508 7.64987 11.2273C7.07032 11.5 6.32979 11.6364 5.42828 11.6364H0.968048ZM2.72373 10.1307H5.25782C6.09873 10.1307 6.701 9.9678 7.06464 9.64205C7.42828 9.31629 7.61009 8.90909 7.61009 8.42045C7.61009 8.05303 7.51729 7.71591 7.33168 7.40909C7.14608 7.10227 6.88093 6.85795 6.53623 6.67614C6.19532 6.49432 5.79002 6.40341 5.32032 6.40341H2.72373V10.1307ZM2.72373 5.03409H5.076C5.46994 5.03409 5.82411 4.95833 6.1385 4.80682C6.45668 4.6553 6.70858 4.44318 6.89418 4.17045C7.08358 3.89394 7.17828 3.56818 7.17828 3.19318C7.17828 2.71212 7.00972 2.30871 6.67259 1.98295C6.33547 1.6572 5.81843 1.49432 5.12146 1.49432H2.72373V5.03409Z" fill="#E5E5E5"/>
</svg>
