<svg width="28" height="11" viewBox="0 0 28 11" fill="none" xmlns="http://www.w3.org/2000/svg">
<path d="M18.8889 0.324585H20.6339L23.2937 4.95314H23.4031L26.0629 0.324585H27.8079L24.1141 6.50924V10.5064H22.5828V6.50924L18.8889 0.324585Z" fill="white"/>
<path d="M15.8998 0.324585H17.441V7.02132C17.441 7.73391 17.2736 8.36531 16.9388 8.91549C16.6041 9.46237 16.1334 9.89324 15.5269 10.2081C14.9204 10.5197 14.2094 10.6754 13.3941 10.6754C12.5821 10.6754 11.8728 10.5197 11.2662 10.2081C10.6597 9.89324 10.1891 9.46237 9.8543 8.91549C9.51955 8.36531 9.35217 7.73391 9.35217 7.02132V0.324585H10.8884V6.89703C10.8884 7.35773 10.9895 7.76706 11.1917 8.12501C11.3972 8.48297 11.6872 8.76469 12.0617 8.97018C12.4362 9.17236 12.8803 9.27345 13.3941 9.27345C13.9111 9.27345 14.3569 9.17236 14.7314 8.97018C15.1093 8.76469 15.3976 8.48297 15.5965 8.12501C15.7987 7.76706 15.8998 7.35773 15.8998 6.89703V0.324585Z" fill="white"/>
<path d="M0.192017 10.5064V0.324585H3.92071C4.64325 0.324585 5.2415 0.443903 5.71545 0.682539C6.18941 0.917861 6.54405 1.2377 6.77937 1.64206C7.0147 2.0431 7.13236 2.49551 7.13236 2.9993C7.13236 3.42354 7.05447 3.7815 6.89869 4.07316C6.74292 4.36152 6.53411 4.59352 6.27227 4.76919C6.01375 4.94154 5.72871 5.06748 5.41716 5.14703V5.24646C5.75523 5.26303 6.08501 5.37241 6.40651 5.57459C6.73132 5.77345 6.99978 6.05683 7.2119 6.42473C7.42402 6.79262 7.53009 7.24007 7.53009 7.76706C7.53009 8.28742 7.40745 8.75475 7.16219 9.16905C6.92024 9.58003 6.54571 9.9065 6.03861 10.1484C5.53151 10.3871 4.88354 10.5064 4.09472 10.5064H0.192017ZM1.72824 9.18893H3.94557C4.68136 9.18893 5.20835 9.04641 5.52653 8.76138C5.84472 8.47634 6.00381 8.12004 6.00381 7.69248C6.00381 7.37099 5.9226 7.07601 5.7602 6.80754C5.59779 6.53907 5.36579 6.32529 5.06418 6.1662C4.76588 6.00711 4.41124 5.92757 4.00026 5.92757H1.72824V9.18893ZM1.72824 4.72941H3.78648C4.13117 4.72941 4.44107 4.66313 4.71616 4.53055C4.99457 4.39798 5.21498 4.21237 5.37739 3.97373C5.54311 3.73178 5.62597 3.44674 5.62597 3.11862C5.62597 2.69769 5.47848 2.34471 5.18349 2.05967C4.88851 1.77463 4.4361 1.63211 3.82625 1.63211H1.72824V4.72941Z" fill="white"/>
</svg>
