<svg width="57" height="13" viewBox="0 0 57 13" fill="none" xmlns="http://www.w3.org/2000/svg">
<path d="M56.7941 5.841L55.2543 6.11372C55.1899 5.91675 55.0876 5.72925 54.9475 5.55122C54.8111 5.37319 54.6255 5.22736 54.3906 5.11372C54.1558 5.00009 53.8622 4.94327 53.51 4.94327C53.0289 4.94327 52.6274 5.05122 52.3054 5.26713C51.9835 5.47926 51.8225 5.75388 51.8225 6.091C51.8225 6.38266 51.9304 6.61751 52.1463 6.79554C52.3622 6.97357 52.7107 7.11941 53.1918 7.23304L54.5781 7.55122C55.3812 7.73683 55.9797 8.02282 56.3736 8.40918C56.7675 8.79554 56.9645 9.29744 56.9645 9.91486C56.9645 10.4376 56.813 10.9035 56.51 11.3126C56.2107 11.7179 55.7922 12.0361 55.2543 12.2671C54.7202 12.4982 54.1009 12.6137 53.3963 12.6137C52.4191 12.6137 51.6217 12.4054 51.0043 11.9887C50.3869 11.5683 50.0081 10.9717 49.8679 10.199L51.51 9.94895C51.6122 10.377 51.8225 10.7008 52.1406 10.9205C52.4588 11.1365 52.8736 11.2444 53.385 11.2444C53.9418 11.2444 54.3869 11.1289 54.7202 10.8978C55.0535 10.663 55.2202 10.377 55.2202 10.0399C55.2202 9.76713 55.1179 9.53797 54.9134 9.35236C54.7126 9.16676 54.4039 9.0266 53.9872 8.93191L52.51 8.60804C51.6956 8.42244 51.0933 8.12698 50.7031 7.72168C50.3168 7.31638 50.1236 6.80312 50.1236 6.18191C50.1236 5.66675 50.2675 5.216 50.5554 4.82963C50.8433 4.44327 51.241 4.14213 51.7486 3.92622C52.2562 3.70653 52.8376 3.59668 53.4929 3.59668C54.4361 3.59668 55.1785 3.80123 55.7202 4.21032C56.2619 4.61562 56.6198 5.15918 56.7941 5.841Z" fill="black"/>
<path d="M44.625 12.6137C43.7651 12.6137 43.0246 12.43 42.4034 12.0626C41.786 11.6914 41.3087 11.1705 40.9716 10.5001C40.6382 9.82585 40.4716 9.03607 40.4716 8.13077C40.4716 7.23683 40.6382 6.44895 40.9716 5.76713C41.3087 5.08532 41.7784 4.55312 42.3806 4.17054C42.9867 3.78797 43.695 3.59668 44.5056 3.59668C44.9981 3.59668 45.4753 3.67812 45.9375 3.841C46.3996 4.00388 46.8144 4.25956 47.1818 4.60804C47.5492 4.95653 47.839 5.40918 48.0511 5.966C48.2632 6.51903 48.3693 7.19138 48.3693 7.98304V8.58532H41.4318V7.31259H46.7045C46.7045 6.86562 46.6136 6.46979 46.4318 6.12509C46.25 5.7766 45.9943 5.50198 45.6647 5.30122C45.339 5.10047 44.9564 5.00009 44.517 5.00009C44.0397 5.00009 43.6231 5.11751 43.267 5.35236C42.9147 5.58342 42.642 5.88645 42.4488 6.26145C42.2594 6.63266 42.1647 7.03607 42.1647 7.47168V8.466C42.1647 9.04933 42.267 9.54554 42.4716 9.95463C42.6799 10.3637 42.9697 10.6762 43.3409 10.8921C43.7121 11.1043 44.1458 11.2103 44.642 11.2103C44.964 11.2103 45.2575 11.1649 45.5227 11.074C45.7878 10.9793 46.017 10.8391 46.2102 10.6535C46.4034 10.4679 46.5511 10.2387 46.6534 9.966L48.2613 10.2558C48.1325 10.7293 47.9015 11.144 47.5681 11.5001C47.2386 11.8524 46.8238 12.127 46.3238 12.324C45.8276 12.5171 45.2613 12.6137 44.625 12.6137Z" fill="black"/>
<path d="M38.5781 0.80127V12.4376H36.8793V0.80127H38.5781Z" fill="black"/>
<path d="M30.7386 12.4375V3.71027H32.3807V5.09663H32.4716C32.6307 4.62694 32.911 4.25762 33.3125 3.98868C33.7178 3.71595 34.1761 3.57959 34.6875 3.57959C34.7936 3.57959 34.9186 3.58338 35.0625 3.59095C35.2102 3.59853 35.3258 3.608 35.4091 3.61936V5.24436C35.3409 5.22542 35.2197 5.20459 35.0455 5.18186C34.8712 5.15535 34.697 5.14209 34.5227 5.14209C34.1212 5.14209 33.7633 5.22732 33.4489 5.39777C33.1383 5.56444 32.8921 5.79739 32.7102 6.09663C32.5284 6.39209 32.4375 6.72921 32.4375 7.108V12.4375H30.7386Z" fill="black"/>
<path d="M24.1691 12.6308C23.616 12.6308 23.116 12.5285 22.6691 12.324C22.2221 12.1156 21.8679 11.8145 21.6066 11.4205C21.349 11.0266 21.2202 10.5436 21.2202 9.97168C21.2202 9.47926 21.3149 9.07395 21.5043 8.75577C21.6937 8.43759 21.9494 8.18569 22.2714 8.00009C22.5933 7.81448 22.9532 7.67433 23.3509 7.57963C23.7486 7.48494 24.1539 7.41297 24.5668 7.36372C25.0895 7.30312 25.5138 7.25388 25.8395 7.216C26.1653 7.17433 26.402 7.10804 26.5498 7.01713C26.6975 6.92623 26.7714 6.7785 26.7714 6.57395V6.53418C26.7714 6.03797 26.6312 5.6535 26.3509 5.38077C26.0744 5.10804 25.6615 4.97168 25.1123 4.97168C24.5403 4.97168 24.0895 5.09857 23.76 5.35236C23.4342 5.60236 23.2089 5.88077 23.0839 6.18759L21.4873 5.82395C21.6767 5.29365 21.9532 4.86562 22.3168 4.53986C22.6842 4.21032 23.1066 3.97168 23.5839 3.82395C24.0611 3.67244 24.563 3.59668 25.0895 3.59668C25.438 3.59668 25.8073 3.63835 26.1975 3.72168C26.5914 3.80123 26.9589 3.94895 27.2998 4.16486C27.6445 4.38077 27.9267 4.68948 28.1464 5.091C28.366 5.48873 28.4759 6.00577 28.4759 6.64213V12.4376H26.8168V11.2444H26.7486C26.6388 11.4641 26.474 11.68 26.2543 11.8921C26.0346 12.1043 25.7524 12.2804 25.4077 12.4205C25.063 12.5607 24.6501 12.6308 24.1691 12.6308ZM24.5384 11.2671C25.0081 11.2671 25.4096 11.1743 25.7429 10.9887C26.0801 10.8031 26.3357 10.5607 26.51 10.2615C26.688 9.95842 26.777 9.63456 26.777 9.28986V8.16486C26.7164 8.22547 26.599 8.28229 26.4248 8.33532C26.2543 8.38456 26.0592 8.42812 25.8395 8.466C25.6198 8.50009 25.4058 8.53229 25.1975 8.56259C24.9892 8.5891 24.8149 8.61183 24.6748 8.63077C24.3452 8.67244 24.0441 8.74251 23.7714 8.841C23.5024 8.93948 23.2865 9.08153 23.1236 9.26713C22.9645 9.44895 22.885 9.69138 22.885 9.99441C22.885 10.4149 23.0403 10.733 23.3509 10.949C23.6615 11.1611 24.0573 11.2671 24.5384 11.2671Z" fill="black"/>
<path d="M13.7031 7.25582V12.4376H12.0043V0.80127H13.6804V5.13082H13.7884C13.9929 4.66112 14.3054 4.28801 14.7259 4.0115C15.1463 3.73498 15.6956 3.59672 16.3736 3.59672C16.9721 3.59672 17.4948 3.71983 17.9418 3.96604C18.3925 4.21225 18.741 4.57968 18.9872 5.06832C19.2372 5.55316 19.3622 6.15922 19.3622 6.8865V12.4376H17.6634V7.09104C17.6634 6.45089 17.4986 5.95468 17.169 5.60241C16.8395 5.24635 16.3812 5.06832 15.794 5.06832C15.3925 5.06832 15.0327 5.15354 14.7145 5.324C14.4001 5.49445 14.152 5.74445 13.9702 6.074C13.7922 6.39976 13.7031 6.79369 13.7031 7.25582Z" fill="black"/>
<path d="M10.0398 4.58527H8.26705C8.19886 4.20648 8.07197 3.87315 7.88636 3.58527C7.70076 3.29739 7.47349 3.05307 7.20455 2.85232C6.93561 2.65156 6.63447 2.50004 6.30114 2.39777C5.97159 2.2955 5.62121 2.24436 5.25 2.24436C4.57955 2.24436 3.97917 2.41292 3.44886 2.75004C2.92235 3.08717 2.50568 3.58148 2.19886 4.233C1.89583 4.88451 1.74432 5.67997 1.74432 6.61936C1.74432 7.56633 1.89583 8.36557 2.19886 9.01709C2.50568 9.6686 2.92424 10.161 3.45455 10.4944C3.98485 10.8277 4.58144 10.9944 5.24432 10.9944C5.61174 10.9944 5.96023 10.9451 6.28977 10.8466C6.62311 10.7444 6.92424 10.5947 7.19318 10.3978C7.46212 10.2008 7.68939 9.96027 7.875 9.67618C8.06439 9.3883 8.19508 9.05876 8.26705 8.68754L10.0398 8.69323C9.94508 9.2652 9.76136 9.79171 9.48864 10.2728C9.2197 10.75 8.87311 11.1629 8.44886 11.5114C8.02841 11.8561 7.54735 12.1232 7.00568 12.3125C6.46402 12.5019 5.87311 12.5966 5.23295 12.5966C4.22538 12.5966 3.32765 12.358 2.53977 11.8807C1.75189 11.3997 1.13068 10.7122 0.676136 9.81823C0.225379 8.92429 0 7.858 0 6.61936C0 5.37694 0.227273 4.31065 0.681818 3.4205C1.13636 2.52656 1.75758 1.84095 2.54545 1.36368C3.33333 0.88262 4.22917 0.64209 5.23295 0.64209C5.85038 0.64209 6.42614 0.731105 6.96023 0.909136C7.49811 1.08338 7.98106 1.34095 8.40909 1.68186C8.83712 2.01898 9.19129 2.43186 9.47159 2.9205C9.75189 3.40535 9.94129 3.96027 10.0398 4.58527Z" fill="black"/>
</svg>
