<svg width="120" height="52" viewBox="0 0 120 52" fill="none" xmlns="http://www.w3.org/2000/svg">
<ellipse cx="27.5" cy="26" rx="27.5" ry="26" fill="#D9D9D9"/>
<ellipse cx="92.5" cy="26" rx="27.5" ry="26" fill="#D9D9D9"/>
<path d="M30.918 17.6087V15.2686C30.918 15.0657 30.6849 14.9537 30.5275 15.0778L16.8802 25.7371C16.7643 25.8273 16.6704 25.9428 16.6059 26.0747C16.5414 26.2067 16.5078 26.3516 16.5078 26.4985C16.5078 26.6454 16.5414 26.7903 16.6059 26.9223C16.6704 27.0542 16.7643 27.1697 16.8802 27.2599L30.5275 37.9191C30.6879 38.0433 30.918 37.9313 30.918 37.7284V35.3883C30.918 35.2399 30.8484 35.0977 30.7333 35.0068L19.8349 26.5L30.7333 17.9901C30.8484 17.8993 30.918 17.757 30.918 17.6087Z" fill="black"/>
<path d="M89.082 35.3913V37.7314C89.082 37.9343 89.3151 38.0463 89.4725 37.9222L103.12 27.2629C103.236 27.1727 103.33 27.0572 103.394 26.9253C103.459 26.7933 103.492 26.6484 103.492 26.5015C103.492 26.3546 103.459 26.2097 103.394 26.0777C103.33 25.9458 103.236 25.8303 103.12 25.7401L89.4725 15.0809C89.3121 14.9567 89.082 15.0687 89.082 15.2716V17.6117C89.082 17.7601 89.1516 17.9023 89.2667 17.9932L100.165 26.5L89.2667 35.0099C89.1516 35.1007 89.082 35.243 89.082 35.3913Z" fill="black"/>
</svg>
