<svg width="84" height="52" viewBox="0 0 84 52" fill="none" xmlns="http://www.w3.org/2000/svg">
<path fill-rule="evenodd" clip-rule="evenodd" d="M62 31.0625C62.2652 31.0625 62.5196 31.1613 62.7071 31.3371C62.8946 31.5129 63 31.7514 63 32V34.8125H66C66.2652 34.8125 66.5196 34.9113 66.7071 35.0871C66.8946 35.2629 67 35.5014 67 35.75C67 35.9986 66.8946 36.2371 66.7071 36.4129C66.5196 36.5887 66.2652 36.6875 66 36.6875H63V39.5C63 39.7486 62.8946 39.9871 62.7071 40.1629C62.5196 40.3387 62.2652 40.4375 62 40.4375C61.7348 40.4375 61.4804 40.3387 61.2929 40.1629C61.1054 39.9871 61 39.7486 61 39.5V36.6875H58C57.7348 36.6875 57.4804 36.5887 57.2929 36.4129C57.1054 36.2371 57 35.9986 57 35.75C57 35.5014 57.1054 35.2629 57.2929 35.0871C57.4804 34.9113 57.7348 34.8125 58 34.8125H61V32C61 31.7514 61.1054 31.5129 61.2929 31.3371C61.4804 31.1613 61.7348 31.0625 62 31.0625Z" fill="black"/>
<path d="M62 18.875C63.3261 18.875 64.5979 19.3689 65.5355 20.2479C66.4732 21.127 67 22.3193 67 23.5625V24.5H57V23.5625C57 22.3193 57.5268 21.127 58.4645 20.2479C59.4021 19.3689 60.6739 18.875 62 18.875ZM69 24.5V23.5625C69 21.822 68.2625 20.1528 66.9497 18.9221C65.637 17.6914 63.8565 17 62 17C60.1435 17 58.363 17.6914 57.0503 18.9221C55.7375 20.1528 55 21.822 55 23.5625V24.5H48V43.25C48 44.2446 48.4214 45.1984 49.1716 45.9016C49.9217 46.6049 50.9391 47 52 47H72C73.0609 47 74.0783 46.6049 74.8284 45.9016C75.5786 45.1984 76 44.2446 76 43.25V24.5H69ZM50 26.375H74V43.25C74 43.7473 73.7893 44.2242 73.4142 44.5758C73.0391 44.9275 72.5304 45.125 72 45.125H52C51.4696 45.125 50.9609 44.9275 50.5858 44.5758C50.2107 44.2242 50 43.7473 50 43.25V26.375Z" fill="black"/>
<path d="M14 29.9296L12.4355 26.5369C12.047 25.6968 11.3733 24.4888 10.4195 23.5122C9.4815 22.5507 8.358 21.8964 7 21.8964C4.067 21.8964 1.75 24.4111 1.75 27.4339C1.75 29.7305 2.7195 31.3519 5.019 33.8249C5.60875 34.4583 6.28075 35.1429 7.0245 35.8976C8.9635 37.8699 11.375 40.3239 14 43.6047C16.625 40.3239 19.0365 37.8699 20.9755 35.8976C21.7192 35.1429 22.393 34.4564 22.981 33.8249C25.2805 31.3519 26.25 29.7305 26.25 27.4339C26.25 24.4111 23.933 21.8964 21 21.8964C19.6402 21.8964 18.5185 22.5507 17.5805 23.5122C16.6267 24.4888 15.953 25.6968 15.5645 26.5369L14 29.9296ZM14.686 45.6547C14.6017 45.7629 14.4967 45.8498 14.3782 45.9095C14.2597 45.9691 14.1306 46 14 46C13.8694 46 13.7403 45.9691 13.6218 45.9095C13.5033 45.8498 13.3983 45.7629 13.314 45.6547C10.5122 42.0477 7.9765 39.4686 5.88875 37.3465C2.275 33.6694 0 31.3576 0 27.4339C0 23.3282 3.1325 20 7 20C9.8 20 11.7582 21.9912 12.957 23.808C13.412 24.5002 13.7585 25.1658 14 25.6892C14.3027 25.0342 14.6514 24.4052 15.043 23.808C16.2417 21.9893 18.2 20 21 20C24.8675 20 28 23.3282 28 27.4339C28 31.3576 25.725 33.6694 22.1112 37.3465C20.0235 39.4705 17.4878 42.0515 14.686 45.6547Z" fill="#828282"/>
</svg>
