<svg width="24" height="25" viewBox="0 0 24 25" fill="none" xmlns="http://www.w3.org/2000/svg">
<path fill-rule="evenodd" clip-rule="evenodd" d="M14.4619 3.33419C15.2507 3.00734 16.0961 2.83911 16.95 2.83911C17.8038 2.83911 18.6493 3.00734 19.4381 3.33419C20.2268 3.66097 20.9434 4.13992 21.5469 4.74366C22.1507 5.34722 22.63 6.06412 22.9567 6.85279C23.2836 7.6416 23.4518 8.48709 23.4518 9.34094C23.4518 10.1948 23.2836 11.0403 22.9567 11.8291C22.6299 12.6178 22.1509 13.3345 21.5471 13.938C21.547 13.9381 21.5472 13.938 21.5471 13.938L12.7071 22.778C12.3166 23.1686 11.6834 23.1686 11.2929 22.778L2.45289 13.938C1.23366 12.7188 0.548706 11.0652 0.548706 9.34094C0.548706 7.61669 1.23366 5.96306 2.45289 4.74383C3.67212 3.5246 5.32575 2.83965 7.05 2.83965C8.77425 2.83965 10.4279 3.5246 11.6471 4.74383L12 5.09672L12.3527 4.744C12.3527 4.74405 12.3528 4.74394 12.3527 4.744C12.9563 4.14017 13.6731 3.661 14.4619 3.33419ZM16.95 4.83911C16.3589 4.83911 15.7735 4.95558 15.2274 5.18186C14.6813 5.40813 14.1852 5.73979 13.7673 6.15788L12.7071 7.21804C12.3166 7.60857 11.6834 7.60857 11.2929 7.21804L10.2329 6.15804C9.38873 5.31389 8.24381 4.83965 7.05 4.83965C5.85618 4.83965 4.71126 5.31389 3.8671 6.15804C3.02295 7.0022 2.54871 8.14712 2.54871 9.34094C2.54871 10.5348 3.02295 11.6797 3.8671 12.5238L12 20.6567L20.1329 12.5238C20.551 12.1059 20.8828 11.6096 21.1091 11.0635C21.3354 10.5174 21.4518 9.93206 21.4518 9.34094C21.4518 8.74981 21.3354 8.16448 21.1091 7.61837C20.8828 7.07227 20.5511 6.5761 20.1331 6.15821C19.7152 5.74012 19.2187 5.40813 18.6726 5.18186C18.1265 4.95558 17.5411 4.83911 16.95 4.83911Z" fill="black"/>
</svg>
