<svg width="110" height="16" viewBox="0 0 110 16" fill="none" xmlns="http://www.w3.org/2000/svg">
<path d="M105.506 12.1819C104.665 12.1819 103.939 11.9963 103.33 11.6251C102.723 11.2501 102.256 10.7274 101.926 10.0569C101.6 9.38266 101.438 8.59857 101.438 7.70463C101.438 6.81069 101.6 6.02282 101.926 5.341C102.256 4.65539 102.714 4.1213 103.301 3.73872C103.892 3.35236 104.581 3.15918 105.369 3.15918C105.824 3.15918 106.273 3.23494 106.716 3.38645C107.159 3.53797 107.562 3.78418 107.926 4.12509C108.29 4.46221 108.58 4.90918 108.795 5.466C109.011 6.02282 109.119 6.70842 109.119 7.52282V8.091H102.392V6.93191H107.756C107.756 6.43948 107.657 6.00009 107.46 5.61372C107.267 5.22736 106.991 4.92244 106.631 4.69895C106.275 4.47547 105.854 4.36372 105.369 4.36372C104.835 4.36372 104.373 4.4963 103.983 4.76145C103.597 5.02282 103.299 5.36372 103.091 5.78418C102.883 6.20463 102.778 6.65539 102.778 7.13645V7.90918C102.778 8.56827 102.892 9.12698 103.119 9.58532C103.35 10.0399 103.67 10.3865 104.08 10.6251C104.489 10.8599 104.964 10.9774 105.506 10.9774C105.858 10.9774 106.176 10.9281 106.46 10.8296C106.748 10.7274 106.996 10.5758 107.205 10.3751C107.413 10.1705 107.574 9.91676 107.688 9.61372L108.983 9.97736C108.847 10.4168 108.617 10.8031 108.295 11.1365C107.973 11.466 107.576 11.7236 107.102 11.9092C106.629 12.091 106.097 12.1819 105.506 12.1819Z" fill="#828282"/>
<path d="M87.9403 12.0001V3.27282H89.2358V4.63645H89.3494C89.5312 4.17054 89.8248 3.8088 90.2301 3.55122C90.6354 3.28986 91.1221 3.15918 91.6903 3.15918C92.2661 3.15918 92.7452 3.28986 93.1278 3.55122C93.5142 3.8088 93.8153 4.17054 94.0312 4.63645H94.1221C94.3456 4.1857 94.6808 3.82774 95.1278 3.56259C95.5748 3.29365 96.1108 3.15918 96.7358 3.15918C97.5161 3.15918 98.1543 3.4035 98.6505 3.89213C99.1467 4.37698 99.3949 5.13266 99.3949 6.15918V12.0001H98.0539V6.15918C98.0539 5.51524 97.8778 5.05501 97.5255 4.7785C97.1733 4.50198 96.7585 4.36372 96.2812 4.36372C95.6676 4.36372 95.1922 4.54933 94.8551 4.92054C94.518 5.28797 94.3494 5.75388 94.3494 6.31827V12.0001H92.9858V6.02282C92.9858 5.5266 92.8248 5.12698 92.5028 4.82395C92.1808 4.51713 91.7661 4.36372 91.2585 4.36372C90.91 4.36372 90.5842 4.45653 90.2812 4.64213C89.982 4.82774 89.7396 5.08532 89.5539 5.41486C89.3721 5.74062 89.2812 6.11751 89.2812 6.54554V12.0001H87.9403Z" fill="#828282"/>
<path d="M81.4929 12.2046C80.9399 12.2046 80.438 12.1005 79.9872 11.8921C79.5365 11.68 79.1785 11.3751 78.9134 10.9774C78.6482 10.5758 78.5156 10.091 78.5156 9.52282C78.5156 9.02282 78.6141 8.61751 78.8111 8.30691C79.0081 7.99251 79.2713 7.7463 79.6009 7.56827C79.9304 7.39024 80.294 7.25766 80.6918 7.17054C81.0933 7.07963 81.4967 7.00766 81.902 6.95463C82.4323 6.88645 82.8622 6.83532 83.1918 6.80122C83.5251 6.76335 83.7675 6.70085 83.919 6.61372C84.0743 6.5266 84.152 6.37509 84.152 6.15918V6.11372C84.152 5.55312 83.9986 5.11751 83.6918 4.80691C83.3887 4.4963 82.9285 4.341 82.3111 4.341C81.6709 4.341 81.169 4.48115 80.8054 4.76145C80.4418 5.04176 80.1861 5.341 80.0384 5.65918L78.7656 5.20463C78.9929 4.67433 79.2959 4.26145 79.6747 3.966C80.0573 3.66676 80.474 3.45842 80.9247 3.341C81.3793 3.21979 81.8262 3.15918 82.2656 3.15918C82.5459 3.15918 82.8679 3.19327 83.2315 3.26145C83.599 3.32585 83.9531 3.46032 84.294 3.66486C84.6387 3.86941 84.9247 4.17812 85.152 4.591C85.3793 5.00388 85.4929 5.55691 85.4929 6.25009V12.0001H84.152V10.8183H84.0838C83.9929 11.0077 83.8414 11.2103 83.6293 11.4262C83.4171 11.6421 83.1349 11.8258 82.7827 11.9774C82.4304 12.1289 82.0005 12.2046 81.4929 12.2046ZM81.6974 11.0001C82.2277 11.0001 82.6747 10.8959 83.0384 10.6876C83.4058 10.4793 83.6823 10.2103 83.8679 9.88077C84.0573 9.55123 84.152 9.20463 84.152 8.841V7.61372C84.0952 7.68191 83.9702 7.74441 83.777 7.80122C83.5876 7.85426 83.3679 7.9016 83.1179 7.94327C82.8717 7.98115 82.6312 8.01524 82.3963 8.04554C82.1652 8.07206 81.9777 8.09479 81.8338 8.11372C81.4853 8.15918 81.1596 8.23304 80.8565 8.33532C80.5573 8.4338 80.3149 8.58342 80.1293 8.78418C79.9474 8.98115 79.8565 9.25009 79.8565 9.591C79.8565 10.0569 80.0289 10.4092 80.3736 10.6478C80.7221 10.8827 81.1634 11.0001 81.6974 11.0001Z" fill="#828282"/>
<path d="M70.9062 6.75009V12.0001H69.5653V3.27282H70.8608V4.63645H70.9744C71.1789 4.19327 71.4896 3.83721 71.9062 3.56827C72.3229 3.29554 72.8608 3.15918 73.5199 3.15918C74.1108 3.15918 74.6278 3.28039 75.071 3.52282C75.5142 3.76145 75.8589 4.12509 76.1051 4.61372C76.3513 5.09857 76.4744 5.71221 76.4744 6.45463V12.0001H75.1335V6.54554C75.1335 5.85994 74.9555 5.32585 74.5994 4.94327C74.2433 4.55691 73.7547 4.36372 73.1335 4.36372C72.7055 4.36372 72.3229 4.45653 71.9858 4.64213C71.6524 4.82774 71.3892 5.09857 71.196 5.45463C71.0028 5.81069 70.9062 6.24251 70.9062 6.75009Z" fill="#828282"/>
<path d="M55.3153 15.2728V3.27282H56.6108V4.65918H56.7699C56.8683 4.50766 57.0047 4.31448 57.1789 4.07963C57.357 3.841 57.6108 3.62888 57.9403 3.44327C58.2736 3.25388 58.7244 3.15918 59.2926 3.15918C60.0274 3.15918 60.6752 3.34289 61.2358 3.71032C61.7964 4.07774 62.2339 4.59857 62.5483 5.27282C62.8627 5.94706 63.0199 6.74251 63.0199 7.65918C63.0199 8.58342 62.8627 9.38456 62.5483 10.0626C62.2339 10.7368 61.7983 11.2596 61.2414 11.6308C60.6846 11.9982 60.0426 12.1819 59.3153 12.1819C58.7547 12.1819 58.3058 12.0891 57.9687 11.9035C57.6316 11.7141 57.3721 11.5001 57.1903 11.2615C57.0085 11.019 56.8683 10.8183 56.7699 10.6592H56.6562V15.2728H55.3153ZM56.6335 7.63645C56.6335 8.29554 56.7301 8.87698 56.9233 9.38077C57.1164 9.88077 57.3986 10.2728 57.7699 10.5569C58.1411 10.8372 58.5956 10.9774 59.1335 10.9774C59.6941 10.9774 60.1619 10.8296 60.5369 10.5342C60.9157 10.2349 61.1998 9.83342 61.3892 9.32963C61.5824 8.82206 61.6789 8.25766 61.6789 7.63645C61.6789 7.02282 61.5842 6.46978 61.3949 5.97736C61.2092 5.48115 60.9271 5.0891 60.5483 4.80122C60.1733 4.50956 59.7017 4.36372 59.1335 4.36372C58.588 4.36372 58.1297 4.50198 57.7585 4.7785C57.3873 5.05123 57.107 5.4338 56.9176 5.92622C56.7282 6.41486 56.6335 6.98494 56.6335 7.63645Z" fill="#828282"/>
<path d="M51.5184 8.4318V3.27271H52.8593V12H51.5184V10.5227H51.4275C51.223 10.9659 50.9048 11.3428 50.473 11.6534C50.0412 11.9602 49.4957 12.1136 48.8366 12.1136C48.2912 12.1136 47.8063 11.9943 47.3821 11.7557C46.9578 11.5132 46.6245 11.1496 46.3821 10.6648C46.1396 10.1761 46.0184 9.56058 46.0184 8.81816V3.27271H47.3593V8.72725C47.3593 9.36361 47.5374 9.87119 47.8934 10.25C48.2533 10.6288 48.7116 10.8182 49.2684 10.8182C49.6018 10.8182 49.9408 10.7329 50.2855 10.5625C50.634 10.392 50.9256 10.1307 51.1605 9.77839C51.3991 9.42611 51.5184 8.97725 51.5184 8.4318Z" fill="#828282"/>
<path d="M40.017 12.1819C39.2292 12.1819 38.5379 11.9944 37.9432 11.6194C37.3523 11.2444 36.8902 10.7198 36.5568 10.0455C36.2273 9.3713 36.0625 8.58342 36.0625 7.68191C36.0625 6.77282 36.2273 5.97925 36.5568 5.30122C36.8902 4.62319 37.3523 4.09668 37.9432 3.72168C38.5379 3.34668 39.2292 3.15918 40.017 3.15918C40.8049 3.15918 41.4943 3.34668 42.0852 3.72168C42.6799 4.09668 43.142 4.62319 43.4716 5.30122C43.8049 5.97925 43.9716 6.77282 43.9716 7.68191C43.9716 8.58342 43.8049 9.3713 43.4716 10.0455C43.142 10.7198 42.6799 11.2444 42.0852 11.6194C41.4943 11.9944 40.8049 12.1819 40.017 12.1819ZM40.017 10.9774C40.6155 10.9774 41.108 10.824 41.4943 10.5171C41.8807 10.2103 42.1667 9.80691 42.3523 9.30691C42.5379 8.80691 42.6307 8.26524 42.6307 7.68191C42.6307 7.09857 42.5379 6.55501 42.3523 6.05122C42.1667 5.54744 41.8807 5.14024 41.4943 4.82963C41.108 4.51903 40.6155 4.36372 40.017 4.36372C39.4186 4.36372 38.9261 4.51903 38.5398 4.82963C38.1534 5.14024 37.8674 5.54744 37.6818 6.05122C37.4962 6.55501 37.4034 7.09857 37.4034 7.68191C37.4034 8.26524 37.4962 8.80691 37.6818 9.30691C37.8674 9.80691 38.1534 10.2103 38.5398 10.5171C38.9261 10.824 39.4186 10.9774 40.017 10.9774Z" fill="#828282"/>
<path d="M30.7841 12.0001V3.27284H32.0795V4.59102H32.1704C32.3295 4.1592 32.6174 3.80882 33.0341 3.53988C33.4507 3.27094 33.9204 3.13647 34.4431 3.13647C34.5416 3.13647 34.6647 3.13837 34.8125 3.14216C34.9602 3.14594 35.0719 3.15163 35.1477 3.1592V4.52284C35.1022 4.51147 34.9981 4.49443 34.8352 4.4717C34.6761 4.44519 34.5075 4.43193 34.3295 4.43193C33.9053 4.43193 33.5265 4.52095 33.1931 4.69898C32.8636 4.87322 32.6022 5.11564 32.4091 5.42625C32.2197 5.73307 32.125 6.08344 32.125 6.47738V12.0001H30.7841Z" fill="#828282"/>
<path d="M27.0298 4.00004C26.9048 3.61747 26.74 3.27467 26.5355 2.97164C26.3347 2.66482 26.0942 2.40345 25.8139 2.18754C25.5374 1.97164 25.223 1.80686 24.8707 1.69323C24.5185 1.57959 24.1321 1.52277 23.7116 1.52277C23.0222 1.52277 22.3953 1.7008 21.831 2.05686C21.2666 2.41292 20.8177 2.93754 20.4844 3.63073C20.151 4.32391 19.9844 5.17429 19.9844 6.18186C19.9844 7.18944 20.1529 8.03982 20.49 8.733C20.8272 9.42618 21.2836 9.9508 21.8594 10.3069C22.4351 10.6629 23.0828 10.841 23.8025 10.841C24.4692 10.841 25.0563 10.6989 25.5639 10.4148C26.0753 10.1269 26.473 9.72164 26.7571 9.19891C27.045 8.67239 27.1889 8.05307 27.1889 7.34095L27.6207 7.43186H24.1207V6.18186H28.5525V7.43186C28.5525 8.3902 28.348 9.22353 27.9389 9.93186C27.5336 10.6402 26.973 11.1894 26.2571 11.5796C25.545 11.966 24.7268 12.1591 23.8025 12.1591C22.7722 12.1591 21.8669 11.9167 21.0866 11.4319C20.3101 10.947 19.7041 10.2576 19.2685 9.36368C18.8366 8.46974 18.6207 7.40914 18.6207 6.18186C18.6207 5.26141 18.7438 4.43376 18.99 3.69891C19.24 2.96027 19.5923 2.33148 20.0469 1.81254C20.5014 1.29361 21.0393 0.895878 21.6605 0.619363C22.2817 0.342847 22.9654 0.20459 23.7116 0.20459C24.3253 0.20459 24.8972 0.297393 25.4275 0.482999C25.9616 0.664817 26.437 0.924286 26.8537 1.26141C27.2741 1.59474 27.6245 1.99436 27.9048 2.46027C28.1851 2.92239 28.3783 3.43565 28.4844 4.00004H27.0298Z" fill="#828282"/>
<path d="M6.37497 6.75009V12.0001H5.03406V3.27282H6.32951V4.63645H6.44315C6.64769 4.19327 6.9583 3.83721 7.37497 3.56827C7.79163 3.29554 8.32951 3.15918 8.9886 3.15918C9.57951 3.15918 10.0966 3.28039 10.5397 3.52282C10.9829 3.76145 11.3276 4.12509 11.5738 4.61372C11.82 5.09857 11.9431 5.71221 11.9431 6.45463V12.0001H10.6022V6.54554C10.6022 5.85994 10.4242 5.32585 10.0681 4.94327C9.71209 4.55691 9.22345 4.36372 8.60224 4.36372C8.17421 4.36372 7.79163 4.45653 7.45451 4.64213C7.12118 4.82774 6.85792 5.09857 6.66474 5.45463C6.47156 5.81069 6.37497 6.24251 6.37497 6.75009Z" fill="#828282"/>
<path d="M1.2372 12V3.27273H2.57811V12H1.2372ZM1.91902 1.81818C1.65766 1.81818 1.43228 1.72917 1.24289 1.55114C1.05728 1.37311 0.964478 1.15909 0.964478 0.909091C0.964478 0.659091 1.05728 0.445076 1.24289 0.267045C1.43228 0.089015 1.65766 0 1.91902 0C2.18039 0 2.40387 0.089015 2.58948 0.267045C2.77887 0.445076 2.87357 0.659091 2.87357 0.909091C2.87357 1.15909 2.77887 1.37311 2.58948 1.55114C2.40387 1.72917 2.18039 1.81818 1.91902 1.81818Z" fill="#828282"/>
</svg>
