<svg width="25" height="25" viewBox="0 0 25 25" fill="none" xmlns="http://www.w3.org/2000/svg">
<path fill-rule="evenodd" clip-rule="evenodd" d="M5.22729 4.84082C4.96208 4.84082 4.70772 4.94618 4.52019 5.13371C4.33265 5.32125 4.22729 5.5756 4.22729 5.84082V19.4266L6.52019 17.1337C6.70772 16.9462 6.96208 16.8408 7.22729 16.8408H19.2273C19.4925 16.8408 19.7469 16.7355 19.9344 16.5479C20.1219 16.3604 20.2273 16.106 20.2273 15.8408V5.84082C20.2273 5.5756 20.1219 5.32125 19.9344 5.13371C19.7469 4.94618 19.4925 4.84082 19.2273 4.84082H5.22729ZM3.10597 3.7195C3.66858 3.15689 4.43165 2.84082 5.22729 2.84082H19.2273C20.0229 2.84082 20.786 3.15689 21.3486 3.7195C21.9112 4.28211 22.2273 5.04517 22.2273 5.84082V15.8408C22.2273 16.6365 21.9112 17.3995 21.3486 17.9621C20.786 18.5247 20.0229 18.8408 19.2273 18.8408H7.64151L3.9344 22.5479C3.6484 22.8339 3.21829 22.9195 2.84461 22.7647C2.47094 22.6099 2.22729 22.2453 2.22729 21.8408V5.84082C2.22729 5.04517 2.54337 4.28211 3.10597 3.7195Z" fill="black"/>
</svg>
