<svg width="17" height="20" viewBox="0 0 17 20" fill="none" xmlns="http://www.w3.org/2000/svg">
<g clip-path="url(#clip0_4_2434)">
<path d="M14.875 1.25C15.1568 1.25 15.427 1.3817 15.6263 1.61612C15.8256 1.85054 15.9375 2.16848 15.9375 2.5V17.5C15.9375 17.8315 15.8256 18.1495 15.6263 18.3839C15.427 18.6183 15.1568 18.75 14.875 18.75H2.125C1.84321 18.75 1.57296 18.6183 1.3737 18.3839C1.17444 18.1495 1.0625 17.8315 1.0625 17.5V2.5C1.0625 2.16848 1.17444 1.85054 1.3737 1.61612C1.57296 1.3817 1.84321 1.25 2.125 1.25H14.875ZM2.125 0C1.56141 0 1.02091 0.263392 0.622398 0.732233C0.223883 1.20107 0 1.83696 0 2.5L0 17.5C0 18.163 0.223883 18.7989 0.622398 19.2678C1.02091 19.7366 1.56141 20 2.125 20H14.875C15.4386 20 15.9791 19.7366 16.3776 19.2678C16.7761 18.7989 17 18.163 17 17.5V2.5C17 1.83696 16.7761 1.20107 16.3776 0.732233C15.9791 0.263392 15.4386 0 14.875 0L2.125 0Z" fill="#828282"/>
<path d="M8.5 5C8.6409 5 8.77602 5.06585 8.87565 5.18306C8.97528 5.30027 9.03125 5.45924 9.03125 5.625V9.375H12.2188C12.3596 9.375 12.4948 9.44085 12.5944 9.55806C12.694 9.67527 12.75 9.83424 12.75 10C12.75 10.1658 12.694 10.3247 12.5944 10.4419C12.4948 10.5592 12.3596 10.625 12.2188 10.625H9.03125V14.375C9.03125 14.5408 8.97528 14.6997 8.87565 14.8169C8.77602 14.9342 8.6409 15 8.5 15C8.3591 15 8.22398 14.9342 8.12435 14.8169C8.02472 14.6997 7.96875 14.5408 7.96875 14.375V10.625H4.78125C4.64035 10.625 4.50523 10.5592 4.4056 10.4419C4.30597 10.3247 4.25 10.1658 4.25 10C4.25 9.83424 4.30597 9.67527 4.4056 9.55806C4.50523 9.44085 4.64035 9.375 4.78125 9.375H7.96875V5.625C7.96875 5.45924 8.02472 5.30027 8.12435 5.18306C8.22398 5.06585 8.3591 5 8.5 5Z" fill="#828282"/>
</g>
<defs>
<clipPath id="clip0_4_2434">
<rect width="17" height="20" fill="white"/>
</clipPath>
</defs>
</svg>
