<svg width="436" height="32" viewBox="0 0 436 32" fill="none" xmlns="http://www.w3.org/2000/svg">
<path d="M435.16 9.18406V13.1613H422.617V9.18406H435.16ZM425.714 3.95679H430.856V24.4397C430.856 25.131 430.96 25.6613 431.168 26.0307C431.386 26.3905 431.67 26.6367 432.021 26.7693C432.371 26.9019 432.759 26.9682 433.185 26.9682C433.507 26.9682 433.801 26.9445 434.066 26.8971C434.341 26.8498 434.549 26.8072 434.691 26.7693L435.558 30.7892C435.283 30.8839 434.89 30.988 434.379 31.1017C433.877 31.2153 433.261 31.2816 432.532 31.3005C431.244 31.3384 430.084 31.1443 429.052 30.7182C428.02 30.2825 427.201 29.6102 426.594 28.7011C425.998 27.792 425.704 26.6557 425.714 25.292V3.95679Z" fill="black"/>
<path d="M407.234 31.0023V9.18408H412.219V12.8204H412.447C412.844 11.561 413.526 10.5903 414.492 9.90851C415.468 9.21723 416.58 8.87158 417.83 8.87158C418.114 8.87158 418.432 8.88579 418.782 8.91419C419.142 8.93313 419.44 8.96628 419.677 9.01363V13.7437C419.459 13.668 419.113 13.6017 418.64 13.5449C418.176 13.4786 417.726 13.4454 417.29 13.4454C416.353 13.4454 415.51 13.649 414.762 14.0562C414.023 14.454 413.441 15.0079 413.015 15.7182C412.589 16.4284 412.376 17.2475 412.376 18.1756V31.0023H407.234Z" fill="black"/>
<path d="M396.804 31.0023V9.1841H401.946V31.0023H396.804ZM399.389 6.08751C398.575 6.08751 397.874 5.81763 397.287 5.27785C396.7 4.72861 396.406 4.07047 396.406 3.30342C396.406 2.52691 396.7 1.86876 397.287 1.32899C397.874 0.779748 398.575 0.505127 399.389 0.505127C400.213 0.505127 400.914 0.779748 401.491 1.32899C402.079 1.86876 402.372 2.52691 402.372 3.30342C402.372 4.07047 402.079 4.72861 401.491 5.27785C400.914 5.81763 400.213 6.08751 399.389 6.08751Z" fill="black"/>
<path d="M377.415 18.2182V31.0023H372.273V1.91138H377.301V12.8915H377.557C378.068 11.6604 378.859 10.6898 379.929 9.97956C381.009 9.25986 382.382 8.90001 384.048 8.90001C385.563 8.90001 386.884 9.21725 388.011 9.85172C389.138 10.4862 390.009 11.4142 390.625 12.6358C391.25 13.8574 391.562 15.3489 391.562 17.1102V31.0023H386.42V17.9057C386.42 16.4379 386.042 15.2968 385.284 14.4824C384.536 13.6585 383.485 13.2466 382.131 13.2466C381.222 13.2466 380.407 13.4455 379.688 13.8432C378.977 14.2315 378.419 14.7949 378.011 15.5335C377.614 16.2722 377.415 17.1671 377.415 18.2182Z" fill="black"/>
<path d="M367.564 14.951L362.876 15.4624C362.744 14.9889 362.512 14.5438 362.18 14.1272C361.858 13.7105 361.423 13.3743 360.874 13.1187C360.324 12.863 359.652 12.7351 358.857 12.7351C357.786 12.7351 356.887 12.9671 356.158 13.4312C355.438 13.8952 355.083 14.4965 355.092 15.2351C355.083 15.8696 355.315 16.3857 355.788 16.7834C356.271 17.1812 357.067 17.5079 358.175 17.7635L361.896 18.559C363.961 19.0041 365.495 19.7096 366.499 20.6755C367.512 21.6414 368.023 22.9056 368.033 24.4681C368.023 25.8412 367.621 27.0533 366.825 28.1044C366.039 29.1461 364.946 29.9605 363.544 30.5476C362.143 31.1348 360.533 31.4283 358.714 31.4283C356.044 31.4283 353.894 30.8696 352.266 29.7522C350.637 28.6253 349.666 27.058 349.354 25.0505L354.368 24.5675C354.595 25.5524 355.078 26.2957 355.817 26.7976C356.555 27.2995 357.517 27.5505 358.7 27.5505C359.922 27.5505 360.902 27.2995 361.641 26.7976C362.389 26.2957 362.763 25.6755 362.763 24.9368C362.763 24.3118 362.521 23.7957 362.038 23.3885C361.565 22.9813 360.826 22.6688 359.822 22.451L356.101 21.6698C354.008 21.2342 352.46 20.5003 351.456 19.4681C350.452 18.4264 349.955 17.1101 349.964 15.5192C349.955 14.1745 350.32 13.0097 351.058 12.0249C351.806 11.0306 352.843 10.2635 354.169 9.72376C355.504 9.17452 357.043 8.8999 358.785 8.8999C361.342 8.8999 363.355 9.44441 364.822 10.5334C366.3 11.6224 367.214 13.095 367.564 14.951Z" fill="black"/>
<path d="M324.538 31.0023V9.18408H329.524V12.8204H329.751C330.149 11.561 330.831 10.5903 331.797 9.90851C332.772 9.21723 333.885 8.87158 335.135 8.87158C335.419 8.87158 335.736 8.88579 336.087 8.91419C336.446 8.93313 336.745 8.96628 336.982 9.01363V13.7437C336.764 13.668 336.418 13.6017 335.945 13.5449C335.481 13.4786 335.031 13.4454 334.595 13.4454C333.658 13.4454 332.815 13.649 332.067 14.0562C331.328 14.454 330.746 15.0079 330.32 15.7182C329.893 16.4284 329.68 17.2475 329.68 18.1756V31.0023H324.538Z" fill="black"/>
<path d="M307.848 31.4425C306.465 31.4425 305.22 31.1963 304.112 30.7039C303.014 30.202 302.143 29.4633 301.499 28.488C300.864 27.5126 300.547 26.3099 300.547 24.88C300.547 23.649 300.774 22.631 301.229 21.826C301.683 21.0211 302.303 20.3772 303.089 19.8942C303.875 19.4113 304.761 19.0467 305.746 18.8005C306.74 18.5448 307.768 18.3601 308.828 18.2465C310.107 18.1139 311.143 17.9955 311.939 17.8914C312.734 17.7777 313.312 17.6073 313.672 17.38C314.041 17.1433 314.226 16.7787 314.226 16.2863V16.201C314.226 15.131 313.909 14.3024 313.274 13.7152C312.64 13.1281 311.726 12.8346 310.533 12.8346C309.273 12.8346 308.274 13.1092 307.535 13.6584C306.806 14.2077 306.314 14.8563 306.058 15.6044L301.257 14.9226C301.636 13.5969 302.261 12.4889 303.132 11.5988C304.003 10.6991 305.069 10.0268 306.328 9.58172C307.588 9.12717 308.98 8.8999 310.504 8.8999C311.555 8.8999 312.602 9.02301 313.643 9.26922C314.685 9.51543 315.637 9.92263 316.499 10.4908C317.36 11.0495 318.052 11.8118 318.572 12.7777C319.103 13.7437 319.368 14.951 319.368 16.3999V31.0022H314.425V28.005H314.254C313.942 28.6111 313.501 29.1793 312.933 29.7096C312.375 30.2304 311.669 30.6518 310.817 30.9738C309.974 31.2863 308.984 31.4425 307.848 31.4425ZM309.183 27.6641C310.215 27.6641 311.11 27.4605 311.868 27.0533C312.625 26.6366 313.208 26.0874 313.615 25.4056C314.032 24.7238 314.24 23.9804 314.24 23.1755V20.6044C314.079 20.737 313.804 20.8601 313.416 20.9738C313.037 21.0874 312.611 21.1868 312.138 21.2721C311.664 21.3573 311.196 21.433 310.732 21.4993C310.268 21.5656 309.865 21.6224 309.524 21.6698C308.757 21.774 308.071 21.9444 307.464 22.1812C306.858 22.4179 306.38 22.7493 306.03 23.1755C305.679 23.5921 305.504 24.1319 305.504 24.7948C305.504 25.7418 305.85 26.4567 306.541 26.9397C307.232 27.4226 308.113 27.6641 309.183 27.6641Z" fill="black"/>
<path d="M296.282 1.91138V31.0023H291.14V1.91138H296.282Z" fill="black"/>
<path d="M285.852 1.91138V31.0023H280.71V1.91138H285.852Z" fill="black"/>
<path d="M265.891 31.4283C263.761 31.4283 261.914 30.9596 260.352 30.0221C258.789 29.0846 257.577 27.773 256.715 26.0874C255.863 24.4018 255.437 22.4321 255.437 20.1783C255.437 17.9245 255.863 15.9501 256.715 14.255C257.577 12.5599 258.789 11.2437 260.352 10.3062C261.914 9.36865 263.761 8.8999 265.891 8.8999C268.022 8.8999 269.869 9.36865 271.431 10.3062C272.994 11.2437 274.201 12.5599 275.053 14.255C275.915 15.9501 276.346 17.9245 276.346 20.1783C276.346 22.4321 275.915 24.4018 275.053 26.0874C274.201 27.773 272.994 29.0846 271.431 30.0221C269.869 30.9596 268.022 31.4283 265.891 31.4283ZM265.92 27.309C267.075 27.309 268.041 26.9918 268.817 26.3573C269.594 25.7133 270.172 24.8516 270.55 23.7721C270.939 22.6925 271.133 21.4899 271.133 20.1641C271.133 18.8289 270.939 17.6215 270.55 16.5419C270.172 15.4529 269.594 14.5865 268.817 13.9425C268.041 13.2986 267.075 12.9766 265.92 12.9766C264.736 12.9766 263.751 13.2986 262.965 13.9425C262.189 14.5865 261.606 15.4529 261.218 16.5419C260.839 17.6215 260.65 18.8289 260.65 20.1641C260.65 21.4899 260.839 22.6925 261.218 23.7721C261.606 24.8516 262.189 25.7133 262.965 26.3573C263.751 26.9918 264.736 27.309 265.92 27.309Z" fill="black"/>
<path d="M242.805 31.4283C240.627 31.4283 238.757 30.9501 237.195 29.9937C235.642 29.0372 234.444 27.7162 233.601 26.0306C232.767 24.3355 232.351 22.3847 232.351 20.1783C232.351 17.9624 232.777 16.0069 233.629 14.3118C234.482 12.6073 235.684 11.2815 237.237 10.3346C238.8 9.37812 240.646 8.8999 242.777 8.8999C244.548 8.8999 246.115 9.22661 247.479 9.88001C248.852 10.524 249.946 11.4378 250.76 12.6215C251.574 13.7957 252.038 15.1688 252.152 16.7408H247.237C247.038 15.6897 246.565 14.8137 245.817 14.113C245.078 13.4027 244.089 13.0476 242.848 13.0476C241.797 13.0476 240.874 13.3317 240.078 13.8999C239.283 14.4586 238.662 15.2635 238.217 16.3147C237.782 17.3658 237.564 18.6253 237.564 20.0931C237.564 21.5798 237.782 22.8582 238.217 23.9283C238.653 24.9889 239.264 25.808 240.05 26.3857C240.845 26.9539 241.778 27.238 242.848 27.238C243.606 27.238 244.283 27.0959 244.879 26.8118C245.485 26.5183 245.992 26.0969 246.399 25.5476C246.806 24.9984 247.086 24.3308 247.237 23.5448H252.152C252.029 25.0883 251.574 26.4567 250.788 27.6499C250.002 28.8336 248.932 29.7616 247.578 30.434C246.224 31.0969 244.633 31.4283 242.805 31.4283Z" fill="black"/>
<path d="M219.066 9.18406V13.1613H206.523V9.18406H219.066ZM209.62 3.95679H214.762V24.4397C214.762 25.131 214.866 25.6613 215.075 26.0307C215.292 26.3905 215.576 26.6367 215.927 26.7693C216.277 26.9019 216.665 26.9682 217.092 26.9682C217.414 26.9682 217.707 26.9445 217.972 26.8971C218.247 26.8498 218.455 26.8072 218.597 26.7693L219.464 30.7892C219.189 30.8839 218.796 30.988 218.285 31.1017C217.783 31.2153 217.167 31.2816 216.438 31.3005C215.15 31.3384 213.99 31.1443 212.958 30.7182C211.926 30.2825 211.107 29.6102 210.501 28.7011C209.904 27.792 209.611 26.6557 209.62 25.292V3.95679Z" fill="black"/>
<path d="M197.741 31.0023V9.1841H202.884V31.0023H197.741ZM200.327 6.08751C199.512 6.08751 198.812 5.81763 198.224 5.27785C197.637 4.72861 197.344 4.07047 197.344 3.30342C197.344 2.52691 197.637 1.86876 198.224 1.32899C198.812 0.779748 199.512 0.505127 200.327 0.505127C201.151 0.505127 201.851 0.779748 202.429 1.32899C203.016 1.86876 203.31 2.52691 203.31 3.30342C203.31 4.07047 203.016 4.72861 202.429 5.27785C201.851 5.81763 201.151 6.08751 200.327 6.08751Z" fill="black"/>
<path d="M193.714 9.18422V13.1615H180.817V9.18422H193.714ZM184.041 31.0024V7.12456C184.041 5.65675 184.344 4.43516 184.95 3.45978C185.566 2.48441 186.39 1.75524 187.422 1.27228C188.454 0.789329 189.6 0.547852 190.859 0.547852C191.75 0.547852 192.54 0.618875 193.232 0.760921C193.923 0.902966 194.434 1.03081 194.766 1.14444L193.743 5.12172C193.525 5.05543 193.25 4.98914 192.919 4.92285C192.588 4.84709 192.218 4.80922 191.811 4.80922C190.855 4.80922 190.178 5.04122 189.78 5.50524C189.392 5.95978 189.197 6.61319 189.197 7.46547V31.0024H184.041Z" fill="black"/>
<path d="M136.843 31.0022V9.18399H141.758V12.8914H142.013C142.468 11.6414 143.221 10.666 144.272 9.96524C145.323 9.25502 146.578 8.8999 148.036 8.8999C149.513 8.8999 150.759 9.25975 151.772 9.97945C152.795 10.6897 153.514 11.6603 153.931 12.8914H154.158C154.641 11.6793 155.456 10.7133 156.602 9.99365C157.757 9.26449 159.125 8.8999 160.707 8.8999C162.714 8.8999 164.352 9.53437 165.621 10.8033C166.89 12.0723 167.525 13.9236 167.525 16.3573V31.0022H162.369V17.1527C162.369 15.7986 162.009 14.809 161.289 14.184C160.569 13.5495 159.689 13.2323 158.647 13.2323C157.406 13.2323 156.436 13.6205 155.735 14.3971C155.044 15.1641 154.698 16.1632 154.698 17.3942V31.0022H149.656V16.9397C149.656 15.8128 149.315 14.9132 148.633 14.2408C147.96 13.5685 147.08 13.2323 145.991 13.2323C145.252 13.2323 144.58 13.4217 143.974 13.8005C143.368 14.1698 142.885 14.6954 142.525 15.3772C142.165 16.0495 141.985 16.8355 141.985 17.7351V31.0022H136.843Z" fill="black"/>
<path d="M126.413 31.0023V9.1841H131.555V31.0023H126.413ZM128.999 6.08751C128.184 6.08751 127.483 5.81763 126.896 5.27785C126.309 4.72861 126.016 4.07047 126.016 3.30342C126.016 2.52691 126.309 1.86876 126.896 1.32899C127.483 0.779748 128.184 0.505127 128.999 0.505127C129.822 0.505127 130.523 0.779748 131.101 1.32899C131.688 1.86876 131.982 2.52691 131.982 3.30342C131.982 4.07047 131.688 4.72861 131.101 5.27785C130.523 5.81763 129.822 6.08751 128.999 6.08751Z" fill="black"/>
<path d="M121.126 1.91138V31.0023H115.984V1.91138H121.126Z" fill="black"/>
<path d="M111.275 14.951L106.587 15.4624C106.455 14.9889 106.223 14.5438 105.891 14.1272C105.569 13.7105 105.134 13.3743 104.585 13.1187C104.035 12.863 103.363 12.7351 102.567 12.7351C101.497 12.7351 100.598 12.9671 99.8686 13.4312C99.1489 13.8952 98.7938 14.4965 98.8033 15.2351C98.7938 15.8696 99.0258 16.3857 99.4993 16.7834C99.9822 17.1812 100.778 17.5079 101.886 17.7635L105.607 18.559C107.672 19.0041 109.206 19.7096 110.21 20.6755C111.223 21.6414 111.734 22.9056 111.744 24.4681C111.734 25.8412 111.332 27.0533 110.536 28.1044C109.75 29.1461 108.656 29.9605 107.255 30.5476C105.853 31.1348 104.244 31.4283 102.425 31.4283C99.755 31.4283 97.6054 30.8696 95.9766 29.7522C94.3478 28.6253 93.3771 27.058 93.0646 25.0505L98.0788 24.5675C98.3061 25.5524 98.7891 26.2957 99.5277 26.7976C100.266 27.2995 101.228 27.5505 102.411 27.5505C103.633 27.5505 104.613 27.2995 105.352 26.7976C106.1 26.2957 106.474 25.6755 106.474 24.9368C106.474 24.3118 106.232 23.7957 105.749 23.3885C105.276 22.9813 104.537 22.6688 103.533 22.451L99.8118 21.6698C97.719 21.2342 96.1707 20.5003 95.1669 19.4681C94.1631 18.4264 93.666 17.1101 93.6754 15.5192C93.666 14.1745 94.0305 13.0097 94.7692 12.0249C95.5173 11.0306 96.5542 10.2635 97.88 9.72376C99.2152 9.17452 100.754 8.8999 102.496 8.8999C105.053 8.8999 107.066 9.44441 108.533 10.5334C110.011 11.6224 110.924 13.095 111.275 14.951Z" fill="black"/>
<path d="M64.8757 18.2181V31.0022H59.7336V9.18399H64.6484V12.8914H64.9041C65.406 11.6698 66.2062 10.6991 67.3047 9.97945C68.4126 9.25975 69.781 8.8999 71.4098 8.8999C72.9155 8.8999 74.227 9.22187 75.3444 9.86581C76.4713 10.5097 77.3425 11.4425 77.9581 12.6641C78.5831 13.8857 78.8908 15.3677 78.8814 17.1101V31.0022H73.7393V17.9056C73.7393 16.4472 73.3605 15.3062 72.603 14.4823C71.8549 13.6584 70.8179 13.2465 69.4922 13.2465C68.5925 13.2465 67.7924 13.4454 67.0916 13.8431C66.4003 14.2313 65.8558 14.7948 65.4581 15.5334C65.0698 16.2721 64.8757 17.1669 64.8757 18.2181Z" fill="black"/>
<path d="M45.6818 31.4283C43.4943 31.4283 41.6051 30.9738 40.0142 30.0647C38.4327 29.1461 37.2159 27.8488 36.3636 26.1726C35.5113 24.487 35.0852 22.5031 35.0852 20.2209C35.0852 17.9766 35.5113 16.0069 36.3636 14.3118C37.2254 12.6073 38.428 11.2815 39.9716 10.3346C41.5151 9.37812 43.3286 8.8999 45.4119 8.8999C46.7566 8.8999 48.0255 9.1177 49.2187 9.55331C50.4214 9.97945 51.482 10.6423 52.4005 11.5419C53.3286 12.4416 54.0577 13.5874 54.588 14.9794C55.1184 16.362 55.3835 18.0098 55.3835 19.9226V21.4993H37.5V18.0334H50.4545C50.4451 17.0486 50.232 16.1726 49.8153 15.4056C49.3987 14.6291 48.8163 14.0183 48.0682 13.5732C47.3295 13.1281 46.4678 12.9056 45.4829 12.9056C44.4318 12.9056 43.5085 13.1613 42.713 13.6726C41.9176 14.1745 41.2973 14.8374 40.8523 15.6613C40.4166 16.4757 40.1941 17.3705 40.1846 18.3459V21.3715C40.1846 22.6404 40.4166 23.7294 40.8807 24.6385C41.3447 25.5382 41.9933 26.2294 42.8267 26.7124C43.66 27.1859 44.6354 27.4226 45.7528 27.4226C46.5009 27.4226 47.178 27.3185 47.7841 27.1101C48.3901 26.8923 48.9157 26.5751 49.3608 26.1584C49.8059 25.7418 50.142 25.2257 50.3693 24.6101L55.1704 25.1499C54.8674 26.4188 54.2898 27.5268 53.4375 28.4738C52.5947 29.4113 51.5151 30.1404 50.1988 30.6613C48.8826 31.1726 47.3769 31.4283 45.6818 31.4283Z" fill="black"/>
<path d="M0 1.91138H6.44886L15.0852 22.9909H15.4261L24.0625 1.91138H30.5114V31.0023H25.4545V11.0165H25.1847L17.1449 30.9171H13.3665L5.3267 10.9739H5.05682V31.0023H0V1.91138Z" fill="black"/>
</svg>
