<svg width="10" height="13" viewBox="0 0 10 13" fill="none" xmlns="http://www.w3.org/2000/svg">
<path d="M7.49713 3.65854C7.43652 3.12066 7.18652 2.70399 6.74713 2.40854C6.30773 2.10929 5.7547 1.95967 5.08804 1.95967C4.61076 1.95967 4.19788 2.03543 3.8494 2.18694C3.50091 2.33467 3.23008 2.53922 3.0369 2.80058C2.8475 3.05816 2.75281 3.35172 2.75281 3.68126C2.75281 3.95778 2.8172 4.19641 2.94599 4.39717C3.07857 4.59793 3.25091 4.76649 3.46304 4.90285C3.67894 5.03543 3.91 5.14717 4.15622 5.23808C4.40243 5.3252 4.63917 5.39717 4.86644 5.45399L6.00281 5.74945C6.37402 5.84035 6.7547 5.96346 7.14485 6.11876C7.535 6.27407 7.89675 6.47861 8.23008 6.7324C8.56341 6.98619 8.83235 7.30058 9.0369 7.67558C9.24523 8.05058 9.3494 8.49945 9.3494 9.02217C9.3494 9.68126 9.17894 10.2665 8.83803 10.7779C8.50091 11.2892 8.01038 11.6926 7.36644 11.9881C6.72629 12.2835 5.95167 12.4313 5.04258 12.4313C4.17137 12.4313 3.41758 12.293 2.78122 12.0165C2.14485 11.74 1.64675 11.3479 1.2869 10.8404C0.92705 10.329 0.728186 9.72293 0.690308 9.02217H2.45167C2.48576 9.44263 2.62213 9.79301 2.86076 10.0733C3.10319 10.3498 3.4119 10.5563 3.7869 10.6926C4.16569 10.8252 4.58046 10.8915 5.03122 10.8915C5.52743 10.8915 5.96872 10.8138 6.35508 10.6585C6.74523 10.4994 7.05205 10.2797 7.27554 9.99945C7.49902 9.71535 7.61076 9.38391 7.61076 9.00513C7.61076 8.66043 7.51228 8.37823 7.31531 8.15854C7.12213 7.93884 6.85887 7.75702 6.52554 7.61308C6.19599 7.46914 5.82288 7.34225 5.40622 7.2324L4.03122 6.8574C3.0994 6.60361 2.36076 6.23051 1.81531 5.73808C1.27364 5.24566 1.00281 4.59414 1.00281 3.78354C1.00281 3.11308 1.18463 2.52785 1.54826 2.02785C1.9119 1.52785 2.40432 1.1396 3.02554 0.863082C3.64675 0.582779 4.3475 0.442627 5.12781 0.442627C5.91569 0.442627 6.61076 0.580885 7.21304 0.8574C7.8191 1.13392 8.29637 1.5146 8.64485 1.99944C8.99334 2.48051 9.17516 3.03354 9.19031 3.65854H7.49713Z" fill="black"/>
</svg>
