<svg width="11" height="12" viewBox="0 0 11 12" fill="none" xmlns="http://www.w3.org/2000/svg">
<path d="M5.82314 11.5199C4.77201 11.5199 3.86528 11.2879 3.10297 10.8238C2.3454 10.3551 1.76064 9.70168 1.34871 8.86361C0.941512 8.02081 0.737915 7.0407 0.737915 5.92327C0.737915 4.80585 0.941512 3.821 1.34871 2.96873C1.76064 2.11172 2.33356 1.44411 3.06746 0.965886C3.8061 0.482932 4.66784 0.241455 5.65269 0.241455C6.22087 0.241455 6.78195 0.336152 7.33592 0.525545C7.8899 0.714939 8.39416 1.0227 8.84871 1.44884C9.30325 1.87024 9.66547 2.42895 9.93536 3.12498C10.2052 3.821 10.3402 4.67801 10.3402 5.696V6.40623H1.9311V4.95736H8.63564C8.63564 4.34183 8.51254 3.79259 8.26633 3.30964C8.02485 2.82668 7.6792 2.44553 7.22939 2.16617C6.78432 1.88681 6.25875 1.74714 5.65269 1.74714C4.98507 1.74714 4.40742 1.91286 3.91973 2.2443C3.43678 2.571 3.06509 2.99714 2.80467 3.5227C2.54426 4.04827 2.41405 4.61172 2.41405 5.21305V6.17896C2.41405 7.00282 2.5561 7.70121 2.84019 8.27413C3.12901 8.84231 3.52911 9.27555 4.04047 9.57384C4.55184 9.8674 5.14606 10.0142 5.82314 10.0142C6.26348 10.0142 6.66121 9.95263 7.01633 9.82952C7.37618 9.70168 7.68631 9.51229 7.94672 9.26134C8.20714 9.00566 8.40837 8.68843 8.55042 8.30964L10.1697 8.76418C9.99928 9.31342 9.71282 9.79638 9.31036 10.213C8.90789 10.625 8.41073 10.9469 7.81888 11.179C7.22702 11.4062 6.56178 11.5199 5.82314 11.5199Z" fill="#828282"/>
</svg>
