<svg width="16" height="15" viewBox="0 0 16 15" fill="none" xmlns="http://www.w3.org/2000/svg">
<mask id="path-1-inside-1_4_2314" fill="white">
<path d="M8 6.5829L7.106 5.01705C6.884 4.62931 6.499 4.07176 5.954 3.621C5.418 3.17724 4.776 2.87527 4 2.87527C2.324 2.87527 1 4.03587 1 5.43105C1 6.491 1.554 7.23935 2.868 8.3807C3.205 8.67304 3.589 8.98902 4.014 9.33737C5.122 10.2477 6.5 11.3802 8 12.8945C9.5 11.3802 10.878 10.2477 11.986 9.33737C12.411 8.98902 12.796 8.67217 13.132 8.3807C14.446 7.23935 15 6.491 15 5.43105C15 4.03587 13.676 2.87527 12 2.87527C11.223 2.87527 10.582 3.17724 10.046 3.621C9.501 4.07176 9.116 4.62931 8.894 5.01705L8 6.5829ZM8.392 13.8406C8.34384 13.8906 8.28382 13.9307 8.21611 13.9582C8.14841 13.9857 8.07465 14 8 14C7.92535 14 7.85159 13.9857 7.78389 13.9582C7.71618 13.9307 7.65616 13.8906 7.608 13.8406C6.007 12.1759 4.558 10.9855 3.365 10.0061C1.3 8.30893 0 7.24198 0 5.43105C0 3.5361 1.79 2 4 2C5.6 2 6.719 2.91903 7.404 3.75754C7.664 4.07701 7.862 4.38423 8 4.6258C8.17317 4.32354 8.37241 4.03328 8.596 3.75754C9.281 2.91816 10.4 2 12 2C14.21 2 16 3.5361 16 5.43105C16 7.24198 14.7 8.30893 12.635 10.0061C11.442 10.9864 9.993 12.1776 8.392 13.8406Z"/>
</mask>
<path d="M8 6.5829L7.106 5.01705C6.884 4.62931 6.499 4.07176 5.954 3.621C5.418 3.17724 4.776 2.87527 4 2.87527C2.324 2.87527 1 4.03587 1 5.43105C1 6.491 1.554 7.23935 2.868 8.3807C3.205 8.67304 3.589 8.98902 4.014 9.33737C5.122 10.2477 6.5 11.3802 8 12.8945C9.5 11.3802 10.878 10.2477 11.986 9.33737C12.411 8.98902 12.796 8.67217 13.132 8.3807C14.446 7.23935 15 6.491 15 5.43105C15 4.03587 13.676 2.87527 12 2.87527C11.223 2.87527 10.582 3.17724 10.046 3.621C9.501 4.07176 9.116 4.62931 8.894 5.01705L8 6.5829ZM8.392 13.8406C8.34384 13.8906 8.28382 13.9307 8.21611 13.9582C8.14841 13.9857 8.07465 14 8 14C7.92535 14 7.85159 13.9857 7.78389 13.9582C7.71618 13.9307 7.65616 13.8906 7.608 13.8406C6.007 12.1759 4.558 10.9855 3.365 10.0061C1.3 8.30893 0 7.24198 0 5.43105C0 3.5361 1.79 2 4 2C5.6 2 6.719 2.91903 7.404 3.75754C7.664 4.07701 7.862 4.38423 8 4.6258C8.17317 4.32354 8.37241 4.03328 8.596 3.75754C9.281 2.91816 10.4 2 12 2C14.21 2 16 3.5361 16 5.43105C16 7.24198 14.7 8.30893 12.635 10.0061C11.442 10.9864 9.993 12.1776 8.392 13.8406Z" fill="white"/>
<path d="M8 6.5829L7.13157 7.07872L8 8.59978L8.86843 7.07872L8 6.5829ZM7.106 5.01705L7.97443 4.52123L7.97383 4.52018L7.106 5.01705ZM5.954 3.621L5.31628 4.39127L5.31666 4.39158L5.954 3.621ZM2.868 8.3807L2.21223 9.13567L2.21272 9.13609L2.868 8.3807ZM4.014 9.33737L4.6488 8.56469L4.64792 8.56398L4.014 9.33737ZM8 12.8945L7.28957 13.5982L8 14.3154L8.71043 13.5982L8 12.8945ZM11.986 9.33737L11.3521 8.56398L11.3512 8.56469L11.986 9.33737ZM13.132 8.3807L13.7873 9.1361L13.7878 9.13567L13.132 8.3807ZM10.046 3.621L10.6833 4.39158L10.6837 4.39127L10.046 3.621ZM8.894 5.01705L8.02617 4.52018L8.02557 4.52123L8.894 5.01705ZM8.392 13.8406L9.11178 14.5348L9.11241 14.5342L8.392 13.8406ZM7.608 13.8406L6.88722 14.5338L6.88822 14.5348L7.608 13.8406ZM3.365 10.0061L2.73006 10.7786L2.73047 10.779L3.365 10.0061ZM7.404 3.75754L8.17961 3.12632L8.17843 3.12488L7.404 3.75754ZM8 4.6258L7.13169 5.12183L7.99875 6.63964L8.86769 5.12291L8 4.6258ZM8.596 3.75754L7.82124 3.12527L7.81926 3.12771L8.596 3.75754ZM12.635 10.0061L13.2699 10.7787L13.2699 10.7786L12.635 10.0061ZM8.86843 6.08709L7.97443 4.52123L6.23757 5.51286L7.13157 7.07872L8.86843 6.08709ZM7.97383 4.52018C7.71652 4.07077 7.26055 3.40391 6.59134 2.85041L5.31666 4.39158C5.73745 4.73961 6.05148 5.18784 6.23817 5.51392L7.97383 4.52018ZM6.59172 2.85073C5.91982 2.29445 5.05961 1.87527 4 1.87527V3.87527C4.49239 3.87527 4.91618 4.06002 5.31628 4.39127L6.59172 2.85073ZM4 1.87527C1.91917 1.87527 0 3.34686 0 5.43105H2C2 4.72489 2.72883 3.87527 4 3.87527V1.87527ZM0 5.43105C0 6.9655 0.875129 7.97425 2.21223 9.13567L3.52377 7.62574C2.23287 6.50446 2 6.0165 2 5.43105H0ZM2.21272 9.13609C2.56191 9.43901 2.95653 9.7636 3.38008 10.1108L4.64792 8.56398C4.22147 8.21443 3.84809 7.90708 3.52328 7.62532L2.21272 9.13609ZM3.3792 10.1101C4.48621 11.0195 5.82899 12.1238 7.28957 13.5982L8.71043 12.1907C7.17101 10.6367 5.75779 9.47579 4.6488 8.56469L3.3792 10.1101ZM8.71043 13.5982C10.171 12.1238 11.5138 11.0195 12.6208 10.1101L11.3512 8.56469C10.2422 9.47579 8.82899 10.6367 7.28957 12.1907L8.71043 13.5982ZM12.6199 10.1108C13.0435 9.76358 13.4391 9.43813 13.7873 9.1361L12.4767 7.62531C12.1529 7.90621 11.7785 8.21446 11.3521 8.56398L12.6199 10.1108ZM13.7878 9.13567C15.1249 7.97425 16 6.9655 16 5.43105H14C14 6.0165 13.7671 6.50446 12.4762 7.62574L13.7878 9.13567ZM16 5.43105C16 3.34686 14.0808 1.87527 12 1.87527V3.87527C13.2712 3.87527 14 4.72489 14 5.43105H16ZM12 1.87527C10.9392 1.87527 10.08 2.29459 9.40828 2.85073L10.6837 4.39127C11.084 4.05988 11.5068 3.87527 12 3.87527V1.87527ZM9.40866 2.85041C8.73945 3.40391 8.28348 4.07077 8.02617 4.52018L9.76183 5.51392C9.94852 5.18784 10.2626 4.73961 10.6833 4.39158L9.40866 2.85041ZM8.02557 4.52123L7.13157 6.08709L8.86843 7.07872L9.76243 5.51286L8.02557 4.52123ZM7.67222 13.1464C7.72615 13.0905 7.78492 13.054 7.83949 13.0318L8.59274 14.8846C8.78271 14.8073 8.96154 14.6906 9.11178 14.5348L7.67222 13.1464ZM7.83949 13.0318C7.89399 13.0097 7.94836 13 8 13V15C8.20094 15 8.40283 14.9618 8.59274 14.8846L7.83949 13.0318ZM8 13C8.05164 13 8.10602 13.0097 8.16051 13.0318L7.40726 14.8846C7.59717 14.9618 7.79906 15 8 15V13ZM8.16051 13.0318C8.21507 13.054 8.27385 13.0905 8.32778 13.1464L6.88822 14.5348C7.03846 14.6906 7.21729 14.8073 7.40726 14.8846L8.16051 13.0318ZM8.32877 13.1475C6.68352 11.4367 5.19454 10.2143 3.99953 9.23318L2.73047 10.779C3.92146 11.7568 5.33048 12.915 6.88723 14.5338L8.32877 13.1475ZM3.99994 9.23352C2.94122 8.3634 2.18704 7.73869 1.6788 7.12401C1.20699 6.55338 1 6.05189 1 5.43105H-1C-1 6.62114 -0.556987 7.55859 0.137447 8.39846C0.795457 9.19427 1.72378 9.95161 2.73006 10.7786L3.99994 9.23352ZM1 5.43105C1 4.22671 2.19297 3 4 3V1C1.38703 1 -1 2.84549 -1 5.43105H1ZM4 3C5.17805 3 6.04102 3.66975 6.62957 4.39019L8.17843 3.12488C7.39698 2.16831 6.02195 1 4 1V3ZM6.6284 4.38876C6.84819 4.65882 7.016 4.9193 7.13169 5.12183L8.86831 4.12978C8.708 3.84916 8.47981 3.4952 8.1796 3.12632L6.6284 4.38876ZM8.86769 5.12291C9.01365 4.86814 9.18233 4.62218 9.37274 4.38737L7.81926 3.12771C7.56249 3.44438 7.33268 3.77895 7.13231 4.1287L8.86769 5.12291ZM9.37076 4.3898C9.95882 3.6692 10.8217 3 12 3V1C9.97832 1 8.60318 2.16711 7.82124 3.12528L9.37076 4.3898ZM12 3C13.807 3 15 4.22671 15 5.43105H17C17 2.84549 14.613 1 12 1V3ZM15 5.43105C15 6.05189 14.793 6.55338 14.3212 7.12401C13.813 7.73869 13.0588 8.3634 12.0001 9.23352L13.2699 10.7786C14.2762 9.95161 15.2045 9.19427 15.8626 8.39846C16.557 7.55859 17 6.62114 17 5.43105H15ZM12.0001 9.23346C10.8052 10.2153 9.31653 11.4384 7.67159 13.1471L9.11241 14.5342C10.6695 12.9168 12.0788 11.7574 13.2699 10.7787L12.0001 9.23346Z" fill="#828282" mask="url(#path-1-inside-1_4_2314)"/>
</svg>
