<svg width="17" height="15" viewBox="0 0 17 15" fill="none" xmlns="http://www.w3.org/2000/svg">
<g clip-path="url(#clip0_4_2285)">
<path fill-rule="evenodd" clip-rule="evenodd" d="M2.0024 0.479017C2.18831 0.315225 2.41155 0.188165 2.65732 0.106258C2.90309 0.0243499 3.16579 -0.0105354 3.428 0.00391356C3.6902 0.0183625 3.94594 0.0818158 4.17825 0.190068C4.41057 0.298321 4.61415 0.448901 4.77552 0.63183L6.68271 2.7937C7.03227 3.19027 7.15552 3.70683 7.0174 4.19433L6.43621 6.24745C6.40637 6.3538 6.4081 6.46514 6.44123 6.57073C6.47435 6.67632 6.53776 6.7726 6.62534 6.85027L9.2359 9.1537C9.32403 9.23113 9.43332 9.28717 9.55319 9.31641C9.67307 9.34564 9.79946 9.34708 9.92015 9.32058L12.246 8.80777C12.5186 8.74796 12.8031 8.74347 13.0781 8.79462C13.353 8.84577 13.6112 8.95123 13.8333 9.10308L16.2835 10.785C17.1643 11.3896 17.245 12.5381 16.4566 13.2328L15.358 14.2021C14.5718 14.8959 13.3966 15.2006 12.3012 14.8603C9.49693 13.9908 6.95103 12.5744 4.85309 10.7165C2.74761 8.86566 1.14236 6.61961 0.156835 4.14558C-0.22779 3.17995 0.117522 2.14214 0.903772 1.44839L2.0024 0.479017Z" fill="#828282"/>
</g>
<defs>
<clipPath id="clip0_4_2285">
<rect width="17" height="15" fill="white"/>
</clipPath>
</defs>
</svg>
