<svg width="28" height="25" viewBox="0 0 28 25" fill="none" xmlns="http://www.w3.org/2000/svg">
<path d="M9.625 8.59375C9.85706 8.59375 10.0796 8.67606 10.2437 8.82257C10.4078 8.96909 10.5 9.1678 10.5 9.375V18.75C10.5 18.9572 10.4078 19.1559 10.2437 19.3024C10.0796 19.4489 9.85706 19.5312 9.625 19.5312C9.39294 19.5312 9.17038 19.4489 9.00628 19.3024C8.84219 19.1559 8.75 18.9572 8.75 18.75V9.375C8.75 9.1678 8.84219 8.96909 9.00628 8.82257C9.17038 8.67606 9.39294 8.59375 9.625 8.59375ZM14 8.59375C14.2321 8.59375 14.4546 8.67606 14.6187 8.82257C14.7828 8.96909 14.875 9.1678 14.875 9.375V18.75C14.875 18.9572 14.7828 19.1559 14.6187 19.3024C14.4546 19.4489 14.2321 19.5312 14 19.5312C13.7679 19.5312 13.5454 19.4489 13.3813 19.3024C13.2172 19.1559 13.125 18.9572 13.125 18.75V9.375C13.125 9.1678 13.2172 8.96909 13.3813 8.82257C13.5454 8.67606 13.7679 8.59375 14 8.59375ZM19.25 9.375C19.25 9.1678 19.1578 8.96909 18.9937 8.82257C18.8296 8.67606 18.6071 8.59375 18.375 8.59375C18.1429 8.59375 17.9204 8.67606 17.7563 8.82257C17.5922 8.96909 17.5 9.1678 17.5 9.375V18.75C17.5 18.9572 17.5922 19.1559 17.7563 19.3024C17.9204 19.4489 18.1429 19.5312 18.375 19.5312C18.6071 19.5312 18.8296 19.4489 18.9937 19.3024C19.1578 19.1559 19.25 18.9572 19.25 18.75V9.375Z" fill="#FF0000"/>
<path d="M25.375 4.6875C25.375 5.1019 25.1906 5.49933 24.8624 5.79235C24.5342 6.08538 24.0891 6.25 23.625 6.25H22.75V20.3125C22.75 21.1413 22.3813 21.9362 21.7249 22.5222C21.0685 23.1083 20.1783 23.4375 19.25 23.4375H8.75C7.82174 23.4375 6.9315 23.1083 6.27513 22.5222C5.61875 21.9362 5.25 21.1413 5.25 20.3125V6.25H4.375C3.91087 6.25 3.46575 6.08538 3.13756 5.79235C2.80937 5.49933 2.625 5.1019 2.625 4.6875V3.125C2.625 2.7106 2.80937 2.31317 3.13756 2.02015C3.46575 1.72712 3.91087 1.5625 4.375 1.5625H10.5C10.5 1.1481 10.6844 0.750671 11.0126 0.457646C11.3408 0.16462 11.7859 0 12.25 0L15.75 0C16.2141 0 16.6592 0.16462 16.9874 0.457646C17.3156 0.750671 17.5 1.1481 17.5 1.5625H23.625C24.0891 1.5625 24.5342 1.72712 24.8624 2.02015C25.1906 2.31317 25.375 2.7106 25.375 3.125V4.6875ZM7.2065 6.25L7 6.34219V20.3125C7 20.7269 7.18437 21.1243 7.51256 21.4174C7.84075 21.7104 8.28587 21.875 8.75 21.875H19.25C19.7141 21.875 20.1592 21.7104 20.4874 21.4174C20.8156 21.1243 21 20.7269 21 20.3125V6.34219L20.7935 6.25H7.2065ZM4.375 4.6875H23.625V3.125H4.375V4.6875Z" fill="#FF0000"/>
</svg>
