<svg width="10" height="12" viewBox="0 0 10 12" fill="none" xmlns="http://www.w3.org/2000/svg">
<path d="M5.11221 11.5199C4.06107 11.5199 3.15434 11.2879 2.39203 10.8238C1.63446 10.3551 1.0497 9.70168 0.637772 8.86361C0.230575 8.02081 0.0269775 7.0407 0.0269775 5.92327C0.0269775 4.80585 0.230575 3.821 0.637772 2.96873C1.0497 2.11172 1.62262 1.44411 2.35652 0.965886C3.09516 0.482932 3.9569 0.241455 4.94175 0.241455C5.50993 0.241455 6.07101 0.336152 6.62499 0.525545C7.17897 0.714939 7.68323 1.0227 8.13777 1.44884C8.59232 1.87024 8.95454 2.42895 9.22442 3.12498C9.49431 3.821 9.62925 4.67801 9.62925 5.696V6.40623H1.22016V4.95736H7.92471C7.92471 4.34183 7.8016 3.79259 7.55539 3.30964C7.31391 2.82668 6.96827 2.44553 6.51846 2.16617C6.07338 1.88681 5.54781 1.74714 4.94175 1.74714C4.27414 1.74714 3.69648 1.91286 3.20879 2.2443C2.72584 2.571 2.35416 2.99714 2.09374 3.5227C1.83332 4.04827 1.70311 4.61172 1.70311 5.21305V6.17896C1.70311 7.00282 1.84516 7.70121 2.12925 8.27413C2.41808 8.84231 2.81817 9.27555 3.32953 9.57384C3.8409 9.8674 4.43512 10.0142 5.11221 10.0142C5.55255 10.0142 5.95027 9.95263 6.30539 9.82952C6.66523 9.70168 6.97537 9.51229 7.23578 9.26134C7.4962 9.00566 7.69743 8.68843 7.83948 8.30964L9.4588 8.76418C9.28834 9.31342 9.00188 9.79638 8.59942 10.213C8.19696 10.625 7.6998 10.9469 7.10794 11.179C6.51609 11.4062 5.85084 11.5199 5.11221 11.5199Z" fill="#828282"/>
</svg>
