<svg width="27" height="28" viewBox="0 0 27 28" fill="none" xmlns="http://www.w3.org/2000/svg">
<path d="M22.7813 1.7503C22.11 1.7503 21.4662 2.02683 20.9915 2.51904C20.5168 3.01126 20.2501 3.67884 20.2501 4.37494C20.2501 5.07103 20.5168 5.73862 20.9915 6.23083C21.4662 6.72305 22.11 6.99957 22.7813 6.99957C23.4526 6.99957 24.0965 6.72305 24.5712 6.23083C25.0458 5.73862 25.3125 5.07103 25.3125 4.37494C25.3125 3.67884 25.0458 3.01126 24.5712 2.51904C24.0965 2.02683 23.4526 1.7503 22.7813 1.7503ZM18.5626 4.37494C18.5625 3.34859 18.9104 2.35487 19.5455 1.56765C20.1806 0.780426 21.0625 0.249826 22.0367 0.0686799C23.011 -0.112466 24.0157 0.0673785 24.875 0.576748C25.7343 1.08612 26.3936 1.89258 26.7374 2.85503C27.0811 3.81748 27.0876 4.87463 26.7556 5.84153C26.4237 6.80843 25.7744 7.62351 24.9214 8.14416C24.0684 8.66481 23.066 8.85787 22.0896 8.68957C21.1131 8.52127 20.2249 8.00233 19.5802 7.22354L8.24375 12.6828C8.50436 13.5392 8.50436 14.458 8.24375 15.3144L19.5802 20.7736C20.2617 19.9518 21.2131 19.4216 22.2501 19.2857C23.2871 19.1499 24.3358 19.418 25.193 20.0382C26.0502 20.6584 26.6549 21.5865 26.8898 22.6426C27.1246 23.6987 26.9731 24.8076 26.4644 25.7544C25.9557 26.7013 25.1261 27.4186 24.1365 27.7673C23.1468 28.1161 22.0676 28.0715 21.1078 27.6421C20.1481 27.2128 19.3762 26.4293 18.9418 25.4435C18.5075 24.4577 18.4415 23.3398 18.7567 22.3064L7.42026 16.8472C6.85907 17.5253 6.11104 18.009 5.2768 18.2331C4.44256 18.4573 3.56214 18.4111 2.75396 18.1008C1.94578 17.7906 1.24863 17.2311 0.756279 16.4977C0.263928 15.7643 0 14.8922 0 13.9986C0 13.105 0.263928 12.2328 0.756279 11.4994C1.24863 10.766 1.94578 10.2066 2.75396 9.89632C3.56214 9.58607 4.44256 9.5399 5.2768 9.76403C6.11104 9.98816 6.85907 10.4718 7.42026 11.15L18.7567 5.69075C18.6277 5.26498 18.5622 4.82124 18.5626 4.37494ZM4.21913 11.374C3.54781 11.374 2.90399 11.6505 2.42929 12.1427C1.9546 12.6349 1.68792 13.3025 1.68792 13.9986C1.68792 14.6947 1.9546 15.3623 2.42929 15.8545C2.90399 16.3467 3.54781 16.6232 4.21913 16.6232C4.89045 16.6232 5.53427 16.3467 6.00896 15.8545C6.48366 15.3623 6.75034 14.6947 6.75034 13.9986C6.75034 13.3025 6.48366 12.6349 6.00896 12.1427C5.53427 11.6505 4.89045 11.374 4.21913 11.374ZM22.7813 20.9976C22.11 20.9976 21.4662 21.2741 20.9915 21.7663C20.5168 22.2586 20.2501 22.9261 20.2501 23.6222C20.2501 24.3183 20.5168 24.9859 20.9915 25.4781C21.4662 25.9703 22.11 26.2469 22.7813 26.2469C23.4526 26.2469 24.0965 25.9703 24.5712 25.4781C25.0458 24.9859 25.3125 24.3183 25.3125 23.6222C25.3125 22.9261 25.0458 22.2586 24.5712 21.7663C24.0965 21.2741 23.4526 20.9976 22.7813 20.9976Z" fill="#828282"/>
</svg>
