<svg width="23" height="27" viewBox="0 0 23 27" fill="none" xmlns="http://www.w3.org/2000/svg">
<path d="M4.58695 1.19799C4.58695 0.880261 4.50642 0.575549 4.36308 0.350883C4.21974 0.126216 4.02533 0 3.82262 0C3.61991 0 3.4255 0.126216 3.28216 0.350883C3.13882 0.575549 3.05829 0.880261 3.05829 1.19799V22.2658L1.30644 19.5176C1.16292 19.2927 0.968265 19.1663 0.765296 19.1663C0.562327 19.1663 0.367671 19.2927 0.22415 19.5176C0.0806292 19.7426 4.78212e-09 20.0477 0 20.3658C-4.78212e-09 20.6839 0.0806292 20.989 0.22415 21.214L3.28147 26.0035L3.29217 26.0203C3.43568 26.2396 3.62867 26.3612 3.82909 26.3585C4.02952 26.3558 4.22115 26.229 4.36224 26.0059L7.41956 21.214C7.49062 21.1027 7.54701 20.9706 7.58551 20.8253C7.62401 20.6799 7.64386 20.524 7.64393 20.3666C7.64401 20.2092 7.62429 20.0533 7.58593 19.9079C7.54756 19.7624 7.49129 19.6302 7.42032 19.5188C7.34936 19.4074 7.26509 19.319 7.17234 19.2587C7.07958 19.1984 6.98015 19.1672 6.87972 19.1671C6.77929 19.167 6.67983 19.1979 6.58702 19.258C6.49421 19.3182 6.40986 19.4064 6.3388 19.5176L4.58695 22.2658V1.19799ZM9.93726 3.59396C9.93726 3.27623 10.0178 2.97152 10.1611 2.74686C10.3045 2.52219 10.4989 2.39597 10.7016 2.39597H21.4022C21.6049 2.39597 21.7994 2.52219 21.9427 2.74686C22.086 2.97152 22.1666 3.27623 22.1666 3.59396C22.1666 3.91169 22.086 4.2164 21.9427 4.44107C21.7994 4.66573 21.6049 4.79195 21.4022 4.79195H10.7016C10.4989 4.79195 10.3045 4.66573 10.1611 4.44107C10.0178 4.2164 9.93726 3.91169 9.93726 3.59396ZM10.7016 9.5839C10.4989 9.5839 10.3045 9.71011 10.1611 9.93478C10.0178 10.1594 9.93726 10.4642 9.93726 10.7819C9.93726 11.0996 10.0178 11.4043 10.1611 11.629C10.3045 11.8537 10.4989 11.9799 10.7016 11.9799H18.3449C18.5476 11.9799 18.742 11.8537 18.8854 11.629C19.0287 11.4043 19.1092 11.0996 19.1092 10.7819C19.1092 10.4642 19.0287 10.1594 18.8854 9.93478C18.742 9.71011 18.5476 9.5839 18.3449 9.5839H10.7016ZM10.7016 16.7718C10.4989 16.7718 10.3045 16.898 10.1611 17.1227C10.0178 17.3474 9.93726 17.6521 9.93726 17.9698C9.93726 18.2875 10.0178 18.5922 10.1611 18.8169C10.3045 19.0416 10.4989 19.1678 10.7016 19.1678H15.2876C15.4903 19.1678 15.6847 19.0416 15.828 18.8169C15.9714 18.5922 16.0519 18.2875 16.0519 17.9698C16.0519 17.6521 15.9714 17.3474 15.828 17.1227C15.6847 16.898 15.4903 16.7718 15.2876 16.7718H10.7016ZM10.7016 23.9597C10.4989 23.9597 10.3045 24.086 10.1611 24.3106C10.0178 24.5353 9.93726 24.84 9.93726 25.1577C9.93726 25.4755 10.0178 25.7802 10.1611 26.0048C10.3045 26.2295 10.4989 26.3557 10.7016 26.3557H12.2303C12.433 26.3557 12.6274 26.2295 12.7707 26.0048C12.9141 25.7802 12.9946 25.4755 12.9946 25.1577C12.9946 24.84 12.9141 24.5353 12.7707 24.3106C12.6274 24.086 12.433 23.9597 12.2303 23.9597H10.7016Z" fill="#828282"/>
</svg>
