<svg width="12" height="16" viewBox="0 0 12 16" fill="none" xmlns="http://www.w3.org/2000/svg">
<path d="M9.4233 4.38357C9.33807 3.66387 8.99243 3.10516 8.38637 2.70743C7.78031 2.3097 7.03693 2.11084 6.15625 2.11084C5.51231 2.11084 4.94887 2.21501 4.46591 2.42334C3.98769 2.63167 3.61364 2.91813 3.34375 3.28271C3.0786 3.6473 2.94603 4.0616 2.94603 4.52561C2.94603 4.91387 3.03836 5.24768 3.22301 5.52703C3.41241 5.80165 3.65389 6.03129 3.94745 6.21595C4.24101 6.39588 4.54877 6.54503 4.87074 6.6634C5.19271 6.77703 5.48864 6.86936 5.75853 6.94039L7.2358 7.33811C7.61459 7.43754 8.03598 7.57486 8.5 7.75004C8.96875 7.92523 9.41619 8.16434 9.84233 8.46737C10.2732 8.76567 10.6283 9.14919 10.9077 9.61794C11.187 10.0867 11.3267 10.662 11.3267 11.3438C11.3267 12.1298 11.1207 12.84 10.7088 13.4745C10.3016 14.1089 9.70502 14.6132 8.91904 14.9873C8.13779 15.3613 7.18845 15.5483 6.07103 15.5483C5.02936 15.5483 4.12737 15.3803 3.36506 15.0441C2.60748 14.7079 2.01089 14.2392 1.57529 13.6378C1.14442 13.0365 0.900568 12.3381 0.84375 11.5427H2.66193C2.70928 12.0919 2.89394 12.5464 3.21591 12.9063C3.54262 13.2614 3.95455 13.5266 4.45171 13.7017C4.9536 13.8722 5.49338 13.9574 6.07103 13.9574C6.74338 13.9574 7.34706 13.8485 7.8821 13.6307C8.41714 13.4082 8.84091 13.1004 9.15341 12.7074C9.46591 12.3097 9.62216 11.8457 9.62216 11.3154C9.62216 10.8324 9.48722 10.4394 9.21733 10.1364C8.94744 9.83338 8.59233 9.58717 8.15199 9.39777C7.71165 9.20838 7.2358 9.04266 6.72443 8.90061L4.93466 8.38925C3.7983 8.06255 2.89868 7.59616 2.2358 6.9901C1.57292 6.38404 1.24148 5.59095 1.24148 4.61084C1.24148 3.79645 1.46165 3.08622 1.90199 2.48016C2.34707 1.86936 2.94366 1.39588 3.69176 1.0597C4.44461 0.718795 5.28504 0.54834 6.21307 0.54834C7.15057 0.54834 7.98391 0.716427 8.71307 1.0526C9.44224 1.38404 10.0199 1.83859 10.446 2.41624C10.8769 2.99389 11.1042 3.64967 11.1278 4.38357H9.4233Z" fill="#828282"/>
</svg>
