<svg width="11" height="16" viewBox="0 0 11 16" fill="none" xmlns="http://www.w3.org/2000/svg">
<path d="M8.57955 4.38357C8.49432 3.66387 8.14867 3.10516 7.54261 2.70743C6.93655 2.3097 6.19318 2.11084 5.3125 2.11084C4.66856 2.11084 4.10511 2.21501 3.62216 2.42334C3.14394 2.63167 2.76989 2.91813 2.5 3.28271C2.23485 3.6473 2.10227 4.0616 2.10227 4.52561C2.10227 4.91387 2.1946 5.24768 2.37926 5.52703C2.56866 5.80165 2.81013 6.03129 3.10369 6.21595C3.39725 6.39588 3.70502 6.54503 4.02699 6.6634C4.34896 6.77703 4.64489 6.86936 4.91477 6.94039L6.39205 7.33811C6.77083 7.43754 7.19224 7.57486 7.65625 7.75004C8.125 7.92523 8.57244 8.16434 8.99858 8.46737C9.42945 8.76567 9.78456 9.14919 10.0639 9.61794C10.3433 10.0867 10.483 10.662 10.483 11.3438C10.483 12.1298 10.277 12.84 9.86506 13.4745C9.45786 14.1089 8.86127 14.6132 8.07528 14.9873C7.29403 15.3613 6.3447 15.5483 5.22727 15.5483C4.18561 15.5483 3.28362 15.3803 2.52131 15.0441C1.76373 14.7079 1.16714 14.2392 0.731534 13.6378C0.300663 13.0365 0.0568182 12.3381 0 11.5427H1.81818C1.86553 12.0919 2.05019 12.5464 2.37216 12.9063C2.69886 13.2614 3.1108 13.5266 3.60795 13.7017C4.10985 13.8722 4.64962 13.9574 5.22727 13.9574C5.89962 13.9574 6.50331 13.8485 7.03835 13.6307C7.57339 13.4082 7.99716 13.1004 8.30966 12.7074C8.62216 12.3097 8.77841 11.8457 8.77841 11.3154C8.77841 10.8324 8.64347 10.4394 8.37358 10.1364C8.10369 9.83338 7.74858 9.58717 7.30824 9.39777C6.8679 9.20838 6.39205 9.04266 5.88068 8.90061L4.09091 8.38925C2.95455 8.06255 2.05492 7.59616 1.39205 6.9901C0.729167 6.38404 0.397727 5.59095 0.397727 4.61084C0.397727 3.79645 0.617898 3.08622 1.05824 2.48016C1.50331 1.86936 2.09991 1.39588 2.84801 1.0597C3.60085 0.718795 4.44129 0.54834 5.36932 0.54834C6.30682 0.54834 7.14015 0.716427 7.86932 1.0526C8.59849 1.38404 9.17614 1.83859 9.60227 2.41624C10.0331 2.99389 10.2604 3.64967 10.2841 4.38357H8.57955Z" fill="#828282"/>
</svg>
