<svg width="7" height="15" viewBox="0 0 7 15" fill="none" xmlns="http://www.w3.org/2000/svg">
<path d="M6.09518 3.38341V4.80387H0.441772V3.38341H6.09518ZM2.0895 0.769775H3.76564V11.1675C3.76564 11.641 3.83429 11.9961 3.9716 12.2328C4.11365 12.4649 4.29357 12.6211 4.51138 12.7016C4.73391 12.7774 4.96829 12.8152 5.2145 12.8152C5.39916 12.8152 5.55067 12.8058 5.66904 12.7868C5.78742 12.7631 5.88211 12.7442 5.95314 12.73L6.29404 14.2357C6.18041 14.2783 6.02179 14.3209 5.81819 14.3635C5.61459 14.4109 5.35654 14.4345 5.04404 14.4345C4.57056 14.4345 4.10655 14.3327 3.652 14.1292C3.20219 13.9256 2.82814 13.6154 2.52984 13.1988C2.23628 12.7821 2.0895 12.2565 2.0895 11.622V0.769775Z" fill="#828282"/>
</svg>
