<svg width="11" height="12" viewBox="0 0 11 12" fill="none" xmlns="http://www.w3.org/2000/svg">
<path d="M5.72549 11.5199C4.67435 11.5199 3.76763 11.2879 3.00532 10.8238C2.24774 10.3551 1.66299 9.70168 1.25105 8.86361C0.843858 8.02081 0.640259 7.0407 0.640259 5.92327C0.640259 4.80585 0.843858 3.821 1.25105 2.96873C1.66299 2.11172 2.2359 1.44411 2.9698 0.965886C3.70844 0.482932 4.57018 0.241455 5.55503 0.241455C6.12321 0.241455 6.68429 0.336152 7.23827 0.525545C7.79225 0.714939 8.29651 1.0227 8.75106 1.44884C9.2056 1.87024 9.56782 2.42895 9.8377 3.12498C10.1076 3.821 10.2425 4.67801 10.2425 5.696V6.40623H1.83344V4.95736H8.53799C8.53799 4.34183 8.41488 3.79259 8.16867 3.30964C7.92719 2.82668 7.58155 2.44553 7.13174 2.16617C6.68666 1.88681 6.16109 1.74714 5.55503 1.74714C4.88742 1.74714 4.30977 1.91286 3.82208 2.2443C3.33912 2.571 2.96744 2.99714 2.70702 3.5227C2.4466 4.04827 2.3164 4.61172 2.3164 5.21305V6.17896C2.3164 7.00282 2.45844 7.70121 2.74253 8.27413C3.03136 8.84231 3.43145 9.27555 3.94282 9.57384C4.45418 9.8674 5.0484 10.0142 5.72549 10.0142C6.16583 10.0142 6.56355 9.95263 6.91867 9.82952C7.27852 9.70168 7.58865 9.51229 7.84907 9.26134C8.10948 9.00566 8.31071 8.68843 8.45276 8.30964L10.0721 8.76418C9.90162 9.31342 9.61516 9.79638 9.2127 10.213C8.81024 10.625 8.31308 10.9469 7.72122 11.179C7.12937 11.4062 6.46412 11.5199 5.72549 11.5199Z" fill="#828282"/>
</svg>
