<svg width="17" height="13" viewBox="0 0 17 13" fill="none" xmlns="http://www.w3.org/2000/svg">
<path d="M0.053125 1.68458C0.160244 1.20601 0.423571 0.778714 0.799979 0.472667C1.17639 0.166621 1.64356 -3.30356e-05 2.125 4.91198e-09H14.875C15.3564 -3.30356e-05 15.8236 0.166621 16.2 0.472667C16.5764 0.778714 16.8398 1.20601 16.9469 1.68458L8.5 6.9485L0.053125 1.68458ZM0 2.92175V10.6177L6.16569 6.76325L0 2.92175ZM7.18356 7.39917L0.202937 11.7617C0.375409 12.1326 0.647622 12.4458 0.987893 12.665C1.32816 12.8842 1.7225 13.0004 2.125 13H14.875C15.2774 13.0001 15.6716 12.8837 16.0117 12.6643C16.3518 12.4449 16.6238 12.1315 16.796 11.7607L9.81538 7.39808L8.5 8.21817L7.18356 7.39917ZM10.8343 6.76433L17 10.6177V2.92175L10.8343 6.76433Z" fill="#828282"/>
</svg>
