<svg width="10" height="12" viewBox="0 0 10 12" fill="none" xmlns="http://www.w3.org/2000/svg">
<path d="M5.61078 11.5199C4.58806 11.5199 3.70738 11.2784 2.96874 10.7954C2.2301 10.3125 1.66192 9.64723 1.26419 8.79969C0.866467 7.95216 0.667603 6.98388 0.667603 5.89486C0.667603 4.78691 0.8712 3.80916 1.2784 2.96163C1.69033 2.10935 2.26325 1.44411 2.99715 0.965886C3.73578 0.482932 4.59753 0.241455 5.58237 0.241455C6.34942 0.241455 7.04071 0.3835 7.65624 0.667591C8.27177 0.951682 8.77603 1.34941 9.16902 1.86077C9.56201 2.37214 9.80586 2.96873 9.90056 3.65055H8.22442C8.09658 3.15339 7.81249 2.71305 7.37215 2.32952C6.93654 1.94126 6.34942 1.74714 5.61078 1.74714C4.95737 1.74714 4.38446 1.91759 3.89203 2.2585C3.40434 2.59467 3.02319 3.07053 2.74857 3.68606C2.47868 4.29685 2.34374 5.01418 2.34374 5.83805C2.34374 6.68085 2.47632 7.41475 2.74147 8.03975C3.01135 8.66475 3.39014 9.15007 3.87783 9.49572C4.37025 9.84136 4.9479 10.0142 5.61078 10.0142C6.04639 10.0142 6.44175 9.93842 6.79686 9.78691C7.15198 9.63539 7.45264 9.41759 7.69885 9.1335C7.94506 8.84941 8.12025 8.5085 8.22442 8.11077H9.90056C9.80586 8.75471 9.57148 9.33473 9.19743 9.85083C8.82811 10.3622 8.33806 10.7694 7.72726 11.0724C7.1212 11.3707 6.41571 11.5199 5.61078 11.5199Z" fill="#828282"/>
</svg>
