<svg width="33" height="28" viewBox="0 0 33 28" fill="none" xmlns="http://www.w3.org/2000/svg">
<path d="M16.5 10.6934L14.6561 7.03978C14.1982 6.13505 13.4042 4.83411 12.2801 3.78233C11.1746 2.74688 9.8505 2.04229 8.25 2.04229C4.79325 2.04229 2.0625 4.75037 2.0625 8.00579C2.0625 10.479 3.20513 12.2252 5.91525 14.8883C6.61031 15.5704 7.40231 16.3077 8.27888 17.1205C10.5641 19.2445 13.4062 21.8872 16.5 25.4204C19.5938 21.8872 22.4359 19.2445 24.7211 17.1205C25.5977 16.3077 26.3918 15.5684 27.0847 14.8883C29.7949 12.2252 30.9375 10.479 30.9375 8.00579C30.9375 4.75037 28.2068 2.04229 24.75 2.04229C23.1474 2.04229 21.8254 2.74688 20.7199 3.78233C19.5958 4.83411 18.8018 6.13505 18.3439 7.03978L16.5 10.6934ZM17.3085 27.6281C17.2092 27.7446 17.0854 27.8383 16.9457 27.9025C16.8061 27.9667 16.654 28 16.5 28C16.346 28 16.1939 27.9667 16.0543 27.9025C15.9146 27.8383 15.7908 27.7446 15.6915 27.6281C12.3894 23.7437 9.40088 20.9662 6.94031 18.6808C2.68125 14.7208 0 12.2313 0 8.00579C0 3.58422 3.69187 0 8.25 0C11.55 0 13.8579 2.14441 15.2708 4.10092C15.807 4.84636 16.2154 5.5632 16.5 6.12688C16.8568 5.42141 17.2678 4.7441 17.7292 4.10092C19.1421 2.14236 21.45 0 24.75 0C29.3081 0 33 3.58422 33 8.00579C33 12.2313 30.3188 14.7208 26.0597 18.6808C23.5991 20.9682 20.6106 23.7478 17.3085 27.6281Z" fill="#828282"/>
</svg>
