<svg width="20" height="13" viewBox="0 0 20 13" fill="none" xmlns="http://www.w3.org/2000/svg">
<path d="M17.8381 3.65854C17.7775 3.12066 17.5275 2.70399 17.0881 2.40854C16.6487 2.10929 16.0956 1.95967 15.429 1.95967C14.9517 1.95967 14.5388 2.03543 14.1903 2.18694C13.8419 2.33467 13.571 2.53922 13.3778 2.80058C13.1884 3.05816 13.0938 3.35172 13.0938 3.68126C13.0938 3.95778 13.1581 4.19641 13.2869 4.39717C13.4195 4.59793 13.5919 4.76649 13.804 4.90285C14.0199 5.03543 14.2509 5.14717 14.4972 5.23808C14.7434 5.3252 14.9801 5.39717 15.2074 5.45399L16.3438 5.74945C16.715 5.84035 17.0956 5.96346 17.4858 6.11876C17.8759 6.27407 18.2377 6.47861 18.571 6.7324C18.9044 6.98619 19.1733 7.30058 19.3778 7.67558C19.5862 8.05058 19.6903 8.49945 19.6903 9.02217C19.6903 9.68126 19.5199 10.2665 19.179 10.7779C18.8419 11.2892 18.3513 11.6926 17.7074 11.9881C17.0672 12.2835 16.2926 12.4313 15.3835 12.4313C14.5123 12.4313 13.7585 12.293 13.1222 12.0165C12.4858 11.74 11.9877 11.3479 11.6278 10.8404C11.268 10.329 11.0691 9.72293 11.0312 9.02217H12.7926C12.8267 9.44263 12.9631 9.79301 13.2017 10.0733C13.4441 10.3498 13.7528 10.5563 14.1278 10.6926C14.5066 10.8252 14.9214 10.8915 15.3722 10.8915C15.8684 10.8915 16.3097 10.8138 16.696 10.6585C17.0862 10.4994 17.393 10.2797 17.6165 9.99945C17.84 9.71535 17.9517 9.38391 17.9517 9.00513C17.9517 8.66043 17.8532 8.37823 17.6562 8.15854C17.4631 7.93884 17.1998 7.75702 16.8665 7.61308C16.5369 7.46914 16.1638 7.34225 15.7472 7.2324L14.3722 6.8574C13.4403 6.60361 12.7017 6.23051 12.1562 5.73808C11.6146 5.24566 11.3438 4.59414 11.3438 3.78354C11.3438 3.11308 11.5256 2.52785 11.8892 2.02785C12.2528 1.52785 12.7453 1.1396 13.3665 0.863082C13.9877 0.582779 14.6884 0.442627 15.4688 0.442627C16.2566 0.442627 16.9517 0.580885 17.554 0.8574C18.16 1.13392 18.6373 1.5146 18.9858 1.99944C19.3343 2.48051 19.5161 3.03354 19.5312 3.65854H17.8381Z" fill="black"/>
<path d="M2.05682 0.601807L4.84091 5.15294H4.93182L7.71591 0.601807H9.75L6.125 6.41999L9.77273 12.2382H7.72727L4.93182 7.74953H4.84091L2.04545 12.2382H0L3.71023 6.41999L0.0227273 0.601807H2.05682Z" fill="black"/>
</svg>
